<svg width="63" height="70" fill="none" xmlns="http://www.w3.org/2000/svg"><path fill-rule="evenodd" clip-rule="evenodd" d="M31.033 48.091c0 .632-.51 1.145-1.141 1.145H19.619a1.147 1.147 0 0 1-.791-1.97l8.89-8.588c.647-.717 1.033-1.728 1.033-2.796 0-2.179-1.658-3.823-3.852-3.823-2.746 0-4.138 1.54-4.138 4.58a1.142 1.142 0 0 1-2.283 0c0-4.302 2.4-6.87 6.42-6.87 3.44 0 6.135 2.686 6.135 6.113a6.518 6.518 0 0 1-1.676 4.39l-6.907 6.674h7.442c.631 0 1.14.512 1.14 1.145zM32.06 69.85c-17.056 0-30.932-13.872-30.932-30.92 0-17.05 13.876-30.92 30.932-30.92.364 0 .72.046 1.083.059l-6.236-4.882a1.147 1.147 0 0 1-.197-1.608 1.137 1.137 0 0 1 1.601-.198l9.016 7.058a1.15 1.15 0 0 1 .095 1.723l-7.988 7.827a1.134 1.134 0 0 1-1.614-.018 1.147 1.147 0 0 1 .02-1.62l6.071-5.95c-.617-.039-1.227-.1-1.85-.1-15.799 0-28.65 12.842-28.65 28.627 0 15.787 12.851 28.629 28.65 28.629 15.796 0 28.647-12.842 28.647-28.629 0-9.553-5.001-19.137-12.74-24.415a1.149 1.149 0 0 1-.302-1.592 1.14 1.14 0 0 1 1.585-.302c8.346 5.691 13.74 16.02 13.74 26.31 0 17.048-13.876 30.92-30.93 30.92zm11.528-20.614c-.631 0-1.14-.513-1.14-1.145v-3.436h-7.99a1.145 1.145 0 0 1-.923-1.818l9.13-12.597c.29-.403.807-.566 1.276-.417.47.155.788.595.788 1.09v17.178c0 .632-.51 1.145-1.141 1.145zm-1.14-14.8l-5.75 7.929h5.75v-7.93z" fill="#FF3836"/></svg>