<svg width="71" height="66" fill="none" xmlns="http://www.w3.org/2000/svg"><path fill-rule="evenodd" clip-rule="evenodd" d="M70.88 28.67l-7.128 16.843a1.48 1.48 0 0 1-1.36.907 1.44 1.44 0 0 1-.56-.111l-9.746-4.045-2.854 4.916c-.01.018-.031.024-.043.042a1.47 1.47 0 0 1-.475.47c-.035.02-.068.034-.105.052a1.452 1.452 0 0 1-.653.175v-.002c-.002 0-.002.002-.002.002s-.001-.002-.003-.002a1.42 1.42 0 0 1-.48-.084l-4.26-1.497c-1.295 2.297-3.558 3.966-6.232 4.424v7.442c0 .215-.049.418-.13.604-.624 4.003-4.026 7.083-8.153 7.083-.016 0-.03-.01-.047-.01a2.077 2.077 0 0 1-.631.121H1.308C.49 66 0 65.219 0 64.39c0-.826.491-1.394 1.307-1.394h26.71c.041 0 .085.008.127.01.17-.07.356-.112.552-.112 2.937 0 5.324-2.42 5.324-5.392V50.76c-4.187-.718-7.396-4.39-7.396-8.832 0-.386.067-.754.113-1.127L1.011 32.116c-.01-.005-.018-.014-.029-.017-.013-.004-.026-.003-.04-.007-.084-.033-.144-.096-.22-.143-.082-.053-.173-.093-.244-.16-.07-.064-.114-.145-.17-.222-.056-.08-.121-.15-.163-.238-.04-.086-.052-.18-.074-.272-.024-.093-.058-.183-.064-.281-.004-.098.023-.194.036-.293.013-.087.004-.174.033-.261.004-.014.013-.021.017-.033.005-.012.002-.024.006-.036L11.306.95c.034-.088.098-.153.145-.231.052-.084.092-.177.158-.248.066-.072.15-.116.227-.173.077-.057.147-.123.233-.163.08-.038.167-.045.253-.068.1-.025.193-.063.297-.068.088-.004.177.026.266.038.096.014.193.008.288.042l50.919 17.97c.046.017.079.053.122.074.046.02.096.022.14.048.047.027.072.072.113.104a1.422 1.422 0 0 1 .506.679 1.492 1.492 0 0 1 .048.852c-.012.05-.003.1-.02.15-.02.06-.059.104-.085.16-.017.034-.017.072-.036.105l-2.2 3.79 7.339 2.658c.386.14.694.432.857.812.164.379.165.81.005 1.188zM35.5 47.92c3.263 0 5.916-2.689 5.916-5.991 0-3.305-2.653-5.992-5.916-5.992-3.262 0-5.917 2.687-5.917 5.992 0 3.302 2.655 5.99 5.917 5.99zM3.42 29.773l24.172 8.16c1.459-2.946 4.438-4.99 7.908-4.99 4.894 0 8.875 4.03 8.875 8.985a8.93 8.93 0 0 1-.144 1.596l3.064 1.078 14.121-24.324-47.87-16.895L3.42 29.773zm57.734-3.132l-7.555 13.013 8.007 3.323 5.936-14.024-6.388-2.312z" fill="#FF3836"/></svg>