<svg width="51" height="70" fill="none" xmlns="http://www.w3.org/2000/svg"><path fill-rule="evenodd" clip-rule="evenodd" d="M26.325 69.715a1.153 1.153 0 0 1-1.511.003C23.804 68.843.054 48.032.012 25.955c-.014-6.918 2.623-13.428 7.422-18.33C12.24 2.72 18.63.011 25.436 0c14.07 0 25.496 11.598 25.522 25.855.042 22.079-23.625 42.98-24.633 43.86zm-.837-67.383c-6.23.012-12.04 2.473-16.404 6.931-4.37 4.46-6.77 10.387-6.757 16.687.036 18.872 19.159 37.546 23.237 41.312 4.065-3.785 23.116-22.544 23.078-41.403C48.618 12.887 38.23 2.332 25.488 2.332zm-2.103 33.326a1.155 1.155 0 0 1-.955.508c-.282 0-.557-.104-.769-.294L11.24 26.536a1.171 1.171 0 0 1-.096-1.646 1.151 1.151 0 0 1 1.634-.097l9.44 8.454 12.732-18.74a1.154 1.154 0 0 1 1.61-.305c.527.364.662 1.09.301 1.622L23.385 35.658z" fill="#FF3836"/></svg>