<svg width="24" height="24" fill="none" xmlns="http://www.w3.org/2000/svg"><path fill-rule="evenodd" clip-rule="evenodd" d="M22.777 16.629a1 1 0 1 1-1.554-1.259c.486-.6.777-1.86.777-3.37 0-5.514-4.486-10-10-10S2 6.486 2 12s4.486 10 10 10a9.958 9.958 0 0 0 5.383-1.572c.064-.037.507-.294.563-.707.048-.359-.201-.846-.678-1.385l-.097.109a1.24 1.24 0 0 1-.071.074c-.21.21-.62.48-1.283.48-1.875 0-4.786-2.247-6.708-4.171-2.664-2.663-5.208-6.34-3.609-7.942l1.835-1.635a1 1 0 0 1 1.42.093l2.364 2.728c.265.305.32.74.139 1.101l-.768 1.537 2.798 2.8 1.537-.769a.995.995 0 0 1 1.1.136l2.728 2.352a1.002 1.002 0 0 1 .098 1.418l-.159.181c1.026 1.087 1.487 2.164 1.33 3.202-.21 1.389-1.399 2.053-1.533 2.125C16.533 23.347 14.298 24 12 24 5.383 24 0 18.617 0 12S5.383 0 12 0s12 5.383 12 12c0 1.423-.212 3.381-1.223 4.629z" fill="#EE0503"/></svg>