<svg width="70" height="70" fill="none" xmlns="http://www.w3.org/2000/svg"><path fill-rule="evenodd" clip-rule="evenodd" d="M68.063 33.078L33.093 68.99a3.414 3.414 0 0 1-2.432 1.009 3.404 3.404 0 0 1-2.42-.998L1 41.754a3.404 3.404 0 0 1-1-2.42c0-.917.356-1.776 1-2.42L36.933 1.925C38.023.832 40.032 0 41.595 0h24.983A3.426 3.426 0 0 1 70 3.422v24.984c0 1.533-.85 3.588-1.937 4.672zm-.396-29.656c0-.59-.5-1.089-1.089-1.089H41.595c-.928 0-2.368.597-3.023 1.252L2.64 38.575a1.074 1.074 0 0 0-.306.76c0 .29.114.565.317.768L29.89 67.35c.408.407 1.134.408 1.545-.002L66.402 31.44c.667-.666 1.265-2.108 1.265-3.033V3.422zm-10.5 15.243a5.839 5.839 0 0 1-5.833-5.832A5.84 5.84 0 0 1 57.167 7 5.84 5.84 0 0 1 63 12.833a5.839 5.839 0 0 1-5.833 5.832zm0-9.332a3.503 3.503 0 0 0-3.5 3.5c0 1.93 1.57 3.5 3.5 3.5s3.5-1.57 3.5-3.5-1.57-3.5-3.5-3.5z" fill="#FF3836"/><path fill-rule="evenodd" clip-rule="evenodd" d="M22.468 39.61a.58.58 0 0 1-.188-.445.654.654 0 0 1 .208-.445l12.929-12.93c.145-.144.3-.22.465-.227a.58.58 0 0 1 .446.188l5.009 5.01c1.491 1.49 2.303 3.022 2.435 4.593.132 1.57-.488 3.042-1.861 4.415-1.373 1.373-2.841 1.99-4.405 1.851s-3.092-.954-4.584-2.445l-3.564-3.564-4.989 4.99a.626.626 0 0 1-.455.197.626.626 0 0 1-.456-.198l-.99-.99zm11.959-2.138c1.993 1.993 3.854 2.125 5.583.396.845-.845 1.244-1.739 1.198-2.683-.046-.943-.57-1.917-1.574-2.92L36.17 28.8l-5.207 5.207 3.465 3.465z" fill="#FF3836"/><path fill-rule="evenodd" clip-rule="evenodd" d="M22.973 35.477a.655.655 0 0 1-.208-.446.58.58 0 0 1 .188-.445l.713-.713a.626.626 0 0 1 .456-.198c.171 0 .323.066.455.198l7.722 7.722a.626.626 0 0 1 .198.455.626.626 0 0 1-.198.455l-.713.713a.58.58 0 0 1-.446.188.654.654 0 0 1-.445-.208l-7.722-7.721z" fill="#FF3836"/></svg>