<svg id="Layer_1" xmlns="http://www.w3.org/2000/svg" viewBox="0 0 72.3 79.6"><style>.st0{clip-path:url(#SVGID_2_)}.st1{fill:none;stroke:#f2f2f2;stroke-width:3;stroke-miterlimit:10}.st2{fill:#f2f2f2}.st3{fill:#fff}.st4{fill:#497cc2}.st5{fill:#1a3a66}.st6{fill:#d2e9f7}.st7{stroke:#231f20;stroke-width:.55;stroke-miterlimit:10}.st8{fill:#fefeff}.st9{fill:#497cc2;stroke:#497cc2;stroke-miterlimit:10}.st10{fill:#9ecfef}.st11{fill:none;stroke:#000;stroke-width:2;stroke-linecap:round;stroke-linejoin:round;stroke-miterlimit:10}</style><path class="st9" d="M61.7 35l.6 8.3c0 .6-.6 1-1.1.8l-15.5-7.5c-.5-.2-.5-.9-.1-1.2l7.1-4.8c3.7-2.5 8.7-.1 9 4.4z" id="XMLID_39_"/><g id="XMLID_147_"><path id="XMLID_1808_" class="st5" d="M61.5 45.5c-.3 0-.6-.1-.9-.2l-15.5-7.5c-.7-.3-1.1-1-1.1-1.7-.1-.7.3-1.4.9-1.8l7.1-4.8c2.1-1.5 4.8-1.6 7.1-.5s3.8 3.3 4 5.9l.6 8.3c.1.8-.3 1.5-.9 1.9-.4.3-.9.4-1.3.4zm-14.1-9.6l13.5 6.5-.5-7.3c-.1-1.6-1-2.9-2.5-3.6-1.4-.7-3.1-.6-4.4.3l-6.1 4.1z"/></g><path class="st9" d="M9.3 35l-.6 8.3c0 .6.6 1 1.1.8l15.5-7.5c.5-.2.5-.9.1-1.2l-7.1-4.8c-3.7-2.5-8.7-.1-9 4.4z" id="XMLID_170_"/><g id="XMLID_169_"><path id="XMLID_1805_" class="st5" d="M9.5 45.5c-.4 0-.9-.1-1.2-.4-.6-.4-1-1.2-.9-1.9l.6-8.3c.2-2.6 1.7-4.8 4-5.9 2.3-1.1 5-.9 7.1.5l7.1 4.8c.6.4.9 1.1.9 1.8-.1.7-.5 1.4-1.1 1.7l-15.5 7.5c-.4.1-.7.2-1 .2zM15.1 31c-.7 0-1.3.1-1.9.4-1.4.7-2.4 2-2.5 3.6l-.5 7.3 13.5-6.5-6.1-4.1c-.8-.5-1.7-.7-2.5-.7z"/></g><circle class="st4" cx="55.7" cy="23.5" r="1.1" id="XMLID_212_"/><circle class="st4" cx="18.7" cy="24.7" r="1.1" id="XMLID_38_"/><circle class="st4" cx="70.7" cy="20.7" r="1.5" id="XMLID_208_"/><circle class="st4" cx="17.2" cy="10.3" r="1.5" id="XMLID_172_"/><circle class="st4" cx="58.8" cy="7.2" r="2" id="XMLID_206_"/><circle class="st4" cx="2" cy="24.7" r="2" id="XMLID_171_"/><ellipse transform="rotate(-1.146 36.11 14.266)" class="st6" cx="36.1" cy="14.3" rx="12.9" ry="12.9" id="XMLID_203_"/><g id="XMLID_202_"><path id="XMLID_1804_" class="st5" d="M36.1 28.5c-7.7 0-14.1-6.2-14.3-14C21.7 6.7 28 .2 35.8 0c2.7-.1 5.3.7 7.6 2L42 4.4c-1.9-1.1-4-1.7-6.2-1.6-6.3.1-11.4 5.4-11.3 11.7.1 6.3 5.4 11.4 11.7 11.3 3.1-.1 5.9-1.3 8.1-3.5 2.1-2.2 3.3-5.1 3.2-8.2 0-1.2-.2-2.4-.6-3.5l2.6-.9c.5 1.4.7 2.9.8 4.4.1 3.8-1.3 7.4-4 10.2-2.6 2.7-6.2 4.3-10 4.4 0-.2-.1-.2-.2-.2z"/></g><g id="XMLID_201_"><path id="XMLID_1803_" class="st5" d="M46.1 8.5c-.5-.8-1-1.5-1.6-2.2l2-1.9c.8.8 1.5 1.7 2 2.7l-2.4 1.4z"/></g><g id="XMLID_198_"><g id="XMLID_200_"><path id="XMLID_1802_" class="st5" d="M37.5 20.5h-6.6v-2.7h6.6c.6 0 1.1-.5 1.1-1.1 0-.6-.5-1.1-1.1-1.1h-2.6c-2.1 0-3.8-1.7-3.8-3.8 0-2.1 1.7-3.8 3.8-3.8h6.4v2.7h-6.4c-.6 0-1.1.5-1.1 1.1 0 .6.5 1.1 1.1 1.1h2.6c2.1 0 3.8 1.7 3.8 3.8 0 2.1-1.7 3.8-3.8 3.8z"/></g><g id="XMLID_199_"><path id="XMLID_1801_" class="st5" d="M34.7 5.3h2.7v17.8h-2.7z"/></g></g><path class="st9" d="M31 78.2h-7.5l-.8-11.1H31z" id="XMLID_632_"/><path class="st9" d="M41.5 78.2H49l.8-11.1h-8.3z" id="XMLID_606_"/><g id="XMLID_575_"><path id="XMLID_1798_" class="st5" d="M32.4 79.6H22.2l-1-13.8h11.2v13.8zm-7.6-2.8h4.9v-8.4h-5.5l.6 8.4z"/></g><g id="XMLID_524_"><path id="XMLID_1795_" class="st5" d="M50.3 79.6H40.1V65.7h11.2l-1 13.9zm-7.5-2.8h4.9l.6-8.4h-5.5v8.4z"/></g><ellipse class="st3" cx="36.3" cy="52.6" rx="23.1" ry="21" id="XMLID_168_"/><circle class="st6" cx="36.1" cy="57.3" r="6.8" id="XMLID_146_"/><g id="XMLID_167_"><path id="XMLID_1792_" class="st5" d="M36.3 75c-13.5 0-24.5-10-24.5-22.4 0-12.4 11-22.4 24.5-22.4s24.5 10 24.5 22.4c0 12.3-11 22.4-24.5 22.4zm0-42.1c-12 0-21.7 8.8-21.7 19.7s9.7 19.7 21.7 19.7S58 63.5 58 52.6s-9.7-19.7-21.7-19.7z"/></g><g id="XMLID_166_"><path id="XMLID_1791_" class="st5" d="M36.1 70.1c-2.9 0-5.7-1.1-7.8-3.2l1.9-1.9c1.6 1.6 3.6 2.4 5.8 2.4 2.2 0 4.3-.9 5.8-2.4l1.9 1.9c-1.9 2.1-4.7 3.2-7.6 3.2z"/></g><g id="XMLID_151_"><path id="XMLID_1788_" class="st5" d="M36.1 65.4c-4.5 0-8.2-3.7-8.2-8.2s3.7-8.2 8.2-8.2c4.5 0 8.2 3.7 8.2 8.2s-3.7 8.2-8.2 8.2zm0-13.5c-3 0-5.4 2.4-5.4 5.4 0 3 2.4 5.4 5.4 5.4s5.4-2.4 5.4-5.4c0-3-2.4-5.4-5.4-5.4z"/></g><g id="XMLID_37_"><g id="XMLID_150_"><path id="XMLID_1787_" class="st5" d="M33.3 47.8h-2.7c0-1-.8-1.8-1.8-1.8s-1.8.8-1.8 1.8h-2.7c0-2.5 2.1-4.6 4.6-4.6s4.4 2.1 4.4 4.6z"/></g><g id="XMLID_149_"><path id="XMLID_1786_" class="st5" d="M48.1 47.8h-2.7c0-1-.8-1.8-1.8-1.8s-1.8.8-1.8 1.8h-2.7c0-2.5 2.1-4.6 4.6-4.6 2.4 0 4.4 2.1 4.4 4.6z"/></g></g><g id="XMLID_36_"><path id="XMLID_1785_" class="st5" d="M32.5 56.2h2.1v2.7h-2.1z"/></g><g id="XMLID_152_"><path id="XMLID_1784_" class="st5" d="M38 56.2h2.1v2.7H38z"/></g></svg>