<svg id="Layer_1" xmlns="http://www.w3.org/2000/svg" viewBox="0 0 64.2 69"><style>.st0{clip-path:url(#SVGID_2_)}.st1{fill:none;stroke:#f2f2f2;stroke-width:3;stroke-miterlimit:10}.st2{fill:#f2f2f2}.st3{fill:#fff}.st4{fill:#497cc2}.st5{fill:#1a3a66}.st6{fill:#d2e9f7}.st7{stroke:#231f20;stroke-width:.55;stroke-miterlimit:10}.st8{fill:#fefeff}.st9{fill:#497cc2;stroke:#497cc2;stroke-miterlimit:10}.st10{fill:#9ecfef}.st11{fill:none;stroke:#000;stroke-width:2;stroke-linecap:round;stroke-linejoin:round;stroke-miterlimit:10}</style><g id="XMLID_266_"><circle id="XMLID_68_" class="st4" cx="55.9" cy="17.4" r="1"/></g><g id="XMLID_278_"><circle id="XMLID_67_" class="st4" cx="34.3" cy="8.1" r="1"/></g><g id="XMLID_275_"><circle id="XMLID_66_" class="st4" cx="52.3" cy="8.4" r="1.3"/></g><g id="XMLID_279_"><circle id="XMLID_78_" class="st4" cx="27.9" cy="1.3" r="1.3"/></g><g id="XMLID_276_"><circle id="XMLID_65_" class="st4" cx="62.4" cy="8.5" r="1.8"/></g><g id="XMLID_277_"><circle id="XMLID_64_" class="st4" cx="12.2" cy="5.7" r="1.8"/></g><g id="XMLID_257_"><g id="XMLID_271_"><path id="XMLID_2186_" class="st6" d="M1.2 60.3h33.1v7.5H1.2z"/></g><path class="st6" d="M34.2 60.3h-33c4.1-5.5 6.4-12.2 6.4-19.1V29.6h20.3v11.6c-.1 6.9 2.2 13.6 6.3 19.1z" id="XMLID_270_"/><g id="XMLID_269_"><path id="XMLID_63_" class="st4" d="M4.4 60.3h4.3v7.5H4.4z"/></g><g id="XMLID_268_"><path id="XMLID_94_" class="st4" d="M12.9 29.6h-2.1v11.6c0 6.9-2.2 13.6-6.4 19.1h4.3c4.1-5.5 4.3-12.2 4.3-19.1V29.6z"/></g><g id="XMLID_272_"><path id="XMLID_1906_" class="st5" d="M11.5 69H0v-9.8h25.7v2.3H2.3v5.2h9.2z"/></g><g id="XMLID_261_"><path id="XMLID_1905_" class="st5" d="M14.9 66.7h6.4V69h-6.4z"/></g><g id="XMLID_259_"><path id="XMLID_1904_" class="st5" d="M33.4 60.9c-4.3-5.7-6.6-12.7-6.6-19.8V30.7h-18v10.5c0 7.1-2.4 14.1-6.6 19.8L.3 59.6c4-5.3 6.2-11.8 6.2-18.4V28.3h22.6v12.8c0 6.6 2.2 13.1 6.2 18.4l-1.9 1.4z"/></g><g id="XMLID_273_"><path id="XMLID_95_" class="st6" d="M28 14.8v3.9h-7.3v-3.9c0-.4-.3-.7-.7-.7h-4.3c-.4 0-.7.3-.7.7v3.9H7.8v-3.9c0-.4-.3-.7-.7-.7H4.3c-.4 0-.7.3-.7.7v16.4h28.6V14.8c0-.4-.3-.7-.7-.7h-2.9c-.3.1-.6.4-.6.7z"/></g><g id="XMLID_267_"><path id="XMLID_1903_" class="st5" d="M25.8 32.4H2.5V14.8c0-1 .8-1.8 1.8-1.8h2.9c1 0 1.8.8 1.8 1.8v2.7h4.9v-2.7c0-1 .8-1.8 1.8-1.8H20c1 0 1.8.8 1.8 1.8v2.7h4.9v-2.7c0-1 .8-1.8 1.8-1.8h2.9v2.3H29v4.6h-9.6v-4.6H16v4.6H6.7v-4.6H4.8v14.8h21v2.3z"/></g></g><g id="XMLID_428_"><path id="XMLID_96_" class="st3" d="M52.7 55.6l2.9-3.3-11.6-21c7.1-1.4 9.7 2.7 10 3.1h.1l3.7-3.3v-3L47.1 15h-4.2l1.3-5.1h-.1l-9.3 6c-5.1 7-7.8 15.4-7.8 24V52l3.8 4.5H52l.7-.9z"/></g><g id="XMLID_258_"><g id="XMLID_460_"><path id="XMLID_98_" class="st6" d="M32.1 39.9c0-8.6 2.7-17 7.8-24l3.3-2.1 1-3.9h-.1l-9.3 6c-5.1 7-7.8 15.4-7.8 24V52l3.8 4.5h5.1L32.1 52V39.9z"/></g></g><path class="st3" d="M56.3 67.8h-30l4.4-10.9h21.1z" id="XMLID_429_"/><g id="XMLID_370_"><path id="XMLID_97_" class="st6" d="M30.7 56.9l-4.4 10.9H32l4.5-10.9z"/></g><g id="XMLID_274_"><path id="XMLID_1902_" class="st5" d="M52.4 57.6H30.2l-4.4-5.2V39.9c0-8.9 2.8-17.5 8-24.7l.2-.2 10.2-6.6 1.3.9-.1.8-.9 3.7h3.2l3.5 4.3-1.8 1.5-2.8-3.4h-5.1l1-3.8-6.8 4.4c-4.9 6.8-7.5 14.8-7.5 23.2v11.7l3.1 3.7h20.1l.5-.5 2.3-2.7-12-21.7 1.6-.3c5.8-1.1 9 1.1 10.4 2.6l2.4-2.1v-2.1L54.5 26l1.8-1.5 2.6 3.2v4l-4.5 4-1.2-.2-.2-.5c-.2-.3-2-3.1-7.1-2.8L57 52.4l-4.6 5.2z"/></g><g id="XMLID_263_"><path id="XMLID_1901_" transform="rotate(-39.104 52.474 21.594)" class="st5" d="M51.3 20.2h2.3v2.9h-2.3z"/></g><g id="XMLID_260_"><path id="XMLID_1898_" class="st5" d="M55.8 69H26.7c-.5 0-1-.2-1.2-.7-.3-.4-.3-.9-.1-1.4L30 55.8h22.6L57.2 67c.2.5.1 1-.1 1.4-.3.4-.8.6-1.3.6zM28 66.7h26.6L51 58.1H31.5L28 66.7z"/></g><g id="XMLID_254_"><path id="XMLID_1897_" class="st5" d="M27.1 45.6h4.6v2.3h-4.6z"/></g><g id="XMLID_253_"><path id="XMLID_1896_" class="st5" d="M27.1 41.6h4.6v2.3h-4.6z"/></g><g id="XMLID_458_"><path id="XMLID_1895_" class="st5" d="M27.1 37.6h4.6v2.3h-4.6z"/></g><g id="XMLID_463_"><path id="XMLID_1894_" class="st5" d="M27.3 33.6h4.4v2.3h-4.4z"/></g><g id="XMLID_464_"><path id="XMLID_1893_" transform="rotate(-85.412 29.998 31.22)" class="st5" d="M28.8 29.1h2.3v4.2h-2.3z"/></g><g id="XMLID_252_"><path id="XMLID_1892_" transform="rotate(-77.444 30.761 27.755)" class="st5" d="M29.6 25.9h2.3v3.6h-2.3z"/></g><g id="XMLID_251_"><path id="XMLID_1891_" transform="rotate(-72.969 31.745 24.683)" class="st5" d="M30.6 22.9h2.3v3.7h-2.3z"/></g><g id="XMLID_62_"><path id="XMLID_1890_" transform="rotate(-65.077 33.493 21.14)" class="st5" d="M32.3 19.6h2.3v3.2h-2.3z"/></g><g id="XMLID_264_"><path id="XMLID_1889_" class="st5" d="M26.9 55.3h29v2.3h-29z"/></g><g id="XMLID_255_"><path id="XMLID_1888_" class="st5" d="M22.8 66.7h37.4V69H22.8z"/></g></svg>