<svg id="Layer_1" xmlns="http://www.w3.org/2000/svg" viewBox="0 0 71.2 66.6"><style>.st0{clip-path:url(#SVGID_2_)}.st1{fill:none;stroke:#f2f2f2;stroke-width:3;stroke-miterlimit:10}.st2{fill:#f2f2f2}.st3{fill:#fff}.st4{fill:#497cc2}.st5{fill:#1a3a66}.st6{fill:#d2e9f7}.st7{stroke:#231f20;stroke-width:.55;stroke-miterlimit:10}.st8{fill:#fefeff}.st9{fill:#497cc2;stroke:#497cc2;stroke-miterlimit:10}.st10{fill:#9ecfef}.st11{fill:none;stroke:#000;stroke-width:2;stroke-linecap:round;stroke-linejoin:round;stroke-miterlimit:10}</style><path class="st4" d="M64.3 23.1H10.9c-.8 0-1.4.6-1.4 1.4v40.8h53.4c1.6 0 2.9-1.3 2.9-2.9V24.6c0-.8-.7-1.5-1.5-1.5z" id="XMLID_53_"/><g id="XMLID_355_"><path id="XMLID_1317_" class="st5" d="M61.4 66.6H8.2V25.3c0-1.9 1.5-3.5 3.5-3.5h33.2v2.5H11.7c-.5 0-.9.4-.9.9V64h50.6c1.7 0 3.1-1.4 3.1-3.1V25.4c0-.6-.5-1-1-1H60v-2.5h3.5c2 0 3.6 1.6 3.6 3.6V61c0 3.1-2.6 5.6-5.7 5.6z"/></g><circle class="st4" cx="12" cy="1.8" r="1.8" id="XMLID_52_"/><circle class="st4" cx="59.7" cy="1.8" r="1" id="XMLID_350_"/><circle class="st4" cx="68.6" cy="6.3" r="1.3" id="XMLID_51_"/><circle class="st4" cx="12" cy="17.8" r="1.4" id="XMLID_50_"/><circle class="st4" cx="2.6" cy="8.9" r="2.6" id="XMLID_175_"/><g id="XMLID_368_"><path class="st3" d="M45.6 7.3l11.2 11.2v39.2c0 1.8-1.4 3.2-3.2 3.2H20.1c-1.8 0-3.2-1.4-3.2-3.2V10.5c0-1.8 1.4-3.2 3.2-3.2h25.5z" id="XMLID_49_"/><path class="st4" d="M45.6 18.5V7.3l11.2 11.2z" id="XMLID_48_"/><g id="XMLID_47_"><path id="XMLID_1316_" class="st5" d="M56.8 19.8H46.7c-1.3 0-2.4-1.1-2.4-2.4V7.3h2.5v9.9h9.9v2.6z"/></g><g id="XMLID_46_"><path id="XMLID_1315_" class="st5" d="M53.6 62.2H20.1v-2.5h33.5c1.1 0 1.9-.9 1.9-1.9V19L45.1 8.6h-25c-1.1 0-1.9.9-1.9 1.9v15.1h-2.5V10.5c0-2.5 2-4.5 4.5-4.5h26l12 12v39.7c-.1 2.4-2.1 4.5-4.6 4.5z"/></g></g><g id="XMLID_43_"><path class="st6" d="M52.2 4l11.2 11.2v39.2c0 1.8-1.4 3.2-3.2 3.2H26.7c-1.8 0-3.2-1.4-3.2-3.2V7.2c0-1.8 1.4-3.2 3.2-3.2h25.5z" id="XMLID_367_"/><path class="st4" d="M52.2 15.2V4l11.2 11.2z" id="XMLID_366_"/><g id="XMLID_365_"><path id="XMLID_1314_" class="st5" d="M63.4 16.5H53.3c-1.3 0-2.4-1.1-2.4-2.4V4h2.5v10h9.9v2.5z"/></g><g id="XMLID_364_"><path id="XMLID_1313_" class="st5" d="M29.4 19.4h28.5v2.5H29.4z"/></g><g id="XMLID_363_"><path id="XMLID_1312_" class="st5" d="M29.4 25.8h28.5v2.5H29.4z"/></g><g id="XMLID_362_"><path id="XMLID_1311_" class="st5" d="M29.4 32.2h28.5v2.5H29.4z"/></g><g id="XMLID_361_"><path id="XMLID_1310_" class="st5" d="M29.4 38.5h28.5V41H29.4z"/></g><g id="XMLID_44_"><path id="XMLID_45_" class="st5" d="M60.2 58.9h-1.5v-2.5h1.5c1.1 0 1.9-.9 1.9-1.9V15.8L51.6 5.3h-25c-1.1 0-1.9.9-1.9 1.9v22.6h-2.5V7.2c0-2.5 2-4.5 4.5-4.5h26l12 12v39.7c-.1 2.5-2.1 4.5-4.5 4.5z"/></g></g><path class="st3" d="M58.7 8.9l11.2 11.2v39.2c0 1.8-1.4 3.2-3.2 3.2H33.2c-1.8 0-3.2-1.4-3.2-3.2V12.1c0-1.8 1.4-3.2 3.2-3.2h25.5z" id="XMLID_852_"/><path class="st4" d="M58.7 20.1V8.9l11.2 11.2z" id="XMLID_878_"/><g id="XMLID_853_"><path id="XMLID_1308_" class="st5" d="M69.9 21.4H59.8c-1.3 0-2.4-1.1-2.4-2.4V8.9H60v9.9h9.9v2.6z"/></g><g id="XMLID_923_"><path id="XMLID_1307_" class="st5" d="M36 24.3h28.5v2.5H36z"/></g><g id="XMLID_856_"><path id="XMLID_1306_" class="st5" d="M36 30.7h28.5v2.5H36z"/></g><g id="XMLID_924_"><path id="XMLID_1305_" class="st5" d="M36 37.1h28.5v2.5H36z"/></g><g id="XMLID_925_"><path id="XMLID_1304_" class="st5" d="M36 43.4h28.5v2.5H36z"/></g><g id="XMLID_377_"><path id="XMLID_1303_" class="st5" d="M66.7 63.8H61v-2.5h5.7c1.1 0 1.9-.9 1.9-1.9V20.7L58.2 10.2h-25c-1.1 0-1.9.9-1.9 1.9v17.7h-2.5V12.1c0-2.5 2-4.5 4.5-4.5h26l12 12v39.7c-.1 2.5-2.1 4.5-4.6 4.5z"/></g><path class="st3" d="M61.3 65.4H7.5c-1.3 0-2.3-1-2.3-2.3V29.7c0-1.1.9-1.9 1.9-1.9h9.2c.7 0 1.3.3 1.6.9l2.4 3.8h34.2c1.2 0 2.2 1 2.2 2.2v26.2c.1 2 1.6 4.5 4.6 4.5z" id="XMLID_173_"/><path class="st10" d="M56.8 60.8V57H5.2v6c0 1.3 1 2.3 2.3 2.3h53.7c-2.9.1-4.4-2.4-4.4-4.5z" id="XMLID_41_"/><g id="XMLID_40_"><path id="XMLID_1300_" class="st5" d="M61.3 66.6H7.5c-2 0-3.6-1.6-3.6-3.6V29.7c0-1.8 1.4-3.2 3.2-3.2h9.2c1.1 0 2.1.6 2.7 1.5l2 3.2h33.5c1.9 0 3.5 1.6 3.5 3.5v26.2c0 1.3.9 3.2 3.2 3.2v2.5zM7.2 29c-.4 0-.7.3-.7.7V63c0 .6.5 1.1 1.1 1.1h48.9c-.6-1-.9-2.1-.9-3.2V34.6c0-.5-.4-1-1-1H19.7L17 29.2c-.1-.2-.3-.3-.6-.3H7.2z"/></g></svg>