<svg id="Layer_1" xmlns="http://www.w3.org/2000/svg" viewBox="0 0 117.8 99.5"><style>.st0{clip-path:url(#SVGID_2_)}.st1{fill:none;stroke:#f2f2f2;stroke-width:3;stroke-miterlimit:10}.st2{fill:#f2f2f2}.st3{fill:#fff}.st4{fill:#497cc2}.st5{fill:#1a3a66}.st6{fill:#d2e9f7}.st7{stroke:#231f20;stroke-width:.55;stroke-miterlimit:10}.st8{fill:#fefeff}.st9{fill:#497cc2;stroke:#497cc2;stroke-miterlimit:10}.st10{fill:#9ecfef}.st11{fill:none;stroke:#000;stroke-width:2;stroke-linecap:round;stroke-linejoin:round;stroke-miterlimit:10}</style><path class="st6" d="M73.8 72.9H5.5c-1.7 0-3-1.3-3-3V26.7c0-1.7 1.3-3 3-3h68.3c1.7 0 3 1.3 3 3v43.2c0 1.7-1.4 3-3 3z"/><path class="st5" d="M73.8 75.4H5.5c-3 0-5.5-2.5-5.5-5.5V26.7c0-3 2.5-5.5 5.5-5.5h68.3c3 0 5.5 2.5 5.5 5.5v43.2c0 3.1-2.5 5.5-5.5 5.5zM5.5 26.2c-.3 0-.5.2-.5.5v43.2c0 .3.2.5.5.5h68.3c.3 0 .5-.2.5-.5V26.7c0-.3-.2-.5-.5-.5H5.5z"/><path class="st3" d="M107.1 46.9c-.4-1.3-1.9-2.3-3.3-2.3H83.2V77c6.1 0 11 4.9 11 11h19.4V66.2l-6.5-19.3z"/><path class="st4" d="M90.6 63.8h17.9c.7 0 1.8.2 2.4.4l2.9.9-6.6-18.2s-.7-3.3-6.3-2.3H88.1v16.8c0 1.3 1.1 2.4 2.5 2.4z"/><circle class="st3" cx="37.4" cy="89.7" r="7.7"/><path id="XMLID_186_" class="st5" d="M37.4 99.5c-5.4 0-9.8-4.4-9.8-9.8s4.4-9.8 9.8-9.8 9.8 4.4 9.8 9.8-4.4 9.8-9.8 9.8zm0-15.4c-3.1 0-5.5 2.5-5.5 5.5 0 3.1 2.5 5.5 5.5 5.5s5.5-2.5 5.5-5.5-2.5-5.5-5.5-5.5z"/><circle class="st4" cx="37.4" cy="89.7" r="3"/><circle class="st3" cx="81.7" cy="89.7" r="7.7"/><path id="XMLID_183_" class="st5" d="M81.7 99.5c-5.4 0-9.8-4.4-9.8-9.8s4.4-9.8 9.8-9.8 9.8 4.4 9.8 9.8-4.4 9.8-9.8 9.8zm0-15.4c-3.1 0-5.5 2.5-5.5 5.5 0 3.1 2.5 5.5 5.5 5.5s5.5-2.5 5.5-5.5-2.5-5.5-5.5-5.5z"/><circle class="st4" cx="81.7" cy="89.7" r="3"/><circle class="st3" cx="17.1" cy="89.7" r="7.7"/><path id="XMLID_180_" class="st5" d="M17.1 99.5c-5.4 0-9.8-4.4-9.8-9.8s4.4-9.8 9.8-9.8 9.8 4.4 9.8 9.8-4.4 9.8-9.8 9.8zm0-15.4c-3.1 0-5.5 2.5-5.5 5.5 0 3.1 2.5 5.5 5.5 5.5s5.5-2.5 5.5-5.5-2.4-5.5-5.5-5.5z"/><circle class="st4" cx="17.1" cy="89.7" r="3"/><path id="XMLID_179_" class="st5" d="M49.3 81.2h27.3v4.3H49.3z"/><path id="XMLID_178_" class="st5" d="M51.6 88.7h-4.3v-2c0-4-3.2-7.2-7.2-7.2H14.4c-4 0-7.2 3.2-7.2 7.2H2.9c0-6.3 5.2-11.5 11.5-11.5h25.8c6.3 0 11.5 5.2 11.5 11.5v2z"/><path class="st3" d="M9.7 35.9h59.9v22.6H9.7z"/><path id="XMLID_176_" transform="rotate(-49.803 94.34 36.892)" class="st5" d="M92.2 25.6h4.3v22.7h-4.3z"/><path id="XMLID_174_" class="st5" d="M89.2 34.8h4.3v7.9h-4.3z"/><path id="XMLID_160_" class="st5" d="M115.8 90.1H92.1V88c0-4.9-4-8.8-8.8-8.8h-2.1V42.4H104c2.3 0 4.6 1.6 5.3 3.8l6.6 20v23.9zm-19.6-4.3h15.3V66.6l-6.4-19c-.1-.4-.8-.9-1.2-.9H85.4V75c5.5.9 9.9 5.3 10.8 10.8z"/><path class="st4" d="M115.7 87.8c0 .5-.4.9-.9.9h-8.7c-.5 0-.9-.4-.9-.9v-5c0-.5.4-.9.9-.9h8.7c.5 0 .9.4.9.9v5z"/><path id="XMLID_143_" class="st5" d="M114.8 90.8h-8.7c-1.7 0-3.1-1.4-3.1-3.1v-5c0-1.7 1.4-3.1 3.1-3.1h8.7c1.7 0 3.1 1.4 3.1 3.1v5c-.1 1.7-1.4 3.1-3.1 3.1zm-7.5-4.3h6.3V84h-6.3v2.5z"/><circle class="st4" cx="10.2" cy="12.5" r="1.8"/><circle class="st4" cx="95.3" cy="21.8" r="2.2"/><circle class="st4" cx="109.4" cy="16.7" r="3.5"/><circle class="st4" cx="34" cy="4" r="4"/></svg>