<svg id="Layer_1" xmlns="http://www.w3.org/2000/svg" viewBox="0 0 126.4 116.5"><style>.st0{clip-path:url(#SVGID_2_)}.st1{fill:none;stroke:#f2f2f2;stroke-width:3;stroke-miterlimit:10}.st2{fill:#f2f2f2}.st3{fill:#fff}.st4{fill:#497cc2}.st5{fill:#1a3a66}.st6{fill:#d2e9f7}.st7{stroke:#231f20;stroke-width:.55;stroke-miterlimit:10}.st8{fill:#fefeff}.st9{fill:#497cc2;stroke:#497cc2;stroke-miterlimit:10}.st10{fill:#9ecfef}.st11{fill:none;stroke:#000;stroke-width:2;stroke-linecap:round;stroke-linejoin:round;stroke-miterlimit:10}</style><path class="st3" d="M115.7 63.9c-.4-1.3-1.9-2.3-3.3-2.3H91.8V94c6.1 0 11 4.9 11 11h19.4V83.2l-6.5-19.3z"/><path class="st4" d="M99.1 80.8H117c.7 0 1.8.2 2.4.4l2.9.9-6.6-18.2s-.7-3.3-6.3-2.3H96.7v16.8c0 1.3 1.1 2.4 2.4 2.4z"/><circle class="st3" cx="46" cy="106.7" r="7.7"/><path id="XMLID_1706_" class="st5" d="M46 116.5c-5.4 0-9.8-4.4-9.8-9.8s4.4-9.8 9.8-9.8 9.8 4.4 9.8 9.8-4.4 9.8-9.8 9.8zm0-15.4c-3.1 0-5.5 2.5-5.5 5.5 0 3.1 2.5 5.5 5.5 5.5s5.5-2.5 5.5-5.5-2.5-5.5-5.5-5.5z"/><circle class="st4" cx="46" cy="106.7" r="3"/><circle class="st3" cx="90.2" cy="106.7" r="7.7"/><path id="XMLID_1703_" class="st5" d="M90.2 116.5c-5.4 0-9.8-4.4-9.8-9.8s4.4-9.8 9.8-9.8 9.8 4.4 9.8 9.8-4.4 9.8-9.8 9.8zm0-15.4c-3.1 0-5.5 2.5-5.5 5.5 0 3.1 2.5 5.5 5.5 5.5s5.5-2.5 5.5-5.5c.1-3-2.4-5.5-5.5-5.5z"/><circle class="st4" cx="90.2" cy="106.7" r="3"/><circle class="st3" cx="25.7" cy="106.7" r="7.7"/><path id="XMLID_1700_" class="st5" d="M25.7 116.5c-5.4 0-9.8-4.4-9.8-9.8s4.4-9.8 9.8-9.8 9.8 4.4 9.8 9.8-4.4 9.8-9.8 9.8zm0-15.4c-3.1 0-5.5 2.5-5.5 5.5 0 3.1 2.5 5.5 5.5 5.5s5.5-2.5 5.5-5.5-2.5-5.5-5.5-5.5z"/><circle class="st4" cx="25.7" cy="106.7" r="3"/><path id="XMLID_1699_" class="st5" d="M57.9 98.2h27.3v4.3H57.9z"/><path id="XMLID_1698_" class="st5" d="M60.2 105.7h-4.3v-2c0-4-3.2-7.2-7.2-7.2H22.9c-4 0-7.2 3.2-7.2 7.2h-4.3c0-6.3 5.2-11.5 11.5-11.5h25.8c6.3 0 11.5 5.2 11.5 11.5v2z"/><path class="st6" d="M82.3 89.9H14.1c-1.7 0-3-1.3-3-3V43.7c0-1.7 1.3-3 3-3h68.3c1.7 0 3 1.3 3 3v43.2c-.1 1.7-1.4 3-3.1 3z"/><path id="XMLID_1697_" class="st5" d="M82.3 92.1H14.1C11.3 92.1 9 89.8 9 87V62.8h4.3V87c0 .5.4.9.9.9h68.3c.5 0 .9-.4.9-.9V43.7c0-.5-.4-.9-.9-.9H62.8v-4.3h19.5c2.8 0 5.1 2.3 5.1 5.1v43.2c.1 3-2.2 5.3-5.1 5.3z"/><path class="st3" d="M18.2 52.9h59.9v22.6H18.2z"/><path id="XMLID_1696_" transform="rotate(-49.803 102.905 53.892)" class="st5" d="M100.8 42.6h4.3v22.7h-4.3z"/><path id="XMLID_1695_" class="st5" d="M97.8 51.8h4.3v7.9h-4.3z"/><path id="XMLID_1692_" class="st5" d="M124.3 107.1h-23.7V105c0-4.9-4-8.8-8.8-8.8h-2.1V59.4h22.8c2.3 0 4.6 1.6 5.3 3.8l6.6 20v23.9zm-19.6-4.3H120V83.6l-6.4-19c-.1-.4-.8-.9-1.2-.9H93.9V92c5.6.9 9.9 5.3 10.8 10.8z"/><path class="st4" d="M124.3 104.8c0 .5-.4.9-.9.9h-8.7c-.5 0-.9-.4-.9-.9v-5c0-.5.4-.9.9-.9h8.7c.5 0 .9.4.9.9v5z"/><path id="XMLID_1689_" class="st5" d="M123.3 107.8h-8.7c-1.7 0-3.1-1.4-3.1-3.1v-5c0-1.7 1.4-3.1 3.1-3.1h8.7c1.7 0 3.1 1.4 3.1 3.1v5c0 1.7-1.4 3.1-3.1 3.1zm-7.4-4.3h6.3V101h-6.3v2.5z"/><path id="XMLID_1688_" class="st5" d="M54 57.6h19.9v4.3H54z"/><path id="XMLID_1687_" class="st5" d="M22.6 66.2h51.3v4.3H22.6z"/><circle class="st4" cx="69.8" cy="29.5" r="1.8"/><circle class="st4" cx="87.8" cy="21.8" r="2.2"/><circle class="st4" cx="107" cy="27.7" r="3.5"/><circle class="st4" cx="78.5" cy="4" r="4"/><circle class="st3" cx="30.5" cy="34.4" r="28.4" id="XMLID_520_"/><g id="XMLID_414_"><path id="XMLID_1686_" class="st5" d="M30.5 64.9C13.7 64.9 0 51.2 0 34.4 0 17.5 13.7 3.8 30.5 3.8c2.8 0 5.6.4 8.3 1.1L37.6 9c-2.3-.7-4.7-1-7.2-1-14.3.1-26.1 11.9-26.1 26.4 0 14.5 11.8 26.3 26.3 26.3s26.3-11.8 26.3-26.3c0-7.1-2.8-13.8-7.9-18.8l3-3.1c5.9 5.8 9.2 13.6 9.2 21.9-.1 16.8-13.8 30.5-30.7 30.5z"/></g><g id="XMLID_373_"><path id="XMLID_1685_" class="st5" d="M46.6 13.6c-1.9-1.4-3.9-2.6-6-3.5l1.6-4c2.5 1 4.9 2.4 7 4.1l-2.6 3.4z"/></g><circle class="st4" cx="30.5" cy="34.4" r="14.8" id="XMLID_519_"/><g id="XMLID_518_"><path id="XMLID_1682_" class="st5" d="M30.5 37.9c-1.9 0-3.5-1.6-3.5-3.5s1.6-3.5 3.5-3.5 3.5 1.6 3.5 3.5c.1 1.9-1.5 3.5-3.5 3.5zm0-4.3c-.4 0-.7.3-.7.7 0 .8 1.5.8 1.5 0 0-.3-.4-.7-.8-.7z"/></g><g id="XMLID_419_"><path id="XMLID_1681_" class="st5" d="M28.4 8.4h4.3v4.9h-4.3z"/></g><g id="XMLID_418_"><path id="XMLID_1680_" transform="rotate(-59.932 42.301 14.033)" class="st5" d="M39.8 11.9h4.9v4.3h-4.9z"/></g><g id="XMLID_417_"><path id="XMLID_1679_" transform="rotate(-29.9 50.905 22.66)" class="st5" d="M48.4 20.5h4.9v4.3h-4.9z"/></g><g id="XMLID_416_"><path id="XMLID_1678_" transform="rotate(-89.838 54.024 34.435)" class="st5" d="M51.9 32h4.3v4.9h-4.3z"/></g><g id="XMLID_415_"><path id="XMLID_1677_" transform="rotate(-59.786 50.83 46.194)" class="st5" d="M48.7 43.7H53v4.9h-4.3z"/></g><g id="XMLID_375_"><path id="XMLID_1676_" transform="rotate(-29.623 42.185 54.787)" class="st5" d="M40 52.3h4.3v4.9H40z"/></g><g id="XMLID_376_"><path id="XMLID_1675_" transform="rotate(-89.48 30.4 57.892) scale(1.00004)" class="st5" d="M27.9 55.8h4.9v4.3h-4.9z"/></g><g id="XMLID_407_"><path id="XMLID_1674_" transform="rotate(-59.33 18.644 54.654)" class="st5" d="M16.2 52.5h4.9v4.3h-4.9z"/></g><g id="XMLID_408_"><path id="XMLID_1673_" transform="rotate(-29.241 10.105 45.95)" class="st5" d="M7.6 43.8h4.9v4.3H7.6z"/></g><g id="XMLID_413_"><path id="XMLID_1672_" transform="rotate(-89.45 7.048 34.144)" class="st5" d="M4.9 31.7h4.3v4.9H4.9z"/></g><g id="XMLID_412_"><path id="XMLID_1671_" transform="rotate(-59.409 10.315 22.409)" class="st5" d="M8.2 19.9h4.3v4.9H8.2z"/></g><g id="XMLID_411_"><path id="XMLID_1670_" transform="rotate(-29.346 19.022 13.888)" class="st5" d="M16.9 11.4h4.3v4.9h-4.3z"/></g><path class="st5" d="M28.4 34.4l.9-17.4h2.5l.9 17.4z" id="XMLID_641_"/><path class="st5" d="M30.5 32.3l15.4.5v2.5l-15.3 1.3z" id="XMLID_374_"/></svg>