<svg id="Layer_1" xmlns="http://www.w3.org/2000/svg" viewBox="0 0 93.2 92.7"><style>.st0{clip-path:url(#SVGID_2_)}.st1{fill:none;stroke:#f2f2f2;stroke-width:3;stroke-miterlimit:10}.st2{fill:#f2f2f2}.st3{fill:#fff}.st4{fill:#497cc2}.st5{fill:#1a3a66}.st6{fill:#d2e9f7}.st7{stroke:#231f20;stroke-width:.55;stroke-miterlimit:10}.st8{fill:#fefeff}.st9{fill:#497cc2;stroke:#497cc2;stroke-miterlimit:10}.st10{fill:#9ecfef}.st11{fill:none;stroke:#000;stroke-width:2;stroke-linecap:round;stroke-linejoin:round;stroke-miterlimit:10}</style><circle class="st4" cx="1.6" cy="24" r="1.6" id="XMLID_831_"/><circle class="st4" cx="41.2" cy="2.4" r="2.4" id="XMLID_615_"/><circle class="st4" cx="76.8" cy="3.7" r="1.3" id="XMLID_616_"/><circle class="st4" cx="21.4" cy="3.7" r="1.3" id="XMLID_162_"/><circle class="st4" cx="3.1" cy="6.1" r="2.2" id="XMLID_613_"/><circle class="st4" cx="90" cy="19.4" r="3.2" id="XMLID_614_"/><path class="st6" d="M73.7 9.6H11.4c-1.6 0-2.8 1.3-2.8 2.8V76c0 1 .8 1.7 1.7 1.7h63.4V9.6z" id="XMLID_608_"/><g id="XMLID_610_"><path id="XMLID_2001_" class="st5" d="M73.7 79.4H12.4C9.4 79.4 7 77 7 74V15.8C7 11.5 10.4 8 14.7 8H35v3.2H14.7c-2.5 0-4.5 2-4.5 4.5v58.2c0 1.2 1 2.2 2.2 2.2h61.4v3.3z"/></g><path class="st3" d="M75 9.6H14.7c3.9 0 6.2 3.2 6.2 6.2L20.8 83c0 2.1 1.7 3.8 3.8 3.8h59.9c-3.2 0-5.9-2.8-5.9-5.9V13.2c0-2-1.6-3.6-3.6-3.6z" id="XMLID_605_"/><g id="XMLID_161_"><path id="XMLID_2000_" class="st5" d="M42.1 88.5H24.6c-1.5 0-2.8-.6-3.8-1.6s-1.6-2.4-1.6-3.8l.1-67.2c0-2.2-1.6-4.5-4.5-4.5V8h36v3.2H21.1c.9 1.3 1.4 3 1.4 4.5L22.4 83c0 .6.2 1.1.6 1.5.4.4 1 .6 1.5.6H42v3.4z"/></g><g id="XMLID_159_"><path id="XMLID_1999_" class="st5" d="M53.6 8h10.1v3.2H53.6z"/></g><g id="XMLID_148_"><path id="XMLID_1998_" class="st5" d="M84.5 88.5H59.2v-3.2h19.2c-.9-1.3-1.4-2.8-1.4-4.4V13.2c0-1.1-.9-2-2-2h-7.3V8H75c2.9 0 5.2 2.3 5.2 5.2v67.7c0 2.3 2 4.3 4.3 4.3v3.3z"/></g><g id="XMLID_164_"><path id="XMLID_1997_" class="st5" d="M29.7 25.8h39.7V29H29.7z"/></g><g id="XMLID_153_"><path id="XMLID_1996_" class="st5" d="M29.7 32.1h39.7v3.2H29.7z"/></g><g id="XMLID_154_"><path id="XMLID_1995_" class="st5" d="M29.7 38.3h39.7v3.2H29.7z"/></g><g id="XMLID_155_"><path id="XMLID_1994_" class="st5" d="M29.7 44.5h39.7v3.2H29.7z"/></g><g id="XMLID_156_"><path id="XMLID_1993_" class="st5" d="M29.7 50.8h39.7V54H29.7z"/></g><g id="XMLID_158_"><path class="st4" d="M50.7 75.6H46v14.7l4.7-1.9 4.7 1.9V75.6z" id="XMLID_539_"/><g id="XMLID_157_"><path id="XMLID_1990_" class="st5" d="M44.4 92.7V74H57v18.6L50.7 90l-6.3 2.7zm6.3-6.1l3.1 1.2V77.3h-6.1v10.6l3-1.3z"/></g><g id="XMLID_503_"><path id="XMLID_1758_" class="st3" d="M62.5 71.2c0 1.5-1.4 2.7-1.9 4.1-.6 1.4-.5 3.2-1.5 4.3-1 1-2.9.9-4.3 1.5-1.3.5-2.5 1.9-4.1 1.9s-2.7-1.4-4.1-2c-1.4-.6-3.2-.5-4.3-1.5-1-1-.9-2.9-1.5-4.3-.5-1.3-1.9-2.5-1.9-4.1s1.4-2.7 1.9-4.1c.6-1.4.5-3.2 1.5-4.3 1-1 2.9-.9 4.3-1.5 1.3-.5 2.5-1.9 4.1-1.9 1.5 0 2.7 1.4 4.1 1.9 1.4.6 3.2.5 4.3 1.5 1 1 .9 2.9 1.5 4.3.5 1.5 1.9 2.7 1.9 4.2z"/><path id="XMLID_1986_" class="st5" d="M50.7 84.6c-1.5 0-2.6-.8-3.5-1.4-.4-.3-.8-.5-1.1-.7-.4-.2-.8-.3-1.4-.4-1.1-.2-2.4-.5-3.4-1.5s-1.3-2.3-1.5-3.4c-.1-.5-.2-1-.4-1.4-.1-.3-.4-.7-.7-1.1-.6-.9-1.4-2.1-1.4-3.5 0-1.5.8-2.6 1.4-3.5.3-.4.5-.8.7-1.1.2-.4.3-.8.4-1.4.2-1.1.5-2.4 1.5-3.4s2.3-1.3 3.4-1.5c.5-.1 1-.2 1.4-.4.3-.1.7-.4 1.1-.7.9-.6 2.1-1.4 3.5-1.4 1.5 0 2.6.8 3.5 1.4.4.3.8.5 1.1.7.4.2.8.3 1.4.4 1.1.2 2.4.5 3.4 1.5s1.3 2.3 1.5 3.4c.1.5.2 1 .4 1.4.1.3.4.7.7 1.1.6.9 1.4 2.1 1.4 3.5 0 1.5-.8 2.6-1.4 3.5-.3.4-.5.8-.7 1.1-.2.4-.3.8-.4 1.4-.2 1.1-.5 2.4-1.5 3.4s-2.3 1.3-3.4 1.5c-.5.1-1 .2-1.4.4-.3.1-.7.4-1.1.7-.9.6-2 1.4-3.5 1.4zm0-23.5c-.5 0-1.1.4-1.7.8-.5.4-1.1.7-1.7 1-.7.3-1.3.4-2 .5-.7.1-1.5.3-1.8.6-.3.3-.5 1.1-.6 1.8-.1.6-.3 1.3-.5 1.9-.3.6-.6 1.2-1 1.7-.4.7-.8 1.3-.8 1.7 0 .5.4 1.1.8 1.7.4.5.7 1.1 1 1.7.3.7.4 1.3.5 1.9.1.7.3 1.5.6 1.8.3.3 1.1.5 1.8.6.6.1 1.3.3 1.9.5.6.3 1.2.6 1.7 1 .7.4 1.3.8 1.7.8.5 0 1.1-.4 1.7-.8.5-.4 1.1-.7 1.7-1 .7-.3 1.3-.4 2-.5.7-.1 1.5-.3 1.8-.6.3-.3.5-1.1.6-1.8.1-.6.3-1.3.5-1.9.3-.6.6-1.2 1-1.7.4-.7.8-1.3.8-1.7 0-.5-.4-1.1-.8-1.7-.4-.5-.7-1.1-1-1.7-.3-.7-.4-1.3-.5-2-.2-.7-.3-1.5-.6-1.8-.3-.3-1.1-.5-1.8-.6-.6-.1-1.3-.3-1.9-.5-.6-.3-1.2-.6-1.7-1-.6-.3-1.2-.7-1.7-.7z"/></g><g id="XMLID_496_"><path id="XMLID_1983_" class="st5" d="M50.7 84.6c-1.5 0-2.6-.8-3.5-1.4-.4-.3-.8-.5-1.1-.7-.4-.2-.8-.3-1.4-.4-1.1-.2-2.4-.5-3.4-1.5s-1.3-2.3-1.5-3.4c-.1-.5-.2-1-.4-1.4-.1-.3-.4-.7-.7-1.1-.6-.9-1.4-2.1-1.4-3.5 0-1.5.8-2.6 1.4-3.5.3-.4.5-.8.7-1.1.2-.4.3-.8.4-1.4.2-1.1.5-2.4 1.5-3.4s2.3-1.3 3.4-1.5c.5-.1 1-.2 1.4-.4.3-.1.7-.4 1.1-.7.9-.6 2.1-1.4 3.5-1.4 1.5 0 2.6.8 3.5 1.4.4.3.8.5 1.1.7.4.2.8.3 1.4.4 1.1.2 2.4.5 3.4 1.5s1.3 2.3 1.5 3.4c.1.5.2 1 .4 1.4.1.3.4.7.7 1.1.6.9 1.4 2.1 1.4 3.5 0 1.5-.8 2.6-1.4 3.5-.3.4-.5.8-.7 1.1-.2.4-.3.8-.4 1.4-.2 1.1-.5 2.4-1.5 3.4s-2.3 1.3-3.4 1.5c-.5.1-1 .2-1.4.4-.3.1-.7.4-1.1.7-.9.6-2 1.4-3.5 1.4zm0-23.5c-.5 0-1.1.4-1.7.8-.5.4-1.1.7-1.7 1-.7.3-1.3.4-2 .5-.7.1-1.5.3-1.8.6-.3.3-.5 1.1-.6 1.8-.1.6-.3 1.3-.5 1.9-.3.6-.6 1.2-1 1.7-.4.7-.8 1.3-.8 1.7 0 .5.4 1.1.8 1.7.4.5.7 1.1 1 1.7.3.7.4 1.3.5 1.9.1.7.3 1.5.6 1.8.3.3 1.1.5 1.8.6.6.1 1.3.3 1.9.5.6.3 1.2.6 1.7 1 .7.4 1.3.8 1.7.8.5 0 1.1-.4 1.7-.8.5-.4 1.1-.7 1.7-1 .7-.3 1.3-.4 2-.5.7-.1 1.5-.3 1.8-.6.3-.3.5-1.1.6-1.8.1-.6.3-1.3.5-1.9.3-.6.6-1.2 1-1.7.4-.7.8-1.3.8-1.7 0-.5-.4-1.1-.8-1.7-.4-.5-.7-1.1-1-1.7-.3-.7-.4-1.3-.5-2-.2-.7-.3-1.5-.6-1.8-.3-.3-1.1-.5-1.8-.6-.6-.1-1.3-.3-1.9-.5-.6-.3-1.2-.6-1.7-1-.6-.3-1.2-.7-1.7-.7z"/></g></g></svg>