<svg id="Layer_1" xmlns="http://www.w3.org/2000/svg" viewBox="0 0 86.7 94.8"><style>.st0{clip-path:url(#SVGID_2_)}.st1{fill:none;stroke:#f2f2f2;stroke-width:3;stroke-miterlimit:10}.st2{fill:#f2f2f2}.st3{fill:#fff}.st4{fill:#497cc2}.st5{fill:#1a3a66}.st6{fill:#d2e9f7}.st7{stroke:#231f20;stroke-width:.55;stroke-miterlimit:10}.st8{fill:#fefeff}.st9{fill:#497cc2;stroke:#497cc2;stroke-miterlimit:10}.st10{fill:#9ecfef}.st11{fill:none;stroke:#000;stroke-width:2;stroke-linecap:round;stroke-linejoin:round;stroke-miterlimit:10}</style><circle class="st4" cx="20.2" cy="53.6" r="1.5" id="XMLID_600_"/><circle class="st4" cx="15.5" cy="67.1" r="1.8" id="XMLID_586_"/><circle class="st4" cx="74.9" cy="14.1" r="1.5" id="XMLID_599_"/><circle class="st4" cx="84.2" cy="22.3" r="1.8" id="XMLID_598_"/><circle class="st4" cx="84.2" cy="5.2" r="2.5" id="XMLID_597_"/><circle class="st4" cx="3.1" cy="58.1" r="3.1" id="XMLID_596_"/><path class="st4" d="M69.3 71h-21V26.2c0-6.6 3.8-12 8.4-12 4.6 0 8.4 5.4 8.4 12v39c0 2.7 1.3 5.8 4.2 5.8z" id="XMLID_579_"/><g id="XMLID_578_"><path id="XMLID_1582_" class="st5" d="M69.3 72.7H46.6V26.2c0-7.6 4.5-13.7 10.1-13.7s10.1 6.2 10.1 13.7v39c0 1.4.4 2.8 1.2 3.6.4.4.8.5 1.3.5v3.4zM50 69.3h14.3c-.6-1.2-.9-2.6-.9-4.1v-39c0-5.6-3.1-10.3-6.7-10.3S50 20.6 50 26.2v43.1z"/></g><path class="st4" d="M24.9 71h21V26.2c0-6.6-3.8-12-8.4-12-4.6 0-8.4 5.4-8.4 12v39c0 2.7-1.3 5.8-4.2 5.8z" id="XMLID_565_"/><g id="XMLID_563_"><path id="XMLID_1579_" class="st5" d="M47.6 72.7H24.9v-3.4c.5 0 .9-.2 1.3-.5.7-.7 1.2-2.1 1.2-3.6v-39c0-7.6 4.5-13.7 10.1-13.7s10.1 6.2 10.1 13.7v46.5zm-17.7-3.4h14.3V26.2c0-5.6-3.1-10.3-6.7-10.3s-6.7 4.7-6.7 10.3v39c0 1.5-.4 2.9-.9 4.1z"/></g><path class="st4" d="M65.5 36.2V25.6c0-9.1-7.4-16.5-16.5-16.5h-2.9c-9.1 0-16.5 7.4-16.5 16.5v10.6h35.9z" id="XMLID_577_"/><path id="XMLID_1_" class="st4" d="M65.5 36.2V25.6c0-9.1-7.4-16.5-16.5-16.5h-2.9c-9.1 0-16.5 7.4-16.5 16.5v10.6h35.9z"/><path id="XMLID_1575_" class="st5" d="M67.2 37.9H27.9V25.6c0-10 8.1-18.1 18.1-18.1h3c10 0 18.1 8.1 18.1 18.1v12.3zm-35.9-3.4h32.5v-8.9c0-8.1-6.6-14.8-14.8-14.8h-2.9c-8.1 0-14.8 6.6-14.8 14.8v8.9z"/><path class="st6" d="M69.2 94.8V83.3c0-11.7-9.6-21.3-21.3-21.3-11.7 0-21.3 9.6-21.3 21.3v11.5h42.6z" id="XMLID_574_"/><g id="XMLID_573_"><path id="XMLID_1574_" class="st5" d="M70.9 94.8h-3.4V83.3c0-10.8-8.8-19.6-19.6-19.6s-19.6 8.8-19.6 19.6v11.5h-3.4V83.3c0-12.7 10.3-23 23-23s23 10.3 23 23v11.5z"/></g><g id="XMLID_572_"><path id="XMLID_1573_" class="st5" d="M36 81.8h3.4v13H36z"/></g><g id="XMLID_571_"><path id="XMLID_1572_" class="st5" d="M57.7 81.8h3.4v13h-3.4z"/></g><path class="st3" d="M47.5 70.6c-2.6 0-4.6-2.1-4.6-4.6v-9.8c0-2.6 2.1-4.6 4.6-4.6 2.6 0 4.6 2.1 4.6 4.6V66c.1 2.6-2 4.6-4.6 4.6z" id="XMLID_570_"/><g id="XMLID_569_"><path id="XMLID_1569_" class="st5" d="M47.5 72.3c-3.5 0-6.3-2.8-6.3-6.3v-9.8c0-3.5 2.8-6.3 6.3-6.3s6.3 2.8 6.3 6.3V66c.1 3.5-2.8 6.3-6.3 6.3zm0-19c-1.6 0-2.9 1.3-2.9 2.9V66c0 1.6 1.3 2.9 2.9 2.9 1.6 0 2.9-1.3 2.9-2.9v-9.8c.1-1.6-1.3-2.9-2.9-2.9z"/></g><path class="st3" d="M65.4 31.4v11.7c0 9.8-8 17.9-17.9 17.9-9.8 0-17.9-8-17.9-17.9V31.4c8.8 0 15.8-7.5 17.7-9.8.3-.3.8-.3 1.1 0 2 2.2 9 9.8 17 9.8z" id="XMLID_568_"/><g id="XMLID_567_"><path id="XMLID_1566_" class="st5" d="M47.5 62.7c-10.8 0-19.6-8.8-19.6-19.6V29.7h1.7c8.1 0 14.6-7.1 16.4-9.2.5-.5 1.1-.9 1.8-.9s1.4.3 1.8.9c1.8 2.2 8.4 9.2 15.7 9.2H67v13.4c.1 10.8-8.7 19.6-19.5 19.6zM31.3 33v10.1c0 8.9 7.3 16.2 16.2 16.2 8.9 0 16.2-7.3 16.2-16.2V32.9c-7.2-.8-13.2-6.6-15.8-9.5-2.6 2.9-8.7 8.8-16.6 9.6z"/></g><g id="XMLID_587_"><path id="XMLID_1565_" class="st5" d="M25.8 38.1h-3.4v-13C22.4 11.2 33.7 0 47.5 0c3.4 0 6.6.7 9.7 2l-1.3 3.1c-2.7-1.1-5.5-1.7-8.4-1.7-12 0-21.7 9.7-21.7 21.7v13z"/></g><g id="XMLID_588_"><path id="XMLID_1564_" class="st5" d="M64.7 11.9c-1.6-2.1-3.6-3.9-5.8-5.3l1.8-2.9c2.6 1.6 4.8 3.7 6.7 6.1l-2.7 2.1z"/></g><g id="XMLID_566_"><path id="XMLID_1563_" class="st5" d="M72.5 38.1h-3.4v-13c0-3.5-.9-7-2.5-10.1l3-1.6c1.9 3.6 2.9 7.6 2.9 11.7v13z"/></g><path class="st4" d="M26.7 43.5h-4.6c-1 0-1.8-.8-1.8-1.8v-9.4c0-1 .8-1.8 1.8-1.8h4.6v13z" id="XMLID_562_"/><g id="XMLID_564_"><path id="XMLID_1560_" class="st5" d="M28.4 45.2h-4c-3.2 0-5.9-2.6-5.9-5.9v-4.8c0-3.2 2.6-5.9 5.9-5.9h4v16.6zm-4-13.1c-1.4 0-2.5 1.1-2.5 2.5v4.8c0 1.4 1.1 2.5 2.5 2.5h.6v-9.7h-.6z"/></g><path class="st4" d="M67 43.5h4.6c1 0 1.8-.8 1.8-1.8v-9.4c0-1-.8-1.8-1.8-1.8H67v13z" id="XMLID_581_"/><g id="XMLID_580_"><path id="XMLID_1557_" class="st5" d="M69.3 45.2h-4V28.7h4c3.2 0 5.9 2.6 5.9 5.9v4.8c-.1 3.2-2.7 5.8-5.9 5.8zm-.6-3.4h.6c1.4 0 2.5-1.1 2.5-2.5v-4.8c0-1.4-1.1-2.5-2.5-2.5h-.6v9.8z"/></g><g id="XMLID_583_"><path id="XMLID_1556_" class="st5" d="M67.7 53.3H56.5v-3.4h9.8l1.3-1.4v-5H71v6.3z"/></g><path class="st6" d="M55.3 54.1H50c-1.3 0-2.3-1-2.3-2.3 0-1.3 1-2.3 2.3-2.3h5.3c1.3 0 2.3 1 2.3 2.3 0 1.3-1 2.3-2.3 2.3z" id="XMLID_584_"/><g id="XMLID_582_"><path id="XMLID_1553_" class="st5" d="M55.3 55.8H50c-2.2 0-4-1.8-4-4s1.8-4 4-4h5.3c2.2 0 4 1.8 4 4s-1.8 4-4 4zM50 51.2c-.3 0-.6.3-.6.6s.3.6.6.6h5.3c.3 0 .6-.3.6-.6s-.3-.6-.6-.6H50z"/></g></svg>