<svg id="Layer_1" xmlns="http://www.w3.org/2000/svg" viewBox="0 0 106.7 112.7"><style>.st0{clip-path:url(#SVGID_2_)}.st1{fill:none;stroke:#f2f2f2;stroke-width:3;stroke-miterlimit:10}.st2{fill:#f2f2f2}.st3{fill:#fff}.st4{fill:#497cc2}.st5{fill:#1a3a66}.st6{fill:#d2e9f7}.st7{stroke:#231f20;stroke-width:.55;stroke-miterlimit:10}.st8{fill:#fefeff}.st9{fill:#497cc2;stroke:#497cc2;stroke-miterlimit:10}.st10{fill:#9ecfef}.st11{fill:none;stroke:#000;stroke-width:2;stroke-linecap:round;stroke-linejoin:round;stroke-miterlimit:10}</style><circle class="st4" cx="44.7" cy="15.2" r="2.3" id="XMLID_34_"/><circle class="st4" cx="19.6" cy="4.4" r="4.4" id="XMLID_33_"/><circle class="st4" cx="6.8" cy="31.1" r="3.4" id="XMLID_32_"/><circle class="st4" cx="75.3" cy="6.2" r="2.9" id="XMLID_31_"/><path class="st3" d="M92.9 76.8l-34.3 34.3c-.4.4-1 .4-1.4 0L1.6 55.4c-.4-.4-.4-1 0-1.4l34.3-34.3c.4-.4 1-.4 1.4 0L93 75.4c.3.5.3 1.1-.1 1.4z" id="XMLID_30_"/><path transform="rotate(-45.001 38.005 74.701)" class="st4" d="M32.5 34.4h10.9v80.7H32.5z" id="XMLID_29_"/><path transform="rotate(-45.001 54.351 66.935)" class="st6" d="M51.6 39.7h5.6v54.4h-5.6z" id="XMLID_28_"/><g id="XMLID_26_"><path id="XMLID_27_" class="st5" d="M48 104.6L1.3 58C.5 57.1 0 56 0 54.7s.5-2.4 1.3-3.2l32-32c1.7-1.7 4.7-1.7 6.4 0l10.6 10.6-2.8 2.8L37 22.3c-.3-.3-.6-.3-.8 0l-32 32c-.2.2-.2.3-.2.4s0 .3.2.4l46.7 46.7-2.9 2.8z"/></g><path class="st6" d="M55.4 108.8V19c0-1.1.9-1.9 1.9-1.9h45.4c1.1 0 1.9.9 1.9 1.9v89.8c0 1.1-.9 1.9-1.9 1.9H57.3c-1.1 0-1.9-.8-1.9-1.9z" id="XMLID_24_"/><g id="XMLID_20_"><path id="XMLID_21_" class="st5" d="M99.6 112.7H60.5c-3.9 0-7.1-3.2-7.1-7.1V22.1c0-3.9 3.2-7.1 7.1-7.1h39.1c3.9 0 7.1 3.2 7.1 7.1v83.5c0 3.9-3.2 7.1-7.1 7.1zM60.5 19c-1.7 0-3.1 1.4-3.1 3.1v83.5c0 1.7 1.4 3.1 3.1 3.1h39.1c1.7 0 3.1-1.4 3.1-3.1V22.1c0-1.7-1.4-3.1-3.1-3.1H60.5z"/></g><ellipse transform="rotate(-88.857 80.258 64.046)" class="st3" cx="80.3" cy="64" rx="16.6" ry="16.6" id="XMLID_19_"/><g id="XMLID_15_"><path id="XMLID_16_" class="st5" d="M80.3 82.6h-.4c-5-.1-9.6-2.1-13-5.7-3.4-3.6-5.3-8.3-5.2-13.2.1-5 2.1-9.6 5.7-13 3.6-3.4 8.3-5.3 13.2-5.2 10.2.2 18.4 8.7 18.2 18.9-.2 10.1-8.5 18.2-18.5 18.2zm-.1-33.2c-3.8 0-7.4 1.4-10.1 4.1-2.8 2.7-4.4 6.3-4.5 10.3-.1 3.9 1.4 7.6 4.1 10.4C72.4 77 76 78.6 80 78.7c8.1.2 14.8-6.3 14.9-14.3.2-8.1-6.3-14.8-14.3-14.9-.2-.1-.3-.1-.4-.1z"/></g><ellipse transform="rotate(-88.858 80.726 89.946)" class="st3" cx="80.7" cy="89.9" rx="4.5" ry="4.5" id="XMLID_14_"/><ellipse transform="rotate(-88.858 80.727 37.143)" class="st3" cx="80.7" cy="37.1" rx="4.5" ry="4.5" id="XMLID_13_"/><g id="XMLID_8_"><g id="XMLID_11_"><path id="XMLID_12_" class="st5" d="M77.1 71c-2.8 0-5.1-2.3-5.1-5.1v-8.5h4v8.5c0 .6.5 1.2 1.2 1.2.6 0 1.2-.5 1.2-1.2v-3.4c0-2.8 2.3-5.1 5.1-5.1s5.1 2.3 5.1 5.1v8.2h-4v-8.2c0-.6-.5-1.2-1.2-1.2-.6 0-1.2.5-1.2 1.2v3.4c0 2.8-2.3 5.1-5.1 5.1z"/></g><g id="XMLID_9_"><path id="XMLID_10_" class="st5" d="M68.8 62.1h23v4h-23z"/></g></g><g id="XMLID_6_"><path id="XMLID_7_" class="st5" d="M65.3 41.6h-4v-8.4c0-1.5 1.1-2.6 2.6-2.8 3.4-.3 6-3 6.3-6.3.1-1.5 1.3-2.6 2.7-2.6h14.6c1.4 0 2.6 1.1 2.7 2.6.3 3.4 3 6.1 6.4 6.3 1.4.1 2.5 1.3 2.5 2.7v7.2h-4v-6.1c-4.5-.8-7.9-4.3-8.7-8.7H74c-.8 4.4-4.3 7.9-8.7 8.7v7.4z"/></g><g id="XMLID_4_"><path id="XMLID_5_" class="st5" d="M87.6 105.5H72.9c-1.4 0-2.6-1.1-2.7-2.6-.3-3.4-2.9-6-6.3-6.3-1.5-.1-2.6-1.3-2.6-2.8v-8.4h4v7.4c4.5.8 7.9 4.3 8.7 8.7h12.5c.8-4.5 4.3-7.9 8.7-8.7v-6.1h4v7.2c0 1.4-1.1 2.6-2.5 2.7-3.4.3-6.1 2.9-6.4 6.3-.1 1.5-1.3 2.6-2.7 2.6z"/></g></svg>