<svg id="Layer_1" xmlns="http://www.w3.org/2000/svg" viewBox="0 0 90.2 88.4"><style>.st0{clip-path:url(#SVGID_2_)}.st1{fill:none;stroke:#f2f2f2;stroke-width:3;stroke-miterlimit:10}.st2{fill:#f2f2f2}.st3{fill:#fff}.st4{fill:#497cc2}.st5{fill:#1a3a66}.st6{fill:#d2e9f7}.st7{stroke:#231f20;stroke-width:.55;stroke-miterlimit:10}.st8{fill:#fefeff}.st9{fill:#497cc2;stroke:#497cc2;stroke-miterlimit:10}.st10{fill:#9ecfef}.st11{fill:none;stroke:#000;stroke-width:2;stroke-linecap:round;stroke-linejoin:round;stroke-miterlimit:10}</style><circle class="st4" cx="80.9" cy="17.3" r="2.3" id="XMLID_802_"/><circle class="st4" cx="11.3" cy="6.7" r="2.9" id="XMLID_801_"/><circle class="st4" cx="37.9" cy="13.3" r="1.3" id="XMLID_800_"/><circle class="st4" cx="84.4" cy="2.3" r="1.5" id="XMLID_799_"/><circle class="st4" cx="54.3" cy="2.3" r="2.3" id="XMLID_797_"/><path class="st4" d="M67.3 86.8H5c-1.9 0-3.4-1.5-3.4-3.4V49.7h69.1v33.7c0 1.9-1.5 3.4-3.4 3.4z" id="XMLID_35_"/><path class="st3" d="M64.9 83.8H7.4c-1.7 0-3.2-1.3-3.2-3V51.1h63.9v29.7c0 1.6-1.4 3-3.2 3z" id="XMLID_734_"/><path class="st4" d="M70.9 49.7H1.8V23.8c0-1 .8-1.8 1.8-1.8h65.5c1 0 1.8.8 1.8 1.8v25.9z" id="XMLID_660_"/><g id="XMLID_25_"><path id="XMLID_1452_" class="st5" d="M67.3 88.4H5c-2.8 0-5-2.2-5-5V48.1h57.5v3.2H3.2v32.1c0 1 .8 1.8 1.8 1.8h62.3c1 0 1.8-.8 1.8-1.8V58h3.2v25.4c0 2.8-2.3 5-5 5z"/></g><g id="XMLID_753_"><path id="XMLID_1451_" class="st5" d="M72.5 36.5h-3.2v-11c0-1.1-.9-1.9-1.9-1.9H30.6v-3.2h36.8c2.8 0 5.1 2.3 5.1 5.1v11z"/></g><g id="XMLID_747_"><path id="XMLID_1450_" class="st5" d="M14.7 20.4h9.9v3.2h-9.9z"/></g><g id="XMLID_750_"><path id="XMLID_1449_" class="st5" d="M54.3 51.3H.2V25.5c0-2.8 2.3-5.1 5.1-5.1h4.5v3.2H5.3c-1.1 0-1.9.9-1.9 1.9v22.7h51v3.1z"/></g><g id="XMLID_726_"><path id="XMLID_1448_" class="st5" d="M8.8 57.3h8.1v3.2H8.8z"/></g><g id="XMLID_703_"><path id="XMLID_1447_" class="st5" d="M20.1 57.3h15.2v3.2H20.1z"/></g><g id="XMLID_727_"><path id="XMLID_1446_" class="st5" d="M8.8 62.8H43V66H8.8z"/></g><g id="XMLID_733_"><path id="XMLID_1445_" class="st5" d="M8.8 68.4h30.3v3.2H8.8z"/></g><g id="XMLID_730_"><path id="XMLID_1444_" class="st5" d="M8.8 74.2h12.5v3.2H8.8z"/></g><g id="XMLID_731_"><path id="XMLID_1443_" class="st5" d="M24.2 74.2h7.2v3.2h-7.2z"/></g><path class="st6" d="M47.3 74.6l-5.1.3.4-5.1 39.6-39.6 4.7 4.7z" id="XMLID_745_"/><g id="XMLID_735_"><path id="XMLID_1440_" class="st5" d="M40.5 76.6l.5-7.5.4-.4L82.2 28l7 7L48 76.1l-7.5.5zm3.6-6.1l-.2 2.7 2.7-.2 38.1-38.1-2.5-2.5-38.1 38.1z"/></g><g id="XMLID_741_"><path id="XMLID_1439_" transform="rotate(-45.001 87.14 29.976)" class="st5" d="M84.3 28.4h5.6v3.2h-5.6z"/></g><g id="XMLID_743_"><path id="XMLID_1438_" transform="rotate(-45.001 41.008 76.107)" class="st5" d="M38.2 74.5h5.6v3.2h-5.6z"/></g><g id="XMLID_742_"><path id="XMLID_1437_" transform="rotate(-45.012 61.622 55.486)" class="st5" d="M60 52h3.2v7H60z"/></g><g id="XMLID_736_"><path id="XMLID_1436_" transform="rotate(-44.988 48.489 68.619)" class="st5" d="M46.9 65.1h3.2v7h-3.2z"/></g><g id="XMLID_744_"><path id="XMLID_1435_" class="st5" d="M75.5 55.2l-2.3-2.3 11.9-11.8-2.2-2.2 2.3-2.2 4.4 4.4z"/></g></svg>