<svg id="Layer_1" xmlns="http://www.w3.org/2000/svg" viewBox="0 0 120.8 88.9"><style>.st0{clip-path:url(#SVGID_2_)}.st1{fill:none;stroke:#f2f2f2;stroke-width:3;stroke-miterlimit:10}.st2{fill:#f2f2f2}.st3{fill:#fff}.st4{fill:#497cc2}.st5{fill:#1a3a66}.st6{fill:#d2e9f7}.st7{stroke:#231f20;stroke-width:.55;stroke-miterlimit:10}.st8{fill:#fefeff}.st9{fill:#497cc2;stroke:#497cc2;stroke-miterlimit:10}.st10{fill:#9ecfef}.st11{fill:none;stroke:#000;stroke-width:2;stroke-linecap:round;stroke-linejoin:round;stroke-miterlimit:10}</style><path class="st3" d="M110.1 36.2c-.4-1.3-1.9-2.3-3.3-2.3H86.2v32.5c6.1 0 11 4.9 11 11h19.4V55.6l-6.5-19.4z"/><path class="st4" d="M93.5 53.2h17.9c.7 0 1.8.2 2.4.4l2.9.9-6.6-18.2s-.7-3.3-6.3-2.3H91v16.8c0 1.3 1.1 2.4 2.5 2.4z"/><circle class="st3" cx="40.3" cy="79" r="7.7"/><path id="XMLID_87_" class="st5" d="M40.3 88.9c-5.4 0-9.8-4.4-9.8-9.8s4.4-9.8 9.8-9.8 9.8 4.4 9.8 9.8-4.4 9.8-9.8 9.8zm0-15.4c-3.1 0-5.5 2.5-5.5 5.5 0 3.1 2.5 5.5 5.5 5.5s5.5-2.5 5.5-5.5-2.4-5.5-5.5-5.5z"/><circle class="st4" cx="40.3" cy="79" r="3"/><circle class="st3" cx="84.6" cy="79" r="7.7"/><path id="XMLID_84_" class="st5" d="M84.6 88.9c-5.4 0-9.8-4.4-9.8-9.8s4.4-9.8 9.8-9.8 9.8 4.4 9.8 9.8-4.4 9.8-9.8 9.8zm0-15.4c-3.1 0-5.5 2.5-5.5 5.5 0 3.1 2.5 5.5 5.5 5.5s5.5-2.5 5.5-5.5-2.5-5.5-5.5-5.5z"/><circle class="st4" cx="84.6" cy="79" r="3"/><circle class="st3" cx="20" cy="79" r="7.7"/><path id="XMLID_81_" class="st5" d="M20 88.9c-5.4 0-9.8-4.4-9.8-9.8s4.4-9.8 9.8-9.8 9.8 4.4 9.8 9.8-4.4 9.8-9.8 9.8zm0-15.4c-3.1 0-5.5 2.5-5.5 5.5 0 3.1 2.5 5.5 5.5 5.5s5.5-2.5 5.5-5.5c.1-3-2.4-5.5-5.5-5.5z"/><circle class="st4" cx="20" cy="79" r="3"/><path id="XMLID_80_" class="st5" d="M52.3 70.6h27.3v4.3H52.3z"/><path id="XMLID_79_" class="st5" d="M54.6 78.1h-4.3v-2c0-4-3.2-7.2-7.2-7.2H17.3c-4 0-7.2 3.2-7.2 7.2H5.8c0-6.3 5.2-11.5 11.5-11.5H43c6.3 0 11.5 5.2 11.5 11.5v2z"/><path id="XMLID_77_" transform="rotate(-49.803 97.266 26.28)" class="st5" d="M95.1 14.9h4.3v22.7h-4.3z"/><path id="XMLID_76_" class="st5" d="M92.1 24.2h4.3v7.9h-4.3z"/><path id="XMLID_73_" class="st5" d="M118.7 79.5H95v-2.1c0-4.9-4-8.8-8.8-8.8H84V31.8h22.8c2.3 0 4.6 1.6 5.3 3.8l6.6 20v23.9zm-19.6-4.3h15.3V56L108 37c-.1-.4-.8-.9-1.2-.9H88.3v28.3c5.5.9 9.9 5.3 10.8 10.8z"/><path class="st4" d="M118.6 77.1c0 .5-.4.9-.9.9H109c-.5 0-.9-.4-.9-.9v-5c0-.5.4-.9.9-.9h8.7c.5 0 .9.4.9.9v5z"/><path id="XMLID_70_" class="st5" d="M117.7 80.2H109c-1.7 0-3.1-1.4-3.1-3.1v-5c0-1.7 1.4-3.1 3.1-3.1h8.7c1.7 0 3.1 1.4 3.1 3.1v5c0 1.7-1.4 3.1-3.1 3.1zm-7.5-4.3h6.3v-2.5h-6.3v2.5z"/><circle class="st4" cx="91.2" cy="2.2" r="2.2"/><circle class="st4" cx="2.2" cy="15.2" r="2.2"/><circle class="st4" cx="110.4" cy="8.1" r="3.5"/><circle class="st4" cx="20.3" cy="15.2" r="4.4"/><circle class="st4" cx="77.4" cy="28.1" r="3.5"/><path class="st6" d="M71 42.3c-3.4-.6-6.7-1-10-1.8H15c-1.6 1.3-3.3 2.4-5.1 3.4h-.1v8.4l.9.3c1.4.4 2.9.9 4.2 1.6 2 1.1 3.7 3 4.7 5.2h6.7c.6-1.8 2.1-3.1 4.5-3.1.9 0 1.6.2 2.4.4.2-.2.4-.3.7-.5.4-.2.8-.3 1.2-.5 1.3-.4 2.7-.1 3.9.5l.9.6c.7-.1 1.4-.3 2.1-.4 4.5-.6 8.6-.9 13-.1 1.7.3 2.7 1.5 3.3 3h6.6c.6-.3 1.3-.6 1.9-.9l.3-.6c0-.1.1-.1.1-.2.6-1.2 1.8-1.9 3-2.3.8-.3 1.6-.2 2.4 0 .9-.3 1.7-.6 2.6-.8.8-1.2 1.6-2.4 2.5-3.6v-5.3c-2.2-1.3-3.7-2.7-6.7-3.3z"/><path class="st5" d="M79.1 52.3c.5-1 .7-2.1.7-3.2 0-1.5-.4-3-1.3-4.3l-.7-1c-1-1.5-2.6-2.6-4.3-2.9L61 38.7l-9.5-7.2c-1.1-.9-2.5-1.3-3.9-1.3h-23c-1.6 0-3.1.6-4.3 1.6l-9.7 8.4c-1.4 1.2-2.2 3-2.2 4.9v1.6c-.8 1.1-1.2 2.5-1.2 3.8 0 1.5.5 2.9 1.4 4.1 1.4 1.9 3.7 3 6.1 3h1c.6 1.2 1.5 2.2 2.6 3h9.9c1.1-.8 2-1.8 2.6-3h23.6c.6 1.2 1.5 2.2 2.6 3h9.9c1.1-.8 2-1.8 2.6-3h2c1.8 0 3.5-.7 4.8-1.8l.9-.8c.8-.8 1.4-1.7 1.9-2.7zm-21.7 1.3c0-2.5 2-4.5 4.5-4.5s4.5 2 4.5 4.5-2 4.5-4.5 4.5-4.5-2-4.5-4.5zm-38.7 0c0-2.5 2-4.5 4.5-4.5s4.5 2 4.5 4.5-2 4.5-4.5 4.5-4.5-2-4.5-4.5zm5-19.2l-1.1 4.2h-4l4.4-3.8c.2-.2.4-.3.7-.4zm13.8 4.2H26.7l1.1-4.4h8.6l1.1 4.4zm16.7 0H41.6l-1-4.4h7c.5 0 1.1.2 1.5.5l5.1 3.9zm21 8.4h-1.6c-1.1 0-2 .9-2 2s.9 2 2 2h1.6c-.2.3-.4.6-.7.8l-.9.8c-.6.5-1.4.8-2.2.8h-1c0-4.6-3.8-8.4-8.5-8.4s-8.5 3.8-8.5 8.4H31.7c-.1-4.6-3.8-8.4-8.5-8.4s-8.5 3.8-8.5 8.4c-1.1 0-2.2-.5-2.9-1.4-.4-.5-.5-1-.5-1.6 0-.7.2-1.3.7-1.8.3-.4.5-.9.5-1.4v-2.3c0-.7.3-1.4.9-1.9l.7-.6H60l12.8 2.3c.7.1 1.3.5 1.6 1.1l.8 1.2c-.1 0-.1 0 0 0z"/><path id="XMLID_2_" class="st5" d="M12.8 59.6h73.8v4.3H12.8z"/></svg>