<svg id="Layer_1" xmlns="http://www.w3.org/2000/svg" viewBox="0 0 102.7 100.2"><style>.st0{clip-path:url(#SVGID_2_)}.st1{fill:none;stroke:#f2f2f2;stroke-width:3;stroke-miterlimit:10}.st2{fill:#f2f2f2}.st3{fill:#fff}.st4{fill:#497cc2}.st5{fill:#1a3a66}.st6{fill:#d2e9f7}.st7{stroke:#231f20;stroke-width:.55;stroke-miterlimit:10}.st8{fill:#fefeff}.st9{fill:#497cc2;stroke:#497cc2;stroke-miterlimit:10}.st10{fill:#9ecfef}.st11{fill:none;stroke:#000;stroke-width:2;stroke-linecap:round;stroke-linejoin:round;stroke-miterlimit:10}</style><circle class="st4" cx="85.9" cy="3.2" r="3.2" id="XMLID_535_"/><circle class="st4" cx="81.6" cy="20.8" r="1.6" id="XMLID_534_"/><path class="st4" d="M95.8 94.9H9.2c-.6 0-1-.4-1-1V32.2c0-.5.4-1 1-1h86.6c.6 0 1 .5 1 1v61.7c0 .5-.5 1-1 1z" id="XMLID_545_"/><path id="XMLID_1595_" class="st5" d="M94.6 96.7H10.4c-2.2 0-4-1.8-4-4V33.4c0-2.2 1.8-4 4-4h13.4V33H10.4c-.2 0-.4.2-.4.4v59.3c0 .2.2.4.4.4h84.2c.2 0 .4-.2.4-.4V33.4c0-.2-.2-.4-.4-.4H82.4v-3.6h12.2c2.2 0 4 1.8 4 4v59.3c0 2.2-1.8 4-4 4z"/><path class="st3" d="M12.5 36.2H92v51.7H12.5z" id="XMLID_542_"/><path class="st6" d="M95.2 98.4H8.8c-2.1 0-3.8-1.5-4.2-3.6L4 91.1h40.1l1.5 2.2h11.1l1.7-2.2h42.2l-.5 3.3c-.5 2.3-2.5 4-4.9 4z" id="XMLID_541_"/><g id="XMLID_540_"><path id="XMLID_1592_" class="st5" d="M95.2 100.2H8.8c-3 0-5.5-2.1-6-5.1l-1-5.8H45l1.5 2.2h9.2l1.7-2.2h45.2l-.9 5.4c-.4 3.2-3.2 5.5-6.5 5.5zM6.1 92.9l.3 1.7c.2 1.2 1.2 2 2.4 2h86.5c1.5 0 2.7-1.1 3-2.5l.2-1.2H59.2l-1.7 2.2H44.6l-1.5-2.2h-37z"/></g><circle class="st4" cx="20.4" cy="3.2" r="3.1" id="XMLID_559_"/><circle class="st4" cx="21.9" cy="22.4" r="1.5" id="XMLID_558_"/><circle class="st4" cx="99" cy="16.9" r="1.9" id="XMLID_557_"/><circle class="st4" cx="4" cy="13.3" r="4" id="XMLID_556_"/><circle class="st6" cx="52.5" cy="30.5" r="23.9" id="XMLID_555_"/><g id="XMLID_548_"><path id="XMLID_1591_" class="st5" d="M32.5 21.2l-3.3-1.5c1.3-2.8 3.2-5.4 5.4-7.6l2.5 2.6c-1.9 1.8-3.5 4-4.6 6.5z"/></g><g id="XMLID_547_"><path id="XMLID_1590_" class="st5" d="M52.5 56.3c-14.2 0-25.7-11.5-25.7-25.7h3.6c0 12.2 9.9 22.1 22.1 22.1s22.1-9.9 22.1-22.1S64.7 8.4 52.5 8.4c-3.7 0-7.4 1-10.7 2.8L40.1 8c3.8-2.1 8.1-3.2 12.4-3.2 14.2 0 25.7 11.5 25.7 25.7S66.7 56.3 52.5 56.3z"/></g><circle class="st3" cx="52.5" cy="30.5" r="14.4" id="XMLID_554_"/><g id="XMLID_550_"><path id="XMLID_1589_" class="st5" d="M49.3 38.7l-8.9-8.9 2.5-2.6 6.4 6.4 12.8-12.7 2.5 2.6z"/></g><g id="XMLID_549_"><path id="XMLID_1588_" class="st5" d="M18.6 47.4h12.2V51H18.6z"/></g><g id="XMLID_544_"><path id="XMLID_1587_" class="st5" d="M18.6 57.5h62.1v3.6H18.6z"/></g><g id="XMLID_551_"><path id="XMLID_1586_" class="st5" d="M18.6 67.5h62.1v3.6H18.6z"/></g><g id="XMLID_553_"><path id="XMLID_1585_" class="st5" d="M18.6 77.6h34.6v3.6H18.6z"/></g></svg>