<svg id="Layer_1" xmlns="http://www.w3.org/2000/svg" viewBox="0 0 72 76.1"><style>.st0{clip-path:url(#SVGID_2_)}.st1{fill:none;stroke:#f2f2f2;stroke-width:3;stroke-miterlimit:10}.st2{fill:#f2f2f2}.st3{fill:#fff}.st4{fill:#497cc2}.st5{fill:#1a3a66}.st6{fill:#d2e9f7}.st7{stroke:#231f20;stroke-width:.55;stroke-miterlimit:10}.st8{fill:#fefeff}.st9{fill:#497cc2;stroke:#497cc2;stroke-miterlimit:10}.st10{fill:#9ecfef}.st11{fill:none;stroke:#000;stroke-width:2;stroke-linecap:round;stroke-linejoin:round;stroke-miterlimit:10}</style><circle class="st4" cx="17.8" cy="8.8" r="1.5" id="XMLID_484_"/><circle class="st4" cx="8.9" cy="14.4" r="2.3" id="XMLID_481_"/><g id="XMLID_341_"><path class="st6" d="M38.2 72.9V15.1c0-1.1.9-1.9 1.9-1.9h28.5c1.1 0 1.9.9 1.9 1.9v57.7c0 1.1-.9 1.9-1.9 1.9H40.2c-1.1.1-2-.8-2-1.8z" id="XMLID_472_"/><g id="XMLID_342_"><path id="XMLID_1640_" class="st5" d="M67.2 76.1H41.7c-2.6 0-4.8-2.1-4.8-4.8h2.7c0 1.2.9 2.1 2.1 2.1h25.5c1.2 0 2.1-.9 2.1-2.1V16.6c0-1.2-.9-2.1-2.1-2.1H41.7c-1.2 0-2.1.9-2.1 2.1v1.8h-2.7v-1.8c0-2.6 2.1-4.8 4.8-4.8h25.5c2.6 0 4.8 2.1 4.8 4.8v54.7c0 2.7-2.2 4.8-4.8 4.8z"/></g><ellipse transform="rotate(-88.858 54.582 44.106)" class="st3" cx="54.6" cy="44.1" rx="10.9" ry="10.9" id="XMLID_470_"/><g id="XMLID_468_"><path id="XMLID_1639_" class="st5" d="M54.6 56.4h-.3l.1-2.7c2.6.1 5-.9 6.8-2.7 1.8-1.8 2.9-4.2 2.9-6.7.1-4.5-3-8.5-7.5-9.5l.6-2.6c5.6 1.3 9.7 6.4 9.5 12.2-.1 3.3-1.4 6.3-3.8 8.6-2.1 2.1-5.1 3.4-8.3 3.4z"/></g><ellipse transform="rotate(-88.858 54.89 61.14)" class="st3" cx="54.9" cy="61.1" rx="2.9" ry="2.9" id="XMLID_467_"/><ellipse transform="rotate(-88.857 54.89 26.413)" class="st3" cx="54.9" cy="26.4" rx="2.9" ry="2.9" id="XMLID_349_"/><g id="XMLID_346_"><g id="XMLID_348_"><path id="XMLID_1638_" class="st5" d="M52.5 48.7c-1.9 0-3.4-1.5-3.4-3.4v-5.6h2.7v5.6c0 .4.3.7.7.7.4 0 .7-.3.7-.7v-2.2c0-1.9 1.5-3.4 3.4-3.4s3.4 1.5 3.4 3.4v5.4h-2.7v-5.4c0-.4-.3-.7-.7-.7-.4 0-.7.3-.7.7v2.2c0 1.9-1.5 3.4-3.4 3.4z"/></g><g id="XMLID_347_"><path id="XMLID_1637_" class="st5" d="M47 42.8h15.1v2.7H47z"/></g></g><g id="XMLID_326_"><path id="XMLID_1636_" class="st5" d="M67.1 28.5h-2.7v-4c-2.9-.5-5.2-2.8-5.7-5.7h-8.2l-.3 1.2-2.5-1c.2-.4.2-.8.3-1.2.1-1 .9-1.7 1.8-1.7h9.6c1 0 1.7.7 1.8 1.7.2 2.2 2 4 4.2 4.1 1 .1 1.7.9 1.7 1.8v4.8z"/></g><g id="XMLID_340_"><path id="XMLID_1635_" class="st5" d="M59.4 71.4h-9.6c-1 0-1.7-.7-1.8-1.7-.1-.7-.3-1.4-.7-2-.5-.9-1.4-1.5-2.3-1.9l.9-2.5c1.5.5 2.8 1.6 3.7 3 .5.8.8 1.6 1 2.5h8.2c.5-2.9 2.8-5.2 5.7-5.7v-4h2.7v4.7c0 1-.7 1.7-1.7 1.8-2.2.2-4 1.9-4.2 4.1-.2.9-.9 1.7-1.9 1.7z"/></g></g><circle class="st4" cx="1.4" cy="5.8" r="1.4" id="XMLID_661_"/><circle class="st4" cx="32.4" cy="2.2" r="2.2" id="XMLID_345_"/><circle class="st4" cx="32.4" cy="13.3" r="1.1" id="XMLID_344_"/><g id="XMLID_1066_"><path class="st3" d="M30.2 74.7c-.3.2-.7.2-1 0L12.6 59.8c-5.1-4.6-8-11.1-8-17.9V22.5c0-.5.4-.9.9-.9 2.3.1 5.3.1 8 .1 3.3 0 5.7-.1 7.1-.3 4.1-.5 7-2.8 8.9-4.4.3-.3.8-.3 1.1 0 1.9 1.5 4.8 3.8 9 4.4 1.4.2 3.5.3 6.4.3 2.7 0 5.7-.1 8-.2.5 0 .9.4.9.9v19.5c0 6.9-3 13.5-8.2 18.1L30.2 74.7z" id="XMLID_1067_"/></g><g id="XMLID_1059_"><path class="st4" d="M30.1 71.2c-.3.2-.6.2-.9 0L14.7 58.1c-4.5-4-7-9.8-7.1-15.8V25.2c0-.4.3-.8.8-.8 2.1.1 4.6.1 7 .1 2.9 0 5-.1 6.3-.2 3.6-.4 6.2-2.5 7.8-3.8.3-.2.7-.2.9 0 1.7 1.3 4.3 3.4 7.9 3.9 1.2.2 3.1.3 5.6.3 2.4 0 5.1-.1 7.1-.2.4 0 .8.3.8.8v17.2c0 6.1-2.6 11.9-7.2 15.9L30.1 71.2z" id="XMLID_1065_"/></g><g id="XMLID_1057_"><g id="XMLID_333_"><path id="XMLID_1634_" class="st5" d="M29.6 76.1c-.4 0-.8-.1-1.2-.3l-.2-.1-16.4-14.9C6.4 56 3.3 49.1 3.3 41.9V22.5c0-.6.2-1.2.6-1.6.4-.4 1-.6 1.6-.7l2.1.1V23H6v18.9c0 6.4 2.8 12.6 7.6 16.9l16.2 14.5 16-14.1c4.9-4.3 7.7-10.5 7.7-17.1V23c-2.1.1-4.9.2-7.6.2-3 0-5.2-.1-6.6-.3-4.3-.7-7.3-3-9.3-4.5-1.8 1.5-5 3.9-9.2 4.4l-.3-2.6c3.7-.5 6.5-2.7 8.2-4.1.8-.7 1.9-.7 2.7 0 1.7 1.3 4.5 3.6 8.3 4.2 1.3.2 3.4.3 6.2.3 2.8 0 5.9-.1 8-.2.6 0 1.2.2 1.6.6.4.4.7 1 .6 1.6v19.5c0 7.3-3.2 14.3-8.6 19.1L31 75.7c-.4.3-.9.4-1.4.4z"/></g><g id="XMLID_332_"><path id="XMLID_1633_" class="st5" d="M13.5 23.1v-2.7h2.7l.1 2.7h-2.8z"/></g></g><circle class="st8" cx="30" cy="44.5" r="13.7" id="XMLID_1056_"/><g id="XMLID_334_"><path id="XMLID_1632_" class="st5" d="M27.6 51.6l-6.7-6.7 1.9-1.8 4.8 4.8 9.5-9.6 1.9 1.9z"/></g></svg>