<svg id="Layer_1" xmlns="http://www.w3.org/2000/svg" viewBox="0 0 82.5 85.4"><style>.st0{clip-path:url(#SVGID_2_)}.st1{fill:none;stroke:#f2f2f2;stroke-width:3;stroke-miterlimit:10}.st2{fill:#f2f2f2}.st3{fill:#fff}.st4{fill:#497cc2}.st5{fill:#1a3a66}.st6{fill:#d2e9f7}.st7{stroke:#231f20;stroke-width:.55;stroke-miterlimit:10}.st8{fill:#fefeff}.st9{fill:#497cc2;stroke:#497cc2;stroke-miterlimit:10}.st10{fill:#9ecfef}.st11{fill:none;stroke:#000;stroke-width:2;stroke-linecap:round;stroke-linejoin:round;stroke-miterlimit:10}</style><circle class="st4" cx="56.5" cy="3.9" r="1.7" id="XMLID_670_"/><circle class="st4" cx="37.8" cy="1.7" r="1.7" id="XMLID_669_"/><circle class="st4" cx="27.1" cy="10.5" r="1.7" id="XMLID_668_"/><circle class="st4" cx="70.9" cy="13.3" r="1" id="XMLID_667_"/><circle class="st4" cx="2.8" cy="5.6" r="2.8" id="XMLID_666_"/><circle class="st4" cx="80.3" cy="2.2" r="2.2" id="XMLID_665_"/><path class="st6" d="M77.4 29.2H7.6l5.6-8.3c.9-1.9 2.8-3.1 4.9-3.1h48.7c2.1 0 4 1.2 4.9 3.1l5.7 8.3z" id="XMLID_651_"/><g id="XMLID_652_"><path id="XMLID_1516_" class="st5" d="M76.1 30.1l-5.8-8.5c-.6-1.4-2-2.3-3.5-2.3H18.1c-1.5 0-2.9.9-3.5 2.3l-.1.2-5.6 8.3-2.5-1.7 5.6-8.2c1.2-2.4 3.6-3.9 6.2-3.9h48.7c2.6 0 5.1 1.5 6.2 3.9l5.6 8.2-2.6 1.7z"/></g><path class="st3" d="M75.7 85.4H9.4C8.1 85.4 7 84.3 7 83V31.5c0-1.3 1.1-2.4 2.4-2.4h66.3c1.3 0 2.4 1.1 2.4 2.4V83c0 1.3-1.1 2.4-2.4 2.4z" id="XMLID_648_"/><g id="XMLID_663_"><path id="XMLID_1515_" class="st5" d="M73.5 84.9H21.3v-3h52.1c1.7 0 3.1-1.4 3.1-3.1v-47c0-1.7-1.4-3.1-3.1-3.1H11.6c-1.7 0-3.1 1.4-3.1 3.1v44.6h-3V31.7c0-3.4 2.8-6.1 6.1-6.1h61.9c3.4 0 6.1 2.8 6.1 6.1v47c0 3.5-2.8 6.2-6.1 6.2z"/></g><g id="XMLID_649_"><path id="XMLID_1514_" class="st5" d="M16.4 84.9h-4.8c-1.6 0-3.1-.6-4.3-1.7L9.4 81c.6.6 1.3.9 2.2.9h4.8v3z"/></g><path class="st4" d="M48.7 26.8H38l1.9-9.1h6.8z" id="XMLID_657_"/><g id="XMLID_656_"><path id="XMLID_1511_" class="st5" d="M50.5 28.3H36.2l2.5-12.1H48l2.5 12.1zm-10.6-3h6.9l-1.3-6.1h-4.3l-1.3 6.1z"/></g><path class="st4" d="M48.7 45.9h-3.5L42.5 44 38 45.9V27.1h10.7z" id="XMLID_658_"/><g id="XMLID_650_"><path id="XMLID_1508_" class="st5" d="M36.5 48.2V25.6h13.7v21.8h-5.4l-2.4-1.7-5.9 2.5zm9.2-3.8h1.4V28.6h-7.6v14.9l3.1-1.3 3.1 2.2z"/></g><g id="XMLID_655_"><path id="XMLID_1507_" class="st5" d="M13.4 34.1h12.1v3H13.4z"/></g><g id="XMLID_654_"><path id="XMLID_1506_" class="st5" d="M13.4 39.5h6v3h-6z"/></g></svg>