<svg xmlns="http://www.w3.org/2000/svg" xmlns:xlink="http://www.w3.org/1999/xlink" viewBox="0 0 2360 1400"><style>.st0{fill:#e3ffff}.st1{fill:#7180b6}.st2{fill:#190000}.st3{fill:#fc791f}.st4{clip-path:url(#SVGID_2_)}.st5{fill:#333}.st6{fill:#e5e5e4}.st7{fill:#f2f2f2}.st8{fill:#fc921f}.st9{fill:#676786}.st10{fill:#dda878}.st11{fill:#eae4cc}.st12{fill:#fff}.st13{fill:#ca5c31}.st14{fill:#f2debc}.st15{fill:#450900}.st16{fill:#4d3e2e}.st17{fill:#fefaef}.st18{fill:#b4cfe4}.st19{fill:#f2deab}.st20{clip-path:url(#SVGID_4_);fill:#ca5c31}.st21{fill:#37405b}.st22{fill:#36352e}.st23,.st24{clip-path:url(#SVGID_10_);fill:#f2deab}.st24{fill:#f2debc}.st25{fill:#450900}.st25,.st26{clip-path:url(#SVGID_10_)}.st27{clip-path:url(#SVGID_12_)}.st27,.st28{fill:#ca5c31}.st28,.st29,.st30,.st31,.st32{clip-path:url(#SVGID_10_)}.st29{fill:#fefaef}.st30{fill:#181915}.st31{fill:#ae3c31}.st32{fill:#4d3e2e}.st33{fill:#753c2b}.st34{fill:#ec883b}.st35{fill:#ffb028}.st36{clip-path:url(#SVGID_10_);fill:#753c2b}.st37{fill:#ec883b}.st37,.st38,.st39,.st40,.st41{clip-path:url(#SVGID_10_)}.st38{fill:#ffb028}.st39{fill:#d24c34}.st40{fill:#cd763e}.st41{fill:#3c3732}.st42{fill:#5b5b5b}.st42,.st43,.st44,.st45,.st46{clip-path:url(#SVGID_10_)}.st43{fill:#967c62}.st44{fill:#635649}.st45{fill:#914325}.st46{fill:#c7875d}.st47{fill:#aa6334}.st47,.st48,.st49,.st50,.st51{clip-path:url(#SVGID_10_)}.st48{fill:#ffb863}.st49{fill:#cd753e}.st50{fill:#b45f06}.st51{fill:#fc921f}.st52{opacity:.86;fill:url(#SVGID_13_)}.st53,.st54{opacity:.86;fill:url(#SVGID_14_)}.st54{fill:url(#SVGID_15_)}.st55{fill:#3f302b}.st56{fill:#635649}.st57{fill:#eee6de}.st58{fill:#a59b91}.st59{fill:#2c2c2c}.st60{fill:#ae3c31}.st61{fill:#482c2b}.st62{opacity:.51;fill:url(#SVGID_16_)}.st63,.st64{opacity:.51;fill:url(#SVGID_17_)}.st64{fill:url(#SVGID_18_)}.st65{fill:#3c3732}.st66{fill:#5b5b5b}.st67{fill:#967c62}.st68{fill:#914325}.st69{fill:#c7875d}.st70{fill:#aa6334}.st71{opacity:.51;fill:url(#SVGID_19_)}.st72{opacity:.68;fill:url(#SVGID_20_)}.st73{fill:none}.st74{opacity:.48;fill:#64808e}.st75{opacity:.16;fill:url(#SVGID_21_)}.st76{opacity:.45}.st77{fill:#64808e}.st78{fill:#cc7c50}.st79{fill:#cccbcb}.st80{display:none}.st81{display:inline;fill:#606060}</style><path class="st0" d="M-21-5h2382v1482H-21z" id="Layer_3"/><g id="Layer_10"><path class="st1" d="M1294.8 941.7H294.3c-11.6 1.4-21.1-3.4-21.1-9.3v-83.7c0-5.9 9.5-10.7 21.1-10.7h1000.5c-.6 0-.6 103.9 0 103.7z"/><path d="M1382 672.7c3.7-65.2-37.4-117.6-86.5-132.5v239.6c47.3-12.1 83.7-56.2 86.5-107.1z"/><path class="st1" d="M1549.7 648.2c0-149.4-110.4-121.6-254.1-142.3v34.3c49 14.9 90.2 67.3 86.5 132.5-2.9 50.8-39.2 95-86.5 107.1v162.1c143.7-20.6 254.1-144.3 254.1-293.7z"/></g><g id="Layer_9"><circle class="st2" cx="1155.4" cy="802.5" r="79.9"/><path id="Path_407_14_" class="st3" d="M1008.7 446.4v303.2h138.7c19.8-23.3 51.3-40.7 81.9-40.5 52 0 94.8 36.8 100.2 84.1h222.1l-45.8-361.5h-433.4c-8.1 0-46.8 8-63.7 14.7z"/><path id="Path_408_14_" class="st2" d="M1015.8 745.6h158.4v70h-158.4c-2.9.2-5.4-1.9-5.6-4.8v-60.2c0-1.3.6-2.6 1.6-3.5 1.1-1 2.5-1.5 4-1.5z"/></g><g id="Layer_8"><defs><circle id="SVGID_1_" cx="1295.1" cy="645" r="324"/></defs><clipPath id="SVGID_2_"><use xlink:href="#SVGID_1_" overflow="visible"/></clipPath><g class="st4"><g id="Layer_3_2_" transform="translate(5534 5710.691)"><path id="Rectangle_469_1_" class="st5" d="M-4288.4-5029.3h194.1v105h-194.1z"/><path id="Rectangle_470_1_" class="st5" d="M-4211.7-4940.2h519.2v44.2h-519.2z"/><path id="Path_402_1_" class="st5" d="M-3521.2-4920c-7.7-58.1-61.1-98.9-119.1-91.1-47.5 6.3-84.8 43.7-91.1 91.1h210.2z"/><path id="Path_403_1_" class="st6" d="M-3843.2-4921.8h339.8v-125.4c-.1-5.5-3.2-10.5-8.1-13l-105.3-45.5c-3.1-1.6-5.6-4.3-6.9-7.6l-44.7-105.4c-2.3-5.4-7.6-9-13.5-9H-3843v305.9z"/><path id="Path_404_1_" class="st7" d="M-3659.9-5103.7h-137.8c-3.6 0-6.5-2.9-6.5-6.5v-76.2c0-3.6 2.9-6.5 6.5-6.5h112.5c2.9 0 5.4 1.8 6.3 4.5l25.4 76.1c1.1 3.4-.7 7.1-4.1 8.2-.8.3-1.5.4-2.3.4z"/><path id="Path_405_1_" class="st5" d="M-3659.9-5100.1h-137.8c-5.7 0-10.3-4.6-10.3-10.3v-76.1c0-5.7 4.6-10.3 10.3-10.3h112.5c4.4 0 8.3 2.8 9.7 7l25.4 76.1c1.8 5.4-1.1 11.2-6.5 13-1.1.5-2.2.6-3.3.6zm-137.8-89.3c-1.6 0-2.9 1.3-2.9 2.9v76.1c0 1.6 1.3 2.9 2.9 3h137.8c.9 0 1.8-.5 2.4-1.2.6-.8.7-1.7.4-2.6l-25.4-76.1c-.4-1.2-1.5-2-2.8-2l-112.4-.1z"/><path id="Path_407_1_" class="st8" d="M-4376.3-5268.7v303.2h89.6c19.8-23.3 51.3-40.7 81.9-40.5 52 0 94.8 36.8 100.2 84.1h261.4v-346.8c0-8.1-6.6-14.7-14.7-14.8h-503.7c-8.1.1-14.7 6.7-14.7 14.8z"/><path id="Path_408_1_" class="st5" d="M-4376.3-4966h158.4v70h-158.4c-2.9.2-5.4-1.9-5.6-4.8v-60.2c0-1.3.6-2.6 1.6-3.5 1.1-1 2.5-1.5 4-1.5z"/><path id="Path_409_1_" class="st5" d="M-3497.7-4896h-142.5v-73.7h142.5c2.8 0 5.1 2.3 5.1 5.1v63.5c0 2.8-2.3 5.1-5.1 5.1z"/><path id="Path_413_1_" class="st5" d="M-3700.9-5189.8l21.4 68.6h-124.8v17.5h152.2l-29-89.3h-21.7l1.9 3.2z"/><ellipse id="Ellipse_334_1_" class="st9" cx="-4202.9" cy="-4906" rx="78.3" ry="78.3"/><path id="Path_419_1_" class="st5" d="M-4202.9-4822.1c-46.3 0-83.9-37.5-83.9-83.8s37.5-83.9 83.8-83.9 83.9 37.5 83.9 83.8-37.5 83.9-83.8 83.9zm0-156.7c-40.2 0-72.8 32.6-72.8 72.8 0 40.2 32.6 72.8 72.8 72.8 40.2 0 72.8-32.6 72.8-72.8 0-40.2-32.6-72.8-72.8-72.8z"/><ellipse id="Ellipse_335_1_" class="st6" cx="-4202.9" cy="-4906" rx="38.8" ry="38.8"/><path id="Path_420_1_" class="st5" d="M-4202.9-4863.5c-23.5 0-42.5-19-42.5-42.5s19-42.5 42.5-42.5 42.5 19 42.5 42.5-19.1 42.5-42.5 42.5z"/><ellipse id="Ellipse_336_1_" class="st6" cx="-4202.9" cy="-4906" rx="29.9" ry="29.9"/><path id="Path_421_1_" class="st5" d="M-4202.9-4874.3c-17.5-.1-31.7-14.3-31.6-31.8s14.3-31.7 31.8-31.6 31.7 14.3 31.6 31.8c0 8.4-3.4 16.4-9.3 22.4-6 5.9-14.1 9.2-22.5 9.2zm0-59.7c-15.5 0-28 12.5-28 28s12.5 28 28 28 28-12.5 28-28c0-15.4-12.6-28-28-28z"/><ellipse id="Ellipse_337_1_" class="st6" cx="-4202.9" cy="-4906" rx="13.1" ry="13.1"/><path id="Path_422_1_" class="st5" d="M-4202.9-4889.1c-9.3 0-16.8-7.5-16.8-16.8s7.5-16.8 16.8-16.8 16.8 7.5 16.8 16.8c-.1 9.3-7.6 16.8-16.8 16.8z"/><ellipse id="Ellipse_338_1_" class="st9" cx="-3626.3" cy="-4906" rx="78.3" ry="78.3"/><path id="Path_423_1_" class="st5" d="M-3626.3-4822.1c-46.3 0-83.9-37.5-83.9-83.9s37.5-83.9 83.9-83.9 83.9 37.5 83.9 83.9-37.6 83.9-83.9 83.9zm0-156.7c-40.2 0-72.8 32.6-72.8 72.8 0 40.2 32.6 72.8 72.8 72.8 40.2 0 72.8-32.6 72.8-72.8 0-40.2-32.6-72.8-72.8-72.8z"/><ellipse id="Ellipse_339_1_" class="st6" cx="-3626.3" cy="-4906" rx="38.8" ry="38.8"/><path id="Path_424_1_" class="st5" d="M-3626.3-4863.5c-23.5 0-42.5-19-42.5-42.5s19-42.5 42.5-42.5 42.5 19 42.5 42.5-19 42.5-42.5 42.5z"/><ellipse id="Ellipse_340_1_" class="st6" cx="-3626.3" cy="-4906" rx="29.9" ry="29.9"/><path id="Path_425_1_" class="st5" d="M-3626.3-4874.3c-17.5 0-31.7-14.2-31.7-31.7s14.2-31.7 31.7-31.7 31.7 14.2 31.7 31.7v.1c0 17.4-14.2 31.6-31.7 31.6zm0-59.7c-15.5 0-28 12.5-28 28s12.5 28 28 28 28-12.5 28-28-12.5-28-28-28z"/><ellipse id="Ellipse_341_1_" class="st6" cx="-3626.3" cy="-4906" rx="13.1" ry="13.1"/><path id="Path_426_1_" class="st5" d="M-3626.3-4889.1c-9.3 0-16.8-7.5-16.8-16.7 0-9.3 7.5-16.8 16.7-16.8 9.3 0 16.8 7.5 16.8 16.7v.1c0 9.2-7.5 16.7-16.7 16.7z"/><path class="st10" d="M-4068.7-4921.3l225.6-143.8v142.6z"/></g><path class="st11" d="M1251.7 465.4l-63.6 47c-1.3 1-3.2.7-4.1-.6-1-1.3-.7-3.2.6-4.1l63.6-47c1.3-1 3.2-.7 4.1.6 1 1.2.7 3.1-.6 4.1z"/><path class="st12" d="M1226.6 460.6l-41.2 30.5c-1.1.8-2.7.6-3.5-.5l-.5-.7c-.8-1.1-.6-2.7.5-3.5l41.2-30.5c1.1-.8 2.7-.6 3.5.5l.5.7c.9 1.2.6 2.7-.5 3.5z"/></g><path class="st13" d="M675.6 678.2s-12 12.9-2 34.8c5.5 12 32.8 35.2 32.8 35.2l6.3 42.6s-59.5-59.4-64.8-80c-3.5-13.9 2.4-31.5 11.5-41 9.2-9.3 16.2 8.4 16.2 8.4z"/><path class="st13" d="M697 668s-29 14-26 37c1.7 13.2-12-35-12-35s13-16 31-22 7 20 7 20z"/></g><g id="Layer_4"><ellipse class="st14" cx="738.9" cy="601.5" rx="30.4" ry="33.5"/><ellipse class="st14" cx="708.6" cy="605.4" rx="6.2" ry="8.3"/><ellipse class="st14" cx="769.6" cy="605.6" rx="5.9" ry="7.8"/><circle class="st15" cx="728.6" cy="590.7" r="2.1"/><circle class="st15" cx="749.2" cy="590.9" r="2.1"/><path class="st14" d="M749.8 627v34.4h-21.3V622z"/><path class="st13" d="M727.2 644.9l-34.8 2 .3 18.2v108.1h91.7v-87.4L812 713l16.2-16.9-58.7-50.9h-19.2s-.7 9.1-7.4 11.5c-6.7 2.4-9.4 1-11.5-2.4-1.9-3.3-4.2-9.4-4.2-9.4z"/><path class="st13" d="M823.1 692.1s15 16.5 38.3 4.7c12.8-6.5 31.4-22.8 31.4-22.8l14.8 14.5S880 714.3 858 720.8c-14.8 4.4-35.7.4-46.3-9.1-10.7-9.5 11.4-19.6 11.4-19.6z"/><path id="Path_219_8_" class="st16" d="M769.9 599.4c1.5-1.8 4.8-9.2 4.8-17.2 0-5.1-4.6-18.3-13.2-19.5-2.9-4.7-13-10.3-22.8-10.3-19 1.7-15.6-1.1-19.2-1.1-3.6 0 1.2 5.7 1.2 5.7s-18 4.7-18 25.2c0 13.8 4.2 16.1 4.8 17.2s2.4-3.4 2.4-3.4 0-21.8 19.2-21.8c4.9 0 8.4 3.4 14.4 3.4 4.8 0 7.5-2.3 12-2.3 7.2 0 12 20.7 12 20.7s1 5.1 2.4 3.4z"/><path class="st17" d="M710.4 669.3h22.2v12.8h-22.2z"/><path id="Path_220_8_" class="st16" d="M734.4 601.8c1.1 1.6 3 2.5 4.9 2.4 3.1 0 4.6-1.7 4.9-2.4.2-.5-.1-1-.5-1.2-.4-.1-.9 0-1.1.4-.6.8-.8 1.6-3.3 1.6s-2.9-1.2-3.3-1.6c-.6-.8-2.1-.1-1.6.8z"/><path id="Path_218_8_" class="st16" d="M750.8 617c-1.4 1.4-3.3 2.1-5.3 2-4.3 0-6.1-1.4-6.8-2.6-.7 1.2-2.5 2.6-6.8 2.6-2 .2-3.9-.6-5.3-2-1-1.2-1.4-2.8-1.3-4.3 0-.3.3-.5.6-.4.3 0 .4.3.4.5s.1 1.2 1.7 1.2c.7 0 1.5-1.2 2.2-2.4 1.1-1.8 2.3-3.7 4.4-3.7 1.6-.1 3.1.6 4 1.8 1-1.2 2.5-1.9 4-1.8 2.1 0 3.3 2 4.4 3.7.7 1.2 1.5 2.4 2.2 2.4 1.6 0 1.7-1 1.7-1.2 0-.3.2-.5.5-.5s.5.2.5.4c.3 1.6-.2 3.1-1.1 4.3z"/><path class="st61" d="M848.3 691.4H919V569.1h-91.1v106.8z"/><path class="st34" d="M848.2 692.2h100V586.6l-24.1-17.5h-75.9z"/><path class="st33" d="M947.8 586.6H847.5L827.4 569h98.4z"/><linearGradient id="SVGID_4_" gradientUnits="userSpaceOnUse" x1="655.648" y1="1025.825" x2="815.752" y2="1025.825"><stop offset="0" stop-color="#33338d" stop-opacity="0"/><stop offset="1" stop-color="#454559"/></linearGradient><path opacity=".51" fill="url(#SVGID_4_)" d="M804 1015.4H655.6l26.2 20.9h134z"/><linearGradient id="SVGID_6_" gradientUnits="userSpaceOnUse" x1="759.648" y1="1101.825" x2="919.752" y2="1101.825"><stop offset="0" stop-color="#33338d" stop-opacity="0"/><stop offset="1" stop-color="#454559"/></linearGradient><path opacity=".51" fill="url(#SVGID_6_)" d="M908 1091.4H759.6l26.2 20.9h134z"/><linearGradient id="SVGID_8_" gradientUnits="userSpaceOnUse" x1="981.648" y1="1101.825" x2="1086.752" y2="1101.825"><stop offset="0" stop-color="#33338d" stop-opacity="0"/><stop offset="1" stop-color="#454559"/></linearGradient><path opacity=".51" fill="url(#SVGID_8_)" d="M1075 1091.4h-93.4l26.2 20.9h79z"/><path class="st13" d="M692.7 772.3h91.5v66.6h-91.5z"/><path id="Path_859_1_" class="st65" d="M804.2 790h184.5v225.5H804.2V790z"/><path id="Path_860_1_" class="st66" d="M809.4 943.7h169.2v71.8H809.4v-71.8z"/><path id="Path_861_1_" class="st67" d="M809.4 872h169.2v71.8H809.4V872z"/><path id="Path_862_1_" class="st56" d="M978.5 1032V800.2h-164V1036h-10.3V790h184.5v242h-10.2z"/><path id="Path_863_1_" class="st68" d="M914.4 976.7h164.7v68.2H914.4v-68.2z"/><path id="Path_864_1_" class="st69" d="M1079.1 976.7h73.8v125h-73.8v-125z"/><path id="Path_865_1_" class="st70" d="M1158.6 982.4V1113h-11.4V982.4h-62.5V1113h-11.4V982.4H920V1113h-11.4V982.4h-11.4V971H1170v11.4h-11.4z"/><path class="st61" d="M599.9 1067.1H699V895.6H571.3v149.9z"/><path class="st34" d="M599.7 1068.3H740V920.2l-33.7-24.6H599.7z"/><path class="st33" d="M739.4 920.2H598.8l-28.2-24.7h138z"/><linearGradient id="SVGID_10_" gradientUnits="userSpaceOnUse" x1="446.648" y1="1056.825" x2="606.752" y2="1056.825"><stop offset="0" stop-color="#33338d" stop-opacity="0"/><stop offset="1" stop-color="#454559"/></linearGradient><path opacity=".51" fill="url(#SVGID_10_)" d="M578.2 1045.4H446.6l37.2 22.9h123z"/><path transform="rotate(90 763.82 677.427)" class="st60" d="M732.2 671.6h63.3v11.6h-63.3z"/><path transform="rotate(-180 738.792 770.378)" class="st60" d="M693.6 702.8H784V838h-90.4z"/></g><g id="Layer_5" class="st80"><path class="st81" d="M-60-82h479v1655H-60z"/></g></svg>