<svg xmlns="http://www.w3.org/2000/svg" xmlns:xlink="http://www.w3.org/1999/xlink" viewBox="0 0 2352 1392"><style>.st0{fill:#e3ffff}.st1{fill:#7180b6}.st2{fill:#190000}.st3{fill:#fc791f}.st4{clip-path:url(#SVGID_2_)}.st5{fill:#333}.st6{fill:#e5e5e4}.st7{fill:#f2f2f2}.st8{fill:#fc921f}.st9{fill:#676786}.st10{fill:#dda878}.st11{fill:#eae4cc}.st12{fill:#fff}.st13{fill:#ca5c31}.st14{fill:#f2debc}.st15{fill:#450900}.st16{fill:#4d3e2e}.st17{fill:#fefaef}.st18{fill:#b4cfe4}.st19{fill:#f2deab}.st20{clip-path:url(#SVGID_4_);fill:#ca5c31}.st21{fill:#37405b}.st22{fill:#36352e}.st23,.st24{clip-path:url(#SVGID_10_);fill:#f2deab}.st24{fill:#f2debc}.st25{fill:#450900}.st25,.st26{clip-path:url(#SVGID_10_)}.st27{clip-path:url(#SVGID_12_)}.st27,.st28{fill:#ca5c31}.st28,.st29,.st30,.st31,.st32{clip-path:url(#SVGID_10_)}.st29{fill:#fefaef}.st30{fill:#181915}.st31{fill:#ae3c31}.st32{fill:#4d3e2e}.st33{fill:#753c2b}.st34{fill:#ec883b}.st35{fill:#ffb028}.st36{clip-path:url(#SVGID_10_);fill:#753c2b}.st37{fill:#ec883b}.st37,.st38,.st39,.st40,.st41{clip-path:url(#SVGID_10_)}.st38{fill:#ffb028}.st39{fill:#d24c34}.st40{fill:#cd763e}.st41{fill:#3c3732}.st42{fill:#5b5b5b}.st42,.st43,.st44,.st45,.st46{clip-path:url(#SVGID_10_)}.st43{fill:#967c62}.st44{fill:#635649}.st45{fill:#914325}.st46{fill:#c7875d}.st47{fill:#aa6334}.st47,.st48,.st49,.st50,.st51{clip-path:url(#SVGID_10_)}.st48{fill:#ffb863}.st49{fill:#cd753e}.st50{fill:#b45f06}.st51{fill:#fc921f}.st52{opacity:.86;fill:url(#SVGID_13_)}.st53,.st54{opacity:.86;fill:url(#SVGID_14_)}.st54{fill:url(#SVGID_15_)}.st55{fill:#3f302b}.st56{fill:#635649}.st57{fill:#eee6de}.st58{fill:#a59b91}.st59{fill:#2c2c2c}.st60{fill:#ae3c31}.st61{fill:#482c2b}.st62{opacity:.51;fill:url(#SVGID_16_)}.st63,.st64{opacity:.51;fill:url(#SVGID_17_)}.st64{fill:url(#SVGID_18_)}.st65{fill:#3c3732}.st66{fill:#5b5b5b}.st67{fill:#967c62}.st68{fill:#914325}.st69{fill:#c7875d}.st70{fill:#aa6334}.st71{opacity:.51;fill:url(#SVGID_19_)}.st72{opacity:.68;fill:url(#SVGID_20_)}.st73{fill:none}.st74{opacity:.48;fill:#64808e}.st75{opacity:.16;fill:url(#SVGID_21_)}.st76{opacity:.45}.st77{fill:#64808e}.st78{fill:#cc7c50}.st79{fill:#cccbcb}.st80{display:none}.st81{display:inline;fill:#606060}</style><path class="st0" d="M0-29h2382v1482H0z" id="Layer_3"/><g id="Layer_4"><g id="Layer_3_1_" transform="translate(5534 5710.691)"><path id="Rectangle_470_2_" class="st5" d="M-5052.6-4990.8h609.5v40.9h-609.5z"/><path id="Path_402_2_" class="st5" d="M-4242.1-4967c-9.1-68.2-71.7-116-139.9-107-55.7 7.4-99.5 51.3-107 107h246.9z"/><path id="Path_403_2_" class="st1" d="M-4620.1-4982.1l398.9-4v-130.2c-.1-6.5-3.7-12.3-9.5-15.3l-123.7-53.4c-3.7-1.9-6.6-5-8.1-8.9l-52.5-123.7c-2.7-6.4-9-10.5-15.9-10.5h-189.2v346z"/><path id="Path_404_2_" class="st18" d="M-4404.9-5182.7h-161.8c-4.2 0-7.6-3.4-7.6-7.6v-89.5c0-4.2 3.4-7.6 7.6-7.6h132c3.4 0 6.4 2.1 7.4 5.3l29.8 89.3c1.3 4-.8 8.3-4.8 9.7-.8.3-1.7.4-2.6.4z"/><path id="Path_405_2_" class="st5" d="M-4404.9-5178.4h-161.8c-6.7 0-12.1-5.4-12.1-12.1v-89.3c0-6.7 5.4-12.1 12.1-12.1h132c5.2 0 9.8 3.3 11.4 8.3l29.8 89.3c2.1 6.3-1.3 13.2-7.7 15.3-1.1.4-2.4.6-3.7.6zm-161.7-104.9c-1.9 0-3.4 1.5-3.4 3.4v89.3c0 1.9 1.5 3.4 3.4 3.5h161.8c1.1 0 2.1-.5 2.8-1.5.7-.9.8-2 .5-3.1l-29.8-89.4c-.5-1.4-1.8-2.3-3.2-2.3l-132.1.1z"/><path id="Path_407_2_" class="st8" d="M-5245.8-5376.4v355.9h105.1c23.2-27.3 139.3-17.3 145.6 38.2h374.9v-394.1c0-9.5-7.7-17.3-17.2-17.3h-591.3c-9.4.1-17.1 7.8-17.1 17.3z"/><path id="Path_408_2_" class="st5" d="M-5245.8-5021h185.9v82.1h-185.9c-3.4.2-6.3-2.3-6.6-5.6v-70.7c0-1.6.7-3.1 1.9-4.1 1.3-1.2 2.9-1.8 4.7-1.7z"/><path id="Path_409_2_" class="st5" d="M-4214.5-4938.9h-167.3v-86.5h167.3c3.3 0 6 2.7 6 6v74.5c0 3.4-2.7 6.1-6 6z"/><path id="Path_419_2_" class="st5" d="M-5042.3-5036c-47.2 0-85.5 38.3-85.5 85.5s38.3 85.5 85.5 85.5 85.5-38.3 85.5-85.5c-.1-47.3-38.3-85.5-85.5-85.5z"/><ellipse id="Ellipse_335_2_" class="st6" cx="-5042.3" cy="-4950.6" rx="45.6" ry="45.6"/><path id="Path_420_2_" class="st5" d="M-5042.3-4900.7c-27.6 0-49.9-22.3-49.9-49.9 0-27.6 22.3-49.9 49.9-49.9 27.6 0 49.9 22.3 49.9 49.9 0 27.6-22.4 49.9-49.9 49.9z"/><ellipse id="Ellipse_336_2_" class="st6" cx="-5042.3" cy="-4950.6" rx="35.1" ry="35.1"/><path id="Path_421_2_" class="st5" d="M-5042.3-4913.4c-20.6-.1-37.2-16.8-37.1-37.4s16.8-37.2 37.4-37.1c20.6.1 37.2 16.8 37.1 37.4 0 9.9-4 19.3-11 26.2-7 7.1-16.5 11-26.4 10.9z"/><ellipse id="Ellipse_337_2_" class="st6" cx="-5042.3" cy="-4950.6" rx="15.3" ry="15.3"/><path id="Path_422_2_" class="st5" d="M-5042.3-4930.7c-10.9 0-19.7-8.8-19.7-19.7s8.8-19.7 19.7-19.7c10.9 0 19.7 8.8 19.7 19.7-.1 10.9-8.9 19.7-19.7 19.7z"/><ellipse id="Ellipse_338_2_" class="st9" cx="-4365.5" cy="-4950.6" rx="92" ry="92"/><path id="Path_423_2_" class="st5" d="M-4365.5-4852.1c-54.4 0-98.4-44.1-98.4-98.4 0-54.4 44.1-98.4 98.4-98.4 54.4 0 98.4 44.1 98.4 98.4.1 54.3-44 98.4-98.4 98.4zm0-183.9c-47.2 0-85.5 38.3-85.5 85.5s38.3 85.5 85.5 85.5 85.5-38.3 85.5-85.5c0-47.3-38.2-85.5-85.5-85.5z"/><ellipse id="Ellipse_339_2_" class="st6" cx="-4365.5" cy="-4950.6" rx="45.6" ry="45.6"/><ellipse id="Ellipse_340_2_" class="st6" cx="-4365.4" cy="-4950.6" rx="35.1" ry="35.1"/><path id="Path_425_2_" class="st5" d="M-4365.5-4913.4c-20.6 0-37.2-16.6-37.3-37.2 0-20.6 16.6-37.2 37.2-37.3 20.6 0 37.2 16.6 37.3 37.2v.1c0 20.6-16.6 37.2-37.2 37.2z"/><ellipse id="Ellipse_341_2_" class="st6" cx="-4365.5" cy="-4950.6" rx="15.3" ry="15.3"/><path id="Path_426_2_" class="st5" d="M-4365.5-4930.7c-10.9 0-19.7-8.8-19.7-19.6 0-10.9 8.8-19.7 19.6-19.7 10.9 0 19.7 8.8 19.7 19.6v.1c.1 10.8-8.7 19.6-19.6 19.6z"/><path class="st10" d="M-4884.8-4983.6l264.9-155.8v154.4z"/></g><path class="st11" d="M398.5 361.8L323.9 417c-1.5 1.1-3.7.8-4.9-.7-1.1-1.5-.8-3.7.7-4.9l74.6-55.2c1.5-1.1 3.7-.8 4.9.7 1.2 1.5.9 3.7-.7 4.9z"/><path class="st12" d="M369.1 356.2L320.7 392c-1.3 1-3.1.7-4.1-.6l-.6-.9c-1-1.3-.7-3.1.6-4.1l48.4-35.8c1.3-1 3.1-.7 4.1.6l.6.9c.9 1.3.7 3.2-.6 4.1z"/><ellipse class="st19" cx="1404" cy="512.1" rx="35.4" ry="38.9"/><ellipse class="st14" cx="1439.2" cy="516.7" rx="7.3" ry="9.6"/><ellipse class="st14" cx="1368.2" cy="483.9" rx="6.9" ry="9"/><circle class="st15" cx="1416" cy="499.6" r="2.4"/><circle class="st15" cx="1392.1" cy="499.8" r="2.4"/><defs><path id="SVGID_3_" d="M1392.5 523.4h24.8l-.8 11.4-6.3 6.2-11.8-.3-5.5-2.4z"/></defs><clipPath id="SVGID_2_"><use xlink:href="#SVGID_3_" overflow="visible"/></clipPath><circle cx="1404.1" cy="527.9" r="10.4" clip-path="url(#SVGID_2_)" fill="#ca5c31"/><path class="st14" d="M1391.4 541.8v40.1h24.7v-46z"/><path class="st13" d="M1417.7 562.6h23.9l16.2 24.5V819H1351V612.2l-34.2 29-16.8-16.4 68.3-61.7h22.4s.8 11 8.6 13.9c7.8 2.9 11 1.2 13.3-2.9 2.3-4.1 5.1-11.5 5.1-11.5z"/><path class="st13" d="M1306 617.6s-17.5 19.2-44.5 5.4c-14.9-7.5-36.5-26.6-36.5-26.6l-17.3 16.9s32.1 30 57.7 37.6c17.3 5.1 41.5.5 53.9-10.5s-13.3-22.8-13.3-22.8z"/><path class="st17" d="M1208.2 613.3l-16-14.4 15.7-15.7 6.7 6.7s-1.9-6.4 1.4-9.7c3.3-3.3 4.7 1.4 4.7 1.4l4.4 15-16.9 16.7z"/><path id="Path_219_9_" class="st16" d="M1368.7 503.7s5.6-24 14-24c5.3 0 8.4 2.7 14 2.7 7 0 11.1-4 16.8-4 22.4 0 22.4 25.4 22.4 25.4s2.1 5.3 2.8 4c.7-1.3 5.6-4 5.6-20 0-23.9-21-29.4-21-29.4s5.6-6.7 1.4-6.7-.3 3.3-22.4 1.3c-11.5 0-23.2 6.5-26.6 12-10.1 1.4-15.4 16.8-15.4 22.7 0 9.4 3.9 18 5.6 20 1.7 2 2.8-4 2.8-4z"/><path transform="rotate(-180 1424.227 598.48)" class="st17" d="M1411.3 591.1h25.8v14.8h-25.8z"/><path id="Path_220_9_" class="st16" d="M1407.3 509.2c-.4.5-.9 1.9-3.8 1.9s-3.1-.9-3.8-1.9c-.3-.4-.8-.6-1.3-.4-.6.2-.8.8-.6 1.4.4.9 2.1 2.8 5.7 2.8 2.2.1 4.4-1 5.7-2.8.7-1.1-1.2-2-1.9-1z"/><path id="Path_218_9_" class="st16" d="M1395.2 514.7c0-.2.2-.3.3-.3.2 0 .3.2.3.3 0 .1 0 .8 1.1.8.5 0 1-.8 1.5-1.6.7-1.2 1.6-2.5 3-2.5 1.1-.1 2.1.4 2.7 1.2.7-.8 1.7-1.3 2.7-1.2 1.4 0 2.2 1.4 3 2.5.5.8 1 1.6 1.5 1.6 1.1 0 1.1-.7 1.1-.8 0-.2.1-.3.3-.4.2 0 .4.1.4.3.1 1.1-.2 2.1-.9 2.9-.9 1-2.3 1.4-3.6 1.3-2.9 0-4.1-1-4.6-1.8-.5.8-1.7 1.8-4.6 1.8-1.3.1-2.6-.4-3.6-1.3-.4-.7-.7-1.8-.6-2.8z"/><ellipse class="st19" cx="1402" cy="512.1" rx="35.4" ry="38.9"/><ellipse class="st14" cx="1437.2" cy="516.7" rx="7.3" ry="9.6"/><ellipse class="st14" cx="1366.2" cy="483.9" rx="6.9" ry="9"/><circle class="st16" cx="1414" cy="499.6" r="2.4"/><circle class="st16" cx="1390.1" cy="499.8" r="2.4"/><defs><path id="SVGID_5_" d="M1390.5 523.4h24.8l-.8 11.4-6.3 6.2-11.8-.3-5.5-2.4z"/></defs><clipPath id="SVGID_4_"><use xlink:href="#SVGID_5_" overflow="visible"/></clipPath><path id="Path_219_6_" class="st16" d="M1366.7 503.7s6.9-21.7 15.3-21.7c5.3 0 7.1.3 12.6.3 7 0 11.1-4 16.8-4 22.4 0 22.4 25.4 22.4 25.4s2.1 5.3 2.8 4c.7-1.3 5.6-4 5.6-20 0-23.9-21-29.4-21-29.4s5.6-6.7 1.4-6.7-.3 3.3-22.4 1.3c-11.5 0-23.2 6.5-26.6 12-10.1 1.4-15.4 16.8-15.4 22.7 0 9.4 6 20.3 7.7 22.4 1.8 2.1.8-6.3.8-6.3z"/><path id="Path_220_13_" class="st16" d="M1409.6 496.1c.5-.7 1.3-2.7 5.3-2.7 4.1 0 4.4 1.3 5.3 2.7.4.6 1.1.8 1.8.6.8-.3 1.2-1.1.9-1.9-.5-1.3-2.9-4-8-4-3.2-.1-6.1 1.4-8 4-.9 1.4 1.7 2.6 2.7 1.3z"/><path id="Path_220_6_" class="st16" d="M1396.8 494.8c-1.8-2.6-4.8-4.1-8-4-5 0-7.5 2.7-8 4-.3.8.1 1.6.9 1.9.7.2 1.4 0 1.8-.6.9-1.4 1.3-2.7 5.3-2.7 4.1 0 4.8 2 5.3 2.7 1.1 1.3 3.7.1 2.7-1.3z"/><path id="Path_218_6_" class="st16" d="M1387.1 529.9c0-.3.3-.5.6-.5s.6.3.6.6c0 .2.1 1.3 1.9 1.4.8 0 1.7-1.4 2.5-2.7 1.2-2 2.7-4.2 5-4.2 1.8-.1 3.5.7 4.6 2.1 1.1-1.4 2.8-2.2 4.6-2.1 2.3 0 3.7 2.3 5 4.2.8 1.3 1.7 2.7 2.5 2.7 1.8 0 1.9-1.1 1.9-1.3 0-.3.2-.5.5-.6.3 0 .6.2.6.5.2 1.7-.3 3.5-1.4 4.9-1.6 1.6-3.7 2.4-6 2.2-4.9 0-6.9-1.6-7.7-3-.8 1.3-2.8 3-7.7 3-2.2.2-4.4-.6-6-2.2-1.1-1.5-1.6-3.3-1.5-5z"/><path class="st21" d="M1034 502.9h95.9s6 23.7 6.7 23.5c.8-.2-164.3-.9-164.3-.9l23.3-22.2h22.4s.8 10.6 8.6 13.3c7.8 2.7 11 1.2 13.3-2.7 2.3-4-5.9-11-5.9-11z"/><ellipse class="st19" cx="1029.3" cy="452.4" rx="35.4" ry="38.9"/><ellipse class="st14" cx="1064.5" cy="457" rx="7.3" ry="9.6"/><circle class="st15" cx="1041.3" cy="439.8" r="2.4"/><circle class="st15" cx="1017.4" cy="440.1" r="2.4"/><defs><path id="SVGID_7_" d="M1017.8 463.6h24.8l-.8 11.4-6.3 6.3-11.8-.4-5.5-2.3z"/></defs><clipPath id="SVGID_6_"><use xlink:href="#SVGID_7_" overflow="visible"/></clipPath><path class="st14" d="M1016.7 482.1v44h24.7v-49.9z"/><path id="Path_219_10_" class="st22" d="M996 445.9s5.6-24 14-24c5.3 0 8.4 2.7 14 2.7 7 0 11.1-4 16.8-4 22.4 0 22.4 25.4 22.4 25.4s2.1 5.3 2.8 4c.7-1.3 5.6-4 5.6-20 0-23.9-21-29.4-21-29.4s5.6-6.7 1.4-6.7-.3 3.3-22.4 1.3c-11.5 0-23.2 6.5-26.6 12-10.1 1.4-15.4 16.8-15.4 22.7 0 9.4 3.9 18 5.6 20s2.8-4 2.8-4z"/><path id="Path_220_15_" class="st16" d="M1036.7 469.2c-.8 1-1.9 4-8 4s-6.6-1.9-8-4c-.6-.9-1.7-1.2-2.6-.9-1.2.4-1.8 1.7-1.3 2.9.8 1.9 4.4 6 11.9 6 4.7.1 9.2-2.1 11.9-6 1.5-2-2.3-3.9-3.9-2z"/><path class="st12" d="M263.8 1021h1200.4c63.7 0 115.8-52.1 115.8-115.8v-8.4c0-63.7-52.1-93.8-115.8-82.8H263.8C200.1 803 148 833.1 148 896.8v8.4c0 63.7 52.1 115.8 115.8 115.8z"/><defs><path id="SVGID_9_" d="M400.3 1022h1063.3c111.8 0 203.3-91.5 203.3-203.3v-89.3c0-111.8-91.5-203.3-203.3-247.3H400.3C288.5 526 197 617.5 197 729.3v89.3c0 111.9 91.5 203.4 203.3 203.4z"/></defs><clipPath id="SVGID_8_"><use xlink:href="#SVGID_9_" overflow="visible"/></clipPath><ellipse cx="812.8" cy="542" rx="37.6" ry="41.4" clip-path="url(#SVGID_8_)" fill="#f2deab"/><ellipse cx="775.4" cy="546.9" rx="7.7" ry="10.2" clip-path="url(#SVGID_8_)" fill="#f2debc"/><ellipse cx="850.9" cy="547.1" rx="7.3" ry="9.6" clip-path="url(#SVGID_8_)" fill="#f2debc"/><circle cx="800.1" cy="528.7" r="2.6" clip-path="url(#SVGID_8_)" fill="#450900"/><circle cx="825.5" cy="528.9" r="2.6" clip-path="url(#SVGID_8_)" fill="#450900"/><g clip-path="url(#SVGID_8_)"><defs><path id="SVGID_11_" d="M825 557h-26.3l.9 5 6.6 6.7 12.6-.4 5.8-2.5z"/></defs><clipPath id="SVGID_10_"><use xlink:href="#SVGID_11_" overflow="visible"/></clipPath><circle class="st28" cx="812.7" cy="554.7" r="11.1"/></g><path clip-path="url(#SVGID_8_)" fill="#f2debc" d="M826.3 573.6v42.5H800v-48.8z"/><path d="M798.3 595.7l-28.4-.6L709 650s-16.2 39.2 22 11c19-14 24.7-20.3 24.7-20.3v86.5h113.5v-80.9l34.2 33.7-.4-35-52.1-48.9h-23.8s-.8 11.3-9.2 14.2c-8.3 2.9-11.7 1.3-14.2-2.9s-5.4-11.7-5.4-11.7z" clip-path="url(#SVGID_8_)" fill="#ca5c31"/><path d="M372.1 528.8l-16-36.7 21.7-9.4 11.3 26s.6-7.1 5.2-9.1c4.6-2 4.1 3.2 4.1 3.2l-1.4 16.5-24.9 9.5z" clip-path="url(#SVGID_8_)" fill="#fefaef"/><path d="M881.2 649.8s17 16 6.1 39.6c-6 13-26.4 37-26.4 37l-6.8 36s51.3-55.2 56.9-77.4c3.8-15-2.6-34-12.4-44.3-9.8-10.1-17.4 9.1-17.4 9.1zM732 653.3s-13 14-2.1 37.6c6 13 35.4 38 35.4 38l6.8 46s-64.3-64.2-69.9-86.4c-3.8-15 2.6-34 12.4-44.3 9.8-10.1 17.4 9.1 17.4 9.1z" clip-path="url(#SVGID_8_)" fill="#ca5c31"/><path id="Path_219_11_" d="M851.2 539.4c1.8-2.2 5.9-11.4 5.9-21.3 0-6.3-5.6-22.6-16.3-24.1-3.6-5.9-16-12.8-28.2-12.8-23.5 2.1-22.3 5.7-22.3 5.7s-22.3 5.8-22.3 31.2c0 17 5.2 19.9 5.9 21.3.7 1.4 3-4.3 3-4.3s0-27 23.8-27c6 0 10.4 4.3 17.8 4.3 5.9 0 9.3-2.8 14.9-2.8 9 0 14.9 25.6 14.9 25.6s1.1 6.3 2.9 4.2z" clip-path="url(#SVGID_8_)" fill="#181915"/><path clip-path="url(#SVGID_8_)" fill="#ca5c31" d="M755.7 663.6h113.2V911H755.7z"/><path clip-path="url(#SVGID_8_)" fill="#fefaef" d="M777.6 625.9H805v15.8h-27.4z"/><path transform="rotate(90 845.5 635.018)" clip-path="url(#SVGID_8_)" fill="#ae3c31" d="M805.5 629.5h80v11h-80z"/><path transform="rotate(-180 812.047 789)" clip-path="url(#SVGID_8_)" fill="#ae3c31" d="M755 667h114.1v244H755z"/><path id="Path_220_11_" d="M807.3 539.8c1.4 1.9 3.6 3.1 6 3 3.8 0 5.6-2 6-3 .2-.6-.1-1.2-.7-1.5-.5-.2-1.1 0-1.3.4-.7 1-.9 2-4 2s-3.6-1.5-4-2c-.8-.8-2.7.1-2 1.1z" clip-path="url(#SVGID_8_)" fill="#4d3e2e"/><g clip-path="url(#SVGID_8_)"><path class="st33" d="M1420.8 1077.1h93.6v-162h-120.6v123.8z"/><path class="st34" d="M1420.6 1077.1h132.6V938.3l-31.9-23.2h-100.7z"/><path class="st35" d="M1552.6 938.3h-132.8l-26.7-23.3h130.4z"/></g><path clip-path="url(#SVGID_8_)" fill="#753c2b" d="M1020.6 1148H1149V925.7H983.5v169.8z"/><path clip-path="url(#SVGID_8_)" fill="#ec883b" d="M1020.4 1148h181.7V957.6l-43.7-31.9h-138z"/><path clip-path="url(#SVGID_8_)" fill="#ffb028" d="M1201.4 957.6h-182.2l-36.6-32h178.8z"/><path id="Path_854" d="M1227.5 967.5v-6h84.1v6h-84.1z" clip-path="url(#SVGID_8_)" fill="#d24c34"/><path id="Path_855" d="M1239.5 961.5v-6h60.1v6h-60.1z" clip-path="url(#SVGID_8_)" fill="#cd763e"/><path id="Path_859" d="M915 775.2h216.4v264.4H915V775.2z" clip-path="url(#SVGID_8_)" fill="#3c3732"/><path id="Path_860" d="M921 955.5h198.3v84.1H921v-84.1z" clip-path="url(#SVGID_8_)" fill="#5b5b5b"/><path id="Path_861" d="M921 871.3h198.3v84.1H921v-84.1z" clip-path="url(#SVGID_8_)" fill="#967c62"/><path id="Path_862" d="M1119.3 1063.6V787.2H927v276.5h-12V775.2h216.4v288.5h-12.1z" clip-path="url(#SVGID_8_)" fill="#635649"/><path id="Path_863" d="M1251.6 919.4h174.3v72.1h-174.3v-72.1z" clip-path="url(#SVGID_8_)" fill="#914325"/><path id="Path_864" d="M1425.8 919.4h78.1v132.2h-78.1V919.4z" clip-path="url(#SVGID_8_)" fill="#c7875d"/><path id="Path_865" d="M1510 925.4v138.2h-12V925.4h-66.1v138.2h-12V925.4h-162.3v138.2h-12V925.4h-12v-12H1522v12h-12z" clip-path="url(#SVGID_8_)" fill="#aa6334"/><path id="Path_866" d="M1095.3 859.3h192.3c16.6 0 30 13.5 30 30v120.2c0 16.6-13.5 30-30 30h-192.3c-16.6 0-30-13.5-30-30V889.3c-.1-16.5 13.4-30 30-30z" clip-path="url(#SVGID_8_)" fill="#ffb863"/><path id="Path_867" d="M1089.3 1003.5h204.3v48.1h-204.3v-48.1z" clip-path="url(#SVGID_8_)" fill="#cd753e"/><path id="Path_868" d="M1089.3 967.5h204.3v42.1h-204.3v-42.1z" clip-path="url(#SVGID_8_)" fill="#b45f06"/><path id="Path_869" d="M1065.2 1051.6h12v12h-12v-12z" clip-path="url(#SVGID_8_)" fill="#b45f06"/><path id="Path_870" d="M1305.6 1051.6h12v12h-12v-12z" clip-path="url(#SVGID_8_)" fill="#b45f06"/><path id="Path_871" d="M1317.7 1051.6h-18c-10 0-18-8.1-18-18v-90.1c0-10 8.1-18 18-18h18c10 0 18 8.1 18 18v90.1c0 9.9-8.1 18-18 18zm-234.4 0h-18c-10 0-18-8.1-18-18v-90.1c0-10 8.1-18 18-18h18c10 0 18 8.1 18 18v90.1c0 9.9-8.1 18-18 18z" clip-path="url(#SVGID_8_)" fill="#fc921f"/><path class="st33" d="M1482.7 1069.8h101.5V894.1h-130.8v153.6z"/><path class="st8" d="M1482.5 1071h143.7V919.3l-34.6-25.2h-109.1z"/><path class="st35" d="M1625.6 919.3h-144.1l-28.9-25.3H1594z"/><linearGradient id="SVGID_12_" gradientUnits="userSpaceOnUse" x1="1318.475" y1="1059.283" x2="1482.51" y2="1059.283"><stop offset="0" stop-color="#33338d" stop-opacity="0"/><stop offset="1" stop-color="#454559"/></linearGradient><path opacity=".86" fill="url(#SVGID_12_)" d="M1453.2 1047.6h-134.7l38.1 23.4h125.9z"/><linearGradient id="SVGID_13_" gradientUnits="userSpaceOnUse" x1="492.474" y1="1131.5" x2="660.218" y2="1131.5"><stop offset="0" stop-color="#33338d" stop-opacity="0"/><stop offset="1" stop-color="#454559"/></linearGradient><path class="st52" d="M660.2 1122H492.5l38.1 19h125.9z"/><linearGradient id="SVGID_14_" gradientUnits="userSpaceOnUse" x1="760.475" y1="1131.5" x2="928.218" y2="1131.5"><stop offset="0" stop-color="#33338d" stop-opacity="0"/><stop offset="1" stop-color="#454559"/></linearGradient><path class="st53" d="M928.2 1122H760.5l.1 19h163.9z"/><path id="Path_777" class="st55" d="M929.8 1144.1c-5.2 0-9.3-4.2-9.3-9.3v-56.1H668.1v56.1c0 5.2-4.2 9.3-9.3 9.3s-9.3-4.2-9.3-9.3v-243c0-25.8 20.9-46.7 46.7-46.7h51.4c24 0 44.1 18.2 46.5 42.1h.4c1.1 12.3 10.9 22.1 23.3 23.3v.1h74.8c25.8 0 46.7 20.9 46.7 46.7v177.6c-.2 5-4.4 9.2-9.5 9.2z"/><path id="Path_778" class="st56" d="M649.4 985.2h289.8v84.1H649.4v-84.1z"/><path id="Path_779" class="st57" d="M658.7 994.6h271.1v65.4H658.7v-65.4z"/><path id="Path_780" class="st58" d="M658.7 1055.3h271.1v4.7H658.7v-4.7z"/><path id="Path_781" class="st59" d="M672.7 994.6h9.3v42.1h-9.3v-42.1z"/><path id="Path_782" class="st59" d="M696.1 994.6h9.3v42.1h-9.3v-42.1z"/><path id="Path_783" class="st59" d="M714.8 994.6h9.3v42.1h-9.3v-42.1z"/><path id="Path_784" class="st59" d="M738.2 994.6h9.3v42.1h-9.3v-42.1z"/><path id="Path_785" class="st59" d="M756.9 994.6h9.3v42.1h-9.3v-42.1z"/><path id="Path_786" class="st59" d="M780.2 994.6h9.3v42.1h-9.3v-42.1z"/><path id="Path_787" class="st59" d="M798.9 994.6h9.3v42.1h-9.3v-42.1z"/><path id="Path_788" class="st59" d="M817.6 994.6h9.3v42.1h-9.3v-42.1z"/><path id="Path_789" class="st59" d="M841 994.6h9.3v42.1H841v-42.1z"/><path id="Path_790" class="st59" d="M859.7 994.6h9.3v42.1h-9.3v-42.1z"/><path id="Path_791" class="st59" d="M883 994.6h9.3v42.1H883v-42.1z"/><path id="Path_792" class="st59" d="M906.4 994.6h9.3v42.1h-9.3v-42.1z"/><path transform="rotate(90 1374.594 602.018)" class="st60" d="M1334.6 596.5h80v11h-80z"/><path class="st60" d="M1351 634h107v181h-107z"/><path class="st17" d="M1451.5 704.2l1.1 31.2-18.8.7-.8-22.1s-2.5 5-6.5 5.1c-4 .1-2.1-3.5-2.1-3.5l5.9-11.6 21.2.2z"/></g><g id="Layer_5" class="st80"><path class="st81" d="M211-106h310v1655H211z"/></g></svg>