<svg xmlns="http://www.w3.org/2000/svg" viewBox="2794 3987 135 40"><defs><style>.cls-1{fill:#fff}</style></defs><g id="AppStore_Russian_1_" data-name="AppStore Russian (1)" transform="translate(2794 3987)"><path id="Path_491" data-name="Path 491" d="M130.2 40H4.729A4.74 4.74 0 0 1 0 35.267V4.726A4.733 4.733 0 0 1 4.729 0H130.2a4.8 4.8 0 0 1 4.8 4.726v30.541A4.8 4.8 0 0 1 130.2 40z"/><g id="Group_996" data-name="Group 996"><g id="Group_995" data-name="Group 995"><path id="Path_493" data-name="Path 493" class="cls-1" d="M30.128 19.784a5.8 5.8 0 0 1 2.761-4.864 5.937 5.937 0 0 0-4.676-2.528c-1.967-.207-3.875 1.177-4.877 1.177-1.022 0-2.565-1.157-4.228-1.123a6.225 6.225 0 0 0-5.24 3.2c-2.266 3.923-.576 9.688 1.6 12.859 1.086 1.553 2.355 3.287 4.016 3.226 1.625-.067 2.232-1.036 4.193-1.036 1.943 0 2.513 1.036 4.207 1 1.744-.028 2.842-1.56 3.89-3.127a12.832 12.832 0 0 0 1.779-3.623 5.6 5.6 0 0 1-3.425-5.161z"/><path id="Path_494" data-name="Path 494" class="cls-1" d="M26.928 10.306a5.706 5.706 0 0 0 1.306-4.089 5.812 5.812 0 0 0-3.758 1.944 5.43 5.43 0 0 0-1.34 3.938 4.8 4.8 0 0 0 3.792-1.793z"/></g></g><g id="Group_997" data-name="Group 997"><path id="Path_495" data-name="Path 495" class="cls-1" d="M53.645 31.5h-2.271l-1.244-3.905h-4.324L44.621 31.5H42.41l4.284-13.3h2.646zm-3.89-5.549L48.63 22.48q-.178-.532-.671-2.507h-.04q-.2.849-.632 2.507l-1.1 3.475z"/><path id="Path_496" data-name="Path 496" class="cls-1" d="M64.662 26.588a5.453 5.453 0 0 1-1.323 3.869 3.868 3.868 0 0 1-2.939 1.264 2.942 2.942 0 0 1-2.725-1.362h-.04v5.055H55.5V25.067q0-1.539-.079-3.159H57.3l.119 1.521h.04a3.793 3.793 0 0 1 6.071-.376 5.287 5.287 0 0 1 1.132 3.535zm-2.172.078a3.951 3.951 0 0 0-.632-2.31A2.183 2.183 0 0 0 60 23.408a2.217 2.217 0 0 0-1.431.523 2.426 2.426 0 0 0-.839 1.373 2.791 2.791 0 0 0-.1.65v1.6a2.564 2.564 0 0 0 .642 1.768 2.128 2.128 0 0 0 1.668.721 2.183 2.183 0 0 0 1.875-.928 4.084 4.084 0 0 0 .675-2.449z"/><path id="Path_497" data-name="Path 497" class="cls-1" d="M75.7 26.588a5.449 5.449 0 0 1-1.324 3.869 3.865 3.865 0 0 1-2.941 1.264 2.939 2.939 0 0 1-2.724-1.362h-.04v5.055h-2.133V25.067q0-1.539-.079-3.159h1.875l.119 1.521h.04a3.794 3.794 0 0 1 6.072-.376 5.3 5.3 0 0 1 1.135 3.535zm-2.172.078a3.951 3.951 0 0 0-.633-2.31 2.18 2.18 0 0 0-1.855-.948 2.22 2.22 0 0 0-1.432.523 2.424 2.424 0 0 0-.838 1.373 2.846 2.846 0 0 0-.1.65v1.6a2.572 2.572 0 0 0 .64 1.768 2.132 2.132 0 0 0 1.67.721 2.183 2.183 0 0 0 1.875-.928 4.084 4.084 0 0 0 .672-2.449z"/><path id="Path_498" data-name="Path 498" class="cls-1" d="M88.039 27.772a3.547 3.547 0 0 1-1.182 2.764 5.239 5.239 0 0 1-3.625 1.164 6.345 6.345 0 0 1-3.449-.829l.494-1.777a5.844 5.844 0 0 0 3.082.85 2.914 2.914 0 0 0 1.877-.544 1.776 1.776 0 0 0 .67-1.454 1.854 1.854 0 0 0-.553-1.364 5.141 5.141 0 0 0-1.836-1.029q-3.5-1.3-3.494-3.816a3.377 3.377 0 0 1 1.225-2.689A4.829 4.829 0 0 1 84.506 18a6.459 6.459 0 0 1 3.02.632l-.533 1.738a5.24 5.24 0 0 0-2.547-.612 2.578 2.578 0 0 0-1.756.553 1.58 1.58 0 0 0-.533 1.2 1.627 1.627 0 0 0 .611 1.3 6.906 6.906 0 0 0 1.932 1.036 6.568 6.568 0 0 1 2.527 1.618 3.38 3.38 0 0 1 .812 2.307z"/><path id="Path_499" data-name="Path 499" class="cls-1" d="M95.088 23.508h-2.35v4.659q0 1.777 1.244 1.777a3.792 3.792 0 0 0 .947-.1l.059 1.619a4.83 4.83 0 0 1-1.658.236 2.558 2.558 0 0 1-1.975-.77 3.783 3.783 0 0 1-.711-2.587v-4.836h-1.4v-1.6h1.4v-1.757l2.094-.632v2.389h2.35v1.6z"/><path id="Path_500" data-name="Path 500" class="cls-1" d="M105.691 26.627a5.264 5.264 0 0 1-1.264 3.633 4.513 4.513 0 0 1-3.516 1.461 4.291 4.291 0 0 1-3.365-1.4 5.1 5.1 0 0 1-1.254-3.534 5.212 5.212 0 0 1 1.293-3.652 4.475 4.475 0 0 1 3.484-1.422 4.382 4.382 0 0 1 3.4 1.4 5.044 5.044 0 0 1 1.222 3.514zm-2.212.069a4.316 4.316 0 0 0-.572-2.277 2.106 2.106 0 0 0-1.914-1.148 2.138 2.138 0 0 0-1.955 1.148 4.4 4.4 0 0 0-.572 2.317 4.31 4.31 0 0 0 .572 2.276 2.179 2.179 0 0 0 3.85-.02 4.332 4.332 0 0 0 .591-2.292z"/><path id="Path_501" data-name="Path 501" class="cls-1" d="M112.621 23.783a3.7 3.7 0 0 0-.672-.059 2.014 2.014 0 0 0-1.738.85 3.2 3.2 0 0 0-.533 1.9V31.5h-2.131l.02-6.574q0-1.659-.08-3.021h1.857l.078 1.836h.059a3.282 3.282 0 0 1 1.066-1.52 2.578 2.578 0 0 1 1.541-.514 3.423 3.423 0 0 1 .533.039v2.033z"/><path id="Path_502" data-name="Path 502" class="cls-1" d="M122.156 26.252a5 5 0 0 1-.078.967h-6.4a2.784 2.784 0 0 0 .928 2.173 3.168 3.168 0 0 0 2.092.671 7.074 7.074 0 0 0 2.588-.454l.334 1.48a8 8 0 0 1-3.217.593 4.66 4.66 0 0 1-3.506-1.313 4.849 4.849 0 0 1-1.273-3.524 5.5 5.5 0 0 1 1.186-3.613 4.086 4.086 0 0 1 3.355-1.539 3.576 3.576 0 0 1 3.141 1.539 5.19 5.19 0 0 1 .85 3.02zm-2.033-.553a2.9 2.9 0 0 0-.414-1.639 1.862 1.862 0 0 0-1.7-.889 2.023 2.023 0 0 0-1.7.869 3.181 3.181 0 0 0-.631 1.658h4.441z"/></g><g id="Group_999" data-name="Group 999"><g id="Group_998" data-name="Group 998"><path id="Path_503" data-name="Path 503" class="cls-1" d="M43.424 7.273a3.766 3.766 0 0 1 .771-.344 3.267 3.267 0 0 1 1.014-.141 2.27 2.27 0 0 1 1.483.446 1.475 1.475 0 0 1 .543 1.2 1.462 1.462 0 0 1-.363 1.009 1.757 1.757 0 0 1-.927.543v.029a2.381 2.381 0 0 1 .587.17 1.6 1.6 0 0 1 .485.325 1.528 1.528 0 0 1 .33.476 1.471 1.471 0 0 1 .121.6 1.76 1.76 0 0 1-.219.912 1.83 1.83 0 0 1-.572.6 2.4 2.4 0 0 1-.79.334 3.882 3.882 0 0 1-.873.1 4.462 4.462 0 0 1-.922-.1 2.863 2.863 0 0 1-.844-.32l.262-.805a4.025 4.025 0 0 0 .65.243 2.834 2.834 0 0 0 .805.116 1.582 1.582 0 0 0 1.033-.3 1.1 1.1 0 0 0 .218-1.363 1.064 1.064 0 0 0-.379-.345 1.655 1.655 0 0 0-.519-.174 3.429 3.429 0 0 0-.567-.049h-.437v-.8h.437a1.886 1.886 0 0 0 .558-.078 1.416 1.416 0 0 0 .446-.218 1.046 1.046 0 0 0 .3-.335.9.9 0 0 0 .106-.437.827.827 0 0 0-.311-.684 1.3 1.3 0 0 0-.834-.248 2.334 2.334 0 0 0-.718.116 5.3 5.3 0 0 0-.641.252z"/><path id="Path_504" data-name="Path 504" class="cls-1" d="M51.755 13.433l-.077-.543h-.029a1.6 1.6 0 0 1-1.377.65 1.531 1.531 0 0 1-.582-.107 1.435 1.435 0 0 1-.456-.291 1.284 1.284 0 0 1-.3-.437 1.408 1.408 0 0 1-.106-.553 1.452 1.452 0 0 1 .718-1.324 3.907 3.907 0 0 1 2.037-.441V10.3q0-.932-.978-.931a2.192 2.192 0 0 0-1.229.349l-.213-.688a2.994 2.994 0 0 1 1.617-.407q1.85 0 1.85 1.95v1.736a7.136 7.136 0 0 0 .068 1.125h-.942zm-.145-2.347a2.942 2.942 0 0 0-1.307.223.761.761 0 0 0-.429.728.71.71 0 0 0 .2.553.731.731 0 0 0 .512.184 1.031 1.031 0 0 0 .386-.073 1.05 1.05 0 0 0 .322-.2.988.988 0 0 0 .228-.306.866.866 0 0 0 .086-.383z"/><path id="Path_505" data-name="Path 505" class="cls-1" d="M57.683 8.719v.863h-1.96v3.851h-1.047V8.719z"/><path id="Path_506" data-name="Path 506" class="cls-1" d="M63.677 11.018a3.247 3.247 0 0 1-.155 1.028 2.39 2.39 0 0 1-.432.8 1.919 1.919 0 0 1-1.508.7 1.446 1.446 0 0 1-1.339-.669h-.02v2.483h-1.048v-5.089q0-.378-.01-.762a38.698 38.698 0 0 0-.028-.791h.921l.059.747h.02a1.746 1.746 0 0 1 1.591-.844 1.727 1.727 0 0 1 .771.174 1.885 1.885 0 0 1 .616.49 2.342 2.342 0 0 1 .412.757 3.023 3.023 0 0 1 .15.976zm-1.066.039a2.392 2.392 0 0 0-.083-.645 1.477 1.477 0 0 0-.242-.5 1.183 1.183 0 0 0-.388-.33 1.086 1.086 0 0 0-.947-.024 1.187 1.187 0 0 0-.373.262 1.3 1.3 0 0 0-.355.893v.787a1.369 1.369 0 0 0 .083.485 1.172 1.172 0 0 0 .232.388 1.051 1.051 0 0 0 .359.257 1.115 1.115 0 0 0 .46.092 1.076 1.076 0 0 0 .922-.451 2.008 2.008 0 0 0 .332-1.214z"/><path id="Path_507" data-name="Path 507" class="cls-1" d="M69.305 8.719l-1.194 3.269a14.667 14.667 0 0 1-.829 1.906 4.254 4.254 0 0 1-.771 1.082 2.321 2.321 0 0 1-1.155.591l-.252-.882a1.987 1.987 0 0 0 .776-.417 2.316 2.316 0 0 0 .592-.776.594.594 0 0 0 .077-.213.879.879 0 0 0-.058-.223L64.783 8.72h1.154l.893 2.629c.046.123.091.262.136.417s.094.327.146.514h.02c.032-.1.068-.234.106-.393s.091-.341.155-.548l.8-2.619h1.116z"/><path id="Path_508" data-name="Path 508" class="cls-1" d="M71.119 10.678h.481a1.472 1.472 0 0 0 .824-.194.567.567 0 0 0 .291-.476.54.54 0 0 0-.248-.465 1.171 1.171 0 0 0-.684-.175 1.836 1.836 0 0 0-.566.092 2.98 2.98 0 0 0-.529.228l-.268-.678a2.9 2.9 0 0 1 .811-.305 4.01 4.01 0 0 1 .809-.083 3.375 3.375 0 0 1 .646.063 1.79 1.79 0 0 1 .576.213 1.24 1.24 0 0 1 .412.393 1.068 1.068 0 0 1 .16.6.837.837 0 0 1-.088.393 1.017 1.017 0 0 1-.232.3 1.254 1.254 0 0 1-.324.213 1.743 1.743 0 0 1-.363.122v.029a1.873 1.873 0 0 1 .451.117 1.548 1.548 0 0 1 .393.228 1.138 1.138 0 0 1 .281.339.953.953 0 0 1 .105.451 1.149 1.149 0 0 1-.2.7 1.46 1.46 0 0 1-.52.446 2.51 2.51 0 0 1-.693.238 3.938 3.938 0 0 1-.736.073 4.094 4.094 0 0 1-.863-.092 2.71 2.71 0 0 1-.768-.286l.273-.689a2.789 2.789 0 0 0 .576.228 2.441 2.441 0 0 0 .664.092 1.38 1.38 0 0 0 .82-.208.625.625 0 0 0 .285-.519.588.588 0 0 0-.1-.344.71.71 0 0 0-.271-.228 1.329 1.329 0 0 0-.408-.121 3.444 3.444 0 0 0-.5-.034h-.494z"/><path id="Path_509" data-name="Path 509" class="cls-1" d="M76.715 8.719v1.668c0 .382-.006.725-.02 1.028s-.029.624-.049.96l.02.019.363-.723c.119-.237.242-.477.365-.723l1.164-2.231h1.357v4.714h-.99v-1.668c0-.349.01-.7.025-1.047s.033-.7.053-1.058h-.049a6.95 6.95 0 0 1-.33.757c-.109.213-.219.433-.328.66l-.6 1.164q-.3.582-.625 1.193h-1.355V8.719z"/><path id="Path_510" data-name="Path 510" class="cls-1" d="M85.445 8.719v.863H84.01v3.851h-1.03V9.582h-1.426v-.863z"/><path id="Path_511" data-name="Path 511" class="cls-1" d="M90.789 10.853c0 .09 0 .176-.01.257a1.752 1.752 0 0 1-.029.218h-3.143a1.383 1.383 0 0 0 .422 1.033 1.526 1.526 0 0 0 1.062.364 3.518 3.518 0 0 0 1.271-.223l.164.728a3.947 3.947 0 0 1-1.582.291 2.715 2.715 0 0 1-.988-.17 2.044 2.044 0 0 1-.738-.48 2.121 2.121 0 0 1-.461-.747 2.868 2.868 0 0 1-.158-.979 3.086 3.086 0 0 1 .158-1 2.472 2.472 0 0 1 .451-.8 2.111 2.111 0 0 1 .7-.534 2.138 2.138 0 0 1 .918-.194 2 2 0 0 1 .811.16 1.709 1.709 0 0 1 .619.456 2.023 2.023 0 0 1 .393.708 2.869 2.869 0 0 1 .14.912zm-1-.271a1.42 1.42 0 0 0-.266-.9.919.919 0 0 0-.771-.345 1.009 1.009 0 0 0-.775.349 1.479 1.479 0 0 0-.369.893z"/><path id="Path_512" data-name="Path 512" class="cls-1" d="M95.01 8.758c.188-.032.426-.058.717-.078s.588-.029.893-.029c.193 0 .412.012.654.034a2.687 2.687 0 0 1 .693.155 1.382 1.382 0 0 1 .553.364.935.935 0 0 1 .225.659.916.916 0 0 1-.078.383.974.974 0 0 1-.209.3 1.154 1.154 0 0 1-.3.208 1.466 1.466 0 0 1-.354.121l.01.029a1.648 1.648 0 0 1 .834.369.981.981 0 0 1 .32.776 1.115 1.115 0 0 1-.271.786 1.7 1.7 0 0 1-.67.437 3.277 3.277 0 0 1-.84.185 9.444 9.444 0 0 1-.789.039c-.26 0-.514-.006-.762-.02s-.457-.026-.625-.039zm1.008 1.882h.533a2.947 2.947 0 0 0 .461-.034 1.521 1.521 0 0 0 .383-.106.647.647 0 0 0 .258-.194.477.477 0 0 0 .092-.3.5.5 0 0 0-.268-.47 1.78 1.78 0 0 0-.838-.15c-.109 0-.205 0-.287.01l-.334.029v1.215zm0 2.085c.129.013.238.022.324.029s.189.01.307.01a3.257 3.257 0 0 0 .436-.029 1.45 1.45 0 0 0 .408-.111.751.751 0 0 0 .295-.222.58.58 0 0 0 .113-.371.561.561 0 0 0-.359-.559 2.5 2.5 0 0 0-.971-.154h-.553v1.407z"/></g></g></g></svg>