<svg xmlns="http://www.w3.org/2000/svg" viewBox="2458 1587.001 96 61.999"><defs><style>.cls-1{fill:#fb5c3f}.cls-2{fill:#333}.cls-3{fill:#fc921f}.cls-4{fill:#27a2de}</style></defs><g id="Group_1126" data-name="Group 1126" transform="translate(-1636 1509)"><path id="Union_106" data-name="Union 106" class="cls-1" d="M56 5a5 5 0 1 1 5 5 5 5 0 0 1-5-5zM0 5a5 5 0 1 1 5 5 5 5 0 0 1-5-5z" transform="translate(4108 126)"/><path id="Subtraction_93" data-name="Subtraction 93" class="cls-2" d="M66.055 86h-38.11q.022-.2.036-.407a9 9 0 0 1-17.94.271q.006.068.014.135H2a2 2 0 0 1-2-2V34a2 2 0 0 1 2-2h58a2 2 0 0 1 2 2v12h17a4 4 0 0 1 4 4l2 10 9.4 8.8A3.972 3.972 0 0 1 96 72v10a4 4 0 0 1-4 4h-8.054a9.13 9.13 0 0 0 .054-.94 9 9 0 0 1-17.945.94zM68 85a7 7 0 1 0 7-7 7.008 7.008 0 0 0-7 7zm-56 0a7 7 0 1 0 7-7 7.008 7.008 0 0 0-7 7zm-1.96.846v-.035zm17.942-.273v-.031zm0-.062zm0-.063zm0-.06zm0-.061zm0-.06zM10 85.255zm18-.049zM10 85.2zm56 0zm-38-.049v-.024.019zm38-.01zm-56 0zm18-.052v-.023.018zm38-.007v-.016.011zm-56 0v-.016.011zM84 85zm-18 0zm-38 0zm-18 0zm74-.059a9.133 9.133 0 0 0-.054-.941H92a2 2 0 0 0 2-2v-4h-2a1 1 0 1 1 0-2h2v-4.9L82.878 60.732 81 50a2 2 0 0 0-2-2H62v33h-2V34H2v42h2a1 1 0 1 1 0 2H2v6h8.055q-.018.163-.03.327a9 9 0 0 1 17.951.008q-.012-.169-.031-.336h38.11A9 9 0 0 1 84 84.941zm-56 0v-.023.022zm38 0v-.018.016zm-56 0v-.018.016zm18-.061v-.023.021zm38 0zm-56 0zm18-.06zm-18 0zm56 0zm-38-.065zm-18-.002zm56 0zm-38.008-.058zm-17.989 0zm56-.005zm-38.011-.06zm-17.985 0zm17.982-.061zm-17.979 0zm17.976-.06zm-17.973 0zm17.969-.057zm-17.966 0zm17.962-.054zm-17.958-.009zM73 85a2 2 0 1 1 2 2 2 2 0 0 1-2-2zm-56 0a2 2 0 1 1 2 2 2 2 0 0 1-2-2z" transform="translate(4094 46)"/><path id="Subtraction_124" data-name="Subtraction 124" class="cls-3" d="M936-1259h-34.291a9.014 9.014 0 0 0-6.709-3 9.015 9.015 0 0 0-6.708 3H878v-45h58v45z" transform="translate(3218 1384)"/><path id="Path_570" data-name="Path 570" class="cls-4" d="M2 2h13.5c1.5 0 1.7.5 2 2l1.5 8.857H2z" transform="translate(4156 94)"/><rect id="Rectangle_592" data-name="Rectangle 592" class="cls-2" width="42" height="2" rx="1" transform="translate(4104 88)"/><rect id="Rectangle_593" data-name="Rectangle 593" class="cls-2" width="42" height="2" rx="1" transform="translate(4104 112)"/><path id="Rectangle_595" data-name="Rectangle 595" class="cls-2" transform="translate(4095 125)" d="M0 0h12v2H0z"/><path id="Rectangle_596" data-name="Rectangle 596" class="cls-2" transform="translate(4119 125)" d="M0 0h36v2H0z"/><path id="Rectangle_597" data-name="Rectangle 597" class="cls-2" transform="translate(4155 125)" d="M0 0h8v2H0z"/><path id="Rectangle_598" data-name="Rectangle 598" class="cls-2" transform="translate(4175 125)" d="M0 0h15v2H0z"/></g></svg>