<svg xmlns="http://www.w3.org/2000/svg" viewBox="4013 2624 96 94"><defs><style>.cls-1{fill:#fc921f}.cls-2{fill:#f0f0f0}.cls-3{fill:#fb5c3f}.cls-4{fill:#ffdcb5}.cls-5{fill:#333}.cls-6{fill:#27a2de}</style></defs><g id="Symbol_62_2" data-name="Symbol 62 – 2" transform="translate(-280 1491)"><g id="Group_1126" data-name="Group 1126" transform="translate(199 1087)"><path id="Subtraction_121" data-name="Subtraction 121" class="cls-1" d="M1353.5-2474H1295l9.425-47h40.839a21.1 21.1 0 0 0 8.236 6.979V-2474z" transform="translate(2801.5 2600)"/><circle id="Ellipse_447" data-name="Ellipse 447" class="cls-2" cx="7" cy="7" r="7" transform="translate(4106 124)"/><circle id="Ellipse_448" data-name="Ellipse 448" class="cls-2" cx="7" cy="7" r="7" transform="translate(4162 124)"/><path id="Union_106" data-name="Union 106" class="cls-3" d="M56 5a5 5 0 1 1 5 5 5 5 0 0 1-5-5zM0 5a5 5 0 1 1 5 5 5 5 0 0 1-5-5z" transform="translate(4108 126)"/><path id="Subtraction_123" data-name="Subtraction 123" class="cls-4" d="M1327-2522h-14.114a6.971 6.971 0 0 0-4.886-2 6.971 6.971 0 0 0-4.886 2H1295v-32h17a2 2 0 0 1 2 2l1.878 10.732L1327-2530.9v8.9z" transform="translate(2861 2648)"/><path id="Subtraction_93" data-name="Subtraction 93" class="cls-5" d="M75 94a8.988 8.988 0 0 1-8.945-8h-38.11a9 9 0 0 1-17.89 0H2a2 2 0 0 1-2-2l4-20H1a1 1 0 1 1 0-2h3.4l2.2-11H1a1 1 0 1 1 0-2h6l1.8-9H1a1 1 0 1 1 0-2h8.2l.8-4a2 2 0 0 1 2-2h40.109a21.122 21.122 0 0 0 1.4 2H12l-1 5a1.01 1.01 0 0 1-.077.381L3.6 76H6a1 1 0 0 1 0 2H3.2L2 84h8.055a9 9 0 0 1 17.921.336 7.352 7.352 0 0 0-.031-.336h38.11A9 9 0 0 1 84 84.941a9.007 9.007 0 0 0-.054-.94H92a2 2 0 0 0 2-2V78h-2a1 1 0 1 1 0-2h2v-4.9L82.878 60.732 81 50a2 2 0 0 0-2-2H62v33h-2V39.471a20.991 20.991 0 0 0 2 .951V46h17a4 4 0 0 1 4 4l2 10 9.4 8.8A3.973 3.973 0 0 1 96 72v10a4 4 0 0 1-4 4h-8.054a9.007 9.007 0 0 0 .054-.94A9.023 9.023 0 0 1 75 94zm0-16a7 7 0 1 0 7 7 7.008 7.008 0 0 0-7-7zm-56 0a7 7 0 1 0 7 7 7.008 7.008 0 0 0-7-7zm56 9a2 2 0 1 1 2-2 2 2 0 0 1-2 2zm-56 0a2 2 0 1 1 2-2 2 2 0 0 1-2 2z" transform="translate(4094 46)"/><path id="Path_570" data-name="Path 570" class="cls-6" d="M2 2h13.5c1.5 0 1.7.5 2 2l1.5 8.857H2z" transform="translate(4156 94)"/><path id="Path_627" data-name="Path 627" class="cls-5" d="M11 0h30a1 1 0 0 1 0 2H11a1 1 0 0 1 0-2z" transform="translate(4104 88)"/><path id="Path_628" data-name="Path 628" class="cls-5" d="M7 0h34a1 1 0 0 1 0 2H7a1 1 0 0 1 0-2z" transform="translate(4104 112)"/><path id="Rectangle_595" data-name="Rectangle 595" class="cls-5" transform="translate(4095 125)" d="M0 0h12v2H0z"/><path id="Rectangle_596" data-name="Rectangle 596" class="cls-5" transform="translate(4119 125)" d="M0 0h36v2H0z"/><path id="Rectangle_597" data-name="Rectangle 597" class="cls-5" transform="translate(4155 125)" d="M0 0h8v2H0z"/><path id="Rectangle_598" data-name="Rectangle 598" class="cls-5" transform="translate(4175 125)" d="M0 0h15v2H0z"/></g><g id="Group_1198" data-name="Group 1198"><g id="Group_1197" data-name="Group 1197" transform="translate(-432.826 49.498)"><path id="Path_620" data-name="Path 620" class="cls-3" d="M157.328 63.01c.123-16.21-23.088-17.193-24.93-.123-.123-18.789 27.632-20.754 29.842-.123z" transform="translate(4648.446 1041.615)"/><path id="Path_622" data-name="Path 622" class="cls-5" d="M215.872 111.775a2.163 2.163 0 0 0 2.579-1.842l1.6-16.333-5.772 15.351a2.329 2.329 0 0 0 1.593 2.824z" transform="translate(4579.218 1003.043)"/><circle id="Ellipse_425" data-name="Ellipse 425" class="cls-5" cx="1" cy="1" r="1" transform="translate(4794.826 1117.502)"/><circle id="Ellipse_426" data-name="Ellipse 426" class="cls-5" cx="1" cy="1" r="1" transform="translate(4799.826 1117.502)"/><circle id="Ellipse_427" data-name="Ellipse 427" class="cls-5" cx="1" cy="1" r="1" transform="translate(4789.826 1117.502)"/></g><path id="Subtraction_91" data-name="Subtraction 91" class="cls-5" d="M21 42a21 21 0 1 1 21-21 21.024 21.024 0 0 1-21 21zm0-40a19 19 0 1 0 19 19A19.021 19.021 0 0 0 21 2z" transform="translate(4342 1133)"/></g></g></svg>