<svg xmlns="http://www.w3.org/2000/svg" viewBox="3216 1384 96 94"><defs><style>.cls-1{fill:#333}.cls-2{fill:#41b780}.cls-3{fill:#fff}.cls-4{fill:#fb5c3f}.cls-5{fill:#fc921f}.cls-6{fill:#27a2de}</style></defs><g id="Group_1247" data-name="Group 1247" transform="translate(-1154 251)"><g id="Group_1128" data-name="Group 1128" transform="translate(271 1087)"><path id="Subtraction_91" data-name="Subtraction 91" class="cls-1" d="M21 42a21 21 0 1 1 21-21 21.024 21.024 0 0 1-21 21zm0-40a19 19 0 1 0 19 19A19.021 19.021 0 0 0 21 2z" transform="translate(4148 46)"/><circle id="Ellipse_417" data-name="Ellipse 417" class="cls-2" cx="16" cy="16" r="16" transform="translate(4153 51)"/><path id="Union_107" data-name="Union 107" class="cls-3" d="M888.271-1178.221a1.238 1.238 0 0 1-.881-.364l-3.512-3.513a1.241 1.241 0 0 1 0-1.756 1.241 1.241 0 0 1 1.756 0l2.637 2.637 7.906-7.906a1.243 1.243 0 0 1 1.756 0 1.242 1.242 0 0 1 0 1.757l-8.781 8.78a1.238 1.238 0 0 1-.878.364z" transform="translate(3277.65 1250.386)"/></g><g id="Group_1126" data-name="Group 1126" transform="translate(276 1087)"><path id="Union_106" data-name="Union 106" class="cls-4" d="M56 5a5 5 0 1 1 5 5 5 5 0 0 1-5-5zM0 5a5 5 0 1 1 5 5 5 5 0 0 1-5-5z" transform="translate(4108 126)"/><path id="Subtraction_93" data-name="Subtraction 93" class="cls-1" d="M75 94a8.988 8.988 0 0 1-8.945-8h-38.11a9 9 0 0 1-17.89 0H2a2 2 0 0 1-2-2V34a2 2 0 0 1 2-2h50.109a21.122 21.122 0 0 0 1.4 2H2v42h2a1 1 0 1 1 0 2H2v6h8.055a9 9 0 0 1 17.921.336 7.352 7.352 0 0 0-.031-.336h38.11A9 9 0 0 1 84 84.941a9.007 9.007 0 0 0-.054-.94H92a2 2 0 0 0 2-2V78h-2a1 1 0 1 1 0-2h2v-4.9L82.878 60.732 81 50a2 2 0 0 0-2-2H62v33h-2V39.471a20.991 20.991 0 0 0 2 .951V46h17a4 4 0 0 1 4 4l2 10 9.4 8.8A3.973 3.973 0 0 1 96 72v10a4 4 0 0 1-4 4h-8.054a9.007 9.007 0 0 0 .054-.94A9.023 9.023 0 0 1 75 94zm0-16a7 7 0 1 0 7 7 7.008 7.008 0 0 0-7-7zm-56 0a7 7 0 1 0 7 7 7.008 7.008 0 0 0-7-7zm56 9a2 2 0 1 1 2-2 2 2 0 0 1-2 2zm-56 0a2 2 0 1 1 2-2 2 2 0 0 1-2 2z" transform="translate(4094 46)"/><path id="Subtraction_124" data-name="Subtraction 124" class="cls-5" d="M936-1259h-34.292a9.018 9.018 0 0 0-6.709-3 9.014 9.014 0 0 0-6.708 3H878v-45h51.506a20.965 20.965 0 0 0 6.494 5.471V-1259z" transform="translate(3218 1384)"/><path id="Path_570" data-name="Path 570" class="cls-6" d="M2 2h13.5c1.5 0 1.7.5 2 2l1.5 8.857H2z" transform="translate(4156 94)"/><rect id="Rectangle_592" data-name="Rectangle 592" class="cls-1" width="42" height="2" rx="1" transform="translate(4104 88)"/><rect id="Rectangle_593" data-name="Rectangle 593" class="cls-1" width="42" height="2" rx="1" transform="translate(4104 112)"/><path id="Rectangle_595" data-name="Rectangle 595" class="cls-1" transform="translate(4095 125)" d="M0 0h12v2H0z"/><path id="Rectangle_596" data-name="Rectangle 596" class="cls-1" transform="translate(4119 125)" d="M0 0h36v2H0z"/><path id="Rectangle_597" data-name="Rectangle 597" class="cls-1" transform="translate(4155 125)" d="M0 0h8v2H0z"/><path id="Rectangle_598" data-name="Rectangle 598" class="cls-1" transform="translate(4175 125)" d="M0 0h15v2H0z"/></g><rect id="Rectangle_594" data-name="Rectangle 594" class="cls-1" width="5" height="2" rx="1" transform="translate(4446 1196)"/></g></svg>