<svg xmlns="http://www.w3.org/2000/svg" viewBox="3139 2612 93 82"><defs><style>.cls-1{fill:#ffdcb5}.cls-2{fill:#fc921f}.cls-3{fill:#333}.cls-4{fill:#fb5c3f}</style></defs><g id="Symbol_61_1" data-name="Symbol 61 – 1" transform="translate(-1154 1467)"><path id="Rectangle_724" data-name="Rectangle 724" class="cls-1" transform="translate(4313 1147)" d="M0 0h39v49H0z"/><g id="Group_1187" data-name="Group 1187" transform="translate(-229 194)"><path id="Rectangle_634" data-name="Rectangle 634" class="cls-2" transform="translate(4565 969)" d="M0 0h48v60H0z"/><path id="Union_112" data-name="Union 112" class="cls-3" d="M52 64H29.007A2 2 0 0 0 31 62h19V19H27v23h-2V19H2v16H0V0h52v64zM27 17h23V2H27zM2 17h23V2H2zm27 12a1 1 0 1 1 1 1 1 1 0 0 1-1-1zm-8 0a1 1 0 1 1 1 1 1 1 0 0 1-1-1zm8-15a1 1 0 1 1 1 1 1 1 0 0 1-1-1zm-8 0a1 1 0 1 1 1 1 1 1 0 0 1-1-1z" transform="translate(4563 967)"/><path id="Union_113" data-name="Union 113" class="cls-3" d="M38 2V0h2v2zM0 2V0h2v2z" transform="translate(4569 1031)"/></g><g id="Group_1189" data-name="Group 1189" transform="translate(-226 194)"><g id="Group_1188" data-name="Group 1188"><path id="Rectangle_635" data-name="Rectangle 635" class="cls-4" transform="translate(4529 1004)" d="M0 0h52v25H0z"/><path id="Rectangle_636" data-name="Rectangle 636" class="cls-4" transform="translate(4521 1011)" d="M0 0h6v18H0z"/><path id="Rectangle_637" data-name="Rectangle 637" class="cls-4" transform="translate(4583 1011)" d="M0 0h6v18H0z"/></g><path id="Union_109" data-name="Union 109" class="cls-3" d="M66 31v-2h2v2zM4 31v-2h2v2zm60-2H2a2 2 0 0 1-2-2V9a2 2 0 0 1 2-2h6V2a2 2 0 0 1 2-2h52a2 2 0 0 1 2 2v5h6a2 2 0 0 1 2 2v18a2 2 0 0 1-2 2zm0-19v17h5a1 1 0 0 0 1-1V10a1 1 0 0 0-1-1h-4a1 1 0 0 0-1 1zM10 27h52v-6H10zM2 10v16a1 1 0 0 0 1 1h5V10a1 1 0 0 0-1-1H3a1 1 0 0 0-1 1zm60 9V3a1 1 0 0 0-1-1h-9v17zm-12 0V2H37v17zm-15 0V2H22v17zM10 3v16h10V2h-9a1 1 0 0 0-1 1z" transform="translate(4519 1002)"/></g><g id="Group_1190" data-name="Group 1190" transform="translate(-232 194)"><path id="Path_574" data-name="Path 574" class="cls-2" d="M-2.23-3.006H9.98l1.736 9.722H-3.8z" transform="translate(4536 983)"/><path id="Union_116" data-name="Union 116" class="cls-3" d="M8 23V12h2v11zm10-11H0L2 0h14l2 12zM2 10h14l-1.3-8H3.3z" transform="translate(4531 979)"/></g><path id="Union_119" data-name="Union 119" class="cls-3" d="M5-278v-50H-7v26h-2v-28h43v18h-2v-16H7v50zm-14 0v-13h2v13z" transform="translate(4320 1475)"/></g></svg>