<svg xmlns="http://www.w3.org/2000/svg" viewBox="2949 3987 135 40"><defs><style>.cls-1,.cls-8,.cls-9{fill:#fff}.cls-2{fill:url(#linear-gradient)}.cls-3{fill:url(#linear-gradient-2)}.cls-4{fill:url(#linear-gradient-3)}.cls-5{fill:url(#linear-gradient-4)}.cls-6{opacity:.2}.cls-7{opacity:.12}.cls-8{opacity:.25}.cls-9{stroke:#fff;stroke-miterlimit:10;stroke-width:.2px}</style><linearGradient id="linear-gradient" x1=".915" y1="6.632" x2="-.376" y2="5.96" gradientUnits="objectBoundingBox"><stop offset="0" stop-color="#00a0ff"/><stop offset=".007" stop-color="#00a1ff"/><stop offset=".26" stop-color="#00beff"/><stop offset=".512" stop-color="#00d2ff"/><stop offset=".76" stop-color="#00dfff"/><stop offset="1" stop-color="#00e3ff"/></linearGradient><linearGradient id="linear-gradient-2" x1="1.077" y1="17.2" x2="-1.307" y2="17.2" gradientUnits="objectBoundingBox"><stop offset="0" stop-color="#ffe000"/><stop offset=".409" stop-color="#ffbd00"/><stop offset=".775" stop-color="orange"/><stop offset="1" stop-color="#ff9c00"/></linearGradient><linearGradient id="linear-gradient-3" x1=".864" y1="10.839" x2="-.499" y2="9.074" gradientUnits="objectBoundingBox"><stop offset="0" stop-color="#ff3a44"/><stop offset="1" stop-color="#c31162"/></linearGradient><linearGradient id="linear-gradient-4" x1="-.186" y1="13.614" x2=".423" y2="12.822" gradientUnits="objectBoundingBox"><stop offset="0" stop-color="#32a071"/><stop offset=".068" stop-color="#2da771"/><stop offset=".476" stop-color="#15cf74"/><stop offset=".801" stop-color="#06e775"/><stop offset="1" stop-color="#00f076"/></linearGradient></defs><g id="GooglePlay_Russian_1_" data-name="GooglePlay Russian (1)" transform="translate(2939 3977)"><g id="Group_993" data-name="Group 993"><g id="Group_988" data-name="Group 988"><path id="Path_471" data-name="Path 471" d="M140 50H15a4.951 4.951 0 0 1-5-5V15a4.951 4.951 0 0 1 5-5h125a4.951 4.951 0 0 1 5 5v30a5.015 5.015 0 0 1-5 5z"/></g><path id="Path_473" data-name="Path 473" class="cls-1" d="M78.1 31.8a4.207 4.207 0 0 0-4.3 4.3 4.268 4.268 0 0 0 4.3 4.3 4.207 4.207 0 0 0 4.3-4.3 4.149 4.149 0 0 0-4.3-4.3zm0 6.8a2.608 2.608 0 0 1 0-5.2 2.422 2.422 0 0 1 2.4 2.6 2.482 2.482 0 0 1-2.4 2.6zm-9.3-6.8a4.207 4.207 0 0 0-4.3 4.3 4.268 4.268 0 0 0 4.3 4.3 4.207 4.207 0 0 0 4.3-4.3 4.149 4.149 0 0 0-4.3-4.3zm0 6.8a2.608 2.608 0 0 1 0-5.2 2.422 2.422 0 0 1 2.4 2.6 2.482 2.482 0 0 1-2.4 2.6zm-11.1-5.5v1.8H62a3.781 3.781 0 0 1-1 2.3 4.426 4.426 0 0 1-3.3 1.3 4.656 4.656 0 0 1-4.7-4.8 4.717 4.717 0 0 1 4.7-4.8 4.958 4.958 0 0 1 3.3 1.3l1.3-1.3a6.408 6.408 0 0 0-4.5-1.8 6.6 6.6 0 1 0 0 13.2 5.755 5.755 0 0 0 4.6-1.9 6.02 6.02 0 0 0 1.6-4.2 3.75 3.75 0 0 0-.1-1.1h-6.2zm45.4 1.4a3.885 3.885 0 0 0-3.6-2.7 4.028 4.028 0 0 0-4 4.3 4.185 4.185 0 0 0 4.2 4.3 4.1 4.1 0 0 0 3.5-1.9l-1.4-1a2.437 2.437 0 0 1-2.1 1.2 2.17 2.17 0 0 1-2.1-1.3l5.7-2.4zm-5.8 1.4a2.429 2.429 0 0 1 2.2-2.5 1.769 1.769 0 0 1 1.6.9zM92.6 40h1.9V27.5h-1.9zm-3-7.3a3.293 3.293 0 0 0-2.3-1 4.3 4.3 0 0 0-4.1 4.3 4.141 4.141 0 0 0 4.1 4.2 2.871 2.871 0 0 0 2.2-1h.1v.6a2.273 2.273 0 0 1-4.4 1l-1.6.7a4.125 4.125 0 0 0 3.8 2.5c2.2 0 4-1.3 4-4.4V32h-1.8v.7zm-2.2 5.9a2.608 2.608 0 0 1 0-5.2 2.406 2.406 0 0 1 2.3 2.6 2.406 2.406 0 0 1-2.3 2.6zm24.4-11.1h-4.5V40h1.9v-4.7h2.6a3.9 3.9 0 1 0 0-7.8zm.1 6h-2.7v-4.3h2.7a2.2 2.2 0 0 1 2.2 2.1 2.289 2.289 0 0 1-2.2 2.2zm11.5-1.8a3.361 3.361 0 0 0-3.3 1.9l1.7.7a1.766 1.766 0 0 1 1.7-.9 1.879 1.879 0 0 1 2 1.6v.1a3.967 3.967 0 0 0-1.9-.5c-1.8 0-3.6 1-3.6 2.8a2.93 2.93 0 0 0 3.1 2.8 2.814 2.814 0 0 0 2.4-1.2h.1v1h1.8v-4.8a3.785 3.785 0 0 0-4-3.5zm-.2 6.9c-.6 0-1.5-.3-1.5-1.1 0-1 1.1-1.3 2-1.3a3.867 3.867 0 0 1 1.7.4 2.329 2.329 0 0 1-2.2 2zm10.5-6.6l-2.1 5.4h-.1l-2.2-5.4h-2l3.3 7.6-1.9 4.2h1.9l5.1-11.8zm-16.8 8h1.9V27.5h-1.9z"/><g id="Group_992" data-name="Group 992"><path id="Path_474" data-name="Path 474" class="cls-2" d="M20.4 17.5a1.978 1.978 0 0 0-.5 1.4V41a1.978 1.978 0 0 0 .5 1.4l.1.1 12.4-12.4v-.2L20.4 17.5z"/><path id="Path_475" data-name="Path 475" class="cls-3" d="M37 34.3l-4.1-4.1v-.3l4.1-4.1.1.1 4.9 2.8c1.4.8 1.4 2.1 0 2.9l-5 2.7z"/><path id="Path_476" data-name="Path 476" class="cls-4" d="M37.1 34.2L32.9 30 20.4 42.5c.5.5 1.2.5 2.1.1l14.6-8.4"/><path id="Path_477" data-name="Path 477" class="cls-5" d="M37.1 25.8l-14.6-8.3a1.621 1.621 0 0 0-2.1.1L32.9 30z"/><g id="Group_991" data-name="Group 991"><path id="Path_478" data-name="Path 478" class="cls-6" d="M37 34.1l-14.5 8.2a1.635 1.635 0 0 1-2 0l-.1.1.1.1a1.635 1.635 0 0 0 2 0L37 34.1z"/><path id="Path_479" data-name="Path 479" class="cls-7" d="M20.4 42.3a1.955 1.955 0 0 1-.4-1.4v.1a1.978 1.978 0 0 0 .5 1.4v-.1z"/></g><path id="Path_480" data-name="Path 480" class="cls-7" d="M42 31.3l-5 2.8.1.1 4.9-2.8a1.662 1.662 0 0 0 1-1.4c0 .5-.4.9-1 1.3z"/><path id="Path_481" data-name="Path 481" class="cls-8" d="M22.5 17.6L42 28.7c.6.4 1 .8 1 1.3a1.662 1.662 0 0 0-1-1.4L22.5 17.5c-1.4-.8-2.5-.1-2.5 1.5v.1c0-1.6 1.1-2.3 2.5-1.5z"/></g></g><g id="Group_994" data-name="Group 994"><path id="Path_482" data-name="Path 482" class="cls-9" d="M52.1 24.3h-.7v-2h.6a2.887 2.887 0 0 0 .8-2.3v-3h4v5.3h.7v2h-.7V23h-4.6v1.3zm1.4-4.3a4.143 4.143 0 0 1-.6 2.3h3v-4.5h-2.5V20z"/><path id="Path_483" data-name="Path 483" class="cls-9" d="M63.4 22.2a3.1 3.1 0 0 1-5.3-2.2 3.1 3.1 0 1 1 5.3 2.2zm-3.8-.5a2.36 2.36 0 0 0 1.6.7 1.99 1.99 0 0 0 1.6-.7 2.413 2.413 0 0 0 .7-1.7 2.06 2.06 0 0 0-.7-1.7 2.36 2.36 0 0 0-1.6-.7 1.99 1.99 0 0 0-1.6.7 2.413 2.413 0 0 0-.7 1.7 2.06 2.06 0 0 0 .7 1.7z"/><path id="Path_484" data-name="Path 484" class="cls-9" d="M68.2 23.1a3.073 3.073 0 0 1-3.1-3.1 3.073 3.073 0 0 1 3.1-3.1 2.7 2.7 0 0 1 2.2 1l-.5.5a2.136 2.136 0 0 0-1.7-.8 2.193 2.193 0 0 0-1.7.7 2.06 2.06 0 0 0-.7 1.7 2.06 2.06 0 0 0 .7 1.7 2.413 2.413 0 0 0 1.7.7 2.271 2.271 0 0 0 1.8-.9l.5.5a3.915 3.915 0 0 1-1 .8 2.768 2.768 0 0 1-1.3.3z"/><path id="Path_485" data-name="Path 485" class="cls-9" d="M73.7 23h-.8v-5.3h-1.7V17h4.1v.7h-1.7V23z"/><path id="Path_486" data-name="Path 486" class="cls-9" d="M80.6 17l-2.3 5.1a1.566 1.566 0 0 1-1.4 1.1 1.268 1.268 0 0 1-.6-.1l.2-.7a.6.6 0 0 0 .4.1c.2 0 .3 0 .4-.1a1.381 1.381 0 0 0 .3-.4l.2-.5-2-4.4h.9l1.5 3.4 1.4-3.4h1z"/><path id="Path_487" data-name="Path 487" class="cls-9" d="M81.5 23v-6h4.3v6H85v-5.3h-2.8V23z"/><path id="Path_488" data-name="Path 488" class="cls-9" d="M87.2 23v-6h.8v2.6h3V17h.8v6H91v-2.7h-3V23z"/><path id="Path_489" data-name="Path 489" class="cls-9" d="M98.1 22.2a3.1 3.1 0 0 1-5.3-2.2 3.1 3.1 0 1 1 6.2 0 3.978 3.978 0 0 1-.9 2.2zm-3.9-.5a2.36 2.36 0 0 0 1.6.7 1.99 1.99 0 0 0 1.6-.7 2.413 2.413 0 0 0 .7-1.7 2.06 2.06 0 0 0-.7-1.7 2.36 2.36 0 0 0-1.6-.7 1.99 1.99 0 0 0-1.6.7 2.414 2.414 0 0 0 0 3.4z"/><path id="Path_490" data-name="Path 490" class="cls-9" d="M102.1 23v-6h2.2a1.707 1.707 0 0 1 1.7 1.7 2.354 2.354 0 0 1-.2.8 1.024 1.024 0 0 1-.6.5 1.794 1.794 0 0 1 .7.5 1.222 1.222 0 0 1 .3.9 1.656 1.656 0 0 1-.5 1.2 2.106 2.106 0 0 1-1.3.5h-2.3zm.8-3.4h1.4a.908.908 0 0 0 .7-.3.75.75 0 0 0 0-1.2.908.908 0 0 0-.7-.3h-1.4zm0 2.7h1.6a1.025 1.025 0 0 0 1-1 1.08 1.08 0 0 0-.3-.7.908.908 0 0 0-.7-.3H103v2z"/></g></g></svg>