<svg id="Symbol_101_1" data-name="Symbol 101 – 1" xmlns="http://www.w3.org/2000/svg" viewBox="3734 386 40 40"><defs><style>.cls-1{fill:none}.cls-2{opacity:.351}</style></defs><path id="Rectangle_1459" data-name="Rectangle 1459" class="cls-1" transform="translate(3734 386)" d="M0 0h40v40H0z"/><path id="Union_133" data-name="Union 133" class="cls-2" d="M2.669 23.237C.5 19.929-1.191 13.923 1.08 9.834A6.176 6.176 0 0 1 6.318 6.5C8 6.466 9.528 7.665 10.54 7.665s2.879-1.44 4.878-1.231A5.934 5.934 0 0 1 20.1 9.073a6.094 6.094 0 0 0-2.759 5.08 5.838 5.838 0 0 0 3.4 5.412 13.839 13.839 0 0 1-1.781 3.776c-1.05 1.638-2.19 3.259-3.891 3.259s-2.25-1.042-4.211-1.042-2.548.98-4.188 1.042h-.084c-1.6.006-2.845-1.764-3.917-3.363zm7.67-17.1a5.885 5.885 0 0 1 1.339-4.108A5.756 5.756 0 0 1 15.438 0a6.116 6.116 0 0 1-1.3 4.266A4.732 4.732 0 0 1 10.4 6.132z" transform="translate(3744 392.988)"/></svg>