<svg id="Symbol_102_1" data-name="Symbol 102 – 1" xmlns="http://www.w3.org/2000/svg" viewBox="3792 386 40 40"><defs><style>.cls-1{fill:none}.cls-2{fill:url(#linear-gradient)}.cls-3{fill:url(#linear-gradient-2)}.cls-4{fill:url(#linear-gradient-3)}.cls-5{fill:url(#linear-gradient-4)}.cls-6{opacity:.2}.cls-7{opacity:.12}.cls-8{fill:#fff;opacity:.25}</style><linearGradient id="linear-gradient" x1=".915" y1="6.612" x2="-.383" y2="5.943" gradientUnits="objectBoundingBox"><stop offset="0" stop-color="#00a0ff"/><stop offset=".01" stop-color="#00a1ff"/><stop offset=".26" stop-color="#00beff"/><stop offset=".51" stop-color="#00d2ff"/><stop offset=".76" stop-color="#00dfff"/><stop offset="1" stop-color="#00e3ff"/></linearGradient><linearGradient id="linear-gradient-2" x1="1.08" y1="17.07" x2="-1.311" y2="17.07" gradientUnits="objectBoundingBox"><stop offset="0" stop-color="#ffe000"/><stop offset=".41" stop-color="#ffbd00"/><stop offset=".78" stop-color="orange"/><stop offset="1" stop-color="#ff9c00"/></linearGradient><linearGradient id="linear-gradient-3" x1=".862" y1="10.856" x2="-.501" y2="9.088" gradientUnits="objectBoundingBox"><stop offset="0" stop-color="#ff3a44"/><stop offset="1" stop-color="#c31162"/></linearGradient><linearGradient id="linear-gradient-4" x1="-.188" y1="13.575" x2=".421" y2="12.785" gradientUnits="objectBoundingBox"><stop offset="0" stop-color="#32a071"/><stop offset=".07" stop-color="#2da771"/><stop offset=".48" stop-color="#15cf74"/><stop offset=".8" stop-color="#06e775"/><stop offset="1" stop-color="#00f076"/></linearGradient></defs><path id="Rectangle_1460" data-name="Rectangle 1460" class="cls-1" transform="translate(3792 386)" d="M0 0h40v40H0z"/><g id="GooglePlayIcon" transform="translate(3801 392.988)"><g id="artwork"><path id="Path_674" data-name="Path 674" class="cls-2" d="M.46.4A2.145 2.145 0 0 0 0 1.864v23.07a2.145 2.145 0 0 0 .46 1.46l.08.083 12.39-12.932v-.313L.54.32z" transform="translate(.004 .023)"/><path id="Path_675" data-name="Path 675" class="cls-3" d="M17.06 17.508l-4.13-4.318v-.313l4.13-4.307.09.063L22 11.542c1.4.824 1.4 2.18 0 3l-4.89 2.9z" transform="translate(.004 .377)"/><path id="Path_676" data-name="Path 676" class="cls-4" d="M17.15 17.261l-4.22-4.4-12.47 13a1.569 1.569 0 0 0 2.08.063l14.61-8.656" transform="translate(.004 .561)"/><path id="Path_677" data-name="Path 677" class="cls-5" d="M17.15 9.011L2.54.355A1.569 1.569 0 0 0 .46.418l12.47 13z" transform="translate(.004 .009)"/><path id="Path_678" data-name="Path 678" class="cls-6" d="M17.06 17L2.54 25.594a1.606 1.606 0 0 1-2 0l-.08.073.08.083a1.6 1.6 0 0 0 2 0l14.61-8.656z" transform="translate(.004 .739)"/><path id="Path_679" data-name="Path 679" class="cls-7" d="M.46 25.241A2.145 2.145 0 0 1 0 23.77v.156a2.145 2.145 0 0 0 .46 1.46l.08-.073z" transform="translate(.004 1.03)"/><path id="Path_680" data-name="Path 680" class="cls-7" d="M22 14.216l-5 2.952.09.094 4.91-2.9a1.821 1.821 0 0 0 1.05-1.5A1.925 1.925 0 0 1 22 14.216z" transform="translate(.004 .561)"/><path id="Path_681" data-name="Path 681" class="cls-8" d="M2.54.5L22 12.056a1.925 1.925 0 0 1 1.05 1.356A1.821 1.821 0 0 0 22 11.91L2.54.355C1.14-.48 0 .209 0 1.877v.209C0 .365 1.14-.323 2.54.5z" transform="translate(.004 .009)"/></g></g></svg>