<svg xmlns="http://www.w3.org/2000/svg" viewBox="3659 4967 50 50"><defs><style>.cls-1{fill:rgba(74,183,129,.2)}.cls-2{fill:#41b780}</style></defs><g id="Group_2324" data-name="Group 2324" transform="translate(-451 4523)"><circle id="Ellipse_493" data-name="Ellipse 493" class="cls-1" cx="25" cy="25" r="25" transform="translate(4110 444)"/><path id="Union_68" data-name="Union 68" class="cls-2" d="M-1627.734-424.31a2.311 2.311 0 0 1-1.427-.67l-6.562-6.562a2.319 2.319 0 0 1 0-3.281 2.319 2.319 0 0 1 3.281 0l4.927 4.927 14.769-14.769a2.319 2.319 0 0 1 3.281 0 2.319 2.319 0 0 1 0 3.28l-16.4 16.4a2.311 2.311 0 0 1-1.64.68q-.117.005-.229-.005z" transform="translate(5757.402 903.963)"/></g></svg>