<svg xmlns="http://www.w3.org/2000/svg" viewBox="3991 2259 24 24"><defs><style>.cls-1{fill:rgba(255,255,255,0)}.cls-2{fill:#506bc4}</style></defs><g id="Group_1557" data-name="Group 1557" transform="translate(3902 148)"><path id="Rectangle_1" data-name="Rectangle 1" class="cls-1" transform="translate(89 2111)" d="M0 0h24v24H0z"/><path id="Route" class="cls-2" d="M0 19a3 3 0 1 1 3 3 3 3 0 0 1-3-3zm2 0a1 1 0 1 0 1-1 1 1 0 0 0-1 1zm15 1H9a1 1 0 0 1 0-2h8a3 3 0 0 0 0-6H5A5 5 0 1 1 5 2h8a1 1 0 0 1 0 2H5a3 3 0 1 0 0 6h12a5 5 0 0 1 0 10zM16 3a3 3 0 1 1 3 3 3 3 0 0 1-3-3zm2 0a1 1 0 1 0 1-1 1 1 0 0 0-1 1z" transform="translate(90 2112)"/></g></svg>