<svg id="img_chat_open" xmlns="http://www.w3.org/2000/svg" viewBox="4012.846 7836 220.837 220"><defs><style>.cls-1,.cls-10,.cls-100,.cls-101,.cls-102,.cls-103,.cls-104,.cls-105,.cls-106,.cls-107,.cls-108,.cls-109,.cls-11,.cls-110,.cls-111,.cls-112,.cls-113,.cls-114,.cls-115,.cls-116,.cls-117,.cls-118,.cls-119,.cls-12,.cls-120,.cls-121,.cls-122,.cls-123,.cls-124,.cls-125,.cls-126,.cls-127,.cls-128,.cls-129,.cls-13,.cls-130,.cls-131,.cls-132,.cls-133,.cls-134,.cls-135,.cls-136,.cls-137,.cls-138,.cls-139,.cls-14,.cls-140,.cls-141,.cls-142,.cls-143,.cls-144,.cls-145,.cls-146,.cls-147,.cls-148,.cls-15,.cls-150,.cls-151,.cls-152,.cls-153,.cls-16,.cls-17,.cls-18,.cls-19,.cls-2,.cls-20,.cls-21,.cls-22,.cls-23,.cls-24,.cls-25,.cls-26,.cls-27,.cls-28,.cls-29,.cls-3,.cls-30,.cls-31,.cls-32,.cls-33,.cls-34,.cls-35,.cls-36,.cls-37,.cls-38,.cls-39,.cls-4,.cls-40,.cls-41,.cls-42,.cls-43,.cls-44,.cls-45,.cls-46,.cls-47,.cls-48,.cls-49,.cls-5,.cls-50,.cls-51,.cls-52,.cls-53,.cls-54,.cls-55,.cls-56,.cls-57,.cls-58,.cls-59,.cls-6,.cls-60,.cls-61,.cls-62,.cls-63,.cls-64,.cls-65,.cls-66,.cls-67,.cls-68,.cls-69,.cls-7,.cls-70,.cls-71,.cls-72,.cls-73,.cls-74,.cls-75,.cls-76,.cls-77,.cls-78,.cls-79,.cls-8,.cls-80,.cls-81,.cls-82,.cls-83,.cls-84,.cls-85,.cls-86,.cls-87,.cls-88,.cls-89,.cls-9,.cls-90,.cls-91,.cls-92,.cls-93,.cls-94,.cls-95,.cls-96,.cls-97,.cls-98,.cls-99{fill:none}.cls-10,.cls-11,.cls-12,.cls-13,.cls-14,.cls-15,.cls-16,.cls-17,.cls-18,.cls-19,.cls-2,.cls-20,.cls-21,.cls-22,.cls-23,.cls-24,.cls-25,.cls-26,.cls-27,.cls-28,.cls-29,.cls-3,.cls-30,.cls-31,.cls-32,.cls-33,.cls-34,.cls-35,.cls-36,.cls-37,.cls-38,.cls-39,.cls-4,.cls-40,.cls-41,.cls-42,.cls-43,.cls-44,.cls-45,.cls-46,.cls-47,.cls-48,.cls-49,.cls-5,.cls-50,.cls-51,.cls-52,.cls-53,.cls-54,.cls-55,.cls-56,.cls-57,.cls-58,.cls-59,.cls-6,.cls-60,.cls-61,.cls-62,.cls-63,.cls-64,.cls-65,.cls-66,.cls-67,.cls-68,.cls-69,.cls-7,.cls-70,.cls-71,.cls-72,.cls-73,.cls-74,.cls-75,.cls-76,.cls-77,.cls-78,.cls-79,.cls-8,.cls-80,.cls-81,.cls-82,.cls-83,.cls-9{stroke:#42ff00}.cls-10,.cls-100,.cls-101,.cls-102,.cls-103,.cls-104,.cls-105,.cls-106,.cls-107,.cls-108,.cls-109,.cls-11,.cls-110,.cls-111,.cls-112,.cls-113,.cls-114,.cls-115,.cls-116,.cls-117,.cls-118,.cls-119,.cls-12,.cls-120,.cls-121,.cls-122,.cls-123,.cls-124,.cls-125,.cls-126,.cls-127,.cls-128,.cls-129,.cls-13,.cls-130,.cls-131,.cls-132,.cls-133,.cls-134,.cls-135,.cls-136,.cls-137,.cls-138,.cls-139,.cls-14,.cls-140,.cls-141,.cls-142,.cls-143,.cls-144,.cls-145,.cls-146,.cls-147,.cls-148,.cls-15,.cls-150,.cls-151,.cls-152,.cls-153,.cls-155,.cls-16,.cls-17,.cls-18,.cls-19,.cls-2,.cls-20,.cls-21,.cls-22,.cls-23,.cls-24,.cls-25,.cls-26,.cls-27,.cls-28,.cls-29,.cls-3,.cls-30,.cls-31,.cls-32,.cls-33,.cls-34,.cls-35,.cls-36,.cls-37,.cls-38,.cls-39,.cls-4,.cls-40,.cls-41,.cls-42,.cls-43,.cls-44,.cls-45,.cls-46,.cls-47,.cls-48,.cls-49,.cls-5,.cls-50,.cls-51,.cls-52,.cls-53,.cls-54,.cls-55,.cls-56,.cls-57,.cls-58,.cls-59,.cls-6,.cls-60,.cls-61,.cls-62,.cls-63,.cls-64,.cls-65,.cls-66,.cls-67,.cls-68,.cls-69,.cls-7,.cls-70,.cls-71,.cls-72,.cls-73,.cls-74,.cls-75,.cls-76,.cls-77,.cls-78,.cls-79,.cls-8,.cls-80,.cls-81,.cls-82,.cls-83,.cls-84,.cls-85,.cls-86,.cls-87,.cls-88,.cls-89,.cls-9,.cls-90,.cls-91,.cls-92,.cls-93,.cls-94,.cls-95,.cls-96,.cls-97,.cls-98,.cls-99{stroke-miterlimit:10}.cls-10,.cls-11,.cls-12,.cls-13,.cls-14,.cls-146,.cls-15,.cls-152,.cls-16,.cls-17,.cls-18,.cls-19,.cls-2,.cls-20,.cls-21,.cls-22,.cls-23,.cls-24,.cls-25,.cls-26,.cls-27,.cls-28,.cls-29,.cls-3,.cls-30,.cls-31,.cls-32,.cls-33,.cls-34,.cls-35,.cls-36,.cls-37,.cls-38,.cls-39,.cls-4,.cls-40,.cls-41,.cls-42,.cls-43,.cls-44,.cls-45,.cls-46,.cls-47,.cls-48,.cls-49,.cls-5,.cls-50,.cls-51,.cls-52,.cls-53,.cls-54,.cls-55,.cls-56,.cls-57,.cls-58,.cls-59,.cls-6,.cls-60,.cls-61,.cls-62,.cls-63,.cls-64,.cls-65,.cls-66,.cls-67,.cls-68,.cls-69,.cls-7,.cls-70,.cls-71,.cls-72,.cls-73,.cls-74,.cls-75,.cls-76,.cls-77,.cls-78,.cls-79,.cls-8,.cls-80,.cls-81,.cls-82,.cls-83,.cls-9{stroke-width:1.66px}.cls-145,.cls-146,.cls-2{opacity:.28}.cls-3{opacity:.289}.cls-4{opacity:.298}.cls-5{opacity:.307}.cls-6{opacity:.316}.cls-7{opacity:.324}.cls-8{opacity:.333}.cls-9{opacity:.342}.cls-10{opacity:.351}.cls-11{opacity:.36}.cls-12{opacity:.369}.cls-13{opacity:.378}.cls-14{opacity:.387}.cls-15{opacity:.396}.cls-16{opacity:.404}.cls-17{opacity:.413}.cls-18{opacity:.422}.cls-19{opacity:.431}.cls-20{opacity:.44}.cls-21{opacity:.449}.cls-22{opacity:.458}.cls-23{opacity:.467}.cls-24{opacity:.476}.cls-25{opacity:.484}.cls-26{opacity:.493}.cls-27{opacity:.502}.cls-28{opacity:.511}.cls-29{opacity:.52}.cls-30{opacity:.529}.cls-31{opacity:.538}.cls-32{opacity:.547}.cls-33{opacity:.556}.cls-34{opacity:.564}.cls-35{opacity:.573}.cls-36{opacity:.582}.cls-37{opacity:.591}.cls-38{opacity:.6}.cls-39{opacity:.609}.cls-40{opacity:.618}.cls-41{opacity:.627}.cls-42{opacity:.636}.cls-43{opacity:.644}.cls-44{opacity:.653}.cls-45{opacity:.662}.cls-46{opacity:.671}.cls-47{opacity:.68}.cls-48{opacity:.689}.cls-49{opacity:.698}.cls-50{opacity:.707}.cls-51{opacity:.716}.cls-52{opacity:.724}.cls-53{opacity:.733}.cls-54{opacity:.742}.cls-55{opacity:.751}.cls-56{opacity:.76}.cls-57{opacity:.769}.cls-58{opacity:.778}.cls-59{opacity:.787}.cls-60{opacity:.796}.cls-61{opacity:.804}.cls-62{opacity:.813}.cls-63{opacity:.822}.cls-64{opacity:.831}.cls-65{opacity:.84}.cls-66{opacity:.849}.cls-67{opacity:.858}.cls-68{opacity:.867}.cls-69{opacity:.876}.cls-70{opacity:.884}.cls-71{opacity:.893}.cls-72{opacity:.902}.cls-73{opacity:.911}.cls-74{opacity:.92}.cls-75{opacity:.929}.cls-76{opacity:.938}.cls-77{opacity:.947}.cls-78{opacity:.956}.cls-79{opacity:.964}.cls-80{opacity:.973}.cls-81{opacity:.982}.cls-82{opacity:.991}.cls-100,.cls-101,.cls-102,.cls-103,.cls-104,.cls-105,.cls-106,.cls-107,.cls-108,.cls-109,.cls-110,.cls-111,.cls-112,.cls-113,.cls-114,.cls-115,.cls-116,.cls-117,.cls-118,.cls-119,.cls-120,.cls-121,.cls-122,.cls-123,.cls-124,.cls-125,.cls-126,.cls-127,.cls-128,.cls-129,.cls-130,.cls-131,.cls-132,.cls-133,.cls-134,.cls-135,.cls-136,.cls-137,.cls-138,.cls-139,.cls-140,.cls-141,.cls-142,.cls-143,.cls-144,.cls-145,.cls-84,.cls-85,.cls-86,.cls-87,.cls-88,.cls-89,.cls-90,.cls-91,.cls-92,.cls-93,.cls-94,.cls-95,.cls-96,.cls-97,.cls-98,.cls-99{stroke:#00ff48;stroke-width:1.352px}.cls-85{opacity:.988}.cls-86{opacity:.976}.cls-87{opacity:.965}.cls-88{opacity:.953}.cls-89{opacity:.941}.cls-90{opacity:.929}.cls-91{opacity:.917}.cls-92{opacity:.906}.cls-93{opacity:.894}.cls-94{opacity:.882}.cls-95{opacity:.87}.cls-96{opacity:.858}.cls-97{opacity:.847}.cls-98{opacity:.835}.cls-99{opacity:.823}.cls-100{opacity:.811}.cls-101{opacity:.799}.cls-102{opacity:.788}.cls-103{opacity:.776}.cls-104{opacity:.764}.cls-105{opacity:.752}.cls-106{opacity:.74}.cls-107{opacity:.729}.cls-108{opacity:.717}.cls-109{opacity:.705}.cls-110{opacity:.693}.cls-111{opacity:.681}.cls-112{opacity:.669}.cls-113{opacity:.658}.cls-114{opacity:.646}.cls-115{opacity:.634}.cls-116{opacity:.622}.cls-117{opacity:.61}.cls-118{opacity:.599}.cls-119{opacity:.587}.cls-120{opacity:.575}.cls-121{opacity:.563}.cls-122{opacity:.552}.cls-123{opacity:.54}.cls-124{opacity:.528}.cls-125{opacity:.516}.cls-126{opacity:.504}.cls-127{opacity:.493}.cls-128{opacity:.481}.cls-129{opacity:.469}.cls-130{opacity:.457}.cls-131{opacity:.445}.cls-132{opacity:.433}.cls-133{opacity:.422}.cls-134{opacity:.41}.cls-135{opacity:.398}.cls-136{opacity:.386}.cls-137{opacity:.374}.cls-138{opacity:.363}.cls-139{opacity:.351}.cls-140{opacity:.339}.cls-141{opacity:.327}.cls-142{opacity:.315}.cls-143{opacity:.304}.cls-144{opacity:.292}.cls-146{stroke:#008300}.cls-147,.cls-148,.cls-150,.cls-153,.cls-155{stroke:#72b55f}.cls-147{stroke-width:2.499px}.cls-148{stroke-width:2.282px}.cls-149{font-size:8px;font-family:Helvetica}.cls-150,.cls-151{stroke-width:1.249px}.cls-151,.cls-152{stroke:#000}.cls-153{stroke-width:1.133px}.cls-154,.cls-155{fill:#fff}.cls-155{stroke-width:2.19px}.cls-156{fill:#72b55f}</style></defs><path id="Rectangle_1463" data-name="Rectangle 1463" class="cls-1" transform="translate(4013 7836)" d="M0 0h220v220H0z"/><g id="Group_2325" data-name="Group 2325" transform="translate(-1786 -1544)"><g id="Group_1797" data-name="Group 1797" transform="translate(5803.665 9421.618)"><path id="Line_474" data-name="Line 474" class="cls-2" d="M37.654 0L0 54.254"/><path id="Line_475" data-name="Line 475" class="cls-3" transform="translate(2.185 1.303)" d="M37.654 0L0 54.296"/><path id="Line_476" data-name="Line 476" class="cls-4" transform="translate(4.371 2.606)" d="M37.696 0L0 54.296"/><path id="Line_477" data-name="Line 477" class="cls-5" transform="translate(6.556 3.908)" d="M37.696 0L0 54.296"/><path id="Line_478" data-name="Line 478" class="cls-6" transform="translate(8.783 5.211)" d="M37.654 0L0 54.296"/><path id="Line_479" data-name="Line 479" class="cls-7" transform="translate(10.968 6.556)" d="M37.654 0L0 54.254"/><path id="Line_480" data-name="Line 480" class="cls-8" transform="translate(13.154 7.859)" d="M37.654 0L0 54.296"/><path id="Line_481" data-name="Line 481" class="cls-9" transform="translate(15.339 9.161)" d="M37.696 0L0 54.296"/><path id="Line_482" data-name="Line 482" class="cls-10" transform="translate(17.524 10.464)" d="M37.696 0L0 54.296"/><path id="Line_483" data-name="Line 483" class="cls-11" transform="translate(19.752 11.767)" d="M37.654 0L0 54.296"/><path id="Line_484" data-name="Line 484" class="cls-12" transform="translate(21.937 13.07)" d="M37.654 0L0 54.296"/><path id="Line_485" data-name="Line 485" class="cls-13" transform="translate(24.122 14.415)" d="M37.654 0L0 54.296"/><path id="Line_486" data-name="Line 486" class="cls-14" transform="translate(26.308 15.717)" d="M37.696 0L0 54.296"/><path id="Line_487" data-name="Line 487" class="cls-15" transform="translate(28.493 17.02)" d="M37.696 0L0 54.296"/><path id="Line_488" data-name="Line 488" class="cls-16" transform="translate(30.72 18.323)" d="M37.654 0L0 54.296"/><path id="Line_489" data-name="Line 489" class="cls-17" transform="translate(32.905 19.626)" d="M37.654 0L0 54.296"/><path id="Line_490" data-name="Line 490" class="cls-18" transform="translate(35.091 20.97)" d="M37.654 0L0 54.254"/><path id="Line_491" data-name="Line 491" class="cls-19" transform="translate(37.276 22.273)" d="M37.696 0L0 54.296"/><path id="Line_492" data-name="Line 492" class="cls-20" transform="translate(39.461 23.576)" d="M37.696 0L0 54.296"/><path id="Line_493" data-name="Line 493" class="cls-21" transform="translate(41.689 24.879)" d="M37.654 0L0 54.296"/><path id="Line_494" data-name="Line 494" class="cls-22" transform="translate(43.874 26.181)" d="M37.654 0L0 54.296"/><path id="Line_495" data-name="Line 495" class="cls-23" transform="translate(46.059 27.484)" d="M37.654 0L0 54.296"/><path id="Line_496" data-name="Line 496" class="cls-24" transform="translate(48.245 28.829)" d="M37.696 0L0 54.296"/><path id="Line_497" data-name="Line 497" class="cls-25" transform="translate(50.43 30.132)" d="M37.696 0L0 54.296"/><path id="Line_498" data-name="Line 498" class="cls-26" transform="translate(52.657 31.435)" d="M37.654 0L0 54.296"/><path id="Line_499" data-name="Line 499" class="cls-27" transform="translate(54.842 32.737)" d="M37.654 0L0 54.296"/><path id="Line_500" data-name="Line 500" class="cls-28" transform="translate(57.028 34.04)" d="M37.654 0L0 54.296"/><path id="Line_501" data-name="Line 501" class="cls-29" transform="translate(59.213 35.385)" d="M37.696 0L0 54.254"/><path id="Line_502" data-name="Line 502" class="cls-30" transform="translate(61.398 36.688)" d="M37.696 0L0 54.296"/><path id="Line_503" data-name="Line 503" class="cls-31" transform="translate(63.626 37.99)" d="M37.654 0L0 54.296"/><path id="Line_504" data-name="Line 504" class="cls-32" transform="translate(65.811 39.293)" d="M37.654 0L0 54.296"/><path id="Line_505" data-name="Line 505" class="cls-33" transform="translate(67.996 40.596)" d="M37.654 0L0 54.296"/><path id="Line_506" data-name="Line 506" class="cls-34" transform="translate(70.181 41.941)" d="M37.696 0L0 54.254"/><path id="Line_507" data-name="Line 507" class="cls-35" transform="translate(72.367 43.244)" d="M37.696 0L0 54.296"/><path id="Line_508" data-name="Line 508" class="cls-36" transform="translate(74.594 44.546)" d="M37.654 0L0 54.296"/><path id="Line_509" data-name="Line 509" class="cls-37" transform="translate(76.779 45.849)" d="M37.654 0L0 54.296"/><path id="Line_510" data-name="Line 510" class="cls-38" transform="translate(78.965 47.152)" d="M37.654 0L0 54.296"/><path id="Line_511" data-name="Line 511" class="cls-39" transform="translate(81.15 48.455)" d="M37.696 0L0 54.296"/><path id="Line_512" data-name="Line 512" class="cls-40" transform="translate(83.335 49.799)" d="M37.696 0L0 54.296"/><path id="Line_513" data-name="Line 513" class="cls-41" transform="translate(85.563 51.102)" d="M37.654 0L0 54.296"/><path id="Line_514" data-name="Line 514" class="cls-42" transform="translate(87.748 52.405)" d="M37.654 0L0 54.296"/><path id="Line_515" data-name="Line 515" class="cls-43" transform="translate(89.933 53.708)" d="M37.654 0L0 54.296"/><path id="Line_516" data-name="Line 516" class="cls-44" transform="translate(92.118 55.011)" d="M37.654 0L0 54.296"/><path id="Line_517" data-name="Line 517" class="cls-45" transform="translate(94.304 56.355)" d="M37.696 0L0 54.254"/><path id="Line_518" data-name="Line 518" class="cls-46" transform="translate(96.531 57.658)" d="M37.654 0L0 54.296"/><path id="Line_519" data-name="Line 519" class="cls-47" transform="translate(98.716 58.961)" d="M37.654 0L0 54.296"/><path id="Line_520" data-name="Line 520" class="cls-48" transform="translate(100.902 60.264)" d="M37.654 0L0 54.296"/><path id="Line_521" data-name="Line 521" class="cls-49" transform="translate(103.087 61.566)" d="M37.654 0L0 54.296"/><path id="Line_522" data-name="Line 522" class="cls-50" transform="translate(105.272 62.911)" d="M37.696 0L0 54.254"/><path id="Line_523" data-name="Line 523" class="cls-51" transform="translate(107.5 64.214)" d="M37.654 0L0 54.296"/><path id="Line_524" data-name="Line 524" class="cls-52" transform="translate(109.685 65.517)" d="M37.654 0L0 54.296"/><path id="Line_525" data-name="Line 525" class="cls-53" transform="translate(111.87 66.819)" d="M37.654 0L0 54.296"/><path id="Line_526" data-name="Line 526" class="cls-54" transform="translate(114.055 68.122)" d="M37.654 0L0 54.296"/><path id="Line_527" data-name="Line 527" class="cls-55" transform="translate(116.241 69.425)" d="M37.696 0L0 54.296"/><path id="Line_528" data-name="Line 528" class="cls-56" transform="translate(118.468 70.77)" d="M37.654 0L0 54.296"/><path id="Line_529" data-name="Line 529" class="cls-57" transform="translate(120.653 72.073)" d="M37.654 0L0 54.296"/><path id="Line_530" data-name="Line 530" class="cls-58" transform="translate(122.839 73.375)" d="M37.654 0L0 54.296"/><path id="Line_531" data-name="Line 531" class="cls-59" transform="translate(125.024 74.678)" d="M37.654 0L0 54.296"/><path id="Line_532" data-name="Line 532" class="cls-60" transform="translate(127.209 75.981)" d="M37.696 0L0 54.296"/><path id="Line_533" data-name="Line 533" class="cls-61" transform="translate(129.436 77.326)" d="M37.654 0L0 54.254"/><path id="Line_534" data-name="Line 534" class="cls-62" transform="translate(131.622 78.628)" d="M37.654 0L0 54.296"/><path id="Line_535" data-name="Line 535" class="cls-63" transform="translate(133.807 79.931)" d="M37.654 0L0 54.296"/><path id="Line_536" data-name="Line 536" class="cls-64" transform="translate(135.992 81.234)" d="M37.654 0L0 54.296"/><path id="Line_537" data-name="Line 537" class="cls-65" transform="translate(138.178 82.537)" d="M37.696 0L0 54.296"/><path id="Line_538" data-name="Line 538" class="cls-66" transform="translate(140.405 83.84)" d="M37.654 0L0 54.296"/><path id="Line_539" data-name="Line 539" class="cls-67" transform="translate(142.59 85.184)" d="M37.654 0L0 54.296"/><path id="Line_540" data-name="Line 540" class="cls-68" transform="translate(144.776 86.487)" d="M37.654 0L0 54.296"/><path id="Line_541" data-name="Line 541" class="cls-69" transform="translate(146.961 87.79)" d="M37.654 0L0 54.296"/><path id="Line_542" data-name="Line 542" class="cls-70" transform="translate(149.146 89.093)" d="M37.696 0L0 54.296"/><path id="Line_543" data-name="Line 543" class="cls-71" transform="translate(151.373 90.395)" d="M37.654 0L0 54.296"/><path id="Line_544" data-name="Line 544" class="cls-72" transform="translate(153.559 91.74)" d="M37.654 0L0 54.254"/><path id="Line_545" data-name="Line 545" class="cls-73" transform="translate(155.744 93.043)" d="M37.654 0L0 54.296"/><path id="Line_546" data-name="Line 546" class="cls-74" transform="translate(157.929 94.346)" d="M37.654 0L0 54.296"/><path id="Line_547" data-name="Line 547" class="cls-75" transform="translate(160.115 95.649)" d="M37.696 0L0 54.296"/><path id="Line_548" data-name="Line 548" class="cls-76" transform="translate(162.342 96.951)" d="M37.654 0L0 54.296"/><path id="Line_549" data-name="Line 549" class="cls-77" transform="translate(164.527 98.296)" d="M37.654 0L0 54.254"/><path id="Line_550" data-name="Line 550" class="cls-78" transform="translate(166.713 99.599)" d="M37.654 0L0 54.296"/><path id="Line_551" data-name="Line 551" class="cls-79" transform="translate(168.898 100.902)" d="M37.654 0L0 54.296"/><path id="Line_552" data-name="Line 552" class="cls-80" transform="translate(171.083 102.204)" d="M37.696 0L0 54.296"/><path id="Line_553" data-name="Line 553" class="cls-81" transform="translate(173.31 103.507)" d="M37.654 0L0 54.296"/><path id="Line_554" data-name="Line 554" class="cls-82" transform="translate(175.496 104.81)" d="M37.654 0L0 54.296"/><path id="Line_555" data-name="Line 555" class="cls-83" transform="translate(177.681 106.155)" d="M37.654 0L0 54.296"/></g><g id="Group_1798" data-name="Group 1798" transform="translate(5801.816 9500.667)"><path id="Line_556" data-name="Line 556" class="cls-84" transform="translate(0 29.333)" d="M11.557 0L0 52.573"/><path id="Line_557" data-name="Line 557" class="cls-85" transform="translate(2.564 28.829)" d="M11.557 0L0 52.573"/><path id="Line_558" data-name="Line 558" class="cls-86" transform="translate(5.127 28.367)" d="M11.515 0L0 52.573"/><path id="Line_559" data-name="Line 559" class="cls-87" transform="translate(7.691 27.862)" d="M11.515 0L0 52.573"/><path id="Line_560" data-name="Line 560" class="cls-88" transform="translate(10.212 27.4)" d="M11.557 0L0 52.573"/><path id="Line_561" data-name="Line 561" class="cls-89" transform="translate(12.776 26.938)" d="M11.557 0L0 52.573"/><path id="Line_562" data-name="Line 562" class="cls-90" transform="translate(15.339 26.434)" d="M11.557 0L0 52.573"/><path id="Line_563" data-name="Line 563" class="cls-91" transform="translate(17.903 25.971)" d="M11.515 0L0 52.573"/><path id="Line_564" data-name="Line 564" class="cls-92" transform="translate(20.466 25.467)" d="M11.515 0L0 52.573"/><path id="Line_565" data-name="Line 565" class="cls-93" transform="translate(22.988 25.005)" d="M11.557 0L0 52.573"/><path id="Line_566" data-name="Line 566" class="cls-94" transform="translate(25.551 24.5)" d="M11.557 0L0 52.573"/><path id="Line_567" data-name="Line 567" class="cls-95" transform="translate(28.115 24.038)" d="M11.515 0L0 52.573"/><path id="Line_568" data-name="Line 568" class="cls-96" transform="translate(30.678 23.534)" d="M11.515 0L0 52.573"/><path id="Line_569" data-name="Line 569" class="cls-97" transform="translate(33.242 23.072)" d="M11.515 0L0 52.573"/><path id="Line_570" data-name="Line 570" class="cls-98" transform="translate(35.763 22.609)" d="M11.557 0L0 52.573"/><path id="Line_571" data-name="Line 571" class="cls-99" transform="translate(38.327 22.105)" d="M11.557 0L0 52.573"/><path id="Line_572" data-name="Line 572" class="cls-100" transform="translate(40.89 21.643)" d="M11.515 0L0 52.573"/><path id="Line_573" data-name="Line 573" class="cls-101" transform="translate(43.454 21.138)" d="M11.515 0L0 52.573"/><path id="Line_574" data-name="Line 574" class="cls-102" transform="translate(45.975 20.676)" d="M11.557 0L0 52.573"/><path id="Line_575" data-name="Line 575" class="cls-103" transform="translate(48.539 20.172)" d="M11.557 0L0 52.573"/><path id="Line_576" data-name="Line 576" class="cls-104" transform="translate(51.102 19.71)" d="M11.557 0L0 52.573"/><path id="Line_577" data-name="Line 577" class="cls-105" transform="translate(53.666 19.205)" d="M11.515 0L0 52.573"/><path id="Line_578" data-name="Line 578" class="cls-106" transform="translate(56.229 18.743)" d="M11.515 0L0 52.573"/><path id="Line_579" data-name="Line 579" class="cls-107" transform="translate(58.751 18.281)" d="M11.557 0L0 52.573"/><path id="Line_580" data-name="Line 580" class="cls-108" transform="translate(61.314 17.777)" d="M11.557 0L0 52.573"/><path id="Line_581" data-name="Line 581" class="cls-109" transform="translate(63.878 17.314)" d="M11.515 0L0 52.573"/><path id="Line_582" data-name="Line 582" class="cls-110" transform="translate(66.441 16.81)" d="M11.515 0L0 52.573"/><path id="Line_583" data-name="Line 583" class="cls-111" transform="translate(69.005 16.348)" d="M11.515 0L0 52.573"/><path id="Line_584" data-name="Line 584" class="cls-112" transform="translate(71.526 15.843)" d="M11.557 0L0 52.573"/><path id="Line_585" data-name="Line 585" class="cls-113" transform="translate(74.09 15.381)" d="M11.557 0L0 52.573"/><path id="Line_586" data-name="Line 586" class="cls-114" transform="translate(76.653 14.877)" d="M11.515 0L0 52.573"/><path id="Line_587" data-name="Line 587" class="cls-115" transform="translate(79.217 14.415)" d="M11.515 0L0 52.573"/><path id="Line_588" data-name="Line 588" class="cls-116" transform="translate(81.738 13.952)" d="M11.557 0L0 52.573"/><path id="Line_589" data-name="Line 589" class="cls-117" transform="translate(84.302 13.448)" d="M11.557 0L0 52.573"/><path id="Line_590" data-name="Line 590" class="cls-118" transform="translate(86.865 12.986)" d="M11.557 0L0 52.573"/><path id="Line_591" data-name="Line 591" class="cls-119" transform="translate(89.429 12.481)" d="M11.515 0L0 52.573"/><path id="Line_592" data-name="Line 592" class="cls-120" transform="translate(91.992 12.019)" d="M11.515 0L0 52.573"/><path id="Line_593" data-name="Line 593" class="cls-121" transform="translate(94.514 11.515)" d="M11.557 0L0 52.573"/><path id="Line_594" data-name="Line 594" class="cls-122" transform="translate(97.077 11.053)" d="M11.557 0L0 52.573"/><path id="Line_595" data-name="Line 595" class="cls-123" transform="translate(99.641 10.548)" d="M11.515 0L0 52.573"/><path id="Line_596" data-name="Line 596" class="cls-124" transform="translate(102.204 10.086)" d="M11.515 0L0 52.573"/><path id="Line_597" data-name="Line 597" class="cls-125" transform="translate(104.768 9.624)" d="M11.515 0L0 52.573"/><path id="Line_598" data-name="Line 598" class="cls-126" transform="translate(107.289 9.119)" d="M11.557 0L0 52.573"/><path id="Line_599" data-name="Line 599" class="cls-127" transform="translate(109.853 8.657)" d="M11.557 0L0 52.573"/><path id="Line_600" data-name="Line 600" class="cls-128" transform="translate(112.416 8.153)" d="M11.515 0L0 52.573"/><path id="Line_601" data-name="Line 601" class="cls-129" transform="translate(114.98 7.691)" d="M11.515 0L0 52.573"/><path id="Line_602" data-name="Line 602" class="cls-130" transform="translate(117.501 7.186)" d="M11.557 0L0 52.573"/><path id="Line_603" data-name="Line 603" class="cls-131" transform="translate(120.065 6.724)" d="M11.557 0L0 52.573"/><path id="Line_604" data-name="Line 604" class="cls-132" transform="translate(122.628 6.22)" d="M11.557 0L0 52.573"/><path id="Line_605" data-name="Line 605" class="cls-133" transform="translate(125.192 5.757)" d="M11.515 0L0 52.573"/><path id="Line_606" data-name="Line 606" class="cls-134" transform="translate(127.755 5.295)" d="M11.515 0L0 52.573"/><path id="Line_607" data-name="Line 607" class="cls-135" transform="translate(130.277 4.791)" d="M11.557 0L0 52.573"/><path id="Line_608" data-name="Line 608" class="cls-136" transform="translate(132.84 4.329)" d="M11.557 0L0 52.573"/><path id="Line_609" data-name="Line 609" class="cls-137" transform="translate(135.404 3.824)" d="M11.515 0L0 52.573"/><path id="Line_610" data-name="Line 610" class="cls-138" transform="translate(137.968 3.362)" d="M11.515 0L0 52.573"/><path id="Line_611" data-name="Line 611" class="cls-139" transform="translate(140.531 2.858)" d="M11.515 0L0 52.573"/><path id="Line_612" data-name="Line 612" class="cls-140" transform="translate(143.053 2.395)" d="M11.557 0L0 52.573"/><path id="Line_613" data-name="Line 613" class="cls-141" transform="translate(145.616 1.891)" d="M11.557 0L0 52.573"/><path id="Line_614" data-name="Line 614" class="cls-142" transform="translate(148.18 1.429)" d="M11.515 0L0 52.573"/><path id="Line_615" data-name="Line 615" class="cls-143" transform="translate(150.743 .967)" d="M11.515 0L0 52.573"/><path id="Line_616" data-name="Line 616" class="cls-144" transform="translate(153.265 .462)" d="M11.557 0L0 52.573"/><path id="Line_617" data-name="Line 617" class="cls-145" transform="translate(155.828)" d="M11.557 0L0 52.573"/></g><g id="Group_1799" data-name="Group 1799" transform="translate(5807.447 9424.434)"><path id="Line_618" data-name="Line 618" class="cls-146" transform="translate(0 49.841)" d="M37.108 0L0 65.475"/><path id="Line_619" data-name="Line 619" class="cls-146" transform="translate(3.068 49.001)" d="M36.394 0L0 65.475"/><path id="Line_620" data-name="Line 620" class="cls-146" transform="translate(6.136 48.202)" d="M35.637 0L0 65.475"/><path id="Line_621" data-name="Line 621" class="cls-146" transform="translate(9.203 47.362)" d="M34.881 0L0 65.475"/><path id="Line_622" data-name="Line 622" class="cls-146" transform="translate(12.271 46.564)" d="M34.124 0L0 65.475"/><path id="Line_623" data-name="Line 623" class="cls-146" transform="translate(15.381 45.723)" d="M33.368 0L0 65.475"/><path id="Line_624" data-name="Line 624" class="cls-146" transform="translate(18.449 44.925)" d="M32.611 0L0 65.475"/><path id="Line_625" data-name="Line 625" class="cls-146" transform="translate(21.517 44.126)" d="M31.855 0L0 65.475"/><path id="Line_626" data-name="Line 626" class="cls-146" transform="translate(24.585 43.286)" d="M31.14 0L0 65.475"/><path id="Line_627" data-name="Line 627" class="cls-146" transform="translate(27.694 42.487)" d="M30.342 0L0 65.475"/><path id="Line_628" data-name="Line 628" class="cls-146" transform="translate(30.762 41.647)" d="M29.585 0L0 65.475"/><path id="Line_629" data-name="Line 629" class="cls-146" transform="translate(33.83 40.848)" d="M28.829 0L0 65.475"/><path id="Line_630" data-name="Line 630" class="cls-146" transform="translate(36.898 40.008)" d="M28.115 0L0 65.475"/><path id="Line_631" data-name="Line 631" class="cls-146" transform="translate(40.008 39.209)" d="M27.316 0L0 65.475"/><path id="Line_632" data-name="Line 632" class="cls-146" transform="translate(43.075 38.369)" d="M26.56 0L0 65.475"/><path id="Line_633" data-name="Line 633" class="cls-146" transform="translate(46.143 37.57)" d="M25.845 0L0 65.475"/><path id="Line_634" data-name="Line 634" class="cls-146" transform="translate(49.211 36.772)" d="M25.089 0L0 65.475"/><path id="Line_635" data-name="Line 635" class="cls-146" transform="translate(52.321 35.931)" d="M24.29 0L0 65.475"/><path id="Line_636" data-name="Line 636" class="cls-146" transform="translate(55.389 35.133)" d="M23.534 0L0 65.475"/><path id="Line_637" data-name="Line 637" class="cls-146" transform="translate(58.457 34.292)" d="M22.819 0L0 65.475"/><path id="Line_638" data-name="Line 638" class="cls-146" transform="translate(61.524 33.494)" d="M22.063 0L0 65.475"/><path id="Line_639" data-name="Line 639" class="cls-146" transform="translate(64.634 32.653)" d="M21.265 0L0 65.475"/><path id="Line_640" data-name="Line 640" class="cls-146" transform="translate(67.702 31.855)" d="M20.55 0L0 65.475"/><path id="Line_641" data-name="Line 641" class="cls-146" transform="translate(70.77 31.014)" d="M19.794 0L0 65.475"/><path id="Line_642" data-name="Line 642" class="cls-146" transform="translate(73.838 30.216)" d="M19.037 0L0 65.475"/><path id="Line_643" data-name="Line 643" class="cls-146" transform="translate(76.947 29.417)" d="M18.239 0L0 65.475"/><path id="Line_644" data-name="Line 644" class="cls-146" transform="translate(80.015 28.577)" d="M17.524 0L0 65.475"/><path id="Line_645" data-name="Line 645" class="cls-146" transform="translate(83.083 27.778)" d="M16.768 0L0 65.475"/><path id="Line_646" data-name="Line 646" class="cls-146" transform="translate(86.151 26.938)" d="M16.011 0L0 65.475"/><path id="Line_647" data-name="Line 647" class="cls-146" transform="translate(89.261 26.139)" d="M15.255 0L0 65.475"/><path id="Line_648" data-name="Line 648" class="cls-146" transform="translate(92.329 25.299)" d="M14.499 0L0 65.475"/><path id="Line_649" data-name="Line 649" class="cls-146" transform="translate(95.396 24.5)" d="M13.742 0L0 65.475"/><path id="Line_650" data-name="Line 650" class="cls-146" transform="translate(98.464 23.66)" d="M12.986 0L0 65.475"/><path id="Line_651" data-name="Line 651" class="cls-146" transform="translate(101.574 22.862)" d="M12.229 0L0 65.475"/><path id="Line_652" data-name="Line 652" class="cls-146" transform="translate(104.642 22.063)" d="M11.473 0L0 65.475"/><path id="Line_653" data-name="Line 653" class="cls-146" transform="translate(107.71 21.223)" d="M10.716 0L0 65.475"/><path id="Line_654" data-name="Line 654" class="cls-146" transform="translate(110.777 20.424)" d="M10.002 0L0 65.475"/><path id="Line_655" data-name="Line 655" class="cls-146" transform="translate(113.887 19.584)" d="M9.203 0L0 65.475"/><path id="Line_656" data-name="Line 656" class="cls-146" transform="translate(116.955 18.785)" d="M8.447 0L0 65.475"/><path id="Line_657" data-name="Line 657" class="cls-146" transform="translate(120.023 17.945)" d="M7.691 0L0 65.475"/><path id="Line_658" data-name="Line 658" class="cls-146" transform="translate(123.091 17.146)" d="M6.976 0L0 65.475"/><path id="Line_659" data-name="Line 659" class="cls-146" transform="translate(126.201 16.306)" d="M6.178 0L0 65.475"/><path id="Line_660" data-name="Line 660" class="cls-146" transform="translate(129.268 15.507)" d="M5.421 0L0 65.475"/><path id="Line_661" data-name="Line 661" class="cls-146" transform="translate(132.336 14.709)" d="M4.665 0L0 65.475"/><path id="Line_662" data-name="Line 662" class="cls-146" transform="translate(135.404 13.868)" d="M3.95 0L0 65.475"/><path id="Line_663" data-name="Line 663" class="cls-146" transform="translate(138.514 13.07)" d="M3.152 0L0 65.475"/><path id="Line_664" data-name="Line 664" class="cls-146" transform="translate(141.582 12.229)" d="M2.395 0L0 65.475"/><path id="Line_665" data-name="Line 665" class="cls-146" transform="translate(144.649 11.431)" d="M1.681 0L0 65.475"/><path id="Line_666" data-name="Line 666" class="cls-146" transform="translate(147.717 10.59)" d="M.925 0L0 65.475"/><path id="Line_667" data-name="Line 667" class="cls-146" transform="translate(150.827 9.792)" d="M.126 0L0 65.475"/><path id="Line_668" data-name="Line 668" class="cls-146" transform="translate(153.265 8.951)" d="M0 0l.63 65.475"/><path id="Line_669" data-name="Line 669" class="cls-146" transform="translate(155.618 8.153)" d="M0 0l1.345 65.475"/><path id="Line_670" data-name="Line 670" class="cls-146" transform="translate(157.929 7.354)" d="M0 0l2.101 65.475"/><path id="Line_671" data-name="Line 671" class="cls-146" transform="translate(160.241 6.514)" d="M0 0l2.9 65.475"/><path id="Line_672" data-name="Line 672" class="cls-146" transform="translate(162.594 5.715)" d="M0 0l3.614 65.475"/><path id="Line_673" data-name="Line 673" class="cls-146" transform="translate(164.905 4.875)" d="M0 0l4.371 65.475"/><path id="Line_674" data-name="Line 674" class="cls-146" transform="translate(167.217 4.076)" d="M0 0l5.127 65.475"/><path id="Line_675" data-name="Line 675" class="cls-146" transform="translate(169.528 3.236)" d="M0 0l5.926 65.475"/><path id="Line_676" data-name="Line 676" class="cls-146" transform="translate(171.882 2.437)" d="M0 0l6.64 65.475"/><path id="Line_677" data-name="Line 677" class="cls-146" transform="translate(174.193 1.597)" d="M0 0l7.396 65.475"/><path id="Line_678" data-name="Line 678" class="cls-146" transform="translate(176.504 .798)" d="M0 0l8.153 65.475"/><path id="Line_679" data-name="Line 679" class="cls-146" transform="translate(178.858)" d="M0 0l8.909 65.475"/></g><path id="Path_882" data-name="Path 882" class="cls-147" d="M71.2 158.906h72.283a4.5 4.5 0 0 0 4.5-4.5V133.4a4.5 4.5 0 0 0-4.5-4.5H71.2a4.5 4.5 0 0 0-4.5 4.5v21.012a4.5 4.5 0 0 0 4.5 4.494z" transform="translate(5735.83 9282.296)"/><path id="Path_883" data-name="Path 883" class="cls-148" d="M62.124 190.9s1.723 9.792-3.824 10.548c0 0 9.372.21 14.2-6.808" transform="translate(5740.7 9246.352)"/><path id="Path_884" data-name="Path 884" class="cls-147" d="M377.108 120.2l-39.125 15.045a2.7 2.7 0 0 1-3.488-1.555l-4.749-12.313a2.7 2.7 0 0 1 1.555-3.488l39.125-15.045a2.7 2.7 0 0 1 3.488 1.555l4.749 12.313a2.737 2.737 0 0 1-1.555 3.488z" transform="translate(5583.436 9297.507)"/><path id="Path_885" data-name="Path 885" class="cls-147" d="M438.831 136.2s1.3 6.64 5 5.757c0 0-5.883 2.437-10.632-.883" transform="translate(5523.351 9278.063)"/><g id="Group_1800" data-name="Group 1800" transform="translate(5807.795 9417.409)"><text id="НУЖНА_ПОМОЩЬ" data-name="НУЖНА ПОМОЩЬ" class="cls-149" transform="rotate(9.74 -38.747 5.406)"><tspan x="0" y="0">НУЖНА ПОМОЩЬ</tspan></text></g><g id="Group_1801" data-name="Group 1801" transform="translate(5919.677 9405.147)"><text id="ОНЛАЙН" class="cls-149" transform="rotate(-21.014 58.499 2.866)"><tspan x="0" y="0">ОНЛАЙН</tspan></text></g><g id="Group_1802" data-name="Group 1802" transform="translate(5892.431 9398)"><path id="Path_886" data-name="Path 886" class="cls-150" d="M299.987 109.649l-14.457 4.833a1.379 1.379 0 0 1-1.723-.84l-3.11-9.287a1.379 1.379 0 0 1 .84-1.723L296 97.8a1.379 1.379 0 0 1 1.723.84l3.11 9.287a1.344 1.344 0 0 1-.846 1.722z" transform="translate(-280.624 -97.63)"/><path id="Path_887" data-name="Path 887" class="cls-150" d="M296.927 97.5l-5.8 9.708L281 103.005" transform="translate(-280.842 -97.5)"/><path id="Line_680" data-name="Line 680" class="cls-150" transform="translate(3.562 8.951)" d="M0 7.649L4.875 0"/><path id="Line_681" data-name="Line 681" class="cls-150" transform="translate(11.463 7.817)" d="M0 0l8.657 3.446"/></g><g id="Group_1803" data-name="Group 1803" transform="translate(5941.002 9444.647)"><path id="Path_888" data-name="Path 888" class="cls-150" d="M396.2 218.166l15.465 13.028 14.2-22.693z" transform="translate(-396.2 -208.5)"/><path id="Path_889" data-name="Path 889" class="cls-150" d="M412.042 225.142l21.306-16.642-24.248 13.994.756 7.06z" transform="translate(-403.679 -208.5)"/><path id="Path_890" data-name="Path 890" class="cls-150" d="M415.475 252.5l-4.875 2.774z" transform="translate(-404.548 -234.009)"/></g><path id="Path_891" data-name="Path 891" class="cls-151" d="M166.4 252.809s-6.052-8.363-21.391-1.849-16.726 23.7-36.73 16.726-28.829-32.107-8.363-43.244 21.265-20.34 19.878-24.543" transform="translate(5723.333 9241.134)"/><g id="Group_1804" data-name="Group 1804" transform="translate(5882.755 9440.724)"><path id="Path_892" data-name="Path 892" d="M257.6 206.2l.672-.8.672.546-.672.8zm1.471-1.6a5.282 5.282 0 0 1 .84-.841 1.825 1.825 0 0 1 1.093-.42 4.566 4.566 0 0 1 .756-.042 4.632 4.632 0 0 0 .756-.084 3.149 3.149 0 0 0 .672-.168 1.147 1.147 0 0 0 .5-.378 1.384 1.384 0 0 0 .294-.546 1.445 1.445 0 0 0 .042-.588 1.981 1.981 0 0 0-.252-.63 1.794 1.794 0 0 0-.546-.588 1.324 1.324 0 0 0-.714-.378 1.4 1.4 0 0 0-.714-.042 1.857 1.857 0 0 0-.672.252 1.794 1.794 0 0 0-.588.546l-.546-.462a2.273 2.273 0 0 1 .8-.756 2 2 0 0 1 .967-.294 2.1 2.1 0 0 1 1.009.126 3.758 3.758 0 0 1 .967.546 3.31 3.31 0 0 1 .714.84 2.542 2.542 0 0 1 .336.883 2.09 2.09 0 0 1-.042.883 2.2 2.2 0 0 1-.462.8 1.6 1.6 0 0 1-.756.546 3.274 3.274 0 0 1-.883.168 7.123 7.123 0 0 1-.967.042 3.889 3.889 0 0 0-.967.168 1.941 1.941 0 0 0-.63.378c-.168.168-.336.378-.5.546z" transform="translate(-257.6 -199.163)"/></g><g id="Group_1805" data-name="Group 1805" transform="translate(5912.968 9526.285)"><path id="Path_893" data-name="Path 893" d="M335.294 410.888l-.588-.84.714-.5.588.841zm-1.177-1.807a9.608 9.608 0 0 1-.63-1.009 1.81 1.81 0 0 1-.126-1.177l.126-.756.126-.756a1.805 1.805 0 0 0 0-.672 1.412 1.412 0 0 0-.21-.588 1.454 1.454 0 0 0-.462-.42 2.43 2.43 0 0 0-.588-.21 1.294 1.294 0 0 0-.672.084 2.743 2.743 0 0 0-.714.336 1.794 1.794 0 0 0-.546.588 1.708 1.708 0 0 0-.126 1.387 2.944 2.944 0 0 0 .378.714l-.588.42a2.381 2.381 0 0 1-.5-.967 2.054 2.054 0 0 1-.042-1.009 1.971 1.971 0 0 1 .378-.925 3.232 3.232 0 0 1 .756-.756 4.29 4.29 0 0 1 .967-.5 2.378 2.378 0 0 1 .925-.084 2.014 2.014 0 0 1 .84.294 3.16 3.16 0 0 1 .672.63 1.917 1.917 0 0 1 .336.883 6.211 6.211 0 0 1-.042.883 7.325 7.325 0 0 1-.21.925 3.763 3.763 0 0 0-.084.967 1.27 1.27 0 0 0 .21.672 5.471 5.471 0 0 0 .42.63z" transform="translate(-329.491 -402.761)"/></g><circle id="Ellipse_500" data-name="Ellipse 500" class="cls-152" cx="2.101" cy="2.101" r="2.101" transform="translate(5902.045 9446.959)"/><circle id="Ellipse_501" data-name="Ellipse 501" class="cls-152" cx="2.101" cy="2.101" r="2.101" transform="translate(5864.979 9517.771)"/><path id="Path_894" data-name="Path 894" class="cls-151" d="M401.307 150.22s16.726-8.657 23.7 13.658-24.753 29.291-36.6 39.041 3.446 18.869 7.648 28.619 5.8 22.441-5.925 28.241c-12.019 5.968-26.476 2.353-37.528-14.373" transform="translate(5570.079 9270.894)"/><g id="Group_1806" data-name="Group 1806" transform="translate(5904.535 9547.188)"><path id="Path_895" data-name="Path 895" class="cls-150" d="M324.333 479.442l-14.372-14.372a1.8 1.8 0 0 1 0-2.564l9.245-9.245a1.8 1.8 0 0 1 2.564 0l14.372 14.372a1.8 1.8 0 0 1 0 2.564l-9.245 9.245a1.8 1.8 0 0 1-2.564 0z" transform="translate(-309.425 -452.63)"/><path id="Path_896" data-name="Path 896" class="cls-150" d="M352.353 468.3l-15.045-1.177L336.3 452.5" transform="translate(-325.006 -452.5)"/><path id="Line_682" data-name="Line 682" class="cls-150" transform="translate(.074 10.716)" d="M0 0l12.019 1.261"/><path id="Line_683" data-name="Line 683" class="cls-150" transform="translate(15.245 14.877)" d="M0 0l1.051 12.397"/></g><path id="Path_897" data-name="Path 897" class="cls-153" d="M398.7 371.026l13.952-5.926z" transform="translate(5543.353 9145.358)"/><path id="Path_898" data-name="Path 898" class="cls-153" d="M401.8 364.426l13.952-5.926z" transform="translate(5541.555 9149.185)"/><path id="Path_899" data-name="Path 899" class="cls-153" d="M404.2 358.326l13.952-5.926z" transform="translate(5540.164 9152.722)"/><path id="Path_900" data-name="Path 900" class="cls-153" d="M162.6 257.267l12.271-8.867z" transform="translate(5680.232 9213.016)"/><path id="Path_901" data-name="Path 901" class="cls-153" d="M152.5 259.267l12.271-8.867z" transform="translate(5686.087 9211.856)"/><path id="Path_902" data-name="Path 902" class="cls-153" d="M165.2 243.567l12.271-8.867z" transform="translate(5678.725 9220.958)"/><path id="Path_903" data-name="Path 903" class="cls-154" d="M303.275 289.112h-47.446a4.322 4.322 0 0 1-4.329-4.329v-31.854a4.322 4.322 0 0 1 4.329-4.329h47.446a4.322 4.322 0 0 1 4.329 4.329v31.855a4.322 4.322 0 0 1-4.329 4.328z" transform="translate(5628.692 9212.899)"/><circle id="Ellipse_502" data-name="Ellipse 502" class="cls-155" cx="2.732" cy="2.732" r="2.732" transform="translate(5890.993 9479.654)"/><circle id="Ellipse_503" data-name="Ellipse 503" class="cls-155" cx="2.732" cy="2.732" r="2.732" transform="translate(5906.374 9479.654)"/><circle id="Ellipse_504" data-name="Ellipse 504" class="cls-155" cx="2.732" cy="2.732" r="2.732" transform="translate(5920.074 9479.654)"/><g id="Group_1807" data-name="Group 1807" transform="translate(5899.635 9430.329)"><circle id="Ellipse_505" data-name="Ellipse 505" class="cls-156" cx="1.219" cy="1.219" r="1.219" transform="rotate(-71.252 1.61 1.154)"/><circle id="Ellipse_506" data-name="Ellipse 506" class="cls-156" cx="1.219" cy="1.219" r="1.219" transform="rotate(-71.252 4.173 -.685)"/><circle id="Ellipse_507" data-name="Ellipse 507" class="cls-156" cx="1.219" cy="1.219" r="1.219" transform="rotate(-71.252 6.737 -2.523)"/><circle id="Ellipse_508" data-name="Ellipse 508" class="cls-156" cx="1.219" cy="1.219" r="1.219" transform="rotate(-71.252 9.3 -4.362)"/><circle id="Ellipse_509" data-name="Ellipse 509" class="cls-156" cx="1.219" cy="1.219" r="1.219" transform="rotate(-71.252 14.426 -8.04)"/><circle id="Ellipse_510" data-name="Ellipse 510" class="cls-156" cx="1.219" cy="1.219" r="1.219" transform="rotate(-71.252 17.018 -9.899)"/><circle id="Ellipse_511" data-name="Ellipse 511" class="cls-156" cx="1.219" cy="1.219" r="1.219" transform="rotate(-71.252 11.863 -6.2)"/></g><path id="Path_904" data-name="Path 904" class="cls-154" d="M246.456 328.5l-3.656 11.515 13.616-5.043z" transform="translate(5633.736 9166.577)"/></g></svg>