<svg xmlns="http://www.w3.org/2000/svg" viewBox="4787 7920 140 140"><defs><style>.cls-1{fill:#ff8856}.cls-2{fill:#fff}.cls-3{fill:none;stroke:#ff9e00;stroke-miterlimit:10;stroke-width:2.19px}</style></defs><g id="img_mover_guide" transform="translate(-5753.3 979.486)"><circle id="Ellipse_589" data-name="Ellipse 589" class="cls-1" cx="70" cy="70" r="70" transform="translate(10540.3 6940.514)"/><g id="Group_2058" data-name="Group 2058" transform="translate(10577.328 6983.367)"><g id="Group_1891" data-name="Group 1891"><path id="Path_1060" data-name="Path 1060" class="cls-2" d="M1779.5-3770.2v55.854h21.791s7.437-.78 8.529 2.912c0 0 6.345 3.64 8.269.52.78-1.353.78-3.433 5.044-3.433h25.795v-55.853h-26.835s-7.437.78-6.917 7.957c0 0 .26-7.177-8.789-7.957z" transform="translate(-1779.5 3770.2)"/><path id="Path_1061" data-name="Path 1061" class="cls-2" d="M1842.028-3700.75a4.639 4.639 0 0 0 4.629-4.628v-45.193a4.639 4.639 0 0 0-4.629-4.629 4.639 4.639 0 0 0-4.628 4.629v45.193a4.605 4.605 0 0 0 4.628 4.628z" transform="translate(-1807.288 3763.001)"/></g><path id="Rectangle_1324" data-name="Rectangle 1324" class="cls-3" transform="translate(5.929 12.585)" d="M0 0h7.957v8.529H0z"/><path id="Rectangle_1325" data-name="Rectangle 1325" class="cls-3" transform="translate(56.375 33.335)" d="M0 0h7.957v8.529H0z"/></g></g></svg>