<svg id="img_mover_guide_open" xmlns="http://www.w3.org/2000/svg" viewBox="4019.459 7580 221.167 220"><defs><style>.cls-1,.cls-10,.cls-100,.cls-101,.cls-102,.cls-103,.cls-104,.cls-105,.cls-106,.cls-107,.cls-108,.cls-109,.cls-11,.cls-110,.cls-111,.cls-112,.cls-113,.cls-114,.cls-115,.cls-116,.cls-117,.cls-118,.cls-119,.cls-12,.cls-120,.cls-121,.cls-122,.cls-123,.cls-124,.cls-125,.cls-126,.cls-127,.cls-129,.cls-13,.cls-132,.cls-14,.cls-15,.cls-16,.cls-17,.cls-18,.cls-19,.cls-2,.cls-20,.cls-21,.cls-22,.cls-23,.cls-24,.cls-25,.cls-26,.cls-27,.cls-28,.cls-29,.cls-3,.cls-30,.cls-31,.cls-32,.cls-33,.cls-34,.cls-35,.cls-36,.cls-37,.cls-38,.cls-39,.cls-4,.cls-40,.cls-41,.cls-42,.cls-43,.cls-44,.cls-45,.cls-46,.cls-47,.cls-48,.cls-49,.cls-5,.cls-50,.cls-51,.cls-52,.cls-53,.cls-54,.cls-55,.cls-56,.cls-57,.cls-58,.cls-59,.cls-6,.cls-60,.cls-61,.cls-62,.cls-63,.cls-64,.cls-65,.cls-66,.cls-67,.cls-68,.cls-69,.cls-7,.cls-70,.cls-71,.cls-72,.cls-73,.cls-74,.cls-75,.cls-76,.cls-77,.cls-78,.cls-79,.cls-8,.cls-80,.cls-81,.cls-82,.cls-83,.cls-84,.cls-85,.cls-86,.cls-87,.cls-88,.cls-89,.cls-9,.cls-90,.cls-91,.cls-92,.cls-93,.cls-94,.cls-95,.cls-96,.cls-97,.cls-98,.cls-99{fill:none}.cls-10,.cls-11,.cls-12,.cls-13,.cls-14,.cls-15,.cls-16,.cls-17,.cls-18,.cls-19,.cls-2,.cls-20,.cls-21,.cls-22,.cls-23,.cls-24,.cls-25,.cls-26,.cls-27,.cls-28,.cls-29,.cls-3,.cls-30,.cls-31,.cls-32,.cls-33,.cls-34,.cls-35,.cls-36,.cls-37,.cls-38,.cls-39,.cls-4,.cls-40,.cls-41,.cls-42,.cls-43,.cls-44,.cls-45,.cls-46,.cls-47,.cls-48,.cls-49,.cls-5,.cls-50,.cls-51,.cls-52,.cls-53,.cls-54,.cls-55,.cls-56,.cls-57,.cls-58,.cls-59,.cls-6,.cls-60,.cls-61,.cls-62,.cls-63,.cls-7,.cls-8,.cls-9{stroke:#ffcb00}.cls-10,.cls-100,.cls-101,.cls-102,.cls-103,.cls-104,.cls-105,.cls-106,.cls-107,.cls-108,.cls-109,.cls-11,.cls-110,.cls-111,.cls-112,.cls-113,.cls-114,.cls-115,.cls-116,.cls-117,.cls-118,.cls-119,.cls-12,.cls-120,.cls-121,.cls-122,.cls-123,.cls-124,.cls-125,.cls-126,.cls-127,.cls-129,.cls-13,.cls-132,.cls-14,.cls-15,.cls-16,.cls-17,.cls-18,.cls-19,.cls-2,.cls-20,.cls-21,.cls-22,.cls-23,.cls-24,.cls-25,.cls-26,.cls-27,.cls-28,.cls-29,.cls-3,.cls-30,.cls-31,.cls-32,.cls-33,.cls-34,.cls-35,.cls-36,.cls-37,.cls-38,.cls-39,.cls-4,.cls-40,.cls-41,.cls-42,.cls-43,.cls-44,.cls-45,.cls-46,.cls-47,.cls-48,.cls-49,.cls-5,.cls-50,.cls-51,.cls-52,.cls-53,.cls-54,.cls-55,.cls-56,.cls-57,.cls-58,.cls-59,.cls-6,.cls-60,.cls-61,.cls-62,.cls-63,.cls-64,.cls-65,.cls-66,.cls-67,.cls-68,.cls-69,.cls-7,.cls-70,.cls-71,.cls-72,.cls-73,.cls-74,.cls-75,.cls-76,.cls-77,.cls-78,.cls-79,.cls-8,.cls-80,.cls-81,.cls-82,.cls-83,.cls-84,.cls-85,.cls-86,.cls-87,.cls-88,.cls-89,.cls-9,.cls-90,.cls-91,.cls-92,.cls-93,.cls-94,.cls-95,.cls-96,.cls-97,.cls-98,.cls-99{stroke-miterlimit:10}.cls-10,.cls-100,.cls-101,.cls-102,.cls-103,.cls-104,.cls-105,.cls-106,.cls-107,.cls-108,.cls-109,.cls-11,.cls-110,.cls-111,.cls-112,.cls-113,.cls-114,.cls-115,.cls-116,.cls-117,.cls-118,.cls-119,.cls-12,.cls-120,.cls-121,.cls-122,.cls-123,.cls-124,.cls-125,.cls-126,.cls-13,.cls-14,.cls-15,.cls-16,.cls-17,.cls-18,.cls-19,.cls-2,.cls-20,.cls-21,.cls-22,.cls-23,.cls-24,.cls-25,.cls-26,.cls-27,.cls-28,.cls-29,.cls-3,.cls-30,.cls-31,.cls-32,.cls-33,.cls-34,.cls-35,.cls-36,.cls-37,.cls-38,.cls-39,.cls-4,.cls-40,.cls-41,.cls-42,.cls-43,.cls-44,.cls-45,.cls-46,.cls-47,.cls-48,.cls-49,.cls-5,.cls-50,.cls-51,.cls-52,.cls-53,.cls-54,.cls-55,.cls-56,.cls-57,.cls-58,.cls-59,.cls-6,.cls-60,.cls-61,.cls-62,.cls-63,.cls-64,.cls-65,.cls-66,.cls-67,.cls-68,.cls-69,.cls-7,.cls-70,.cls-71,.cls-72,.cls-73,.cls-74,.cls-75,.cls-76,.cls-77,.cls-78,.cls-79,.cls-8,.cls-80,.cls-81,.cls-82,.cls-83,.cls-84,.cls-85,.cls-86,.cls-87,.cls-88,.cls-89,.cls-9,.cls-90,.cls-91,.cls-92,.cls-93,.cls-94,.cls-95,.cls-96,.cls-97,.cls-98,.cls-99{stroke-width:1.524px}.cls-125,.cls-126,.cls-2{opacity:.28}.cls-124,.cls-3{opacity:.292}.cls-123,.cls-4{opacity:.304}.cls-122,.cls-5{opacity:.315}.cls-121,.cls-6{opacity:.327}.cls-120,.cls-7{opacity:.339}.cls-119,.cls-8{opacity:.351}.cls-118,.cls-9{opacity:.363}.cls-10,.cls-117{opacity:.374}.cls-11,.cls-116{opacity:.386}.cls-115,.cls-12{opacity:.398}.cls-114,.cls-13{opacity:.41}.cls-113,.cls-14{opacity:.422}.cls-112,.cls-15{opacity:.433}.cls-111,.cls-16{opacity:.445}.cls-110,.cls-17{opacity:.457}.cls-109,.cls-18{opacity:.469}.cls-108,.cls-19{opacity:.481}.cls-107,.cls-20{opacity:.493}.cls-106,.cls-21{opacity:.504}.cls-105,.cls-22{opacity:.516}.cls-104,.cls-23{opacity:.528}.cls-103,.cls-24{opacity:.54}.cls-102,.cls-25{opacity:.552}.cls-101,.cls-26{opacity:.563}.cls-100,.cls-27{opacity:.575}.cls-28,.cls-99{opacity:.587}.cls-29,.cls-98{opacity:.599}.cls-30,.cls-97{opacity:.61}.cls-31,.cls-96{opacity:.622}.cls-32,.cls-95{opacity:.634}.cls-33,.cls-94{opacity:.646}.cls-34,.cls-93{opacity:.658}.cls-35,.cls-92{opacity:.669}.cls-36,.cls-91{opacity:.681}.cls-37,.cls-90{opacity:.693}.cls-38,.cls-89{opacity:.705}.cls-39,.cls-88{opacity:.717}.cls-40,.cls-87{opacity:.729}.cls-41,.cls-86{opacity:.74}.cls-42,.cls-85{opacity:.752}.cls-43,.cls-84{opacity:.764}.cls-44,.cls-83{opacity:.776}.cls-45,.cls-82{opacity:.788}.cls-46,.cls-81{opacity:.799}.cls-47,.cls-80{opacity:.811}.cls-48,.cls-79{opacity:.823}.cls-49,.cls-78{opacity:.835}.cls-50,.cls-77{opacity:.847}.cls-51,.cls-76{opacity:.858}.cls-52,.cls-75{opacity:.87}.cls-53,.cls-74{opacity:.882}.cls-54,.cls-73{opacity:.894}.cls-55,.cls-72{opacity:.906}.cls-56,.cls-71{opacity:.917}.cls-57,.cls-70{opacity:.929}.cls-58,.cls-69{opacity:.941}.cls-127,.cls-59,.cls-68{opacity:.953}.cls-60,.cls-67{opacity:.965}.cls-61,.cls-66{opacity:.976}.cls-62,.cls-65{opacity:.988}.cls-100,.cls-101,.cls-102,.cls-103,.cls-104,.cls-105,.cls-106,.cls-107,.cls-108,.cls-109,.cls-110,.cls-111,.cls-112,.cls-113,.cls-114,.cls-115,.cls-116,.cls-117,.cls-118,.cls-119,.cls-120,.cls-121,.cls-122,.cls-123,.cls-124,.cls-125,.cls-64,.cls-65,.cls-66,.cls-67,.cls-68,.cls-69,.cls-70,.cls-71,.cls-72,.cls-73,.cls-74,.cls-75,.cls-76,.cls-77,.cls-78,.cls-79,.cls-80,.cls-81,.cls-82,.cls-83,.cls-84,.cls-85,.cls-86,.cls-87,.cls-88,.cls-89,.cls-90,.cls-91,.cls-92,.cls-93,.cls-94,.cls-95,.cls-96,.cls-97,.cls-98,.cls-99{stroke:#ffd100}.cls-126{stroke:#f60}.cls-127,.cls-132{stroke:#ff9e00}.cls-127{stroke-width:2.499px}.cls-128{fill:#ff9e00}.cls-129{stroke:#000;stroke-width:1.249px}.cls-130{fill:#fff}.cls-131{font-size:8px;font-family:Helvetica}.cls-132{stroke-width:2.19px}</style></defs><path id="Rectangle_1461" data-name="Rectangle 1461" class="cls-1" transform="translate(4020 7580)" d="M0 0h220v220H0z"/><g id="Group_2327" data-name="Group 2327" transform="translate(-2379 -919)"><g id="Group_1786" data-name="Group 1786" transform="translate(6399 8509)"><path id="Line_238" data-name="Line 238" class="cls-2" d="M79.394 0L0 80.036"/><path id="Line_239" data-name="Line 239" class="cls-3" transform="translate(3.01 1.525)" d="M78.672 0L0 79.555"/><path id="Line_240" data-name="Line 240" class="cls-4" transform="translate(6.021 3.051)" d="M77.949 0L0 79.113"/><path id="Line_241" data-name="Line 241" class="cls-5" transform="translate(9.031 4.576)" d="M77.267 0L0 78.632"/><path id="Line_242" data-name="Line 242" class="cls-6" transform="translate(12.082 6.101)" d="M76.504 0L0 78.19"/><path id="Line_243" data-name="Line 243" class="cls-7" transform="translate(15.092 7.626)" d="M75.822 0L0 77.708"/><path id="Line_244" data-name="Line 244" class="cls-8" transform="translate(18.103 9.152)" d="M75.099 0L0 77.227"/><path id="Line_245" data-name="Line 245" class="cls-9" transform="translate(21.113 10.677)" d="M74.417 0L0 76.785"/><path id="Line_246" data-name="Line 246" class="cls-10" transform="translate(24.123 12.162)" d="M73.695 0L0 76.344"/><path id="Line_247" data-name="Line 247" class="cls-11" transform="translate(27.134 13.687)" d="M72.972 0L0 75.862"/><path id="Line_248" data-name="Line 248" class="cls-12" transform="translate(30.184 15.213)" d="M72.25 0L0 75.421"/><path id="Line_249" data-name="Line 249" class="cls-13" transform="translate(33.195 16.738)" d="M71.527 0L0 74.939"/><path id="Line_250" data-name="Line 250" class="cls-14" transform="translate(36.205 18.263)" d="M70.845 0L0 74.497"/><path id="Line_251" data-name="Line 251" class="cls-15" transform="translate(39.215 19.788)" d="M70.122 0L0 74.016"/><path id="Line_252" data-name="Line 252" class="cls-16" transform="translate(42.226 21.314)" d="M69.44 0L0 73.534"/><path id="Line_253" data-name="Line 253" class="cls-17" transform="translate(45.236 22.839)" d="M68.717 0L0 73.092"/><path id="Line_254" data-name="Line 254" class="cls-18" transform="translate(48.287 24.364)" d="M67.995 0L0 72.611"/><path id="Line_255" data-name="Line 255" class="cls-19" transform="translate(51.297 25.849)" d="M67.272 0L0 72.209"/><path id="Line_256" data-name="Line 256" class="cls-20" transform="translate(54.308 27.375)" d="M66.55 0L0 71.728"/><path id="Line_257" data-name="Line 257" class="cls-21" transform="translate(57.318 28.9)" d="M65.868 0L0 71.246"/><path id="Line_258" data-name="Line 258" class="cls-22" transform="translate(60.328 30.425)" d="M65.145 0L0 70.805"/><path id="Line_259" data-name="Line 259" class="cls-23" transform="translate(63.339 31.95)" d="M64.463 0L0 70.323"/><path id="Line_260" data-name="Line 260" class="cls-24" transform="translate(66.349 33.476)" d="M63.74 0L0 69.841"/><path id="Line_261" data-name="Line 261" class="cls-25" transform="translate(69.4 35.001)" d="M63.018 0L0 69.4"/><path id="Line_262" data-name="Line 262" class="cls-26" transform="translate(72.41 36.526)" d="M62.295 0L0 68.918"/><path id="Line_263" data-name="Line 263" class="cls-27" transform="translate(75.421 38.051)" d="M61.573 0L0 68.477"/><path id="Line_264" data-name="Line 264" class="cls-28" transform="translate(78.431 39.537)" d="M60.89 0L0 68.035"/><path id="Line_265" data-name="Line 265" class="cls-29" transform="translate(81.441 41.062)" d="M60.168 0L0 67.553"/><path id="Line_266" data-name="Line 266" class="cls-30" transform="translate(84.452 42.587)" d="M59.485 0L0 67.112"/><path id="Line_267" data-name="Line 267" class="cls-31" transform="translate(87.502 44.112)" d="M58.723 0L0 66.63"/><path id="Line_268" data-name="Line 268" class="cls-32" transform="translate(90.513 45.638)" d="M58.04 0L0 66.189"/><path id="Line_269" data-name="Line 269" class="cls-33" transform="translate(93.523 47.163)" d="M57.318 0L0 65.707"/><path id="Line_270" data-name="Line 270" class="cls-34" transform="translate(96.533 48.688)" d="M56.596 0L0 65.225"/><path id="Line_271" data-name="Line 271" class="cls-35" transform="translate(99.544 50.213)" d="M55.913 0L0 64.784"/><path id="Line_272" data-name="Line 272" class="cls-36" transform="translate(102.554 51.739)" d="M55.191 0L0 64.302"/><path id="Line_273" data-name="Line 273" class="cls-37" transform="translate(105.565 53.224)" d="M54.508 0L0 63.861"/><path id="Line_274" data-name="Line 274" class="cls-38" transform="translate(108.615 54.749)" d="M53.746 0L0 63.419"/><path id="Line_275" data-name="Line 275" class="cls-39" transform="translate(111.626 56.274)" d="M53.063 0L0 62.937"/><path id="Line_276" data-name="Line 276" class="cls-40" transform="translate(114.636 57.8)" d="M52.341 0L0 62.496"/><path id="Line_277" data-name="Line 277" class="cls-41" transform="translate(117.646 59.325)" d="M51.618 0L0 62.014"/><path id="Line_278" data-name="Line 278" class="cls-42" transform="translate(120.657 60.85)" d="M50.936 0L0 61.533"/><path id="Line_279" data-name="Line 279" class="cls-43" transform="translate(123.667 62.375)" d="M50.213 0L0 61.091"/><path id="Line_280" data-name="Line 280" class="cls-44" transform="translate(126.718 63.901)" d="M49.491 0L0 60.609"/><path id="Line_281" data-name="Line 281" class="cls-45" transform="translate(129.728 65.426)" d="M48.768 0L0 60.168"/><path id="Line_282" data-name="Line 282" class="cls-46" transform="translate(132.739 66.911)" d="M48.086 0L0 59.726"/><path id="Line_283" data-name="Line 283" class="cls-47" transform="translate(135.749 68.436)" d="M47.364 0L0 59.245"/><path id="Line_284" data-name="Line 284" class="cls-48" transform="translate(138.759 69.962)" d="M46.641 0L0 58.803"/><path id="Line_285" data-name="Line 285" class="cls-49" transform="translate(141.77 71.487)" d="M45.959 0L0 58.321"/><path id="Line_286" data-name="Line 286" class="cls-50" transform="translate(144.82 73.012)" d="M45.196 0L0 57.84"/><path id="Line_287" data-name="Line 287" class="cls-51" transform="translate(147.831 74.537)" d="M44.514 0L0 57.398"/><path id="Line_288" data-name="Line 288" class="cls-52" transform="translate(150.841 76.063)" d="M43.791 0L0 56.917"/><path id="Line_289" data-name="Line 289" class="cls-53" transform="translate(153.851 77.588)" d="M43.109 0L0 56.475"/><path id="Line_290" data-name="Line 290" class="cls-54" transform="translate(156.862 79.113)" d="M42.386 0L0 55.993"/><path id="Line_291" data-name="Line 291" class="cls-55" transform="translate(159.872 80.598)" d="M41.664 0L0 55.552"/><path id="Line_292" data-name="Line 292" class="cls-56" transform="translate(162.883 82.124)" d="M40.982 0L0 55.11"/><path id="Line_293" data-name="Line 293" class="cls-57" transform="translate(165.933 83.649)" d="M40.219 0L0 54.629"/><path id="Line_294" data-name="Line 294" class="cls-58" transform="translate(168.944 85.174)" d="M39.537 0L0 54.187"/><path id="Line_295" data-name="Line 295" class="cls-59" transform="translate(171.954 86.699)" d="M38.814 0L0 53.706"/><path id="Line_296" data-name="Line 296" class="cls-60" transform="translate(174.964 88.225)" d="M38.132 0L0 53.224"/><path id="Line_297" data-name="Line 297" class="cls-61" transform="translate(177.975 89.75)" d="M37.409 0L0 52.782"/><path id="Line_298" data-name="Line 298" class="cls-62" transform="translate(180.985 91.275)" d="M36.687 0L0 52.301"/><path id="Line_299" data-name="Line 299" class="cls-63" transform="translate(184.036 92.801)" d="M35.964 0L0 51.819"/></g><g id="Group_1787" data-name="Group 1787" transform="translate(6407.509 8622.713)"><path id="Line_300" data-name="Line 300" class="cls-64" transform="translate(0 6.904)" d="M10.998 0L0 50.213"/><path id="Line_301" data-name="Line 301" class="cls-65" transform="translate(3.171 6.783)" d="M11.078 0L0 50.775"/><path id="Line_302" data-name="Line 302" class="cls-66" transform="translate(6.342 6.663)" d="M11.159 0L0 51.337"/><path id="Line_303" data-name="Line 303" class="cls-67" transform="translate(9.513 6.543)" d="M11.239 0L0 51.899"/><path id="Line_304" data-name="Line 304" class="cls-68" transform="translate(12.684 6.462)" d="M11.279 0L0 52.421"/><path id="Line_305" data-name="Line 305" class="cls-69" transform="translate(15.855 6.342)" d="M11.359 0L0 52.943"/><path id="Line_306" data-name="Line 306" class="cls-70" transform="translate(19.026 6.221)" d="M11.44 0L0 53.505"/><path id="Line_307" data-name="Line 307" class="cls-71" transform="translate(22.237 6.101)" d="M11.48 0L0 54.067"/><path id="Line_308" data-name="Line 308" class="cls-72" transform="translate(25.408 5.981)" d="M11.52 0L0 54.629"/><path id="Line_309" data-name="Line 309" class="cls-73" transform="translate(28.579 5.86)" d="M11.6 0L0 55.191"/><path id="Line_310" data-name="Line 310" class="cls-74" transform="translate(31.75 5.78)" d="M11.68 0L0 55.712"/><path id="Line_311" data-name="Line 311" class="cls-75" transform="translate(34.921 5.66)" d="M11.761 0L0 56.274"/><path id="Line_312" data-name="Line 312" class="cls-76" transform="translate(38.092 5.539)" d="M11.801 0L0 56.836"/><path id="Line_313" data-name="Line 313" class="cls-77" transform="translate(41.263 5.419)" d="M11.881 0L0 57.398"/><path id="Line_314" data-name="Line 314" class="cls-78" transform="translate(44.433 5.298)" d="M11.961 0L0 57.96"/><path id="Line_315" data-name="Line 315" class="cls-79" transform="translate(47.645 5.218)" d="M12.001 0L0 58.482"/><path id="Line_316" data-name="Line 316" class="cls-80" transform="translate(50.816 5.098)" d="M12.082 0L0 59.044"/><path id="Line_317" data-name="Line 317" class="cls-81" transform="translate(53.986 4.977)" d="M12.122 0L0 59.606"/><path id="Line_318" data-name="Line 318" class="cls-82" transform="translate(57.157 4.857)" d="M12.202 0L0 60.128"/><path id="Line_319" data-name="Line 319" class="cls-83" transform="translate(60.328 4.736)" d="M12.282 0L0 60.69"/><path id="Line_320" data-name="Line 320" class="cls-84" transform="translate(63.499 4.616)" d="M12.363 0L0 61.252"/><path id="Line_321" data-name="Line 321" class="cls-85" transform="translate(66.67 4.536)" d="M12.403 0L0 61.773"/><path id="Line_322" data-name="Line 322" class="cls-86" transform="translate(69.841 4.415)" d="M12.483 0L0 62.335"/><path id="Line_323" data-name="Line 323" class="cls-87" transform="translate(73.052 4.295)" d="M12.523 0L0 62.897"/><path id="Line_324" data-name="Line 324" class="cls-88" transform="translate(76.223 4.174)" d="M12.604 0L0 63.459"/><path id="Line_325" data-name="Line 325" class="cls-89" transform="translate(79.394 4.054)" d="M12.644 0L0 64.021"/><path id="Line_326" data-name="Line 326" class="cls-90" transform="translate(82.565 3.974)" d="M12.724 0L0 64.543"/><path id="Line_327" data-name="Line 327" class="cls-91" transform="translate(85.736 3.853)" d="M12.804 0L0 65.105"/><path id="Line_328" data-name="Line 328" class="cls-92" transform="translate(88.907 3.733)" d="M12.885 0L0 65.667"/><path id="Line_329" data-name="Line 329" class="cls-93" transform="translate(92.078 3.612)" d="M12.925 0L0 66.229"/><path id="Line_330" data-name="Line 330" class="cls-94" transform="translate(95.249 3.492)" d="M13.005 0L0 66.791"/><path id="Line_331" data-name="Line 331" class="cls-95" transform="translate(98.46 3.372)" d="M13.045 0L0 67.353"/><path id="Line_332" data-name="Line 332" class="cls-96" transform="translate(101.631 3.291)" d="M13.125 0L0 67.834"/><path id="Line_333" data-name="Line 333" class="cls-97" transform="translate(104.802 3.171)" d="M13.206 0L0 68.396"/><path id="Line_334" data-name="Line 334" class="cls-98" transform="translate(107.973 3.051)" d="M13.246 0L0 68.958"/><path id="Line_335" data-name="Line 335" class="cls-99" transform="translate(111.144 2.93)" d="M13.326 0L0 69.52"/><path id="Line_336" data-name="Line 336" class="cls-100" transform="translate(114.315 2.81)" d="M13.406 0L0 70.082"/><path id="Line_337" data-name="Line 337" class="cls-101" transform="translate(117.486 2.729)" d="M13.487 0L0 70.604"/><path id="Line_338" data-name="Line 338" class="cls-102" transform="translate(120.657 2.609)" d="M13.527 0L0 71.166"/><path id="Line_339" data-name="Line 339" class="cls-103" transform="translate(123.868 2.489)" d="M13.567 0L0 71.728"/><path id="Line_340" data-name="Line 340" class="cls-104" transform="translate(127.039 2.368)" d="M13.647 0L0 72.29"/><path id="Line_341" data-name="Line 341" class="cls-105" transform="translate(130.21 2.248)" d="M13.727 0L0 72.852"/><path id="Line_342" data-name="Line 342" class="cls-106" transform="translate(133.381 2.127)" d="M13.768 0L0 73.414"/><path id="Line_343" data-name="Line 343" class="cls-107" transform="translate(136.552 2.047)" d="M13.848 0L0 73.935"/><path id="Line_344" data-name="Line 344" class="cls-108" transform="translate(139.723 1.927)" d="M13.928 0L0 74.497"/><path id="Line_345" data-name="Line 345" class="cls-109" transform="translate(142.894 1.806)" d="M14.008 0L0 75.059"/><path id="Line_346" data-name="Line 346" class="cls-110" transform="translate(146.065 1.686)" d="M14.089 0L0 75.581"/><path id="Line_347" data-name="Line 347" class="cls-111" transform="translate(149.276 1.565)" d="M14.089 0L0 76.143"/><path id="Line_348" data-name="Line 348" class="cls-112" transform="translate(152.447 1.485)" d="M14.169 0L0 76.665"/><path id="Line_349" data-name="Line 349" class="cls-113" transform="translate(155.618 1.365)" d="M14.249 0L0 77.227"/><path id="Line_350" data-name="Line 350" class="cls-114" transform="translate(158.789 1.244)" d="M14.329 0L0 77.789"/><path id="Line_351" data-name="Line 351" class="cls-115" transform="translate(161.959 1.124)" d="M14.37 0L0 78.351"/><path id="Line_352" data-name="Line 352" class="cls-116" transform="translate(165.13 1.003)" d="M14.45 0L0 78.913"/><path id="Line_353" data-name="Line 353" class="cls-117" transform="translate(168.301 .883)" d="M14.53 0L0 79.475"/><path id="Line_354" data-name="Line 354" class="cls-118" transform="translate(171.472 .803)" d="M14.61 0L0 79.996"/><path id="Line_355" data-name="Line 355" class="cls-119" transform="translate(174.683 .682)" d="M14.61 0L0 80.558"/><path id="Line_356" data-name="Line 356" class="cls-120" transform="translate(177.854 .562)" d="M14.691 0L0 81.12"/><path id="Line_357" data-name="Line 357" class="cls-121" transform="translate(181.025 .442)" d="M14.771 0L0 81.682"/><path id="Line_358" data-name="Line 358" class="cls-122" transform="translate(184.196 .321)" d="M14.851 0L0 82.244"/><path id="Line_359" data-name="Line 359" class="cls-123" transform="translate(187.367 .241)" d="M14.891 0L0 82.726"/><path id="Line_360" data-name="Line 360" class="cls-124" transform="translate(190.538 .12)" d="M14.972 0L0 83.288"/><path id="Line_361" data-name="Line 361" class="cls-125" transform="translate(193.709)" d="M15.052 0L0 83.85"/></g><g id="Group_1788" data-name="Group 1788" transform="translate(6423.204 8559.896)"><path id="Line_362" data-name="Line 362" class="cls-126" d="M39.938 0L0 148.674"/><path id="Line_363" data-name="Line 363" class="cls-126" transform="translate(1.365 .401)" d="M39.496 0L0 147.911"/><path id="Line_364" data-name="Line 364" class="cls-126" transform="translate(2.689 .803)" d="M39.055 0L0 147.148"/><path id="Line_365" data-name="Line 365" class="cls-126" transform="translate(4.054 1.204)" d="M38.613 0L0 146.346"/><path id="Line_366" data-name="Line 366" class="cls-126" transform="translate(5.379 1.606)" d="M38.212 0L0 145.583"/><path id="Line_367" data-name="Line 367" class="cls-126" transform="translate(6.743 2.007)" d="M37.73 0L0 144.82"/><path id="Line_368" data-name="Line 368" class="cls-126" transform="translate(8.068 2.408)" d="M37.329 0L0 144.058"/><path id="Line_369" data-name="Line 369" class="cls-126" transform="translate(9.433 2.81)" d="M36.887 0L0 143.255"/><path id="Line_370" data-name="Line 370" class="cls-126" transform="translate(10.757 3.251)" d="M36.446 0L0 142.452"/><path id="Line_371" data-name="Line 371" class="cls-126" transform="translate(12.122 3.653)" d="M36.004 0L0 141.689"/><path id="Line_372" data-name="Line 372" class="cls-126" transform="translate(13.446 4.054)" d="M35.563 0L0 140.927"/><path id="Line_373" data-name="Line 373" class="cls-126" transform="translate(14.811 4.455)" d="M35.121 0L0 140.124"/><path id="Line_374" data-name="Line 374" class="cls-126" transform="translate(16.136 4.857)" d="M34.72 0L0 139.361"/><path id="Line_375" data-name="Line 375" class="cls-126" transform="translate(17.5 5.258)" d="M34.238 0L0 138.599"/><path id="Line_376" data-name="Line 376" class="cls-126" transform="translate(18.825 5.66)" d="M33.837 0L0 137.796"/><path id="Line_377" data-name="Line 377" class="cls-126" transform="translate(20.19 6.061)" d="M33.395 0L0 137.033"/><path id="Line_378" data-name="Line 378" class="cls-126" transform="translate(21.514 6.462)" d="M32.954 0L0 136.271"/><path id="Line_379" data-name="Line 379" class="cls-126" transform="translate(22.879 6.864)" d="M32.512 0L0 135.508"/><path id="Line_380" data-name="Line 380" class="cls-126" transform="translate(24.204 7.265)" d="M32.071 0L0 134.705"/><path id="Line_381" data-name="Line 381" class="cls-126" transform="translate(25.568 7.666)" d="M31.629 0L0 133.943"/><path id="Line_382" data-name="Line 382" class="cls-126" transform="translate(26.893 8.068)" d="M31.228 0L0 133.18"/><path id="Line_383" data-name="Line 383" class="cls-126" transform="translate(28.258 8.469)" d="M30.746 0L0 132.377"/><path id="Line_384" data-name="Line 384" class="cls-126" transform="translate(29.582 8.871)" d="M30.345 0L0 131.615"/><path id="Line_385" data-name="Line 385" class="cls-126" transform="translate(30.947 9.272)" d="M29.903 0L0 130.852"/><path id="Line_386" data-name="Line 386" class="cls-126" transform="translate(32.271 9.673)" d="M29.462 0L0 130.089"/><path id="Line_387" data-name="Line 387" class="cls-126" transform="translate(33.636 10.115)" d="M29.02 0L0 129.246"/><path id="Line_388" data-name="Line 388" class="cls-126" transform="translate(34.961 10.516)" d="M28.579 0L0 128.484"/><path id="Line_389" data-name="Line 389" class="cls-126" transform="translate(36.325 10.918)" d="M28.137 0L0 127.721"/><path id="Line_390" data-name="Line 390" class="cls-126" transform="translate(37.65 11.319)" d="M27.736 0L0 126.959"/><path id="Line_391" data-name="Line 391" class="cls-126" transform="translate(39.015 11.72)" d="M27.254 0L0 126.156"/><path id="Line_392" data-name="Line 392" class="cls-126" transform="translate(40.339 12.122)" d="M26.853 0L0 125.393"/><path id="Line_393" data-name="Line 393" class="cls-126" transform="translate(41.704 12.523)" d="M26.411 0L0 124.631"/><path id="Line_394" data-name="Line 394" class="cls-126" transform="translate(43.029 12.925)" d="M25.97 0L0 123.828"/><path id="Line_395" data-name="Line 395" class="cls-126" transform="translate(44.393 13.326)" d="M25.528 0L0 123.065"/><path id="Line_396" data-name="Line 396" class="cls-126" transform="translate(45.718 13.727)" d="M25.087 0L0 122.302"/><path id="Line_397" data-name="Line 397" class="cls-126" transform="translate(47.083 14.129)" d="M24.645 0L0 121.54"/><path id="Line_398" data-name="Line 398" class="cls-126" transform="translate(48.407 14.53)" d="M24.244 0L0 120.737"/><path id="Line_399" data-name="Line 399" class="cls-126" transform="translate(49.772 14.932)" d="M23.762 0L0 119.974"/><path id="Line_400" data-name="Line 400" class="cls-126" transform="translate(51.097 15.333)" d="M23.361 0L0 119.212"/><path id="Line_401" data-name="Line 401" class="cls-126" transform="translate(52.461 15.734)" d="M22.919 0L0 118.449"/><path id="Line_402" data-name="Line 402" class="cls-126" transform="translate(53.786 16.136)" d="M22.478 0L0 117.646"/><path id="Line_403" data-name="Line 403" class="cls-126" transform="translate(55.151 16.537)" d="M22.036 0L0 116.884"/><path id="Line_404" data-name="Line 404" class="cls-126" transform="translate(56.475 16.979)" d="M21.595 0L0 116.081"/><path id="Line_405" data-name="Line 405" class="cls-126" transform="translate(57.84 17.38)" d="M21.153 0L0 115.278"/><path id="Line_406" data-name="Line 406" class="cls-126" transform="translate(59.164 17.781)" d="M20.752 0L0 114.516"/><path id="Line_407" data-name="Line 407" class="cls-126" transform="translate(60.529 18.183)" d="M20.27 0L0 113.753"/><path id="Line_408" data-name="Line 408" class="cls-126" transform="translate(61.854 18.584)" d="M19.869 0L0 112.99"/><path id="Line_409" data-name="Line 409" class="cls-126" transform="translate(63.218 18.986)" d="M19.427 0L0 112.188"/><path id="Line_410" data-name="Line 410" class="cls-126" transform="translate(64.543 19.387)" d="M18.986 0L0 111.425"/><path id="Line_411" data-name="Line 411" class="cls-126" transform="translate(65.908 19.788)" d="M18.544 0L0 110.662"/><path id="Line_412" data-name="Line 412" class="cls-126" transform="translate(67.232 20.19)" d="M18.103 0L0 109.859"/><path id="Line_413" data-name="Line 413" class="cls-126" transform="translate(68.597 20.591)" d="M17.661 0L0 109.097"/><path id="Line_414" data-name="Line 414" class="cls-126" transform="translate(69.922 20.993)" d="M17.26 0L0 108.334"/><path id="Line_415" data-name="Line 415" class="cls-126" transform="translate(71.286 21.394)" d="M16.778 0L0 107.572"/><path id="Line_416" data-name="Line 416" class="cls-126" transform="translate(72.611 21.795)" d="M16.377 0L0 106.769"/><path id="Line_417" data-name="Line 417" class="cls-126" transform="translate(73.976 22.197)" d="M15.935 0L0 106.006"/><path id="Line_418" data-name="Line 418" class="cls-126" transform="translate(75.3 22.598)" d="M15.494 0L0 105.244"/><path id="Line_419" data-name="Line 419" class="cls-126" transform="translate(76.665 22.999)" d="M15.052 0L0 104.481"/><path id="Line_420" data-name="Line 420" class="cls-126" transform="translate(77.989 23.401)" d="M14.61 0L0 103.678"/><path id="Line_421" data-name="Line 421" class="cls-126" transform="translate(79.354 23.802)" d="M14.169 0L0 102.916"/><path id="Line_422" data-name="Line 422" class="cls-126" transform="translate(80.679 24.244)" d="M13.768 0L0 102.113"/><path id="Line_423" data-name="Line 423" class="cls-126" transform="translate(82.043 24.645)" d="M13.286 0L0 101.31"/><path id="Line_424" data-name="Line 424" class="cls-126" transform="translate(83.368 25.047)" d="M12.885 0L0 100.547"/><path id="Line_425" data-name="Line 425" class="cls-126" transform="translate(84.733 25.448)" d="M12.443 0L0 99.785"/><path id="Line_426" data-name="Line 426" class="cls-126" transform="translate(86.057 25.849)" d="M12.001 0L0 99.022"/><path id="Line_427" data-name="Line 427" class="cls-126" transform="translate(87.422 26.251)" d="M11.56 0L0 98.219"/><path id="Line_428" data-name="Line 428" class="cls-126" transform="translate(88.747 26.652)" d="M11.118 0L0 97.457"/><path id="Line_429" data-name="Line 429" class="cls-126" transform="translate(90.111 27.053)" d="M10.677 0L0 96.694"/><path id="Line_430" data-name="Line 430" class="cls-126" transform="translate(91.436 27.455)" d="M10.275 0L0 95.891"/><path id="Line_431" data-name="Line 431" class="cls-126" transform="translate(92.801 27.856)" d="M9.794 0L0 95.129"/><path id="Line_432" data-name="Line 432" class="cls-126" transform="translate(94.125 28.258)" d="M9.392 0L0 94.366"/><path id="Line_433" data-name="Line 433" class="cls-126" transform="translate(95.49 28.659)" d="M8.951 0L0 93.603"/><path id="Line_434" data-name="Line 434" class="cls-126" transform="translate(96.814 29.06)" d="M8.509 0L0 92.801"/><path id="Line_435" data-name="Line 435" class="cls-126" transform="translate(98.179 29.462)" d="M8.068 0L0 92.038"/><path id="Line_436" data-name="Line 436" class="cls-126" transform="translate(99.504 29.863)" d="M7.626 0L0 91.275"/><path id="Line_437" data-name="Line 437" class="cls-126" transform="translate(100.868 30.265)" d="M7.185 0L0 90.513"/><path id="Line_438" data-name="Line 438" class="cls-126" transform="translate(102.193 30.666)" d="M6.783 0L0 89.71"/><path id="Line_439" data-name="Line 439" class="cls-126" transform="translate(103.558 31.107)" d="M6.302 0L0 88.907"/><path id="Line_440" data-name="Line 440" class="cls-126" transform="translate(104.882 31.509)" d="M5.9 0L0 88.144"/><path id="Line_441" data-name="Line 441" class="cls-126" transform="translate(106.247 31.91)" d="M5.459 0L0 87.342"/><path id="Line_442" data-name="Line 442" class="cls-126" transform="translate(107.572 32.312)" d="M5.017 0L0 86.579"/><path id="Line_443" data-name="Line 443" class="cls-126" transform="translate(108.936 32.713)" d="M4.576 0L0 85.816"/><path id="Line_444" data-name="Line 444" class="cls-126" transform="translate(110.261 33.114)" d="M4.134 0L0 85.054"/><path id="Line_445" data-name="Line 445" class="cls-126" transform="translate(111.626 33.516)" d="M3.693 0L0 84.251"/><path id="Line_446" data-name="Line 446" class="cls-126" transform="translate(112.95 33.917)" d="M3.291 0L0 83.488"/><path id="Line_447" data-name="Line 447" class="cls-126" transform="translate(114.315 34.319)" d="M2.81 0L0 82.726"/><path id="Line_448" data-name="Line 448" class="cls-126" transform="translate(115.639 34.72)" d="M2.408 0L0 81.923"/><path id="Line_449" data-name="Line 449" class="cls-126" transform="translate(117.004 35.121)" d="M1.967 0L0 81.16"/><path id="Line_450" data-name="Line 450" class="cls-126" transform="translate(118.329 35.523)" d="M1.525 0L0 80.398"/><path id="Line_451" data-name="Line 451" class="cls-126" transform="translate(119.693 35.924)" d="M1.084 0L0 79.635"/><path id="Line_452" data-name="Line 452" class="cls-126" transform="translate(121.018 36.325)" d="M.642 0L0 78.832"/><path id="Line_453" data-name="Line 453" class="cls-126" transform="translate(122.383 36.727)" d="M.201 0L0 78.07"/><path id="Line_454" data-name="Line 454" class="cls-126" transform="translate(123.507 37.128)" d="M0 0l.201 77.307"/><path id="Line_455" data-name="Line 455" class="cls-126" transform="translate(124.39 37.53)" d="M0 0l.682 76.544"/><path id="Line_456" data-name="Line 456" class="cls-126" transform="translate(125.313 37.971)" d="M0 0l1.084 75.701"/><path id="Line_457" data-name="Line 457" class="cls-126" transform="translate(126.236 38.373)" d="M0 0l1.525 74.939"/><path id="Line_458" data-name="Line 458" class="cls-126" transform="translate(127.119 38.774)" d="M0 0l1.967 74.176"/><path id="Line_459" data-name="Line 459" class="cls-126" transform="translate(128.042 39.175)" d="M0 0l2.408 73.373"/><path id="Line_460" data-name="Line 460" class="cls-126" transform="translate(128.925 39.577)" d="M0 0l2.85 72.611"/><path id="Line_461" data-name="Line 461" class="cls-126" transform="translate(129.849 39.978)" d="M0 0l3.291 71.848"/><path id="Line_462" data-name="Line 462" class="cls-126" transform="translate(130.772 40.379)" d="M0 0l3.693 71.086"/><path id="Line_463" data-name="Line 463" class="cls-126" transform="translate(131.655 40.781)" d="M0 0l4.174 70.283"/><path id="Line_464" data-name="Line 464" class="cls-126" transform="translate(132.578 41.182)" d="M0 0l4.576 69.52"/><path id="Line_465" data-name="Line 465" class="cls-126" transform="translate(133.501 41.584)" d="M0 0l5.017 68.758"/><path id="Line_466" data-name="Line 466" class="cls-126" transform="translate(134.384 41.985)" d="M0 0l5.459 67.955"/><path id="Line_467" data-name="Line 467" class="cls-126" transform="translate(135.307 42.386)" d="M0 0l5.9 67.192"/><path id="Line_468" data-name="Line 468" class="cls-126" transform="translate(136.19 42.788)" d="M0 0l6.342 66.429"/><path id="Line_469" data-name="Line 469" class="cls-126" transform="translate(137.114 43.189)" d="M0 0l6.783 65.667"/><path id="Line_470" data-name="Line 470" class="cls-126" transform="translate(138.037 43.591)" d="M0 0l7.185 64.864"/><path id="Line_471" data-name="Line 471" class="cls-126" transform="translate(138.92 43.992)" d="M0 0l7.666 64.101"/><path id="Line_472" data-name="Line 472" class="cls-126" transform="translate(139.843 44.393)" d="M0 0l8.068 63.339"/><path id="Line_473" data-name="Line 473" class="cls-126" transform="translate(140.766 44.835)" d="M0 0l8.509 62.536"/></g><path id="Path_848" data-name="Path 848" class="cls-127" d="M437.287 127.913l42.587-4.7a4.464 4.464 0 0 0 3.934-4.937l-4.134-37.49a4.464 4.464 0 0 0-4.937-3.934l-42.547 4.7a4.464 4.464 0 0 0-3.934 4.937l4.134 37.49a4.4 4.4 0 0 0 4.897 3.934z" transform="translate(6129.813 8432.184)"/><g id="Group_1789" data-name="Group 1789" transform="translate(6409.593 8590.628)"><path id="Path_849" data-name="Path 849" class="cls-128" d="M82 293.975a6.521 6.521 0 0 1 1.164 5.218 4.238 4.238 0 0 0 .522 2.89.674.674 0 0 1-.08.883l-3.372 4.094c-.2.241-.482.442-.8.2s-.161-.562.08-.8c1-1.164 1.967-2.368 2.97-3.492A.729.729 0 0 0 82.6 302a4.8 4.8 0 0 1-.361-3.091 5.793 5.793 0 0 0-6.422-6.864 5.71 5.71 0 0 0-4.134 8.79 5.84 5.84 0 0 0 4.335 2.77 6.111 6.111 0 0 1 3.412 1.846c.241.241.4.522.12.8s-.562.08-.763-.161a6.4 6.4 0 0 0-3.653-1.766 6.734 6.734 0 0 1-3.734-10.83 6.646 6.646 0 0 1 10.6.481z" transform="translate(-65.26 -286.696)"/><path id="Path_850" data-name="Path 850" class="cls-128" d="M88.106 310.671c-.281.361-.12.8-.482 1.044s-.642-.161-1.084-.04a15.113 15.113 0 0 1 1.686 1.445c.361.4.722.8 1.044 1.2.2.241.321.562 0 .8-.361.281-.562 0-.763-.281a10.235 10.235 0 0 0-3.091-2.77c-.522-.321-.522-.642 0-1a2.208 2.208 0 0 1 1.2-.442.454.454 0 0 0 .522-.361 1.937 1.937 0 0 1 .6-.883c.482-.442.883-.361 1.044.281a16.127 16.127 0 0 0 .849 2.336 6.637 6.637 0 0 0 .883 1.445c.161.241.361.482.04.722s-.562.04-.763-.2a9.823 9.823 0 0 1-1.685-3.296z" transform="translate(-74.334 -297.491)"/><path id="Path_851" data-name="Path 851" class="cls-128" d="M99.659 331.362c-.241.12-.442.161-.642-.04-.241-.281-.08-.482.08-.682.923-1.124 1.846-2.208 2.77-3.331.241-.281.482-.6.722-.883.2-.241.442-.361.723-.12a.464.464 0 0 1 .04.682c-1.2 1.445-2.408 2.89-3.612 4.295z" transform="translate(-82.636 -307.706)"/><path id="Path_852" data-name="Path 852" class="cls-128" d="M96.91 327.413c-.241.161-.442.241-.642.04a.45.45 0 0 1-.04-.642c1.164-1.4 2.368-2.81 3.532-4.255.2-.241.442-.442.763-.161.281.241.12.522-.08.763a308.113 308.113 0 0 1-3.412 4.094.554.554 0 0 1-.121.161z" transform="translate(-80.971 -305.362)"/><path id="Path_853" data-name="Path 853" class="cls-128" d="M110.269 308a1.02 1.02 0 0 1-.642.161c-.883-.08-1.766-.12-2.689-.2-.321-.04-.682-.12-.642-.562s.4-.4.722-.4c.883.04 1.766.12 2.689.2a.74.74 0 0 1 .522.161c.281.201.281.44.04.64z" transform="translate(-87.065 -296.227)"/><path id="Path_854" data-name="Path 854" class="cls-128" d="M104.822 334.6a2.37 2.37 0 0 1-1.525.442c-.281 0-.562-.08-.6-.442-.04-.321.241-.442.522-.482a2.108 2.108 0 0 0 1.967-1.525.44.44 0 0 1 .562-.321c.321.08.361.361.281.642a3.481 3.481 0 0 1-1.207 1.686z" transform="translate(-84.909 -311.342)"/><path id="Path_855" data-name="Path 855" class="cls-128" d="M78.182 327.5a.618.618 0 0 1 .08.642c-.2.843-.4 1.686-.6 2.489-.08.321-.241.562-.6.482-.4-.08-.4-.4-.321-.723.2-.883.442-1.766.642-2.649a.511.511 0 0 1 .4-.442c.199.001.317.041.399.201z" transform="translate(-69.348 -308.38)"/><path id="Path_856" data-name="Path 856" class="cls-128" d="M102.471 290.188c-.361.241-.682.522-1.044.763-.241.2-.562.281-.763-.04-.2-.281-.04-.562.2-.763a84.6 84.6 0 0 1 2.127-1.565.475.475 0 0 1 .722.04c.2.281.04.522-.2.723a10.641 10.641 0 0 1-1.044.843z" transform="translate(-83.642 -285.116)"/><path id="Path_857" data-name="Path 857" class="cls-128" d="M63.316 318.939c-.321.241-.642.482-1 .722-.241.161-.482.2-.682-.08a.441.441 0 0 1 .12-.682 84.6 84.6 0 0 1 2.127-1.565.459.459 0 1 1 .562.723c-.361.321-.763.6-1.124.883z" transform="translate(-60.262 -302.347)"/><path id="Path_858" data-name="Path 858" class="cls-128" d="M89.779 280.339a.531.531 0 0 1 .08.482c-.2.8-.361 1.646-.6 2.448-.08.281-.241.522-.562.442-.361-.08-.361-.361-.321-.642.161-.8.361-1.646.562-2.448a.474.474 0 0 1 .442-.442.346.346 0 0 1 .399.16z" transform="translate(-76.328 -280.164)"/><path id="Path_859" data-name="Path 859" class="cls-128" d="M70.328 286.932c-.241-.321-.482-.642-.723-1-.161-.241-.2-.482.04-.682a.468.468 0 0 1 .682.12c.522.682 1 1.365 1.485 2.047a.462.462 0 0 1-.08.682.493.493 0 0 1-.642-.12 17.583 17.583 0 0 0-.763-1.044z" transform="translate(-65.026 -283.145)"/><path id="Path_860" data-name="Path 860" class="cls-128" d="M61.846 303.887c.2.281 0 .642-.4.682-.442.04-.843-.04-1.284-.04-.4-.04-.843-.04-1.244-.12-.281-.04-.562-.161-.522-.522s.281-.442.6-.4c.8.08 1.606.12 2.408.2a.511.511 0 0 1 .442.2z" transform="translate(-58.39 -294.119)"/></g><path id="Path_861" data-name="Path 861" class="cls-129" d="M423.413 321.956l-4.656-3.332a.209.209 0 0 1-.04-.321l1.485-2.047a.209.209 0 0 1 .321-.04l4.656 3.332a.209.209 0 0 1 .04.321l-1.485 2.047a.249.249 0 0 1-.321.04z" transform="translate(6135.54 8288.916)"/><path id="Path_862" data-name="Path 862" class="cls-129" d="M209.813 406.856l-4.656-3.331a.209.209 0 0 1-.04-.321l1.485-2.047a.209.209 0 0 1 .321-.04l4.656 3.331a.209.209 0 0 1 .04.321l-1.485 2.047a.212.212 0 0 1-.321.04z" transform="translate(6263.404 8238.094)"/><path id="Path_863" data-name="Path 863" class="cls-129" d="M223.22 252.047l-5.379 2.007a.207.207 0 0 1-.281-.12l-.883-2.368a.207.207 0 0 1 .12-.281l5.379-2.007a.207.207 0 0 1 .281.12l.883 2.368c.081.08.001.201-.12.281z" transform="translate(6256.458 8328.962)"/><path id="Path_864" data-name="Path 864" class="cls-129" d="M295.72 435.647l-5.379 2.007a.207.207 0 0 1-.281-.12l-.883-2.368a.207.207 0 0 1 .12-.281l5.379-2.007a.207.207 0 0 1 .281.12l.883 2.368a.207.207 0 0 1-.12.281z" transform="translate(6213.059 8219.057)"/><path id="Path_865" data-name="Path 865" class="cls-129" d="M330.164 254.492l-4.054-4.054a.244.244 0 0 1 0-.321l1.806-1.806a.244.244 0 0 1 .321 0l4.054 4.054a.244.244 0 0 1 0 .321l-1.806 1.806a.244.244 0 0 1-.321 0z" transform="translate(6190.978 8329.567)"/><g id="Group_1790" data-name="Group 1790" transform="translate(6574.566 8659.881)"><path id="Path_866" data-name="Path 866" class="cls-128" d="M484.99 452.7c.321.161.642.321.923.482l1.565.963c.522.361 1 .723 1.485 1.124a19.74 19.74 0 0 1 2.649 2.529c.361.4.682.843 1.044 1.244.04.04.04.04.08.04a18.156 18.156 0 0 1 2.529.321 24.228 24.228 0 0 1 2.448.6c.642.2 1.284.4 1.927.642a22.679 22.679 0 0 1 2.649 1.244.039.039 0 0 1 .04.04c-2.85 5.338-5.7 10.637-8.55 15.975-.04 0-.04-.04-.08-.04-.562-.281-1.084-.562-1.646-.8a12.139 12.139 0 0 0-2.007-.763 22.1 22.1 0 0 0-3.211-.8 19.868 19.868 0 0 0-2.649-.321c-.04 0-.08-.04-.12-.04a19.807 19.807 0 0 0-2.448-2.729 14.537 14.537 0 0 0-1.686-1.445c-.522-.4-1-.763-1.565-1.124a22.094 22.094 0 0 0-1.927-1.124.039.039 0 0 1-.04-.04q4.335-8.011 8.59-15.978zm-.682 21.033a.14.14 0 0 1 .04-.08c2.448-4.616 4.937-9.232 7.386-13.848.08-.12.08-.12-.04-.241a20.189 20.189 0 0 0-2.208-2.328 17.742 17.742 0 0 0-1.887-1.565 17.136 17.136 0 0 0-1.766-1.2 3 3 0 0 1-.482-.281c-2.529 4.7-5.017 9.392-7.546 14.129a21.146 21.146 0 0 1 6.502 5.414zm.923.482a23.57 23.57 0 0 1 8.108 2.328c2.529-4.736 5.057-9.433 7.546-14.129-.08-.04-.12-.08-.2-.08-.441-.2-.883-.4-1.325-.562-.562-.2-1.084-.442-1.646-.6-.642-.2-1.325-.361-1.967-.522a24.766 24.766 0 0 0-2.93-.482c-.08 0-.12 0-.12.08-2.489 4.656-4.937 9.272-7.426 13.928 0-.042-.041-.002-.041.038z" transform="translate(-473.59 -452.7)"/><path id="Path_867" data-name="Path 867" class="cls-128" d="M477.749 455.9c.321.161.6.321.923.482a4879.582 4879.582 0 0 0-7.827 14.651l.241.12c.722.4 1.485.883 2.167 1.325.682.482 1.365.963 2.007 1.445a25.218 25.218 0 0 1 2.689 2.368c.522.522 1 1.044 1.485 1.565 0 .04.04.04.08.04a25.779 25.779 0 0 1 3.893.8c.682.2 1.4.4 2.087.642.6.2 1.244.441 1.846.682a32.07 32.07 0 0 1 2.609 1.2.039.039 0 0 1 .04.04c2.609-4.857 5.218-9.754 7.827-14.61.321.161.6.321.923.482-2.77 5.178-5.539 10.316-8.309 15.494-.04 0-.04-.04-.08-.04-.682-.321-1.325-.682-2.007-1a50.256 50.256 0 0 0-2.167-.923 32.243 32.243 0 0 0-3.492-1.124 22.631 22.631 0 0 0-3.291-.6c-.12 0-.281-.04-.4-.04a.14.14 0 0 1-.08-.04 19.427 19.427 0 0 0-2.529-2.609c-.482-.442-1-.883-1.525-1.284-.6-.482-1.2-.923-1.846-1.365a28.915 28.915 0 0 0-3.572-2.127.039.039 0 0 1-.04-.04 988.97 988.97 0 0 0 8.348-15.534z" transform="translate(-469.4 -454.616)"/><path id="Path_868" data-name="Path 868" class="cls-130" d="M486.462 475.888a23.511 23.511 0 0 0-6.462-5.459c2.529-4.7 5.057-9.433 7.546-14.129a2.993 2.993 0 0 1 .482.281 17.141 17.141 0 0 1 1.766 1.2 22.937 22.937 0 0 1 1.887 1.565 24.082 24.082 0 0 1 2.208 2.328c.08.12.08.12.04.241-2.448 4.616-4.937 9.232-7.385 13.848-.044.044-.044.085-.082.125z" transform="translate(-475.745 -454.855)"/><path id="Path_869" data-name="Path 869" class="cls-130" d="M498.4 485.289c0-.04.04-.04.04-.08 2.489-4.656 4.977-9.272 7.426-13.928.04-.08.08-.08.12-.08a17.851 17.851 0 0 1 2.93.482c.642.161 1.325.321 1.967.522.562.161 1.124.4 1.646.6.441.161.883.4 1.325.562.08.04.12.08.2.08-2.529 4.7-5.017 9.433-7.546 14.129a24.7 24.7 0 0 0-8.108-2.287z" transform="translate(-486.76 -463.774)"/></g><g id="Group_1791" data-name="Group 1791" transform="translate(6516.245 8665.767)"><path id="Path_870" data-name="Path 870" d="M324.1 474.121l.642-.763.642.522-.642.763zm1.4-1.565a5.047 5.047 0 0 1 .8-.8 1.743 1.743 0 0 1 1.044-.4 4.36 4.36 0 0 1 .723-.04 4.42 4.42 0 0 0 .722-.08 3.009 3.009 0 0 0 .642-.161 1.1 1.1 0 0 0 .482-.361 1.322 1.322 0 0 0 .281-.522 1.379 1.379 0 0 0 .04-.562 1.892 1.892 0 0 0-.241-.6 1.713 1.713 0 0 0-.522-.562 1.265 1.265 0 0 0-.682-.361 1.34 1.34 0 0 0-.682-.04 1.774 1.774 0 0 0-.642.241 1.714 1.714 0 0 0-.562.522l-.522-.442a2.171 2.171 0 0 1 .763-.722 1.909 1.909 0 0 1 .923-.281 2 2 0 0 1 .963.12 3.59 3.59 0 0 1 .923.522 3.16 3.16 0 0 1 .682.8 2.427 2.427 0 0 1 .321.843 2 2 0 0 1-.04.843 2.1 2.1 0 0 1-.442.763 1.527 1.527 0 0 1-.723.522 3.127 3.127 0 0 1-.843.161 6.8 6.8 0 0 1-.923.04 3.714 3.714 0 0 0-.923.161 1.853 1.853 0 0 0-.6.361c-.161.161-.321.361-.482.522z" transform="translate(-324.1 -467.362)"/></g><g id="Group_1792" data-name="Group 1792" transform="translate(6564.371 8560.965)"><path id="Path_871" data-name="Path 871" d="M444 213.021l.642-.763.642.522-.642.763zm1.4-1.565a5.044 5.044 0 0 1 .8-.8 1.743 1.743 0 0 1 1.044-.4 4.363 4.363 0 0 1 .722-.04 4.422 4.422 0 0 0 .723-.08 3.006 3.006 0 0 0 .642-.161 1.1 1.1 0 0 0 .482-.361 1.322 1.322 0 0 0 .281-.522 1.38 1.38 0 0 0 .04-.562 1.892 1.892 0 0 0-.241-.6 1.714 1.714 0 0 0-.522-.562 1.265 1.265 0 0 0-.671-.368 1.341 1.341 0 0 0-.682-.04 1.773 1.773 0 0 0-.642.241 1.713 1.713 0 0 0-.562.522l-.522-.442a2.171 2.171 0 0 1 .763-.723 1.909 1.909 0 0 1 .923-.281 2 2 0 0 1 .963.12 3.589 3.589 0 0 1 .923.522 3.161 3.161 0 0 1 .682.8 2.428 2.428 0 0 1 .321.843 2 2 0 0 1-.04.843 2.1 2.1 0 0 1-.442.763 1.527 1.527 0 0 1-.723.522 3.126 3.126 0 0 1-.843.161 6.8 6.8 0 0 1-.923.04 3.714 3.714 0 0 0-.923.161 1.853 1.853 0 0 0-.6.361c-.161.161-.321.361-.482.522z" transform="translate(-444 -206.263)"/></g><g id="Group_1793" data-name="Group 1793" transform="translate(6521.68 8565.476)"><path id="Path_872" data-name="Path 872" d="M343.484 225.126l-.6-.8.642-.522.6.8zm-1.2-1.686a4.469 4.469 0 0 1-.642-.963 2.021 2.021 0 0 1-.2-1.124c.04-.241.04-.482.08-.723a4.42 4.42 0 0 0 .08-.723 3.247 3.247 0 0 0-.04-.642 1.408 1.408 0 0 0-.241-.562 1.255 1.255 0 0 0-.442-.361 1.307 1.307 0 0 0-.562-.161 2 2 0 0 0-.642.12 2.81 2.81 0 0 0-.682.361 1.161 1.161 0 0 0-.482.6 1.925 1.925 0 0 0-.2.682 2.039 2.039 0 0 0 .12.682 1.571 1.571 0 0 0 .4.642l-.522.442a2.987 2.987 0 0 1-.562-.883 1.977 1.977 0 0 1-.08-.963 2.126 2.126 0 0 1 .321-.923 2.463 2.463 0 0 1 .682-.763 3.589 3.589 0 0 1 .923-.522 2.427 2.427 0 0 1 .883-.161 1.447 1.447 0 0 1 .8.241 1.9 1.9 0 0 1 .682.6 1.786 1.786 0 0 1 .361.8 2.966 2.966 0 0 1 0 .843c-.04.281-.08.6-.12.883a7.107 7.107 0 0 0-.04.923 1.26 1.26 0 0 0 .241.642 6.8 6.8 0 0 0 .4.562z" transform="translate(-337.64 -217.5)"/></g><g id="Group_1794" data-name="Group 1794" transform="translate(6565.424 8531.334)"><text id="ОБО_ВСЕМ" data-name="ОБО ВСЕМ" class="cls-131" transform="rotate(3.488 -105.2 5.208)"><tspan x="0" y="0">ОБО ВСЕМ</tspan></text></g><path id="Path_873" data-name="Path 873" class="cls-129" d="M358.7 386.1l1.565 7.1 6.7-2.087 1.927 7.345 6.021-2.569 1 7.185 6.3-2.609 1 7.225 6.9-2.729 1.044 7.506 6.583-2.689 1.124 7.787 6.824-3.01 1.325 7.426" transform="translate(6171.433 8247.049)"/><path id="Path_874" data-name="Path 874" class="cls-129" d="M349.8 209.832l7.024-1.927-2.408-6.583 7.265-2.248-2.85-5.9 7.145-1.325-2.89-6.181 7.145-1.325-3.01-6.783 7.426-1.365-2.97-6.5 7.707-1.445-3.291-6.7 7.345-1.646" transform="translate(6176.761 8382.455)"/><path id="Path_875" data-name="Path 875" class="cls-129" d="M115.6 330.97l6.221 3.733 3.091-6.3 6.623 3.653 2.288-6.141 5.941 4.255 2.448-6.382 5.9 4.215 2.77-6.864 6.141 4.375 2.609-6.623 6.422 4.536 3.412-7.024" transform="translate(6316.956 8288.772)"/><g id="Group_1796" data-name="Group 1796" transform="translate(6485.138 8592.568)"><g id="Group_1795" data-name="Group 1795"><path id="Path_876" data-name="Path 876" class="cls-130" d="M246.6 285v43.109h16.818s5.74-.6 6.583 2.248c0 0 4.9 2.81 6.382.4.6-1.044.6-2.649 3.893-2.649h19.909V285h-20.711s-5.74.6-5.338 6.141c0 0 .2-5.539-6.783-6.141z" transform="translate(-246.6 -285)"/><path id="Path_877" data-name="Path 877" class="cls-130" d="M307.972 341.925a3.58 3.58 0 0 0 3.572-3.572v-34.88a3.58 3.58 0 0 0-3.572-3.572 3.58 3.58 0 0 0-3.572 3.572v34.88a3.58 3.58 0 0 0 3.572 3.572z" transform="translate(-281.2 -293.919)"/></g><path id="Rectangle_1290" data-name="Rectangle 1290" class="cls-132" transform="translate(4.536 9.673)" d="M0 0h6.141v6.583H0z"/><path id="Rectangle_1291" data-name="Rectangle 1291" class="cls-132" transform="translate(43.51 25.729)" d="M0 0h6.141v6.583H0z"/></g></g></svg>