<svg id="img_hotline_open" xmlns="http://www.w3.org/2000/svg" viewBox="4306.174 7830 221.507 220"><defs><style>.cls-1,.cls-10,.cls-100,.cls-101,.cls-102,.cls-103,.cls-104,.cls-105,.cls-106,.cls-107,.cls-108,.cls-109,.cls-11,.cls-110,.cls-111,.cls-112,.cls-113,.cls-114,.cls-115,.cls-116,.cls-117,.cls-118,.cls-119,.cls-12,.cls-120,.cls-121,.cls-122,.cls-123,.cls-124,.cls-125,.cls-126,.cls-127,.cls-128,.cls-129,.cls-13,.cls-130,.cls-131,.cls-132,.cls-133,.cls-134,.cls-135,.cls-136,.cls-137,.cls-138,.cls-139,.cls-14,.cls-140,.cls-141,.cls-142,.cls-143,.cls-144,.cls-145,.cls-146,.cls-147,.cls-148,.cls-149,.cls-15,.cls-150,.cls-151,.cls-152,.cls-153,.cls-154,.cls-155,.cls-156,.cls-157,.cls-158,.cls-159,.cls-16,.cls-160,.cls-161,.cls-162,.cls-163,.cls-164,.cls-165,.cls-166,.cls-167,.cls-168,.cls-169,.cls-17,.cls-170,.cls-171,.cls-172,.cls-173,.cls-174,.cls-175,.cls-176,.cls-177,.cls-178,.cls-179,.cls-18,.cls-180,.cls-181,.cls-182,.cls-183,.cls-184,.cls-185,.cls-186,.cls-187,.cls-188,.cls-189,.cls-19,.cls-190,.cls-191,.cls-192,.cls-193,.cls-194,.cls-195,.cls-196,.cls-197,.cls-198,.cls-199,.cls-2,.cls-20,.cls-200,.cls-201,.cls-202,.cls-203,.cls-204,.cls-205,.cls-206,.cls-207,.cls-208,.cls-209,.cls-21,.cls-210,.cls-211,.cls-212,.cls-213,.cls-214,.cls-215,.cls-216,.cls-217,.cls-219,.cls-22,.cls-220,.cls-222,.cls-224,.cls-225,.cls-23,.cls-24,.cls-25,.cls-26,.cls-27,.cls-28,.cls-29,.cls-3,.cls-30,.cls-31,.cls-32,.cls-33,.cls-34,.cls-35,.cls-36,.cls-37,.cls-38,.cls-39,.cls-4,.cls-40,.cls-41,.cls-42,.cls-43,.cls-44,.cls-45,.cls-46,.cls-47,.cls-48,.cls-49,.cls-5,.cls-50,.cls-51,.cls-52,.cls-53,.cls-54,.cls-55,.cls-56,.cls-57,.cls-58,.cls-59,.cls-6,.cls-60,.cls-61,.cls-62,.cls-63,.cls-64,.cls-65,.cls-66,.cls-67,.cls-68,.cls-69,.cls-7,.cls-70,.cls-71,.cls-72,.cls-73,.cls-74,.cls-75,.cls-76,.cls-77,.cls-78,.cls-79,.cls-8,.cls-80,.cls-81,.cls-82,.cls-83,.cls-84,.cls-85,.cls-86,.cls-87,.cls-88,.cls-89,.cls-9,.cls-90,.cls-91,.cls-92,.cls-93,.cls-94,.cls-95,.cls-96,.cls-97,.cls-98,.cls-99{fill:none}.cls-10,.cls-11,.cls-12,.cls-13,.cls-14,.cls-15,.cls-16,.cls-17,.cls-18,.cls-19,.cls-2,.cls-20,.cls-21,.cls-22,.cls-23,.cls-24,.cls-25,.cls-26,.cls-27,.cls-28,.cls-29,.cls-3,.cls-30,.cls-31,.cls-32,.cls-33,.cls-34,.cls-35,.cls-36,.cls-37,.cls-38,.cls-39,.cls-4,.cls-40,.cls-41,.cls-42,.cls-43,.cls-44,.cls-45,.cls-46,.cls-47,.cls-48,.cls-49,.cls-5,.cls-50,.cls-51,.cls-52,.cls-53,.cls-54,.cls-55,.cls-56,.cls-57,.cls-58,.cls-59,.cls-6,.cls-60,.cls-61,.cls-62,.cls-63,.cls-7,.cls-8,.cls-9{stroke:#00b5a2}.cls-10,.cls-100,.cls-101,.cls-102,.cls-103,.cls-104,.cls-105,.cls-106,.cls-107,.cls-108,.cls-109,.cls-11,.cls-110,.cls-111,.cls-112,.cls-113,.cls-114,.cls-115,.cls-116,.cls-117,.cls-118,.cls-119,.cls-12,.cls-120,.cls-121,.cls-122,.cls-123,.cls-124,.cls-125,.cls-126,.cls-127,.cls-128,.cls-129,.cls-13,.cls-130,.cls-131,.cls-132,.cls-133,.cls-134,.cls-135,.cls-136,.cls-137,.cls-138,.cls-139,.cls-14,.cls-140,.cls-141,.cls-142,.cls-143,.cls-144,.cls-145,.cls-146,.cls-147,.cls-148,.cls-149,.cls-15,.cls-150,.cls-151,.cls-152,.cls-153,.cls-154,.cls-155,.cls-156,.cls-157,.cls-158,.cls-159,.cls-16,.cls-160,.cls-161,.cls-162,.cls-163,.cls-164,.cls-165,.cls-166,.cls-167,.cls-168,.cls-169,.cls-17,.cls-170,.cls-171,.cls-172,.cls-173,.cls-174,.cls-175,.cls-176,.cls-177,.cls-178,.cls-179,.cls-18,.cls-180,.cls-181,.cls-182,.cls-183,.cls-184,.cls-185,.cls-186,.cls-187,.cls-188,.cls-189,.cls-19,.cls-190,.cls-191,.cls-192,.cls-193,.cls-194,.cls-195,.cls-196,.cls-197,.cls-198,.cls-199,.cls-2,.cls-20,.cls-200,.cls-201,.cls-202,.cls-203,.cls-204,.cls-205,.cls-206,.cls-207,.cls-208,.cls-209,.cls-21,.cls-210,.cls-211,.cls-212,.cls-213,.cls-214,.cls-215,.cls-216,.cls-217,.cls-219,.cls-22,.cls-220,.cls-222,.cls-224,.cls-225,.cls-23,.cls-24,.cls-25,.cls-26,.cls-27,.cls-28,.cls-29,.cls-3,.cls-30,.cls-31,.cls-32,.cls-33,.cls-34,.cls-35,.cls-36,.cls-37,.cls-38,.cls-39,.cls-4,.cls-40,.cls-41,.cls-42,.cls-43,.cls-44,.cls-45,.cls-46,.cls-47,.cls-48,.cls-49,.cls-5,.cls-50,.cls-51,.cls-52,.cls-53,.cls-54,.cls-55,.cls-56,.cls-57,.cls-58,.cls-59,.cls-6,.cls-60,.cls-61,.cls-62,.cls-63,.cls-64,.cls-65,.cls-66,.cls-67,.cls-68,.cls-69,.cls-7,.cls-70,.cls-71,.cls-72,.cls-73,.cls-74,.cls-75,.cls-76,.cls-77,.cls-78,.cls-79,.cls-8,.cls-80,.cls-81,.cls-82,.cls-83,.cls-84,.cls-85,.cls-86,.cls-87,.cls-88,.cls-89,.cls-9,.cls-90,.cls-91,.cls-92,.cls-93,.cls-94,.cls-95,.cls-96,.cls-97,.cls-98,.cls-99{stroke-miterlimit:10}.cls-10,.cls-100,.cls-101,.cls-102,.cls-103,.cls-104,.cls-105,.cls-106,.cls-107,.cls-108,.cls-109,.cls-11,.cls-110,.cls-111,.cls-112,.cls-113,.cls-114,.cls-115,.cls-116,.cls-117,.cls-118,.cls-119,.cls-12,.cls-120,.cls-121,.cls-122,.cls-123,.cls-124,.cls-125,.cls-126,.cls-127,.cls-128,.cls-129,.cls-13,.cls-130,.cls-131,.cls-132,.cls-133,.cls-134,.cls-135,.cls-136,.cls-137,.cls-138,.cls-139,.cls-14,.cls-140,.cls-141,.cls-142,.cls-143,.cls-144,.cls-145,.cls-146,.cls-147,.cls-148,.cls-149,.cls-15,.cls-150,.cls-151,.cls-152,.cls-153,.cls-154,.cls-155,.cls-16,.cls-17,.cls-18,.cls-19,.cls-2,.cls-20,.cls-21,.cls-22,.cls-23,.cls-24,.cls-25,.cls-26,.cls-27,.cls-28,.cls-29,.cls-3,.cls-30,.cls-31,.cls-32,.cls-33,.cls-34,.cls-35,.cls-36,.cls-37,.cls-38,.cls-39,.cls-4,.cls-40,.cls-41,.cls-42,.cls-43,.cls-44,.cls-45,.cls-46,.cls-47,.cls-48,.cls-49,.cls-5,.cls-50,.cls-51,.cls-52,.cls-53,.cls-54,.cls-55,.cls-56,.cls-57,.cls-58,.cls-59,.cls-6,.cls-60,.cls-61,.cls-62,.cls-63,.cls-64,.cls-65,.cls-66,.cls-67,.cls-68,.cls-69,.cls-7,.cls-70,.cls-71,.cls-72,.cls-73,.cls-74,.cls-75,.cls-76,.cls-77,.cls-78,.cls-79,.cls-8,.cls-80,.cls-81,.cls-82,.cls-83,.cls-84,.cls-85,.cls-86,.cls-87,.cls-88,.cls-89,.cls-9,.cls-90,.cls-91,.cls-92,.cls-93,.cls-94,.cls-95,.cls-96,.cls-97,.cls-98,.cls-99{stroke-width:1.66px}.cls-2,.cls-217,.cls-64{opacity:.28}.cls-216,.cls-3{opacity:.292}.cls-215,.cls-4{opacity:.304}.cls-214,.cls-5{opacity:.315}.cls-213,.cls-6{opacity:.327}.cls-212,.cls-7{opacity:.339}.cls-211,.cls-8{opacity:.351}.cls-210,.cls-9{opacity:.363}.cls-10,.cls-209{opacity:.374}.cls-11,.cls-208{opacity:.386}.cls-12,.cls-207{opacity:.398}.cls-13,.cls-206{opacity:.41}.cls-14,.cls-205{opacity:.422}.cls-15,.cls-204{opacity:.433}.cls-16,.cls-203{opacity:.445}.cls-17,.cls-202{opacity:.457}.cls-18,.cls-201{opacity:.469}.cls-19,.cls-200{opacity:.481}.cls-199,.cls-20{opacity:.493}.cls-198,.cls-21{opacity:.504}.cls-197,.cls-22{opacity:.516}.cls-196,.cls-23{opacity:.528}.cls-195,.cls-24{opacity:.54}.cls-194,.cls-25{opacity:.552}.cls-193,.cls-26{opacity:.563}.cls-192,.cls-27{opacity:.575}.cls-191,.cls-28{opacity:.587}.cls-190,.cls-29{opacity:.599}.cls-189,.cls-30{opacity:.61}.cls-188,.cls-31{opacity:.622}.cls-187,.cls-32{opacity:.634}.cls-186,.cls-33{opacity:.646}.cls-185,.cls-34{opacity:.658}.cls-184,.cls-35{opacity:.669}.cls-183,.cls-36{opacity:.681}.cls-182,.cls-37{opacity:.693}.cls-181,.cls-38{opacity:.705}.cls-180,.cls-39{opacity:.717}.cls-179,.cls-40{opacity:.729}.cls-178,.cls-41{opacity:.74}.cls-177,.cls-42{opacity:.752}.cls-176,.cls-43{opacity:.764}.cls-175,.cls-44{opacity:.776}.cls-174,.cls-45{opacity:.788}.cls-173,.cls-46{opacity:.799}.cls-172,.cls-47{opacity:.811}.cls-171,.cls-48{opacity:.823}.cls-170,.cls-49{opacity:.835}.cls-169,.cls-50{opacity:.847}.cls-168,.cls-51{opacity:.858}.cls-167,.cls-52{opacity:.87}.cls-166,.cls-53{opacity:.882}.cls-165,.cls-54{opacity:.894}.cls-164,.cls-55{opacity:.906}.cls-163,.cls-56{opacity:.917}.cls-162,.cls-57{opacity:.929}.cls-161,.cls-58{opacity:.941}.cls-160,.cls-59{opacity:.953}.cls-159,.cls-60{opacity:.965}.cls-158,.cls-61{opacity:.976}.cls-157,.cls-62{opacity:.988}.cls-100,.cls-101,.cls-102,.cls-103,.cls-104,.cls-105,.cls-106,.cls-107,.cls-108,.cls-109,.cls-110,.cls-111,.cls-112,.cls-113,.cls-114,.cls-115,.cls-116,.cls-117,.cls-118,.cls-119,.cls-120,.cls-121,.cls-122,.cls-123,.cls-124,.cls-125,.cls-126,.cls-127,.cls-128,.cls-129,.cls-130,.cls-131,.cls-132,.cls-133,.cls-134,.cls-135,.cls-136,.cls-137,.cls-138,.cls-139,.cls-140,.cls-141,.cls-142,.cls-143,.cls-144,.cls-145,.cls-146,.cls-147,.cls-148,.cls-149,.cls-150,.cls-151,.cls-152,.cls-153,.cls-154,.cls-155,.cls-64,.cls-65,.cls-66,.cls-67,.cls-68,.cls-69,.cls-70,.cls-71,.cls-72,.cls-73,.cls-74,.cls-75,.cls-76,.cls-77,.cls-78,.cls-79,.cls-80,.cls-81,.cls-82,.cls-83,.cls-84,.cls-85,.cls-86,.cls-87,.cls-88,.cls-89,.cls-90,.cls-91,.cls-92,.cls-93,.cls-94,.cls-95,.cls-96,.cls-97,.cls-98,.cls-99{stroke:#007ad2}.cls-65{opacity:.288}.cls-66{opacity:.296}.cls-67{opacity:.304}.cls-68{opacity:.312}.cls-69{opacity:.32}.cls-70{opacity:.327}.cls-71{opacity:.335}.cls-72{opacity:.343}.cls-73{opacity:.351}.cls-74{opacity:.359}.cls-75{opacity:.367}.cls-76{opacity:.375}.cls-77{opacity:.383}.cls-78{opacity:.391}.cls-79{opacity:.399}.cls-80{opacity:.407}.cls-81{opacity:.414}.cls-82{opacity:.422}.cls-83{opacity:.43}.cls-84{opacity:.438}.cls-85{opacity:.446}.cls-86{opacity:.454}.cls-87{opacity:.462}.cls-88{opacity:.47}.cls-89{opacity:.478}.cls-90{opacity:.486}.cls-91{opacity:.494}.cls-92{opacity:.502}.cls-93{opacity:.51}.cls-94{opacity:.517}.cls-95{opacity:.525}.cls-96{opacity:.533}.cls-97{opacity:.541}.cls-98{opacity:.549}.cls-99{opacity:.557}.cls-100{opacity:.565}.cls-101{opacity:.573}.cls-102{opacity:.581}.cls-103{opacity:.589}.cls-104{opacity:.596}.cls-105{opacity:.604}.cls-106{opacity:.612}.cls-107{opacity:.62}.cls-108{opacity:.628}.cls-109{opacity:.636}.cls-110{opacity:.644}.cls-111{opacity:.652}.cls-112{opacity:.66}.cls-113{opacity:.668}.cls-114{opacity:.676}.cls-115{opacity:.683}.cls-116{opacity:.691}.cls-117{opacity:.699}.cls-118{opacity:.707}.cls-119{opacity:.715}.cls-120{opacity:.723}.cls-121{opacity:.731}.cls-122{opacity:.739}.cls-123{opacity:.747}.cls-124{opacity:.755}.cls-125{opacity:.763}.cls-126{opacity:.771}.cls-127{opacity:.779}.cls-128{opacity:.786}.cls-129{opacity:.794}.cls-130{opacity:.802}.cls-131{opacity:.81}.cls-132{opacity:.818}.cls-133{opacity:.826}.cls-134{opacity:.834}.cls-135{opacity:.842}.cls-136{opacity:.85}.cls-137{opacity:.858}.cls-138{opacity:.865}.cls-139{opacity:.873}.cls-140{opacity:.881}.cls-141{opacity:.889}.cls-142{opacity:.897}.cls-143,.cls-221{opacity:.905}.cls-144,.cls-224{opacity:.913}.cls-145{opacity:.921}.cls-146{opacity:.929}.cls-147{opacity:.937}.cls-148{opacity:.945}.cls-149{opacity:.952}.cls-150{opacity:.96}.cls-151{opacity:.968}.cls-152{opacity:.976}.cls-153{opacity:.984}.cls-154{opacity:.992}.cls-156,.cls-157,.cls-158,.cls-159,.cls-160,.cls-161,.cls-162,.cls-163,.cls-164,.cls-165,.cls-166,.cls-167,.cls-168,.cls-169,.cls-170,.cls-171,.cls-172,.cls-173,.cls-174,.cls-175,.cls-176,.cls-177,.cls-178,.cls-179,.cls-180,.cls-181,.cls-182,.cls-183,.cls-184,.cls-185,.cls-186,.cls-187,.cls-188,.cls-189,.cls-190,.cls-191,.cls-192,.cls-193,.cls-194,.cls-195,.cls-196,.cls-197,.cls-198,.cls-199,.cls-200,.cls-201,.cls-202,.cls-203,.cls-204,.cls-205,.cls-206,.cls-207,.cls-208,.cls-209,.cls-210,.cls-211,.cls-212,.cls-213,.cls-214,.cls-215,.cls-216,.cls-217{stroke:#005fa2;stroke-width:1.352px}.cls-218{font-size:8px;font-family:Helvetica}.cls-219,.cls-222,.cls-224{stroke:#007aa2}.cls-219,.cls-220{stroke-width:1.249px}.cls-220{stroke:#000}.cls-222{stroke-width:2.499px}.cls-223{fill:#fff}.cls-224,.cls-225{stroke-width:2.19px}.cls-225{stroke:#fff}</style></defs><path id="Rectangle_1464" data-name="Rectangle 1464" class="cls-1" transform="translate(4307 7830)" d="M0 0h220v220H0z"/><g id="Group_2328" data-name="Group 2328" transform="translate(-2047 -1256.991)"><g id="Group_1808" data-name="Group 1808" transform="translate(6386.454 9104.021)"><path id="Line_684" data-name="Line 684" class="cls-2" d="M38.719 0L0 55.832"/><path id="Line_685" data-name="Line 685" class="cls-3" transform="translate(2.42 1.901)" d="M38.763 0L0 55.832"/><path id="Line_686" data-name="Line 686" class="cls-4" transform="translate(4.883 3.803)" d="M38.719 0L0 55.832"/><path id="Line_687" data-name="Line 687" class="cls-5" transform="translate(7.303 5.704)" d="M38.719 0L0 55.832"/><path id="Line_688" data-name="Line 688" class="cls-6" transform="translate(9.766 7.606)" d="M38.719 0L0 55.789"/><path id="Line_689" data-name="Line 689" class="cls-7" transform="translate(12.186 9.464)" d="M38.719 0L0 55.832"/><path id="Line_690" data-name="Line 690" class="cls-8" transform="translate(14.606 11.365)" d="M38.763 0L0 55.832"/><path id="Line_691" data-name="Line 691" class="cls-9" transform="translate(17.069 13.267)" d="M38.719 0L0 55.832"/><path id="Line_692" data-name="Line 692" class="cls-10" transform="translate(19.489 15.168)" d="M38.763 0L0 55.832"/><path id="Line_693" data-name="Line 693" class="cls-11" transform="translate(21.952 17.069)" d="M38.719 0L0 55.789"/><path id="Line_694" data-name="Line 694" class="cls-12" transform="translate(24.372 18.928)" d="M38.763 0L0 55.832"/><path id="Line_695" data-name="Line 695" class="cls-13" transform="translate(26.836 20.829)" d="M38.719 0L0 55.832"/><path id="Line_696" data-name="Line 696" class="cls-14" transform="translate(29.256 22.73)" d="M38.763 0L0 55.832"/><path id="Line_697" data-name="Line 697" class="cls-15" transform="translate(31.719 24.632)" d="M38.719 0L0 55.832"/><path id="Line_698" data-name="Line 698" class="cls-16" transform="translate(34.139 26.49)" d="M38.719 0L0 55.832"/><path id="Line_699" data-name="Line 699" class="cls-17" transform="translate(36.602 28.391)" d="M38.719 0L0 55.832"/><path id="Line_700" data-name="Line 700" class="cls-18" transform="translate(39.022 30.293)" d="M38.719 0L0 55.832"/><path id="Line_701" data-name="Line 701" class="cls-19" transform="translate(41.442 32.194)" d="M38.763 0L0 55.832"/><path id="Line_702" data-name="Line 702" class="cls-20" transform="translate(43.905 34.095)" d="M38.719 0L0 55.832"/><path id="Line_703" data-name="Line 703" class="cls-21" transform="translate(46.325 35.954)" d="M38.763 0L0 55.832"/><path id="Line_704" data-name="Line 704" class="cls-22" transform="translate(48.788 37.855)" d="M38.719 0L0 55.832"/><path id="Line_705" data-name="Line 705" class="cls-23" transform="translate(51.208 39.756)" d="M38.763 0L0 55.832"/><path id="Line_706" data-name="Line 706" class="cls-24" transform="translate(53.671 41.658)" d="M38.719 0L0 55.832"/><path id="Line_707" data-name="Line 707" class="cls-25" transform="translate(56.091 43.559)" d="M38.719 0L0 55.789"/><path id="Line_708" data-name="Line 708" class="cls-26" transform="translate(58.554 45.417)" d="M38.719 0L0 55.832"/><path id="Line_709" data-name="Line 709" class="cls-27" transform="translate(60.974 47.319)" d="M38.719 0L0 55.832"/><path id="Line_710" data-name="Line 710" class="cls-28" transform="translate(63.437 49.22)" d="M38.719 0L0 55.832"/><path id="Line_711" data-name="Line 711" class="cls-29" transform="translate(65.857 51.122)" d="M38.719 0L0 55.832"/><path id="Line_712" data-name="Line 712" class="cls-30" transform="translate(68.277 53.023)" d="M38.763 0L0 55.789"/><path id="Line_713" data-name="Line 713" class="cls-31" transform="translate(70.741 54.881)" d="M38.719 0L0 55.832"/><path id="Line_714" data-name="Line 714" class="cls-32" transform="translate(73.16 56.783)" d="M38.763 0L0 55.832"/><path id="Line_715" data-name="Line 715" class="cls-33" transform="translate(75.624 58.684)" d="M38.719 0L0 55.832"/><path id="Line_716" data-name="Line 716" class="cls-34" transform="translate(78.044 60.585)" d="M38.763 0L0 55.832"/><path id="Line_717" data-name="Line 717" class="cls-35" transform="translate(80.507 62.444)" d="M38.719 0L0 55.832"/><path id="Line_718" data-name="Line 718" class="cls-36" transform="translate(82.927 64.345)" d="M38.719 0L0 55.832"/><path id="Line_719" data-name="Line 719" class="cls-37" transform="translate(85.39 66.246)" d="M38.719 0L0 55.832"/><path id="Line_720" data-name="Line 720" class="cls-38" transform="translate(87.81 68.148)" d="M38.719 0L0 55.832"/><path id="Line_721" data-name="Line 721" class="cls-39" transform="translate(90.273 70.049)" d="M38.719 0L0 55.832"/><path id="Line_722" data-name="Line 722" class="cls-40" transform="translate(92.693 71.907)" d="M38.719 0L0 55.832"/><path id="Line_723" data-name="Line 723" class="cls-41" transform="translate(95.113 73.809)" d="M38.763 0L0 55.832"/><path id="Line_724" data-name="Line 724" class="cls-42" transform="translate(97.576 75.71)" d="M38.719 0L0 55.832"/><path id="Line_725" data-name="Line 725" class="cls-43" transform="translate(99.996 77.611)" d="M38.763 0L0 55.832"/><path id="Line_726" data-name="Line 726" class="cls-44" transform="translate(102.459 79.513)" d="M38.719 0L0 55.789"/><path id="Line_727" data-name="Line 727" class="cls-45" transform="translate(104.879 81.371)" d="M38.763 0L0 55.832"/><path id="Line_728" data-name="Line 728" class="cls-46" transform="translate(107.342 83.272)" d="M38.719 0L0 55.832"/><path id="Line_729" data-name="Line 729" class="cls-47" transform="translate(109.762 85.174)" d="M38.719 0L0 55.832"/><path id="Line_730" data-name="Line 730" class="cls-48" transform="translate(112.225 87.075)" d="M38.719 0L0 55.832"/><path id="Line_731" data-name="Line 731" class="cls-49" transform="translate(114.645 88.977)" d="M38.719 0L0 55.789"/><path id="Line_732" data-name="Line 732" class="cls-50" transform="translate(117.065 90.835)" d="M38.763 0L0 55.832"/><path id="Line_733" data-name="Line 733" class="cls-51" transform="translate(119.529 92.736)" d="M38.719 0L0 55.832"/><path id="Line_734" data-name="Line 734" class="cls-52" transform="translate(121.949 94.638)" d="M38.763 0L0 55.832"/><path id="Line_735" data-name="Line 735" class="cls-53" transform="translate(124.412 96.539)" d="M38.719 0L0 55.832"/><path id="Line_736" data-name="Line 736" class="cls-54" transform="translate(126.832 98.397)" d="M38.763 0L0 55.832"/><path id="Line_737" data-name="Line 737" class="cls-55" transform="translate(129.295 100.299)" d="M38.719 0L0 55.832"/><path id="Line_738" data-name="Line 738" class="cls-56" transform="translate(131.715 102.2)" d="M38.763 0L0 55.832"/><path id="Line_739" data-name="Line 739" class="cls-57" transform="translate(134.178 104.101)" d="M38.719 0L0 55.832"/><path id="Line_740" data-name="Line 740" class="cls-58" transform="translate(136.598 106.003)" d="M38.719 0L0 55.832"/><path id="Line_741" data-name="Line 741" class="cls-59" transform="translate(139.061 107.861)" d="M38.719 0L0 55.832"/><path id="Line_742" data-name="Line 742" class="cls-60" transform="translate(141.481 109.762)" d="M38.719 0L0 55.832"/><path id="Line_743" data-name="Line 743" class="cls-61" transform="translate(143.901 111.664)" d="M38.763 0L0 55.832"/><path id="Line_744" data-name="Line 744" class="cls-62" transform="translate(146.364 113.565)" d="M38.719 0L0 55.832"/><path id="Line_745" data-name="Line 745" class="cls-63" transform="translate(148.784 115.466)" d="M38.763 0L0 55.789"/></g><g id="Group_1809" data-name="Group 1809" transform="translate(6354 9106.441)"><path id="Line_746" data-name="Line 746" class="cls-64" transform="translate(0 118.707)" d="M6.957 0L0 67.586"/><path id="Line_747" data-name="Line 747" class="cls-65" transform="translate(2.161 117.411)" d="M6.18 0L0 67.672"/><path id="Line_748" data-name="Line 748" class="cls-66" transform="translate(4.321 116.115)" d="M5.358 0L0 67.716"/><path id="Line_749" data-name="Line 749" class="cls-67" transform="translate(6.482 114.775)" d="M4.581 0L0 67.845"/><path id="Line_750" data-name="Line 750" class="cls-68" transform="translate(8.643 113.479)" d="M3.76 0L0 67.888"/><path id="Line_751" data-name="Line 751" class="cls-69" transform="translate(10.803 112.182)" d="M2.982 0L0 67.975"/><path id="Line_752" data-name="Line 752" class="cls-70" transform="translate(12.921 110.886)" d="M2.204 0L0 68.018"/><path id="Line_753" data-name="Line 753" class="cls-71" transform="translate(15.082 109.589)" d="M1.426 0L0 68.104"/><path id="Line_754" data-name="Line 754" class="cls-72" transform="translate(17.242 108.25)" d="M.605 0L0 68.191"/><path id="Line_755" data-name="Line 755" class="cls-73" transform="translate(19.187 106.953)" d="M0 0l.216 68.277"/><path id="Line_756" data-name="Line 756" class="cls-74" transform="translate(20.57 105.657)" d="M0 0l.994 68.321"/><path id="Line_757" data-name="Line 757" class="cls-75" transform="translate(21.909 104.361)" d="M0 0l1.772 68.407"/><path id="Line_758" data-name="Line 758" class="cls-76" transform="translate(23.292 103.064)" d="M0 0l2.55 68.45"/><path id="Line_759" data-name="Line 759" class="cls-77" transform="translate(24.632 101.768)" d="M0 0l3.371 68.537"/><path id="Line_760" data-name="Line 760" class="cls-78" transform="translate(26.015 100.428)" d="M0 0l4.148 68.623"/><path id="Line_761" data-name="Line 761" class="cls-79" transform="translate(27.354 99.132)" d="M0 0l4.97 68.709"/><path id="Line_762" data-name="Line 762" class="cls-80" transform="translate(28.737 97.835)" d="M0 0l5.747 68.753"/><path id="Line_763" data-name="Line 763" class="cls-81" transform="translate(30.077 96.539)" d="M0 0l6.525 68.839"/><path id="Line_764" data-name="Line 764" class="cls-82" transform="translate(31.416 95.243)" d="M0 0l7.346 68.882"/><path id="Line_765" data-name="Line 765" class="cls-83" transform="translate(32.799 93.903)" d="M0 0l8.124 69.012"/><path id="Line_766" data-name="Line 766" class="cls-84" transform="translate(34.139 92.607)" d="M0 0l8.945 69.055"/><path id="Line_767" data-name="Line 767" class="cls-85" transform="translate(35.522 91.31)" d="M0 0l9.723 69.142"/><path id="Line_768" data-name="Line 768" class="cls-86" transform="translate(36.861 90.014)" d="M0 0l10.544 69.185"/><path id="Line_769" data-name="Line 769" class="cls-87" transform="translate(38.244 88.717)" d="M0 0l11.279 69.271"/><path id="Line_770" data-name="Line 770" class="cls-88" transform="translate(39.584 87.421)" d="M0 0l12.1 69.314"/><path id="Line_771" data-name="Line 771" class="cls-89" transform="translate(40.966 86.081)" d="M0 0l12.878 69.444"/><path id="Line_772" data-name="Line 772" class="cls-90" transform="translate(42.306 84.785)" d="M0 0l13.699 69.487"/><path id="Line_773" data-name="Line 773" class="cls-91" transform="translate(43.689 83.488)" d="M0 0l14.477 69.574"/><path id="Line_774" data-name="Line 774" class="cls-92" transform="translate(45.028 82.192)" d="M0 0l15.254 69.617"/><path id="Line_775" data-name="Line 775" class="cls-93" transform="translate(46.368 80.896)" d="M0 0l16.075 69.703"/><path id="Line_776" data-name="Line 776" class="cls-94" transform="translate(47.751 79.556)" d="M0 0l16.853 69.79"/><path id="Line_777" data-name="Line 777" class="cls-95" transform="translate(49.091 78.26)" d="M0 0l17.674 69.876"/><path id="Line_778" data-name="Line 778" class="cls-96" transform="translate(50.473 76.963)" d="M0 0l18.452 69.919"/><path id="Line_779" data-name="Line 779" class="cls-97" transform="translate(51.813 75.667)" d="M0 0l19.273 70.006"/><path id="Line_780" data-name="Line 780" class="cls-98" transform="translate(53.196 74.37)" d="M0 0l20.008 70.049"/><path id="Line_781" data-name="Line 781" class="cls-99" transform="translate(54.535 73.031)" d="M0 0l20.829 70.179"/><path id="Line_782" data-name="Line 782" class="cls-100" transform="translate(55.918 71.734)" d="M0 0l21.607 70.222"/><path id="Line_783" data-name="Line 783" class="cls-101" transform="translate(57.258 70.438)" d="M0 0l22.428 70.308"/><path id="Line_784" data-name="Line 784" class="cls-102" transform="translate(58.598 69.142)" d="M0 0l23.249 70.352"/><path id="Line_785" data-name="Line 785" class="cls-103" transform="translate(59.98 67.845)" d="M0 0l24.027 70.438"/><path id="Line_786" data-name="Line 786" class="cls-104" transform="translate(61.32 66.549)" d="M0 0l24.805 70.481"/><path id="Line_787" data-name="Line 787" class="cls-105" transform="translate(62.703 65.209)" d="M0 0l25.582 70.611"/><path id="Line_788" data-name="Line 788" class="cls-106" transform="translate(64.042 63.913)" d="M0 0l26.403 70.654"/><path id="Line_789" data-name="Line 789" class="cls-107" transform="translate(65.425 62.616)" d="M0 0l27.181 70.741"/><path id="Line_790" data-name="Line 790" class="cls-108" transform="translate(66.765 61.32)" d="M0 0l28.002 70.784"/><path id="Line_791" data-name="Line 791" class="cls-109" transform="translate(68.148 60.024)" d="M0 0l28.737 70.87"/><path id="Line_792" data-name="Line 792" class="cls-110" transform="translate(69.487 58.684)" d="M0 0l29.558 70.957"/><path id="Line_793" data-name="Line 793" class="cls-111" transform="translate(70.87 57.388)" d="M0 0l30.336 71.043"/><path id="Line_794" data-name="Line 794" class="cls-112" transform="translate(72.21 56.091)" d="M0 0l31.157 71.086"/><path id="Line_795" data-name="Line 795" class="cls-113" transform="translate(73.549 54.795)" d="M0 0l31.978 71.173"/><path id="Line_796" data-name="Line 796" class="cls-114" transform="translate(74.932 53.498)" d="M0 0l32.756 71.216"/><path id="Line_797" data-name="Line 797" class="cls-115" transform="translate(76.272 52.159)" d="M0 0l33.534 71.346"/><path id="Line_798" data-name="Line 798" class="cls-116" transform="translate(77.655 50.862)" d="M0 0l34.312 71.389"/><path id="Line_799" data-name="Line 799" class="cls-117" transform="translate(78.994 49.566)" d="M0 0l35.133 71.475"/><path id="Line_800" data-name="Line 800" class="cls-118" transform="translate(80.377 48.269)" d="M0 0l35.91 71.518"/><path id="Line_801" data-name="Line 801" class="cls-119" transform="translate(81.717 46.973)" d="M0 0l36.731 71.605"/><path id="Line_802" data-name="Line 802" class="cls-120" transform="translate(83.1 45.677)" d="M0 0l37.466 71.648"/><path id="Line_803" data-name="Line 803" class="cls-121" transform="translate(84.439 44.337)" d="M0 0l38.287 71.778"/><path id="Line_804" data-name="Line 804" class="cls-122" transform="translate(85.779 43.041)" d="M0 0l39.108 71.821"/><path id="Line_805" data-name="Line 805" class="cls-123" transform="translate(87.162 41.744)" d="M0 0l39.886 71.907"/><path id="Line_806" data-name="Line 806" class="cls-124" transform="translate(88.501 40.448)" d="M0 0l40.707 71.95"/><path id="Line_807" data-name="Line 807" class="cls-125" transform="translate(89.884 39.151)" d="M0 0l41.485 72.037"/><path id="Line_808" data-name="Line 808" class="cls-126" transform="translate(91.224 37.812)" d="M0 0l42.263 72.123"/><path id="Line_809" data-name="Line 809" class="cls-127" transform="translate(92.607 36.515)" d="M0 0l43.041 72.21"/><path id="Line_810" data-name="Line 810" class="cls-128" transform="translate(93.946 35.219)" d="M0 0l43.862 72.253"/><path id="Line_811" data-name="Line 811" class="cls-129" transform="translate(95.329 33.923)" d="M0 0l44.64 72.339"/><path id="Line_812" data-name="Line 812" class="cls-130" transform="translate(96.669 32.626)" d="M0 0l45.461 72.383"/><path id="Line_813" data-name="Line 813" class="cls-131" transform="translate(98.008 31.287)" d="M0 0l46.282 72.512"/><path id="Line_814" data-name="Line 814" class="cls-132" transform="translate(99.391 29.99)" d="M0 0l47.016 72.555"/><path id="Line_815" data-name="Line 815" class="cls-133" transform="translate(100.731 28.694)" d="M0 0l47.837 72.642"/><path id="Line_816" data-name="Line 816" class="cls-134" transform="translate(102.114 27.397)" d="M0 0l48.615 72.685"/><path id="Line_817" data-name="Line 817" class="cls-135" transform="translate(103.453 26.101)" d="M0 0l49.436 72.772"/><path id="Line_818" data-name="Line 818" class="cls-136" transform="translate(104.836 24.805)" d="M0 0l50.214 72.815"/><path id="Line_819" data-name="Line 819" class="cls-137" transform="translate(106.176 23.465)" d="M0 0l50.992 72.944"/><path id="Line_820" data-name="Line 820" class="cls-138" transform="translate(107.558 22.169)" d="M0 0l51.77 72.988"/><path id="Line_821" data-name="Line 821" class="cls-139" transform="translate(108.898 20.872)" d="M0 0l52.591 73.074"/><path id="Line_822" data-name="Line 822" class="cls-140" transform="translate(110.281 19.576)" d="M0 0l53.369 73.117"/><path id="Line_823" data-name="Line 823" class="cls-141" transform="translate(111.62 18.279)" d="M0 0l54.19 73.204"/><path id="Line_824" data-name="Line 824" class="cls-142" transform="translate(112.96 16.94)" d="M0 0l55.011 73.29"/><path id="Line_825" data-name="Line 825" class="cls-143" transform="translate(114.343 15.643)" d="M0 0l55.745 73.377"/><path id="Line_826" data-name="Line 826" class="cls-144" transform="translate(115.683 14.347)" d="M0 0l56.566 73.42"/><path id="Line_827" data-name="Line 827" class="cls-145" transform="translate(117.065 13.05)" d="M0 0l57.344 73.506"/><path id="Line_828" data-name="Line 828" class="cls-146" transform="translate(118.405 11.754)" d="M0 0l58.165 73.549"/><path id="Line_829" data-name="Line 829" class="cls-147" transform="translate(119.788 10.414)" d="M0 0l58.943 73.679"/><path id="Line_830" data-name="Line 830" class="cls-148" transform="translate(121.127 9.118)" d="M0 0l59.764 73.722"/><path id="Line_831" data-name="Line 831" class="cls-149" transform="translate(122.51 7.822)" d="M0 0l60.499 73.809"/><path id="Line_832" data-name="Line 832" class="cls-150" transform="translate(123.85 6.525)" d="M0 0l61.32 73.852"/><path id="Line_833" data-name="Line 833" class="cls-151" transform="translate(125.19 5.229)" d="M0 0l62.141 73.938"/><path id="Line_834" data-name="Line 834" class="cls-152" transform="translate(126.572 3.932)" d="M0 0l62.919 73.982"/><path id="Line_835" data-name="Line 835" class="cls-153" transform="translate(127.912 2.593)" d="M0 0l63.74 74.111"/><path id="Line_836" data-name="Line 836" class="cls-154" transform="translate(129.295 1.296)" d="M0 0l64.475 74.154"/><path id="Line_837" data-name="Line 837" class="cls-155" transform="translate(130.634)" d="M0 0l65.296 74.241"/></g><g id="Group_1810" data-name="Group 1810" transform="translate(6373.749 9197.665)"><path id="Line_838" data-name="Line 838" class="cls-156" d="M29.428 0L0 46.887"/><path id="Line_839" data-name="Line 839" class="cls-157" transform="translate(2.766 .821)" d="M29.428 0L0 46.887"/><path id="Line_840" data-name="Line 840" class="cls-158" transform="translate(5.575 1.685)" d="M29.428 0L0 46.843"/><path id="Line_841" data-name="Line 841" class="cls-159" transform="translate(8.34 2.506)" d="M29.428 0L0 46.887"/><path id="Line_842" data-name="Line 842" class="cls-160" transform="translate(11.149 3.327)" d="M29.428 0L0 46.887"/><path id="Line_843" data-name="Line 843" class="cls-161" transform="translate(13.915 4.192)" d="M29.428 0L0 46.843"/><path id="Line_844" data-name="Line 844" class="cls-162" transform="translate(16.68 5.013)" d="M29.472 0L0 46.887"/><path id="Line_845" data-name="Line 845" class="cls-163" transform="translate(19.489 5.834)" d="M29.428 0L0 46.887"/><path id="Line_846" data-name="Line 846" class="cls-164" transform="translate(22.255 6.698)" d="M29.472 0L0 46.843"/><path id="Line_847" data-name="Line 847" class="cls-165" transform="translate(25.064 7.519)" d="M29.428 0L0 46.887"/><path id="Line_848" data-name="Line 848" class="cls-166" transform="translate(27.829 8.34)" d="M29.472 0L0 46.887"/><path id="Line_849" data-name="Line 849" class="cls-167" transform="translate(30.638 9.204)" d="M29.428 0L0 46.843"/><path id="Line_850" data-name="Line 850" class="cls-168" transform="translate(33.404 10.026)" d="M29.428 0L0 46.887"/><path id="Line_851" data-name="Line 851" class="cls-169" transform="translate(36.213 10.847)" d="M29.428 0L0 46.887"/><path id="Line_852" data-name="Line 852" class="cls-170" transform="translate(38.979 11.711)" d="M29.428 0L0 46.843"/><path id="Line_853" data-name="Line 853" class="cls-171" transform="translate(41.787 12.532)" d="M29.428 0L0 46.887"/><path id="Line_854" data-name="Line 854" class="cls-172" transform="translate(44.553 13.353)" d="M29.428 0L0 46.887"/><path id="Line_855" data-name="Line 855" class="cls-173" transform="translate(47.362 14.217)" d="M29.428 0L0 46.843"/><path id="Line_856" data-name="Line 856" class="cls-174" transform="translate(50.128 15.038)" d="M29.428 0L0 46.887"/><path id="Line_857" data-name="Line 857" class="cls-175" transform="translate(52.937 15.859)" d="M29.428 0L0 46.887"/><path id="Line_858" data-name="Line 858" class="cls-176" transform="translate(55.702 16.724)" d="M29.428 0L0 46.843"/><path id="Line_859" data-name="Line 859" class="cls-177" transform="translate(58.511 17.545)" d="M29.428 0L0 46.887"/><path id="Line_860" data-name="Line 860" class="cls-178" transform="translate(61.277 18.366)" d="M29.428 0L0 46.887"/><path id="Line_861" data-name="Line 861" class="cls-179" transform="translate(64.086 19.23)" d="M29.428 0L0 46.843"/><path id="Line_862" data-name="Line 862" class="cls-180" transform="translate(66.851 20.051)" d="M29.428 0L0 46.887"/><path id="Line_863" data-name="Line 863" class="cls-181" transform="translate(69.66 20.872)" d="M29.428 0L0 46.887"/><path id="Line_864" data-name="Line 864" class="cls-182" transform="translate(72.426 21.736)" d="M29.428 0L0 46.843"/><path id="Line_865" data-name="Line 865" class="cls-183" transform="translate(75.235 22.557)" d="M29.428 0L0 46.887"/><path id="Line_866" data-name="Line 866" class="cls-184" transform="translate(78 23.379)" d="M29.428 0L0 46.887"/><path id="Line_867" data-name="Line 867" class="cls-185" transform="translate(80.766 24.243)" d="M29.472 0L0 46.843"/><path id="Line_868" data-name="Line 868" class="cls-186" transform="translate(83.575 25.064)" d="M29.428 0L0 46.887"/><path id="Line_869" data-name="Line 869" class="cls-187" transform="translate(86.341 25.885)" d="M29.472 0L0 46.887"/><path id="Line_870" data-name="Line 870" class="cls-188" transform="translate(89.149 26.749)" d="M29.428 0L0 46.843"/><path id="Line_871" data-name="Line 871" class="cls-189" transform="translate(91.915 27.57)" d="M29.472 0L0 46.887"/><path id="Line_872" data-name="Line 872" class="cls-190" transform="translate(94.724 28.391)" d="M29.428 0L0 46.887"/><path id="Line_873" data-name="Line 873" class="cls-191" transform="translate(97.49 29.256)" d="M29.428 0L0 46.843"/><path id="Line_874" data-name="Line 874" class="cls-192" transform="translate(100.299 30.077)" d="M29.428 0L0 46.887"/><path id="Line_875" data-name="Line 875" class="cls-193" transform="translate(103.064 30.898)" d="M29.428 0L0 46.887"/><path id="Line_876" data-name="Line 876" class="cls-194" transform="translate(105.873 31.762)" d="M29.428 0L0 46.843"/><path id="Line_877" data-name="Line 877" class="cls-195" transform="translate(108.639 32.583)" d="M29.428 0L0 46.887"/><path id="Line_878" data-name="Line 878" class="cls-196" transform="translate(111.448 33.404)" d="M29.428 0L0 46.887"/><path id="Line_879" data-name="Line 879" class="cls-197" transform="translate(114.213 34.268)" d="M29.428 0L0 46.843"/><path id="Line_880" data-name="Line 880" class="cls-198" transform="translate(117.022 35.089)" d="M29.428 0L0 46.887"/><path id="Line_881" data-name="Line 881" class="cls-199" transform="translate(119.788 35.91)" d="M29.428 0L0 46.887"/><path id="Line_882" data-name="Line 882" class="cls-200" transform="translate(122.597 36.775)" d="M29.428 0L0 46.843"/><path id="Line_883" data-name="Line 883" class="cls-201" transform="translate(125.362 37.596)" d="M29.428 0L0 46.887"/><path id="Line_884" data-name="Line 884" class="cls-202" transform="translate(128.171 38.417)" d="M29.428 0L0 46.887"/><path id="Line_885" data-name="Line 885" class="cls-203" transform="translate(130.937 39.281)" d="M29.428 0L0 46.843"/><path id="Line_886" data-name="Line 886" class="cls-204" transform="translate(133.746 40.102)" d="M29.428 0L0 46.887"/><path id="Line_887" data-name="Line 887" class="cls-205" transform="translate(136.511 40.923)" d="M29.428 0L0 46.887"/><path id="Line_888" data-name="Line 888" class="cls-206" transform="translate(139.277 41.787)" d="M29.472 0L0 46.843"/><path id="Line_889" data-name="Line 889" class="cls-207" transform="translate(142.086 42.609)" d="M29.428 0L0 46.887"/><path id="Line_890" data-name="Line 890" class="cls-208" transform="translate(144.852 43.43)" d="M29.472 0L0 46.887"/><path id="Line_891" data-name="Line 891" class="cls-209" transform="translate(147.661 44.294)" d="M29.428 0L0 46.843"/><path id="Line_892" data-name="Line 892" class="cls-210" transform="translate(150.426 45.115)" d="M29.472 0L0 46.887"/><path id="Line_893" data-name="Line 893" class="cls-211" transform="translate(153.235 45.936)" d="M29.428 0L0 46.887"/><path id="Line_894" data-name="Line 894" class="cls-212" transform="translate(156.001 46.8)" d="M29.428 0L0 46.843"/><path id="Line_895" data-name="Line 895" class="cls-213" transform="translate(158.81 47.621)" d="M29.428 0L0 46.887"/><path id="Line_896" data-name="Line 896" class="cls-214" transform="translate(161.575 48.442)" d="M29.428 0L0 46.887"/><path id="Line_897" data-name="Line 897" class="cls-215" transform="translate(164.384 49.307)" d="M29.428 0L0 46.843"/><path id="Line_898" data-name="Line 898" class="cls-216" transform="translate(167.15 50.128)" d="M29.428 0L0 46.887"/><path id="Line_899" data-name="Line 899" class="cls-217" transform="translate(169.959 50.949)" d="M29.428 0L0 46.887"/></g><g id="Group_1811" data-name="Group 1811" transform="translate(6513.526 9224.347)"><text id="АЛЛO" class="cls-218" transform="rotate(-23.02 40.835 1.376)"><tspan x="0" y="0">АЛЛO</tspan></text></g><g id="Group_1812" data-name="Group 1812" transform="translate(6439.347 9141.73)"><path id="Path_905" data-name="Path 905" d="M260.8 190.139l.691-.821.691.562-.691.821zm1.469-1.685a5.434 5.434 0 0 1 .864-.864 1.876 1.876 0 0 1 1.124-.432 4.7 4.7 0 0 1 .778-.043 4.762 4.762 0 0 0 .778-.086 3.237 3.237 0 0 0 .691-.173 1.18 1.18 0 0 0 .519-.389 1.423 1.423 0 0 0 .3-.562 1.485 1.485 0 0 0 .043-.6 2.037 2.037 0 0 0-.259-.648 1.845 1.845 0 0 0-.562-.6 1.362 1.362 0 0 0-.735-.389 1.443 1.443 0 0 0-.735-.043 1.909 1.909 0 0 0-.691.259 1.845 1.845 0 0 0-.6.562l-.562-.475a2.337 2.337 0 0 1 .821-.778 2.055 2.055 0 0 1 .994-.3 2.155 2.155 0 0 1 1.037.13 3.863 3.863 0 0 1 .994.562 3.4 3.4 0 0 1 .735.864 2.614 2.614 0 0 1 .346.907 2.149 2.149 0 0 1-.043.907 2.266 2.266 0 0 1-.475.821 1.644 1.644 0 0 1-.778.562 3.366 3.366 0 0 1-.908.173 7.324 7.324 0 0 1-.994.043 4 4 0 0 0-.994.173 1.994 1.994 0 0 0-.648.389c-.173.173-.346.389-.519.562z" transform="translate(-260.8 -182.863)"/></g><g id="Group_1813" data-name="Group 1813" transform="translate(6438.324 9273.557)"><circle id="Ellipse_512" data-name="Ellipse 512" class="cls-219" cx="1.253" cy="1.253" r="1.253" transform="rotate(-71.252 1.656 1.187)"/><circle id="Ellipse_513" data-name="Ellipse 513" class="cls-219" cx="1.253" cy="1.253" r="1.253" transform="rotate(-71.252 4.292 -.704)"/><circle id="Ellipse_514" data-name="Ellipse 514" class="cls-219" cx="1.253" cy="1.253" r="1.253" transform="rotate(-71.252 6.927 -2.595)"/><circle id="Ellipse_515" data-name="Ellipse 515" class="cls-219" cx="1.253" cy="1.253" r="1.253" transform="rotate(-71.252 9.563 -4.485)"/><circle id="Ellipse_516" data-name="Ellipse 516" class="cls-219" cx="1.253" cy="1.253" r="1.253" transform="rotate(-71.252 14.864 -8.288)"/><circle id="Ellipse_517" data-name="Ellipse 517" class="cls-219" cx="1.253" cy="1.253" r="1.253" transform="rotate(-71.252 17.5 -10.179)"/><circle id="Ellipse_518" data-name="Ellipse 518" class="cls-219" cx="1.253" cy="1.253" r="1.253" transform="rotate(-71.252 12.198 -6.377)"/></g><path id="Path_906" data-name="Path 906" class="cls-220" d="M123.6 189.955s-7.778-8.038-13.958-6.741-5.877 3.457-4.883 6.093 7.39 6.612 9.291 6.871 8.254.562 5.186-2.593a14.064 14.064 0 0 0-10.2-4.494c-3.284.13-11.408 2.9-7.692 8.211 3.716 5.358 7.908 5.92 10.717 6.482s6.352.3 3.414-2.247-11.624-4.019-15.427 1.167c-3.327 4.581-.605 8.6 3.587 11.884s10.587 3.2 12.964 2.766 3.976-3.716 1.124-5.272c-2.9-1.556-12.575-2.679-15.125 6.05s4.062 9.853 5.358 10.2c1.3.389 8.945 1.037 12.791-1.512s3.284-5.531-.951-5.747c-2.809-.13-12.445 6.482-9.637 13.742 2.161 5.531 6.914 5.963 9.118 5.315s6.482-3.544 8.816-6.352 2.9-6.957-.13-6.007-7.865 6.655-6.18 13.872c1.21 5.186 3.068 7.173 6.309 7.433 3.068.259 7.562-5.7 9.593-9.334 2.031-3.587 2.377-8.945.648-10.371-1.729-1.383-5.186 2.117-5.7 7.735-.346 4.019.648 9.377 3.976 11.97s7.13-1.34 9.118-4.537 4.062-11.236 3.068-16.594-3.025-6.785-4.105-6.741c-2.334.086-4.581 3.8-.648 10.371a24.8 24.8 0 0 0 10.242 9.248" transform="translate(6270.678 8958.749)"/><path id="Path_907" data-name="Path 907" class="cls-220" d="M324.756 382.219s7.865 7.951 6.439 14.088-3.587 5.834-6.18 4.753-6.482-7.562-6.7-9.464-.389-8.254 2.679-5.142a13.861 13.861 0 0 1 4.278 10.285c-.216 3.284-3.111 11.365-8.383 7.519s-5.747-7.995-6.266-10.847-.173-6.352 2.334-3.371c2.463 2.982 3.8 11.711-1.512 15.427-4.624 3.241-8.643.432-11.841-3.846s-2.982-10.631-2.463-13.007 3.8-3.889 5.272-.994c1.512 2.9 2.42 12.662-6.352 15-8.772 2.377-9.766-4.278-10.112-5.575s-.864-8.988 1.815-12.748c2.636-3.76 5.618-3.155 5.7 1.08.086 2.809-6.741 12.316-13.958 9.334-5.488-2.247-5.834-7.044-5.1-9.248.691-2.2 3.716-6.4 6.525-8.643s7-2.722 6.007.259c-.994 3.025-6.828 7.692-14 5.877-5.186-1.34-7.13-3.241-7.3-6.482-.173-3.068 5.877-7.433 9.507-9.377s8.988-2.2 10.371-.432-2.2 5.142-7.865 5.531c-4.019.259-9.334-.864-11.884-4.235-2.506-3.371 1.512-7.13 4.753-9.032s11.322-3.8 16.68-2.679c5.315 1.124 6.7 3.155 6.655 4.235-.13 2.334-3.932 4.494-10.371.432a24.8 24.8 0 0 1-9.032-10.414" transform="translate(6176.17 8863.672)"/><g id="Group_1814" data-name="Group 1814" class="cls-221" transform="translate(6375.22 9111.065)"><path id="Path_908" data-name="Path 908" class="cls-222" d="M125.367 111.9a15.768 15.768 0 0 0-12.7 18.366 14.1 14.1 0 0 0 .778 2.722" transform="translate(-112.405 -111.9)"/><path id="Path_909" data-name="Path 909" class="cls-222" d="M135.459 130.5a8.343 8.343 0 0 0-6.525 9.637" transform="translate(-121.72 -122.462)"/><circle id="Ellipse_519" data-name="Ellipse 519" class="cls-222" cx="2.161" cy="2.161" r="2.161" transform="rotate(-10.271 78.85 -58.313)"/></g><g id="Group_1815" data-name="Group 1815" class="cls-221" transform="translate(6555.894 9163.743)"><path id="Path_911" data-name="Path 911" class="cls-222" d="M555.439 257.179a15.808 15.808 0 0 0-3.976-22A15.5 15.5 0 0 0 549 233.8" transform="translate(-541.005 -233.8)"/><path id="Path_912" data-name="Path 912" class="cls-222" d="M546.561 261.008A8.366 8.366 0 0 0 544.4 249.6" transform="translate(-538.393 -242.772)"/><circle id="Ellipse_520" data-name="Ellipse 520" class="cls-222" cx="2.161" cy="2.161" r="2.161" transform="rotate(-55.272 13.615 7.042)"/></g><g id="Group_1816" data-name="Group 1816" class="cls-221" transform="translate(6444.619 9285.456)"><path id="Path_914" data-name="Path 914" class="cls-222" d="M296.163 525.155a15.79 15.79 0 0 0-20.656-8.47 15.374 15.374 0 0 0-2.506 1.34" transform="translate(-273 -515.456)"/><path id="Path_915" data-name="Path 915" class="cls-222" d="M294.6 537.192a8.36 8.36 0 0 0-10.8-4.321" transform="translate(-279.133 -524.986)"/><circle id="Ellipse_521" data-name="Ellipse 521" class="cls-222" cx="2.161" cy="2.161" r="2.161" transform="rotate(-22.755 35.145 -8.655)"/></g><path id="Path_917" data-name="Path 917" class="cls-220" d="M259.766 423.2L257 429.509l7-1.037z" transform="translate(6180.705 8822.39)"/><path id="Path_918" data-name="Path 918" class="cls-220" d="M390.6 280.915l-6.7-1.815 2.031 6.785z" transform="translate(6108.643 8904.218)"/><path id="Path_919" data-name="Path 919" class="cls-220" d="M197.18 410.314l-.389-6.914-5.791 4.062z" transform="translate(6218.184 8833.633)"/><path id="Path_920" data-name="Path 920" class="cls-220" d="M214 200.5l2.247 6.568 4.494-5.488z" transform="translate(6205.123 8948.853)"/><circle id="Ellipse_522" data-name="Ellipse 522" class="cls-219" cx="30.249" cy="30.249" r="30.249" transform="rotate(-68.026 10095.278 -183.807)"/><g id="Group_1817" data-name="Group 1817" transform="translate(6507.249 9112.191)"><text id="АЛЛO-2" data-name="АЛЛO" class="cls-218" transform="rotate(30.54 -10.442 4.833)"><tspan x="0" y="0">АЛЛO</tspan></text></g><g id="Group_1818" data-name="Group 1818" transform="translate(6416.049 9118.825)"><text id="АЛЛO-3" data-name="АЛЛO" class="cls-218" transform="rotate(-23.02 40.835 1.376)"><tspan x="0" y="0">АЛЛO</tspan></text></g><g id="Group_1819" data-name="Group 1819" transform="translate(6500.75 9090.435)"><text id="АЛЛO-4" data-name="АЛЛO" class="cls-218" transform="rotate(-23.02 40.835 1.376)"><tspan x="0" y="0">АЛЛO</tspan></text></g><path id="Path_921" data-name="Path 921" class="cls-223" d="M282.833 229l-6.785 16.508s3.76 1.988 4.105 4.84-.735 3.241-1.858 4.537c-1.167 1.253-13.267 14.39-13.267 14.39a4.873 4.873 0 0 1-4.754.432 7.668 7.668 0 0 1-3.543-3.76l-16.032 8.3s3.5 8.9 7.13 10.674 6.525 2.55 10.5 1.124 11.236-4.926 15.3-8.9c4.105-3.976 13.872-13.439 16.81-17.8s6.18-10.285 6.439-15-.259-8.556-2.55-10.069S282.833 229 282.833 229z" transform="translate(6189.961 8932.668)"/><path id="Line_900" data-name="Line 900" class="cls-224" transform="translate(6474.177 9173.12)" d="M5.099 0L0 12.229"/><circle id="Ellipse_523" data-name="Ellipse 523" class="cls-225" cx="1.253" cy="1.253" r="1.253" transform="translate(6478.499 9178.694)"/><circle id="Ellipse_524" data-name="Ellipse 524" class="cls-224" cx="1.037" cy="1.037" r="1.037" transform="rotate(-71.58 9596.92 98.98)"/><circle id="Ellipse_525" data-name="Ellipse 525" class="cls-224" cx="1.037" cy="1.037" r="1.037" transform="rotate(-71.58 9594.463 96.072)"/><circle id="Ellipse_526" data-name="Ellipse 526" class="cls-224" cx="1.037" cy="1.037" r="1.037" transform="rotate(-71.58 9599.174 101.945)"/><circle id="Ellipse_527" data-name="Ellipse 527" class="cls-224" cx="1.037" cy="1.037" r="1.037" transform="rotate(-24.21 24684.177 -10410.666)"/><circle id="Ellipse_528" data-name="Ellipse 528" class="cls-224" cx="1.037" cy="1.037" r="1.037" transform="rotate(-24.21 24681.104 -10420.784)"/><circle id="Ellipse_529" data-name="Ellipse 529" class="cls-224" cx="1.037" cy="1.037" r="1.037" transform="rotate(-24.21 24686.646 -10400.45)"/></g></svg>