<svg xmlns="http://www.w3.org/2000/svg" viewBox="5131 7797 140 140"><defs><style>.cls-1{fill:#28cce4;opacity:.897}.cls-2{fill:#fff}.cls-3{fill:none;stroke:#007aa2;stroke-miterlimit:10;stroke-width:2.19px;opacity:.913}</style></defs><g id="img_hotline" transform="translate(-6046.5 315.486)"><circle id="Ellipse_590" data-name="Ellipse 590" class="cls-1" cx="70" cy="70" r="70" transform="translate(11177.5 7481.514)"/><g id="Group_2063" data-name="Group 2063" transform="translate(11212.136 7516.618)"><path id="Path_1076" data-name="Path 1076" class="cls-2" d="M2462.806-3244.1l-8.165 19.866s4.524 2.393 4.941 5.825-.884 3.9-2.236 5.46-15.966 17.318-15.966 17.318a5.865 5.865 0 0 1-5.721.52 9.229 9.229 0 0 1-4.265-4.524l-19.294 9.985s4.212 10.713 8.581 12.845 7.853 3.068 12.637 1.352 13.521-5.929 18.41-10.713c4.94-4.785 16.694-16.174 20.23-21.426s7.437-12.377 7.749-18.046-.312-10.3-3.068-12.117c-2.704-1.768-13.833-6.345-13.833-6.345z" transform="translate(-2412.1 3244.1)"/><path id="Line_2612" data-name="Line 2612" class="cls-3" transform="translate(52.422 13.73)" d="M6.085 0L0 14.718"/><circle id="Ellipse_595" data-name="Ellipse 595" class="cls-3" cx="1.248" cy="1.248" r="1.248" transform="rotate(-71.58 33.334 -26.65)"/><circle id="Ellipse_596" data-name="Ellipse 596" class="cls-3" cx="1.248" cy="1.248" r="1.248" transform="rotate(-71.58 30.403 -30.112)"/><circle id="Ellipse_597" data-name="Ellipse 597" class="cls-3" cx="1.248" cy="1.248" r="1.248" transform="rotate(-71.58 36.073 -23.045)"/><circle id="Ellipse_598" data-name="Ellipse 598" class="cls-3" cx="1.248" cy="1.248" r="1.248" transform="rotate(-24.21 132.312 .307)"/><circle id="Ellipse_599" data-name="Ellipse 599" class="cls-3" cx="1.248" cy="1.248" r="1.248" transform="rotate(-24.21 128.71 -12.016)"/><circle id="Ellipse_600" data-name="Ellipse 600" class="cls-3" cx="1.248" cy="1.248" r="1.248" transform="rotate(-24.21 135.26 12.479)"/></g></g></svg>