<svg id="img_faq_open" xmlns="http://www.w3.org/2000/svg" viewBox="4305.382 7577 221.371 220"><defs><style>.cls-1,.cls-10,.cls-11,.cls-12,.cls-13,.cls-14,.cls-15,.cls-16,.cls-17,.cls-18,.cls-19,.cls-2,.cls-20,.cls-21,.cls-22,.cls-23,.cls-24,.cls-25,.cls-26,.cls-27,.cls-28,.cls-29,.cls-3,.cls-30,.cls-31,.cls-32,.cls-33,.cls-34,.cls-35,.cls-36,.cls-37,.cls-38,.cls-39,.cls-4,.cls-40,.cls-41,.cls-42,.cls-43,.cls-44,.cls-45,.cls-46,.cls-47,.cls-48,.cls-49,.cls-5,.cls-50,.cls-51,.cls-52,.cls-53,.cls-54,.cls-55,.cls-56,.cls-57,.cls-58,.cls-59,.cls-6,.cls-60,.cls-61,.cls-62,.cls-63,.cls-64,.cls-65,.cls-66,.cls-67,.cls-68,.cls-69,.cls-7,.cls-70,.cls-71,.cls-72,.cls-73,.cls-74,.cls-75,.cls-76,.cls-77,.cls-78,.cls-79,.cls-8,.cls-80,.cls-81,.cls-82,.cls-83,.cls-84,.cls-85,.cls-86,.cls-88,.cls-89,.cls-9,.cls-91{fill:none}.cls-10,.cls-11,.cls-12,.cls-13,.cls-14,.cls-15,.cls-16,.cls-17,.cls-18,.cls-19,.cls-2,.cls-20,.cls-21,.cls-22,.cls-23,.cls-24,.cls-25,.cls-26,.cls-27,.cls-28,.cls-29,.cls-3,.cls-30,.cls-31,.cls-32,.cls-33,.cls-34,.cls-35,.cls-36,.cls-37,.cls-38,.cls-39,.cls-4,.cls-40,.cls-41,.cls-42,.cls-43,.cls-44,.cls-45,.cls-46,.cls-47,.cls-48,.cls-49,.cls-5,.cls-50,.cls-51,.cls-52,.cls-53,.cls-54,.cls-55,.cls-56,.cls-57,.cls-58,.cls-59,.cls-6,.cls-60,.cls-61,.cls-62,.cls-63,.cls-64,.cls-65,.cls-66,.cls-67,.cls-68,.cls-69,.cls-7,.cls-70,.cls-71,.cls-72,.cls-73,.cls-74,.cls-75,.cls-76,.cls-77,.cls-78,.cls-79,.cls-8,.cls-80,.cls-81,.cls-82,.cls-83,.cls-88,.cls-9{stroke:#ee73ff}.cls-10,.cls-11,.cls-12,.cls-13,.cls-14,.cls-15,.cls-16,.cls-17,.cls-18,.cls-19,.cls-2,.cls-20,.cls-21,.cls-22,.cls-23,.cls-24,.cls-25,.cls-26,.cls-27,.cls-28,.cls-29,.cls-3,.cls-30,.cls-31,.cls-32,.cls-33,.cls-34,.cls-35,.cls-36,.cls-37,.cls-38,.cls-39,.cls-4,.cls-40,.cls-41,.cls-42,.cls-43,.cls-44,.cls-45,.cls-46,.cls-47,.cls-48,.cls-49,.cls-5,.cls-50,.cls-51,.cls-52,.cls-53,.cls-54,.cls-55,.cls-56,.cls-57,.cls-58,.cls-59,.cls-6,.cls-60,.cls-61,.cls-62,.cls-63,.cls-64,.cls-65,.cls-66,.cls-67,.cls-68,.cls-69,.cls-7,.cls-70,.cls-71,.cls-72,.cls-73,.cls-74,.cls-75,.cls-76,.cls-77,.cls-78,.cls-79,.cls-8,.cls-80,.cls-81,.cls-82,.cls-83,.cls-84,.cls-85,.cls-86,.cls-88,.cls-89,.cls-9,.cls-91{stroke-miterlimit:10}.cls-10,.cls-11,.cls-12,.cls-13,.cls-14,.cls-15,.cls-16,.cls-17,.cls-18,.cls-19,.cls-2,.cls-20,.cls-21,.cls-22,.cls-23,.cls-24,.cls-25,.cls-26,.cls-27,.cls-28,.cls-29,.cls-3,.cls-30,.cls-31,.cls-32,.cls-33,.cls-34,.cls-35,.cls-36,.cls-37,.cls-38,.cls-39,.cls-4,.cls-40,.cls-41,.cls-42,.cls-43,.cls-44,.cls-45,.cls-46,.cls-47,.cls-48,.cls-49,.cls-5,.cls-50,.cls-51,.cls-52,.cls-53,.cls-54,.cls-55,.cls-56,.cls-57,.cls-58,.cls-59,.cls-6,.cls-60,.cls-61,.cls-62,.cls-63,.cls-64,.cls-65,.cls-66,.cls-67,.cls-68,.cls-69,.cls-7,.cls-70,.cls-71,.cls-72,.cls-73,.cls-74,.cls-75,.cls-76,.cls-77,.cls-78,.cls-79,.cls-8,.cls-80,.cls-81,.cls-82,.cls-83,.cls-84,.cls-85,.cls-9{stroke-width:1.77px}.cls-2,.cls-84,.cls-85{opacity:.28}.cls-3{opacity:.289}.cls-4{opacity:.298}.cls-5{opacity:.307}.cls-6{opacity:.316}.cls-7{opacity:.324}.cls-8{opacity:.333}.cls-9{opacity:.342}.cls-10{opacity:.351}.cls-11{opacity:.36}.cls-12{opacity:.369}.cls-13{opacity:.378}.cls-14{opacity:.387}.cls-15{opacity:.396}.cls-16{opacity:.404}.cls-17{opacity:.413}.cls-18{opacity:.422}.cls-19{opacity:.431}.cls-20{opacity:.44}.cls-21{opacity:.449}.cls-22{opacity:.458}.cls-23{opacity:.467}.cls-24{opacity:.476}.cls-25{opacity:.484}.cls-26{opacity:.493}.cls-27{opacity:.502}.cls-28{opacity:.511}.cls-29{opacity:.52}.cls-30{opacity:.529}.cls-31{opacity:.538}.cls-32{opacity:.547}.cls-33{opacity:.556}.cls-34{opacity:.564}.cls-35{opacity:.573}.cls-36{opacity:.582}.cls-37{opacity:.591}.cls-38{opacity:.6}.cls-39{opacity:.609}.cls-40{opacity:.618}.cls-41{opacity:.627}.cls-42{opacity:.636}.cls-43{opacity:.644}.cls-44{opacity:.653}.cls-45{opacity:.662}.cls-46{opacity:.671}.cls-47{opacity:.68}.cls-48{opacity:.689}.cls-49{opacity:.698}.cls-50{opacity:.707}.cls-51{opacity:.716}.cls-52{opacity:.724}.cls-53{opacity:.733}.cls-54{opacity:.742}.cls-55{opacity:.751}.cls-56{opacity:.76}.cls-57{opacity:.769}.cls-58{opacity:.778}.cls-59{opacity:.787}.cls-60{opacity:.796}.cls-61{opacity:.804}.cls-62{opacity:.813}.cls-63{opacity:.822}.cls-64{opacity:.831}.cls-65{opacity:.84}.cls-66{opacity:.849}.cls-67{opacity:.858}.cls-68{opacity:.867}.cls-69{opacity:.876}.cls-70{opacity:.884}.cls-71{opacity:.893}.cls-72{opacity:.902}.cls-73{opacity:.911}.cls-74{opacity:.92}.cls-75{opacity:.929}.cls-76{opacity:.938}.cls-77{opacity:.947}.cls-78{opacity:.956}.cls-79{opacity:.964}.cls-80{opacity:.973}.cls-81{opacity:.982}.cls-82{opacity:.991}.cls-84{stroke:#ec5cba}.cls-85{stroke:#665cff}.cls-86,.cls-91{stroke:#ec5cff}.cls-86{stroke-width:2.499px}.cls-87{fill:#fff}.cls-88{stroke-width:2.19px}.cls-89{stroke:#000}.cls-89,.cls-91{stroke-width:1.249px}.cls-90{font-size:8px;font-family:Helvetica}</style></defs><path id="Rectangle_1462" data-name="Rectangle 1462" class="cls-1" transform="translate(4306 7577)" d="M0 0h220v220H0z"/><g id="Group_2326" data-name="Group 2326" transform="translate(-1313 -553)"><g id="Group_1777" data-name="Group 1777" transform="translate(5619 8160.1)"><path id="Line_12" data-name="Line 12" class="cls-2" d="M50.019 0L0 48.768"/><path id="Line_13" data-name="Line 13" class="cls-3" transform="translate(2.126 .875)" d="M49.977 0L0 49.185"/><path id="Line_14" data-name="Line 14" class="cls-4" transform="translate(4.21 1.751)" d="M50.019 0L0 49.56"/><path id="Line_15" data-name="Line 15" class="cls-5" transform="translate(6.336 2.626)" d="M49.977 0L0 49.936"/><path id="Line_16" data-name="Line 16" class="cls-6" transform="translate(8.42 3.501)" d="M50.019 0L0 50.352"/><path id="Line_17" data-name="Line 17" class="cls-7" transform="translate(10.546 4.418)" d="M49.977 0L0 50.686"/><path id="Line_18" data-name="Line 18" class="cls-8" transform="translate(12.63 5.294)" d="M49.977 0L0 51.103"/><path id="Line_19" data-name="Line 19" class="cls-9" transform="translate(14.756 6.169)" d="M49.977 0L0 51.478"/><path id="Line_20" data-name="Line 20" class="cls-10" transform="translate(16.84 7.044)" d="M49.977 0L0 51.853"/><path id="Line_21" data-name="Line 21" class="cls-11" transform="translate(18.966 7.92)" d="M49.936 0L0 52.27"/><path id="Line_22" data-name="Line 22" class="cls-12" transform="translate(21.091 8.795)" d="M49.936 0L0 52.645"/><path id="Line_23" data-name="Line 23" class="cls-13" transform="translate(23.175 9.712)" d="M49.936 0L0 52.978"/><path id="Line_24" data-name="Line 24" class="cls-14" transform="translate(25.301 10.587)" d="M49.894 0L0 53.395"/><path id="Line_25" data-name="Line 25" class="cls-15" transform="translate(27.385 11.463)" d="M49.936 0L0 53.77"/><path id="Line_26" data-name="Line 26" class="cls-16" transform="translate(29.511 12.338)" d="M49.894 0L0 54.187"/><path id="Line_27" data-name="Line 27" class="cls-17" transform="translate(31.595 13.213)" d="M49.894 0L0 54.562"/><path id="Line_28" data-name="Line 28" class="cls-18" transform="translate(33.721 14.089)" d="M49.894 0L0 54.937"/><path id="Line_29" data-name="Line 29" class="cls-19" transform="translate(35.805 15.006)" d="M49.894 0L0 55.313"/><path id="Line_30" data-name="Line 30" class="cls-20" transform="translate(37.931 15.881)" d="M49.852 0L0 55.688"/><path id="Line_31" data-name="Line 31" class="cls-21" transform="translate(40.057 16.756)" d="M49.852 0L0 56.063"/><path id="Line_32" data-name="Line 32" class="cls-22" transform="translate(42.141 17.632)" d="M49.852 0L0 56.48"/><path id="Line_33" data-name="Line 33" class="cls-23" transform="translate(44.267 18.507)" d="M49.811 0L0 56.855"/><path id="Line_34" data-name="Line 34" class="cls-24" transform="translate(46.351 19.382)" d="M49.852 0L0 57.272"/><path id="Line_35" data-name="Line 35" class="cls-25" transform="translate(48.477 20.299)" d="M49.811 0L0 57.605"/><path id="Line_36" data-name="Line 36" class="cls-26" transform="translate(50.561 21.175)" d="M49.811 0L0 57.98"/><path id="Line_37" data-name="Line 37" class="cls-27" transform="translate(52.687 22.05)" d="M49.811 0L0 58.397"/><path id="Line_38" data-name="Line 38" class="cls-28" transform="translate(54.771 22.925)" d="M49.811 0L0 58.772"/><path id="Line_39" data-name="Line 39" class="cls-29" transform="translate(56.897 23.801)" d="M49.769 0L0 59.147"/><path id="Line_40" data-name="Line 40" class="cls-30" transform="translate(59.022 24.718)" d="M49.769 0L0 59.523"/><path id="Line_41" data-name="Line 41" class="cls-31" transform="translate(61.107 25.593)" d="M49.769 0L0 59.898"/><path id="Line_42" data-name="Line 42" class="cls-32" transform="translate(63.232 26.468)" d="M49.727 0L0 60.315"/><path id="Line_43" data-name="Line 43" class="cls-33" transform="translate(65.316 27.344)" d="M49.769 0L0 60.69"/><path id="Line_44" data-name="Line 44" class="cls-34" transform="translate(67.442 28.219)" d="M49.727 0L0 61.065"/><path id="Line_45" data-name="Line 45" class="cls-35" transform="translate(69.526 29.094)" d="M49.769 0L0 61.482"/><path id="Line_46" data-name="Line 46" class="cls-36" transform="translate(71.652 30.011)" d="M49.727 0L0 61.815"/><path id="Line_47" data-name="Line 47" class="cls-37" transform="translate(73.736 30.887)" d="M49.727 0L0 62.19"/><path id="Line_48" data-name="Line 48" class="cls-38" transform="translate(75.862 31.762)" d="M49.727 0L0 62.607"/><path id="Line_49" data-name="Line 49" class="cls-39" transform="translate(77.988 32.637)" d="M49.686 0L0 62.982"/><path id="Line_50" data-name="Line 50" class="cls-40" transform="translate(80.072 33.513)" d="M49.686 0L0 63.399"/><path id="Line_51" data-name="Line 51" class="cls-41" transform="translate(82.198 34.388)" d="M49.686 0L0 63.774"/><path id="Line_52" data-name="Line 52" class="cls-42" transform="translate(84.282 35.305)" d="M49.686 0L0 64.108"/><path id="Line_53" data-name="Line 53" class="cls-43" transform="translate(86.408 36.18)" d="M49.644 0L0 64.524"/><path id="Line_54" data-name="Line 54" class="cls-44" transform="translate(88.492 37.056)" d="M49.686 0L0 64.9"/><path id="Line_55" data-name="Line 55" class="cls-45" transform="translate(90.618 37.931)" d="M49.644 0L0 65.275"/><path id="Line_56" data-name="Line 56" class="cls-46" transform="translate(92.743 38.806)" d="M49.602 0L0 65.692"/><path id="Line_57" data-name="Line 57" class="cls-47" transform="translate(94.828 39.682)" d="M49.644 0L0 66.067"/><path id="Line_58" data-name="Line 58" class="cls-48" transform="translate(96.953 40.599)" d="M49.602 0L0 66.4"/><path id="Line_59" data-name="Line 59" class="cls-49" transform="translate(99.038 41.474)" d="M49.602 0L0 66.817"/><path id="Line_60" data-name="Line 60" class="cls-50" transform="translate(101.163 42.349)" d="M49.602 0L0 67.192"/><path id="Line_61" data-name="Line 61" class="cls-51" transform="translate(103.247 43.225)" d="M49.602 0L0 67.609"/><path id="Line_62" data-name="Line 62" class="cls-52" transform="translate(105.373 44.1)" d="M49.56 0L0 67.984"/><path id="Line_63" data-name="Line 63" class="cls-53" transform="translate(107.457 45.017)" d="M49.602 0L0 68.318"/><path id="Line_64" data-name="Line 64" class="cls-54" transform="translate(109.583 45.892)" d="M49.56 0L0 68.734"/><path id="Line_65" data-name="Line 65" class="cls-55" transform="translate(111.709 46.768)" d="M49.519 0L0 69.11"/><path id="Line_66" data-name="Line 66" class="cls-56" transform="translate(113.793 47.643)" d="M49.56 0L0 69.485"/><path id="Line_67" data-name="Line 67" class="cls-57" transform="translate(115.919 48.518)" d="M49.519 0L0 69.902"/><path id="Line_68" data-name="Line 68" class="cls-58" transform="translate(118.003 49.394)" d="M49.519 0L0 70.277"/><path id="Line_69" data-name="Line 69" class="cls-59" transform="translate(120.129 50.311)" d="M49.519 0L0 70.652"/><path id="Line_70" data-name="Line 70" class="cls-60" transform="translate(122.213 51.186)" d="M49.519 0L0 71.027"/><path id="Line_71" data-name="Line 71" class="cls-61" transform="translate(124.339 52.061)" d="M49.477 0L0 71.402"/><path id="Line_72" data-name="Line 72" class="cls-62" transform="translate(126.423 52.937)" d="M49.519 0L0 71.819"/><path id="Line_73" data-name="Line 73" class="cls-63" transform="translate(128.549 53.812)" d="M49.477 0L0 72.194"/><path id="Line_74" data-name="Line 74" class="cls-64" transform="translate(130.675 54.687)" d="M49.477 0L0 72.569"/><path id="Line_75" data-name="Line 75" class="cls-65" transform="translate(132.759 55.604)" d="M49.477 0L0 72.944"/><path id="Line_76" data-name="Line 76" class="cls-66" transform="translate(134.884 56.48)" d="M49.435 0L0 73.319"/><path id="Line_77" data-name="Line 77" class="cls-67" transform="translate(136.969 57.355)" d="M49.477 0L0 73.736"/><path id="Line_78" data-name="Line 78" class="cls-68" transform="translate(139.094 58.23)" d="M49.435 0L0 74.111"/><path id="Line_79" data-name="Line 79" class="cls-69" transform="translate(141.179 59.106)" d="M49.435 0L0 74.487"/><path id="Line_80" data-name="Line 80" class="cls-70" transform="translate(143.304 60.023)" d="M49.435 0L0 74.862"/><path id="Line_81" data-name="Line 81" class="cls-71" transform="translate(145.388 60.898)" d="M49.435 0L0 75.237"/><path id="Line_82" data-name="Line 82" class="cls-72" transform="translate(147.514 61.773)" d="M49.394 0L0 75.612"/><path id="Line_83" data-name="Line 83" class="cls-73" transform="translate(149.64 62.649)" d="M49.394 0L0 76.029"/><path id="Line_84" data-name="Line 84" class="cls-74" transform="translate(151.724 63.524)" d="M49.394 0L0 76.404"/><path id="Line_85" data-name="Line 85" class="cls-75" transform="translate(153.85 64.399)" d="M49.352 0L0 76.821"/><path id="Line_86" data-name="Line 86" class="cls-76" transform="translate(155.934 65.316)" d="M49.394 0L0 77.154"/><path id="Line_87" data-name="Line 87" class="cls-77" transform="translate(158.06 66.192)" d="M49.352 0L0 77.529"/><path id="Line_88" data-name="Line 88" class="cls-78" transform="translate(160.144 67.067)" d="M49.352 0L0 77.946"/><path id="Line_89" data-name="Line 89" class="cls-79" transform="translate(162.27 67.942)" d="M49.352 0L0 78.321"/><path id="Line_90" data-name="Line 90" class="cls-80" transform="translate(164.354 68.818)" d="M49.352 0L0 78.697"/><path id="Line_91" data-name="Line 91" class="cls-81" transform="translate(166.48 69.693)" d="M49.31 0L0 79.113"/><path id="Line_92" data-name="Line 92" class="cls-82" transform="translate(168.606 70.61)" d="M49.31 0L0 79.447"/><path id="Line_93" data-name="Line 93" class="cls-83" transform="translate(170.69 71.485)" d="M49.31 0L0 79.864"/></g><g id="Group_1778" data-name="Group 1778" transform="translate(5625.044 8161.267)"><path id="Line_94" data-name="Line 94" class="cls-84" transform="translate(0 60.231)" d="M0 0l6.711 109"/><path id="Line_95" data-name="Line 95" class="cls-84" transform="translate(2.876 59.231)" d="M0 0l6.753 108.541"/><path id="Line_96" data-name="Line 96" class="cls-84" transform="translate(5.752 58.23)" d="M0 0l6.836 108.124"/><path id="Line_97" data-name="Line 97" class="cls-84" transform="translate(8.628 57.272)" d="M0 0l6.878 107.624"/><path id="Line_98" data-name="Line 98" class="cls-84" transform="translate(11.504 56.271)" d="M0 0l6.961 107.166"/><path id="Line_99" data-name="Line 99" class="cls-84" transform="translate(14.422 55.271)" d="M0 0l6.961 106.707"/><path id="Line_100" data-name="Line 100" class="cls-84" transform="translate(17.298 54.312)" d="M0 0l7.044 106.207"/><path id="Line_101" data-name="Line 101" class="cls-84" transform="translate(20.174 53.312)" d="M0 0l7.086 105.748"/><path id="Line_102" data-name="Line 102" class="cls-84" transform="translate(23.05 52.312)" d="M0 0l7.169 105.29"/><path id="Line_103" data-name="Line 103" class="cls-84" transform="translate(25.926 51.353)" d="M0 0l7.211 104.79"/><path id="Line_104" data-name="Line 104" class="cls-84" transform="translate(28.844 50.352)" d="M0 0l7.211 104.331"/><path id="Line_105" data-name="Line 105" class="cls-84" transform="translate(31.72 49.352)" d="M0 0l7.294 103.873"/><path id="Line_106" data-name="Line 106" class="cls-84" transform="translate(34.596 48.393)" d="M0 0l7.336 103.373"/><path id="Line_107" data-name="Line 107" class="cls-84" transform="translate(37.473 47.393)" d="M0 0l7.419 102.914"/><path id="Line_108" data-name="Line 108" class="cls-84" transform="translate(40.349 46.393)" d="M0 0l7.461 102.456"/><path id="Line_109" data-name="Line 109" class="cls-84" transform="translate(43.266 45.434)" d="M0 0l7.503 101.997"/><path id="Line_110" data-name="Line 110" class="cls-84" transform="translate(46.142 44.434)" d="M0 0l7.545 101.538"/><path id="Line_111" data-name="Line 111" class="cls-84" transform="translate(49.019 43.433)" d="M0 0l7.586 101.08"/><path id="Line_112" data-name="Line 112" class="cls-84" transform="translate(51.895 42.433)" d="M0 0l7.67 100.621"/><path id="Line_113" data-name="Line 113" class="cls-84" transform="translate(54.771 41.474)" d="M0 0l7.711 100.121"/><path id="Line_114" data-name="Line 114" class="cls-84" transform="translate(57.689 40.474)" d="M0 0l7.753 99.663"/><path id="Line_115" data-name="Line 115" class="cls-84" transform="translate(60.565 39.473)" d="M0 0l7.795 99.204"/><path id="Line_116" data-name="Line 116" class="cls-84" transform="translate(63.441 38.515)" d="M0 0l7.878 98.704"/><path id="Line_117" data-name="Line 117" class="cls-84" transform="translate(66.317 37.514)" d="M0 0l7.92 98.246"/><path id="Line_118" data-name="Line 118" class="cls-84" transform="translate(69.235 36.514)" d="M0 0l7.92 97.787"/><path id="Line_119" data-name="Line 119" class="cls-84" transform="translate(72.111 35.555)" d="M0 0l8.003 97.287"/><path id="Line_120" data-name="Line 120" class="cls-84" transform="translate(74.987 34.555)" d="M0 0l8.045 96.828"/><path id="Line_121" data-name="Line 121" class="cls-84" transform="translate(77.863 33.554)" d="M0 0l8.128 96.412"/><path id="Line_122" data-name="Line 122" class="cls-84" transform="translate(80.739 32.596)" d="M0 0l8.17 95.911"/><path id="Line_123" data-name="Line 123" class="cls-84" transform="translate(83.657 31.595)" d="M0 0l8.211 95.453"/><path id="Line_124" data-name="Line 124" class="cls-84" transform="translate(86.533 30.595)" d="M0 0l8.253 94.994"/><path id="Line_125" data-name="Line 125" class="cls-84" transform="translate(89.409 29.636)" d="M0 0l8.336 94.494"/><path id="Line_126" data-name="Line 126" class="cls-84" transform="translate(92.285 28.636)" d="M0 0l8.378 94.036"/><path id="Line_127" data-name="Line 127" class="cls-84" transform="translate(95.161 27.635)" d="M0 0l8.42 93.577"/><path id="Line_128" data-name="Line 128" class="cls-84" transform="translate(98.079 26.677)" d="M0 0l8.462 93.077"/><path id="Line_129" data-name="Line 129" class="cls-84" transform="translate(100.955 25.676)" d="M0 0l8.503 92.618"/><path id="Line_130" data-name="Line 130" class="cls-84" transform="translate(103.831 24.676)" d="M0 0l8.587 92.16"/><path id="Line_131" data-name="Line 131" class="cls-84" transform="translate(106.707 23.717)" d="M0 0l8.628 91.66"/><path id="Line_132" data-name="Line 132" class="cls-84" transform="translate(109.583 22.717)" d="M0 0l8.712 91.201"/><path id="Line_133" data-name="Line 133" class="cls-84" transform="translate(112.501 21.717)" d="M0 0l8.712 90.784"/><path id="Line_134" data-name="Line 134" class="cls-84" transform="translate(115.377 20.758)" d="M0 0l8.753 90.284"/><path id="Line_135" data-name="Line 135" class="cls-84" transform="translate(118.253 19.757)" d="M0 0l8.837 89.826"/><path id="Line_136" data-name="Line 136" class="cls-84" transform="translate(121.129 18.757)" d="M0 0l8.878 89.367"/><path id="Line_137" data-name="Line 137" class="cls-84" transform="translate(124.005 17.798)" d="M0 0l8.962 88.867"/><path id="Line_138" data-name="Line 138" class="cls-84" transform="translate(126.923 16.798)" d="M0 0l8.962 88.409"/><path id="Line_139" data-name="Line 139" class="cls-84" transform="translate(129.799 15.798)" d="M0 0l9.045 87.95"/><path id="Line_140" data-name="Line 140" class="cls-84" transform="translate(132.675 14.797)" d="M0 0l9.087 87.492"/><path id="Line_141" data-name="Line 141" class="cls-84" transform="translate(135.551 13.839)" d="M0 0l9.17 86.991"/><path id="Line_142" data-name="Line 142" class="cls-84" transform="translate(138.427 12.838)" d="M0 0l9.212 86.533"/><path id="Line_143" data-name="Line 143" class="cls-84" transform="translate(141.345 11.838)" d="M0 0l9.212 86.074"/><path id="Line_144" data-name="Line 144" class="cls-84" transform="translate(144.221 10.879)" d="M0 0l9.295 85.574"/><path id="Line_145" data-name="Line 145" class="cls-84" transform="translate(147.097 9.879)" d="M0 0l9.337 85.157"/><path id="Line_146" data-name="Line 146" class="cls-84" transform="translate(149.974 8.878)" d="M0 0l9.42 84.699"/><path id="Line_147" data-name="Line 147" class="cls-84" transform="translate(152.85 7.92)" d="M0 0l9.462 84.199"/><path id="Line_148" data-name="Line 148" class="cls-84" transform="translate(155.767 6.919)" d="M0 0l9.504 83.74"/><path id="Line_149" data-name="Line 149" class="cls-84" transform="translate(158.643 5.919)" d="M0 0l9.545 83.282"/><path id="Line_150" data-name="Line 150" class="cls-84" transform="translate(161.52 4.96)" d="M0 0l9.587 82.781"/><path id="Line_151" data-name="Line 151" class="cls-84" transform="translate(164.396 3.96)" d="M0 0l9.67 82.323"/><path id="Line_152" data-name="Line 152" class="cls-84" transform="translate(167.272 2.959)" d="M0 0l9.712 81.864"/><path id="Line_153" data-name="Line 153" class="cls-84" transform="translate(170.19 2.001)" d="M0 0l9.754 81.364"/><path id="Line_154" data-name="Line 154" class="cls-84" transform="translate(173.066 1)" d="M0 0l9.795 80.906"/><path id="Line_155" data-name="Line 155" class="cls-84" transform="translate(175.942)" d="M0 0l9.879 80.447"/></g><g id="Group_1779" data-name="Group 1779" transform="translate(5644.968 8170.104)"><path id="Line_156" data-name="Line 156" class="cls-85" transform="translate(0 46.226)" d="M39.265 0L0 69.235"/><path id="Line_157" data-name="Line 157" class="cls-85" transform="translate(2.334 45.642)" d="M38.681 0L0 70.152"/><path id="Line_158" data-name="Line 158" class="cls-85" transform="translate(4.668 45.1)" d="M38.139 0L0 70.985"/><path id="Line_159" data-name="Line 159" class="cls-85" transform="translate(7.003 44.517)" d="M37.556 0L0 71.861"/><path id="Line_160" data-name="Line 160" class="cls-85" transform="translate(9.337 43.933)" d="M36.972 0L0 72.736"/><path id="Line_161" data-name="Line 161" class="cls-85" transform="translate(11.671 43.391)" d="M36.389 0L0 73.57"/><path id="Line_162" data-name="Line 162" class="cls-85" transform="translate(14.005 42.808)" d="M35.805 0L0 74.445"/><path id="Line_163" data-name="Line 163" class="cls-85" transform="translate(16.34 42.224)" d="M35.222 0L0 75.32"/><path id="Line_164" data-name="Line 164" class="cls-85" transform="translate(18.715 41.682)" d="M34.596 0L0 76.196"/><path id="Line_165" data-name="Line 165" class="cls-85" transform="translate(21.05 41.099)" d="M34.013 0L0 77.071"/><path id="Line_166" data-name="Line 166" class="cls-85" transform="translate(23.384 40.515)" d="M33.429 0L0 77.946"/><path id="Line_167" data-name="Line 167" class="cls-85" transform="translate(25.718 39.932)" d="M32.887 0L0 78.822"/><path id="Line_168" data-name="Line 168" class="cls-85" transform="translate(28.052 39.39)" d="M32.304 0L0 79.655"/><path id="Line_169" data-name="Line 169" class="cls-85" transform="translate(30.387 38.806)" d="M31.72 0L0 80.531"/><path id="Line_170" data-name="Line 170" class="cls-85" transform="translate(32.721 38.223)" d="M31.137 0L0 81.406"/><path id="Line_171" data-name="Line 171" class="cls-85" transform="translate(35.055 37.681)" d="M30.553 0L0 82.281"/><path id="Line_172" data-name="Line 172" class="cls-85" transform="translate(37.389 37.097)" d="M29.97 0L0 83.157"/><path id="Line_173" data-name="Line 173" class="cls-85" transform="translate(39.723 36.514)" d="M29.386 0L0 84.032"/><path id="Line_174" data-name="Line 174" class="cls-85" transform="translate(42.058 35.972)" d="M28.803 0L0 84.866"/><path id="Line_175" data-name="Line 175" class="cls-85" transform="translate(44.392 35.388)" d="M28.261 0L0 85.741"/><path id="Line_176" data-name="Line 176" class="cls-85" transform="translate(46.768 34.805)" d="M27.635 0L0 86.616"/><path id="Line_177" data-name="Line 177" class="cls-85" transform="translate(49.102 34.263)" d="M27.052 0L0 87.45"/><path id="Line_178" data-name="Line 178" class="cls-85" transform="translate(51.436 33.679)" d="M26.468 0L0 88.325"/><path id="Line_179" data-name="Line 179" class="cls-85" transform="translate(53.77 33.096)" d="M25.885 0L0 89.242"/><path id="Line_180" data-name="Line 180" class="cls-85" transform="translate(56.105 32.512)" d="M25.301 0L0 90.118"/><path id="Line_181" data-name="Line 181" class="cls-85" transform="translate(58.439 31.97)" d="M24.718 0L0 90.951"/><path id="Line_182" data-name="Line 182" class="cls-85" transform="translate(60.773 31.387)" d="M24.134 0L0 91.826"/><path id="Line_183" data-name="Line 183" class="cls-85" transform="translate(63.107 30.803)" d="M23.551 0L0 92.702"/><path id="Line_184" data-name="Line 184" class="cls-85" transform="translate(65.441 30.261)" d="M23.009 0L0 93.535"/><path id="Line_185" data-name="Line 185" class="cls-85" transform="translate(67.776 29.678)" d="M22.425 0L0 94.411"/><path id="Line_186" data-name="Line 186" class="cls-85" transform="translate(70.11 29.094)" d="M21.842 0L0 95.328"/><path id="Line_187" data-name="Line 187" class="cls-85" transform="translate(72.444 28.552)" d="M21.258 0L0 96.161"/><path id="Line_188" data-name="Line 188" class="cls-85" transform="translate(74.82 27.969)" d="M20.633 0L0 97.037"/><path id="Line_189" data-name="Line 189" class="cls-85" transform="translate(77.154 27.385)" d="M20.049 0L0 97.912"/><path id="Line_190" data-name="Line 190" class="cls-85" transform="translate(79.488 26.844)" d="M19.466 0L0 98.746"/><path id="Line_191" data-name="Line 191" class="cls-85" transform="translate(81.823 26.26)" d="M18.882 0L0 99.621"/><path id="Line_192" data-name="Line 192" class="cls-85" transform="translate(84.157 25.676)" d="M18.299 0L0 100.496"/><path id="Line_193" data-name="Line 193" class="cls-85" transform="translate(86.491 25.093)" d="M17.757 0L0 101.413"/><path id="Line_194" data-name="Line 194" class="cls-85" transform="translate(88.825 24.551)" d="M17.173 0L0 102.247"/><path id="Line_195" data-name="Line 195" class="cls-85" transform="translate(91.16 23.967)" d="M16.59 0L0 103.122"/><path id="Line_196" data-name="Line 196" class="cls-85" transform="translate(93.494 23.384)" d="M16.006 0L0 103.998"/><path id="Line_197" data-name="Line 197" class="cls-85" transform="translate(95.828 22.842)" d="M15.423 0L0 104.831"/><path id="Line_198" data-name="Line 198" class="cls-85" transform="translate(98.162 22.258)" d="M14.839 0L0 105.707"/><path id="Line_199" data-name="Line 199" class="cls-85" transform="translate(100.496 21.675)" d="M14.255 0L0 106.582"/><path id="Line_200" data-name="Line 200" class="cls-85" transform="translate(102.872 21.133)" d="M13.63 0L0 107.457"/><path id="Line_201" data-name="Line 201" class="cls-85" transform="translate(105.207 20.549)" d="M13.088 0L0 108.333"/><path id="Line_202" data-name="Line 202" class="cls-85" transform="translate(107.541 19.966)" d="M12.505 0L0 109.208"/><path id="Line_203" data-name="Line 203" class="cls-85" transform="translate(109.875 19.382)" d="M11.921 0L0 110.083"/><path id="Line_204" data-name="Line 204" class="cls-85" transform="translate(112.209 18.84)" d="M11.338 0L0 110.917"/><path id="Line_205" data-name="Line 205" class="cls-85" transform="translate(114.543 18.257)" d="M10.754 0L0 111.792"/><path id="Line_206" data-name="Line 206" class="cls-85" transform="translate(116.878 17.673)" d="M10.171 0L0 112.668"/><path id="Line_207" data-name="Line 207" class="cls-85" transform="translate(119.212 17.131)" d="M9.587 0L0 113.501"/><path id="Line_208" data-name="Line 208" class="cls-85" transform="translate(121.546 16.548)" d="M9.003 0L0 114.418"/><path id="Line_209" data-name="Line 209" class="cls-85" transform="translate(123.88 15.964)" d="M8.42 0L0 115.294"/><path id="Line_210" data-name="Line 210" class="cls-85" transform="translate(126.215 15.423)" d="M7.878 0L0 116.127"/><path id="Line_211" data-name="Line 211" class="cls-85" transform="translate(128.549 14.839)" d="M7.294 0L0 117.003"/><path id="Line_212" data-name="Line 212" class="cls-85" transform="translate(130.925 14.255)" d="M6.669 0L0 117.878"/><path id="Line_213" data-name="Line 213" class="cls-85" transform="translate(133.259 13.714)" d="M6.086 0L0 118.712"/><path id="Line_214" data-name="Line 214" class="cls-85" transform="translate(135.593 13.13)" d="M5.502 0L0 119.587"/><path id="Line_215" data-name="Line 215" class="cls-85" transform="translate(137.927 12.546)" d="M4.919 0L0 120.504"/><path id="Line_216" data-name="Line 216" class="cls-85" transform="translate(140.262 11.963)" d="M4.335 0L0 121.379"/><path id="Line_217" data-name="Line 217" class="cls-85" transform="translate(142.596 11.421)" d="M3.751 0L0 122.213"/><path id="Line_218" data-name="Line 218" class="cls-85" transform="translate(144.93 10.837)" d="M3.168 0L0 123.088"/><path id="Line_219" data-name="Line 219" class="cls-85" transform="translate(147.264 10.254)" d="M2.626 0L0 123.964"/><path id="Line_220" data-name="Line 220" class="cls-85" transform="translate(149.598 9.712)" d="M2.042 0L0 124.797"/><path id="Line_221" data-name="Line 221" class="cls-85" transform="translate(151.933 9.128)" d="M1.459 0L0 125.673"/><path id="Line_222" data-name="Line 222" class="cls-85" transform="translate(154.267 8.545)" d="M.875 0L0 126.59"/><path id="Line_223" data-name="Line 223" class="cls-85" transform="translate(156.601 8.003)" d="M.292 0L0 127.423"/><path id="Line_224" data-name="Line 224" class="cls-85" transform="translate(158.643 7.419)" d="M0 0l.333 128.299"/><path id="Line_225" data-name="Line 225" class="cls-85" transform="translate(160.394 6.836)" d="M0 0l.917 129.174"/><path id="Line_226" data-name="Line 226" class="cls-85" transform="translate(162.145 6.252)" d="M0 0l1.501 130.049"/><path id="Line_227" data-name="Line 227" class="cls-85" transform="translate(163.937 5.71)" d="M0 0l2.042 130.883"/><path id="Line_228" data-name="Line 228" class="cls-85" transform="translate(165.688 5.127)" d="M0 0l2.626 131.758"/><path id="Line_229" data-name="Line 229" class="cls-85" transform="translate(167.438 4.543)" d="M0 0l3.21 132.675"/><path id="Line_230" data-name="Line 230" class="cls-85" transform="translate(169.189 4.002)" d="M0 0l3.793 133.509"/><path id="Line_231" data-name="Line 231" class="cls-85" transform="translate(170.94 3.418)" d="M0 0l4.377 134.384"/><path id="Line_232" data-name="Line 232" class="cls-85" transform="translate(172.69 2.834)" d="M0 0l4.96 135.26"/><path id="Line_233" data-name="Line 233" class="cls-85" transform="translate(174.441 2.293)" d="M0 0l5.544 136.093"/><path id="Line_234" data-name="Line 234" class="cls-85" transform="translate(176.192 1.709)" d="M0 0l6.127 136.969"/><path id="Line_235" data-name="Line 235" class="cls-85" transform="translate(177.942 1.125)" d="M0 0l6.711 137.844"/><path id="Line_236" data-name="Line 236" class="cls-85" transform="translate(179.735 .584)" d="M0 0l7.294 138.719"/><path id="Line_237" data-name="Line 237" class="cls-85" transform="translate(181.485)" d="M0 0l7.878 139.595"/></g><path id="Path_819" data-name="Path 819" class="cls-86" d="M513.287 185.757l-26.552-12.588a1.6 1.6 0 0 1-.75-2.126l.083-.208a1.6 1.6 0 0 1 2.126-.75l26.51 12.63a1.6 1.6 0 0 1 .75 2.126l-.083.208a1.571 1.571 0 0 1-2.084.708z" transform="translate(5316.043 8000.937)"/><path id="Path_820" data-name="Path 820" class="cls-86" d="M400.6 132.78l-29.8 10.587a7.432 7.432 0 0 1-9.462-4.5l-.333-.917a7.432 7.432 0 0 1 4.5-9.462L395.3 117.9a7.432 7.432 0 0 1 9.462 4.5l.333.917a7.467 7.467 0 0 1-4.495 9.463z" transform="translate(5389.092 8031.53)"/><path id="Path_821" data-name="Path 821" class="cls-86" d="M189.06 279.279l-27.76-9.629a1.65 1.65 0 0 1-1-2.042l.083-.208a1.65 1.65 0 0 1 2.042-1l27.761 9.629a1.65 1.65 0 0 1 1 2.042l-.083.208a1.65 1.65 0 0 1-2.043 1z" transform="translate(5505.927 7944.72)"/><path id="Path_822" data-name="Path 822" class="cls-86" d="M193.625 523.906l-24.092-16.8a1.6 1.6 0 0 1-.417-2.209l.125-.167a1.6 1.6 0 0 1 2.209-.417l24.134 16.8a1.6 1.6 0 0 1 .417 2.209l-.125.167a1.609 1.609 0 0 1-2.251.417z" transform="translate(5500.904 7806.092)"/><path id="Path_823" data-name="Path 823" class="cls-86" d="M170.02 321.427l-28.386 7.545a1.649 1.649 0 0 1-1.959-1.125l-.042-.208a1.649 1.649 0 0 1 1.125-1.959l28.386-7.545a1.649 1.649 0 0 1 1.959 1.125l.042.208a1.608 1.608 0 0 1-1.125 1.959z" transform="translate(5517.964 7914.536)"/><path id="Path_824" data-name="Path 824" class="cls-87" d="M272.508 306.638h32.054a3.238 3.238 0 0 0 3.21-3.21V259.5l-11.379-10.3h-23.885a3.238 3.238 0 0 0-3.21 3.21v51.019a3.184 3.184 0 0 0 3.21 3.209z" transform="translate(5442.32 7954.708)"/><path id="Path_834" data-name="Path 834" class="cls-89" d="M371.4 234.215h30.095a4.732 4.732 0 0 0 4.71-4.71V173.4" transform="translate(5382.776 7998.913)"/><path id="Path_835" data-name="Path 835" class="cls-89" d="M455.8 248.245h23.8a4.732 4.732 0 0 0 4.71-4.71V218.4" transform="translate(5333.556 7972.67)"/><path id="Path_836" data-name="Path 836" class="cls-89" d="M408.9 318.6v23.8a4.732 4.732 0 0 0 4.71 4.71h25.135" transform="translate(5360.907 7914.236)"/><circle id="Ellipse_494" data-name="Ellipse 494" cx="2.084" cy="2.084" r="2.084" transform="translate(5753.134 8230.919)"/><circle id="Ellipse_495" data-name="Ellipse 495" cx="2.084" cy="2.084" r="2.084" transform="translate(5787.022 8169.604)"/><path id="Path_837" data-name="Path 837" class="cls-89" d="M192.524 347.2h-36.1a5.657 5.657 0 0 0-5.627 5.627v67.359" transform="translate(5511.425 7897.557)"/><circle id="Ellipse_496" data-name="Ellipse 496" cx="2.084" cy="2.084" r="2.084" transform="translate(5702.282 8242.631)"/><circle id="Ellipse_497" data-name="Ellipse 497" cx="2.084" cy="2.084" r="2.084" transform="translate(5659.599 8316.034)"/><circle id="Ellipse_498" data-name="Ellipse 498" cx="2.084" cy="2.084" r="2.084" transform="translate(5798.109 8259.263)"/><circle id="Ellipse_499" data-name="Ellipse 499" cx="2.084" cy="2.084" r="2.084" transform="translate(5816.283 8188.986)"/><path id="Path_838" data-name="Path 838" class="cls-89" d="M334.651 424.7l-3.126-3.126a.453.453 0 0 1 0-.625l3.126-3.126a.453.453 0 0 1 .625 0l3.126 3.126a.453.453 0 0 1 0 .625l-3.126 3.126a.453.453 0 0 1-.625 0z" transform="translate(5406.103 7856.443)"/><path id="Path_839" data-name="Path 839" class="cls-89" d="M297.151 196.1l-3.126-3.126a.453.453 0 0 1 0-.625l3.126-3.126a.453.453 0 0 1 .625 0l3.126 3.126a.453.453 0 0 1 0 .625l-3.126 3.126a.453.453 0 0 1-.625 0z" transform="translate(5427.972 7989.757)"/><path id="Path_840" data-name="Path 840" class="cls-89" d="M215.553 395.479l-3.626-2.5a.459.459 0 0 1-.125-.625l2.5-3.626a.459.459 0 0 1 .625-.125l3.626 2.5a.459.459 0 0 1 .125.625l-2.5 3.626a.467.467 0 0 1-.625.125z" transform="translate(5475.891 7873.454)"/><g id="Group_1780" data-name="Group 1780" transform="translate(5748.216 8291.775)"><path id="Path_841" data-name="Path 841" d="M363.728 467.461l-.75-.75.625-.625.75.75zm-1.5-1.584a4.034 4.034 0 0 1-.792-.917 1.9 1.9 0 0 1-.333-1.125v-1.5a1.728 1.728 0 0 0-.125-.667 1.074 1.074 0 0 0-.333-.542 1.743 1.743 0 0 0-.5-.333 1.418 1.418 0 0 0-.584-.083 1.747 1.747 0 0 0-.625.167 2.988 2.988 0 0 0-.625.459 2.383 2.383 0 0 0-.459.667 1.39 1.39 0 0 0-.083.709 1.536 1.536 0 0 0 .208.709 3.289 3.289 0 0 0 .5.625l-.5.5a2.455 2.455 0 0 1-.667-.834 1.9 1.9 0 0 1-.208-.959 2.473 2.473 0 0 1 .208-.959 2.129 2.129 0 0 1 .625-.875 4.065 4.065 0 0 1 .875-.667 1.751 1.751 0 0 1 .875-.25 3.173 3.173 0 0 1 .875.125 2.364 2.364 0 0 1 .75.5 1.42 1.42 0 0 1 .458.792 3.121 3.121 0 0 1 .083.875 7.7 7.7 0 0 1-.042.959 3.732 3.732 0 0 0 .083.959 1.147 1.147 0 0 0 .333.625c.167.167.333.375.5.542z" transform="translate(-357.1 -460)"/></g><g id="Group_1781" data-name="Group 1781" transform="translate(5796.15 8241.798)"><path id="Path_842" data-name="Path 842" d="M478.686 347.52l-.75-.75.625-.625.75.75zm-1.459-1.542a4.034 4.034 0 0 1-.792-.917 1.9 1.9 0 0 1-.333-1.125v-1.5a1.728 1.728 0 0 0-.125-.667 1.074 1.074 0 0 0-.333-.542 1.743 1.743 0 0 0-.5-.333 1.419 1.419 0 0 0-.584-.083 1.747 1.747 0 0 0-.625.167 2.986 2.986 0 0 0-.625.459 2.382 2.382 0 0 0-.458.667 1.389 1.389 0 0 0-.083.709 1.536 1.536 0 0 0 .208.709 3.285 3.285 0 0 0 .5.625l-.5.5a2.455 2.455 0 0 1-.667-.834 1.9 1.9 0 0 1-.208-.959 2.473 2.473 0 0 1 .208-.959 2.128 2.128 0 0 1 .625-.875 4.066 4.066 0 0 1 .875-.667 1.751 1.751 0 0 1 .875-.25 3.173 3.173 0 0 1 .875.125 2.366 2.366 0 0 1 .75.5 1.421 1.421 0 0 1 .458.792 3.12 3.12 0 0 1 .083.875 7.7 7.7 0 0 1-.042.959 3.732 3.732 0 0 0 .083.959 1.147 1.147 0 0 0 .333.625c.167.167.333.375.5.542z" transform="translate(-472.1 -340.1)"/></g><g id="Group_1782" data-name="Group 1782" transform="translate(5743.755 8186.798)"><path id="Path_843" data-name="Path 843" d="M347.442 216.674l.167-1.042.834.125-.167 1.042zm.417-2.084a7.949 7.949 0 0 1 .292-1.167 2.378 2.378 0 0 1 .709-.917 5.435 5.435 0 0 1 .625-.417 7.071 7.071 0 0 0 .584-.417c.167-.167.333-.292.5-.459a1.461 1.461 0 0 0 .25-.584 1.072 1.072 0 0 0-.042-.625 1 1 0 0 0-.292-.542 1.668 1.668 0 0 0-.5-.417 1.992 1.992 0 0 0-.75-.25 1.672 1.672 0 0 0-.792.042 1.5 1.5 0 0 0-.625.333 2.191 2.191 0 0 0-.458.584 1.992 1.992 0 0 0-.25.75l-.709-.125a2.756 2.756 0 0 1 .292-1.042 2.284 2.284 0 0 1 .667-.75 1.8 1.8 0 0 1 .917-.375 2.377 2.377 0 0 1 1.084 0 3.4 3.4 0 0 1 1.042.333 1.977 1.977 0 0 1 .709.584 1.749 1.749 0 0 1 .375.792 2.237 2.237 0 0 1 .042.917 1.406 1.406 0 0 1-.375.834 4.458 4.458 0 0 1-.667.584c-.25.167-.5.333-.792.542a3.32 3.32 0 0 0-.709.625 1.147 1.147 0 0 0-.333.625c-.042.25-.083.5-.125.709z" transform="translate(-346.4 -208.15)"/></g><g id="Group_1783" data-name="Group 1783" transform="translate(5692.569 8158.85)"><path id="Path_844" data-name="Path 844" d="M223.6 145.56l.959-.375.333.792-.959.417zm2.042-.75a8.871 8.871 0 0 1 1.125-.375 1.951 1.951 0 0 1 1.167.125c.25.083.459.208.709.292.25.125.458.208.667.292a3.9 3.9 0 0 0 .667.167 1.093 1.093 0 0 0 .625-.083 1.5 1.5 0 0 0 .5-.333 1.561 1.561 0 0 0 .292-.5 1.728 1.728 0 0 0 .083-.667 1.7 1.7 0 0 0-.208-.75 1.9 1.9 0 0 0-.458-.667 1.57 1.57 0 0 0-.625-.375 1.95 1.95 0 0 0-.709-.083 1.7 1.7 0 0 0-.75.208l-.25-.667a2.328 2.328 0 0 1 2-.125 2.753 2.753 0 0 1 .834.584 2.886 2.886 0 0 1 .584.917 2.533 2.533 0 0 1 .25 1.042 1.7 1.7 0 0 1-.125.917 1.744 1.744 0 0 1-.459.75 2.152 2.152 0 0 1-.792.5 1.815 1.815 0 0 1-.917.125 2.766 2.766 0 0 1-.834-.25l-.875-.375a3.369 3.369 0 0 0-.917-.292 1.369 1.369 0 0 0-.709.042c-.25.083-.458.167-.667.25z" transform="translate(-223.6 -141.1)"/></g><g id="Group_1784" data-name="Group 1784" transform="translate(5764.306 8155.817)"><text id="FAQ" class="cls-90" transform="rotate(-21.531 34.434 -.123)"><tspan x="0" y="0">FAQ</tspan></text></g><path id="Path_845" data-name="Path 845" class="cls-86" d="M222.765 439.691l-31.429-3.585a7.434 7.434 0 0 1-6.5-8.211l.125-.959a7.434 7.434 0 0 1 8.211-6.5l31.429 3.585a7.434 7.434 0 0 1 6.5 8.211l-.125.959a7.434 7.434 0 0 1-8.211 6.5z" transform="translate(5491.605 7854.877)"/><g id="Group_1785" data-name="Group 1785" transform="translate(5691.805 8281.57)"><text id="FAQ-2" data-name="FAQ" class="cls-90" transform="rotate(4.44 -82.906 5.184)"><tspan x="0" y="0">FAQ</tspan></text></g><path id="Path_846" data-name="Path 846" class="cls-91" d="M295.227 496.8a10.244 10.244 0 0 1 4.793 13.672 8.171 8.171 0 0 1-10.921 3.835 6.583 6.583 0 0 1-3.085-8.753 5.235 5.235 0 0 1 7-2.459 4.185 4.185 0 0 1 1.959 5.585 3.35 3.35 0 0 1-4.46 1.584 2.662 2.662 0 0 1-1.25-3.585 2.148 2.148 0 0 1 2.876-1 1.687 1.687 0 0 1 .792 2.293 1.385 1.385 0 0 1-1.834.625" transform="translate(5432.939 7810.314)"/><path id="Path_847" data-name="Path 847" class="cls-91" d="M222.938 226.255a10.215 10.215 0 0 1-14.005 3.626 8.173 8.173 0 0 1-2.918-11.213 6.538 6.538 0 0 1 8.962-2.334 5.238 5.238 0 0 1 1.876 7.169A4.21 4.21 0 0 1 211.1 225a3.391 3.391 0 0 1-1.209-4.585 2.664 2.664 0 0 1 3.668-.959 2.083 2.083 0 0 1 .75 2.918 1.718 1.718 0 0 1-2.334.625 1.364 1.364 0 0 1-.5-1.876" transform="translate(5479.886 7974.402)"/></g></svg>