<svg id="Layer_1" xmlns="http://www.w3.org/2000/svg" viewBox="0 0 647 658"><style>.st0{opacity:.28}.st0,.st1,.st2,.st3{fill:none;stroke:#00b5a2;stroke-width:1.6598;stroke-miterlimit:10}.st1{opacity:.2918}.st2{opacity:.3036}.st3{opacity:.3154}.st10,.st11,.st12,.st13,.st14,.st15{fill:none;stroke:#00b5a2;stroke-width:1.6598;stroke-miterlimit:10}.st4{opacity:.3272}.st4,.st5,.st6,.st7,.st8,.st9{fill:none;stroke:#00b5a2;stroke-width:1.6598;stroke-miterlimit:10}.st5{opacity:.339}.st6{opacity:.3508}.st7{opacity:.3626}.st8{opacity:.3744}.st9{opacity:.3862}.st10{opacity:.398}.st11{opacity:.4098}.st12{opacity:.4216}.st13{opacity:.4334}.st14{opacity:.4452}.st15{opacity:.457}.st16{opacity:.4689}.st16,.st17,.st18,.st19,.st20,.st21,.st22,.st23,.st24,.st25,.st26{fill:none;stroke:#00b5a2;stroke-width:1.6598;stroke-miterlimit:10}.st17{opacity:.4807}.st18{opacity:.4925}.st19{opacity:.5043}.st20{opacity:.5161}.st21{opacity:.5279}.st22{opacity:.5397}.st23{opacity:.5515}.st24{opacity:.5633}.st25{opacity:.5751}.st26{opacity:.5869}.st27{opacity:.5987}.st27,.st28,.st29,.st30,.st31,.st32,.st33,.st34,.st35,.st36,.st37{fill:none;stroke:#00b5a2;stroke-width:1.6598;stroke-miterlimit:10}.st28{opacity:.6105}.st29{opacity:.6223}.st30{opacity:.6341}.st31{opacity:.6459}.st32{opacity:.6577}.st33{opacity:.6695}.st34{opacity:.6813}.st35{opacity:.6931}.st36{opacity:.7049}.st37{opacity:.7167}.st38{opacity:.7285}.st38,.st39,.st40,.st41,.st42,.st43,.st44,.st45,.st46,.st47,.st48{fill:none;stroke:#00b5a2;stroke-width:1.6598;stroke-miterlimit:10}.st39{opacity:.7403}.st40{opacity:.7521}.st41{opacity:.7639}.st42{opacity:.7757}.st43{opacity:.7875}.st44{opacity:.7993}.st45{opacity:.8111}.st46{opacity:.823}.st47{opacity:.8348}.st48{opacity:.8466}.st49{opacity:.8584}.st49,.st50,.st51,.st52,.st53,.st54,.st55,.st56,.st57,.st58,.st59{fill:none;stroke:#00b5a2;stroke-width:1.6598;stroke-miterlimit:10}.st50{opacity:.8702}.st51{opacity:.882}.st52{opacity:.8938}.st53{opacity:.9056}.st54{opacity:.9174}.st55{opacity:.9292}.st56{opacity:.941}.st57{opacity:.9528}.st58{opacity:.9646}.st59{opacity:.9764}.st60{opacity:.9882;fill:none;stroke-width:1.6598;stroke-miterlimit:10}.st60,.st61{stroke:#00b5a2}.st61,.st62,.st63,.st64,.st65,.st66,.st67,.st68{fill:none;stroke-width:1.6598;stroke-miterlimit:10}.st62{opacity:.28}.st62,.st63,.st64,.st65,.st66,.st67,.st68{stroke:#007ad2}.st63{opacity:.2879}.st64{opacity:.2958}.st65{opacity:.3037}.st66{opacity:.3116}.st67{opacity:.3196}.st68{opacity:.3275}.st69{opacity:.3354}.st69,.st70,.st71,.st72,.st73,.st74,.st75,.st76,.st77,.st78,.st79{fill:none;stroke:#007ad2;stroke-width:1.6598;stroke-miterlimit:10}.st70{opacity:.3433}.st71{opacity:.3512}.st72{opacity:.3591}.st73{opacity:.367}.st74{opacity:.3749}.st75{opacity:.3829}.st76{opacity:.3908}.st77{opacity:.3987}.st78{opacity:.4066}.st79{opacity:.4145}.st80{opacity:.4224}.st80,.st81,.st82,.st83,.st84,.st85,.st86,.st87,.st88,.st89,.st90{fill:none;stroke:#007ad2;stroke-width:1.6598;stroke-miterlimit:10}.st81{opacity:.4303}.st82{opacity:.4382}.st83{opacity:.4462}.st84{opacity:.4541}.st85{opacity:.462}.st86{opacity:.4699}.st87{opacity:.4778}.st88{opacity:.4857}.st89{opacity:.4936}.st90{opacity:.5015}.st100,.st101{fill:none;stroke:#007ad2;stroke-width:1.6598;stroke-miterlimit:10}.st91{opacity:.5095}.st91,.st92,.st93,.st94,.st95,.st96,.st97,.st98,.st99{fill:none;stroke:#007ad2;stroke-width:1.6598;stroke-miterlimit:10}.st92{opacity:.5174}.st93{opacity:.5253}.st94{opacity:.5332}.st95{opacity:.5411}.st96{opacity:.549}.st97{opacity:.5569}.st98{opacity:.5648}.st99{opacity:.5727}.st100{opacity:.5807}.st101{opacity:.5886}.st102{opacity:.5965}.st102,.st103,.st104,.st105,.st106,.st107,.st108,.st109,.st110,.st111{fill:none;stroke:#007ad2;stroke-width:1.6598;stroke-miterlimit:10}.st103{opacity:.6044}.st104{opacity:.6123}.st105{opacity:.6202}.st106{opacity:.6281}.st107{opacity:.636}.st108{opacity:.644}.st109{opacity:.6519}.st110{opacity:.6598}.st111{opacity:.6677}.st112{opacity:.6756}.st112,.st113,.st114,.st115,.st116,.st117,.st118,.st119,.st120,.st121{fill:none;stroke:#007ad2;stroke-width:1.6598;stroke-miterlimit:10}.st113{opacity:.6835}.st114{opacity:.6914}.st115{opacity:.6993}.st116{opacity:.7073}.st117{opacity:.7152}.st118{opacity:.7231}.st119{opacity:.731}.st120{opacity:.7389}.st121{opacity:.7468}.st122{opacity:.7547}.st122,.st123,.st124,.st125,.st126,.st127,.st128,.st129,.st130,.st131{fill:none;stroke:#007ad2;stroke-width:1.6598;stroke-miterlimit:10}.st123{opacity:.7626}.st124{opacity:.7705}.st125{opacity:.7785}.st126{opacity:.7864}.st127{opacity:.7943}.st128{opacity:.8022}.st129{opacity:.8101}.st130{opacity:.818}.st131{opacity:.8259}.st132{opacity:.8338}.st132,.st133,.st134,.st135,.st136,.st137,.st138,.st139,.st140,.st141{fill:none;stroke:#007ad2;stroke-width:1.6598;stroke-miterlimit:10}.st133{opacity:.8418}.st134{opacity:.8497}.st135{opacity:.8576}.st136{opacity:.8655}.st137{opacity:.8734}.st138{opacity:.8813}.st139{opacity:.8892}.st140{opacity:.8971}.st141{opacity:.9051}.st142{opacity:.913}.st142,.st143,.st144,.st145,.st146,.st147,.st148,.st149,.st150,.st151{fill:none;stroke:#007ad2;stroke-width:1.6598;stroke-miterlimit:10}.st143{opacity:.9209}.st144{opacity:.9288}.st145{opacity:.9367}.st146{opacity:.9446}.st147{opacity:.9525}.st148{opacity:.9604}.st149{opacity:.9684}.st150{opacity:.9763}.st151{opacity:.9842}.st152{opacity:.9921}.st152,.st153,.st154,.st155{fill:none;stroke:#007ad2;stroke-width:1.6598;stroke-miterlimit:10}.st154,.st155{stroke:#005fa2;stroke-width:1.352}.st155{opacity:.9882}.st156{opacity:.9764}.st156,.st157,.st158,.st159,.st160,.st161,.st162,.st163,.st164,.st165{fill:none;stroke:#005fa2;stroke-width:1.352;stroke-miterlimit:10}.st157{opacity:.9646}.st158{opacity:.9528}.st159{opacity:.941}.st160{opacity:.9292}.st161{opacity:.9174}.st162{opacity:.9056}.st163{opacity:.8938}.st164{opacity:.882}.st165{opacity:.8702}.st166{opacity:.8584}.st166,.st167,.st168,.st169,.st170,.st171,.st172,.st173,.st174,.st175{fill:none;stroke:#005fa2;stroke-width:1.352;stroke-miterlimit:10}.st167{opacity:.8466}.st168{opacity:.8348}.st169{opacity:.823}.st170{opacity:.8111}.st171{opacity:.7993}.st172{opacity:.7875}.st173{opacity:.7757}.st174{opacity:.7639}.st175{opacity:.7521}.st176{opacity:.7403}.st176,.st177,.st178,.st179,.st180,.st181,.st182,.st183,.st184,.st185{fill:none;stroke:#005fa2;stroke-width:1.352;stroke-miterlimit:10}.st177{opacity:.7285}.st178{opacity:.7167}.st179{opacity:.7049}.st180{opacity:.6931}.st181{opacity:.6813}.st182{opacity:.6695}.st183{opacity:.6577}.st184{opacity:.6459}.st185{opacity:.6341}.st186{opacity:.6223}.st186,.st187,.st188,.st189,.st190,.st191,.st192,.st193,.st194,.st195{fill:none;stroke:#005fa2;stroke-width:1.352;stroke-miterlimit:10}.st187{opacity:.6105}.st188{opacity:.5987}.st189{opacity:.5869}.st190{opacity:.5751}.st191{opacity:.5633}.st192{opacity:.5515}.st193{opacity:.5397}.st194{opacity:.5279}.st195{opacity:.5161}.st196{opacity:.5043}.st196,.st197,.st198,.st199,.st200,.st201,.st202,.st203,.st204,.st205{fill:none;stroke:#005fa2;stroke-width:1.352;stroke-miterlimit:10}.st197{opacity:.4925}.st198{opacity:.4807}.st199{opacity:.4689}.st200{opacity:.457}.st201{opacity:.4452}.st202{opacity:.4334}.st203{opacity:.4216}.st204{opacity:.4098}.st205{opacity:.398}.st206{opacity:.3862}.st206,.st207,.st208,.st209,.st210,.st211,.st212,.st213,.st214,.st215{fill:none;stroke:#005fa2;stroke-width:1.352;stroke-miterlimit:10}.st207{opacity:.3744}.st208{opacity:.3626}.st209{opacity:.3508}.st210{opacity:.339}.st211{opacity:.3272}.st212{opacity:.3154}.st213{opacity:.3036}.st214{opacity:.2918}.st215{opacity:.28}.st216{font-family:&apos;Plumb-Light&apos;}.st217{font-size:21.1445px}.st218,.st219{fill:none;stroke:#007aa2;stroke-width:1.2492;stroke-miterlimit:10}.st219{stroke:#000}.st220{opacity:.9051}.st221{fill:none;stroke:#007aa2;stroke-width:2.4985;stroke-miterlimit:10}.st222{fill:#fff}.st223,.st224{fill:none;stroke-width:2.19;stroke-miterlimit:10}.st223{opacity:.913;stroke:#007aa2}.st224{stroke:#fff}</style><path class="st0" d="M228 95.6l-89.6 129.2"/><path class="st1" d="M233.7 100L144 229.2"/><path class="st2" d="M239.3 104.4l-89.6 129.2"/><path class="st3" d="M244.9 108.8L155.3 238"/><path class="st4" d="M250.6 113.2L161 242.3"/><path class="st5" d="M256.2 117.5l-89.6 129.2"/><path class="st6" d="M261.9 121.9l-89.7 129.2"/><path class="st7" d="M267.5 126.3l-89.6 129.2"/><path class="st8" d="M273.2 130.7l-89.7 129.2"/><path class="st9" d="M278.8 135.1l-89.6 129.1"/><path class="st10" d="M284.5 139.4l-89.7 129.2"/><path class="st11" d="M290.1 143.8L200.5 273"/><path class="st12" d="M295.8 148.2l-89.7 129.2"/><path class="st13" d="M301.4 152.6l-89.6 129.2"/><path class="st14" d="M307 156.9l-89.6 129.2"/><path class="st15" d="M312.7 161.3l-89.6 129.2"/><path class="st16" d="M318.3 165.7l-89.6 129.2"/><path class="st17" d="M324 170.1l-89.7 129.2"/><path class="st18" d="M329.6 174.5L240 303.7"/><path class="st19" d="M335.3 178.8L245.6 308"/><path class="st20" d="M340.9 183.2l-89.6 129.2"/><path class="st21" d="M346.6 187.6l-89.7 129.2"/><path class="st22" d="M352.2 192l-89.6 129.2"/><path class="st23" d="M357.8 196.4l-89.6 129.1"/><path class="st24" d="M363.5 200.7l-89.6 129.2"/><path class="st25" d="M369.1 205.1l-89.6 129.2"/><path class="st26" d="M374.8 209.5l-89.6 129.2"/><path class="st27" d="M380.4 213.9l-89.6 129.2"/><path class="st28" d="M386.1 218.3l-89.7 129.1"/><path class="st29" d="M391.7 222.6l-89.6 129.2"/><path class="st30" d="M397.4 227l-89.7 129.2"/><path class="st31" d="M403 231.4l-89.6 129.2"/><path class="st32" d="M408.7 235.8L319 365"/><path class="st33" d="M414.3 240.1l-89.6 129.2"/><path class="st34" d="M419.9 244.5l-89.6 129.2"/><path class="st35" d="M425.6 248.9L336 378.1"/><path class="st36" d="M431.2 253.3l-89.6 129.2"/><path class="st37" d="M436.9 257.7l-89.6 129.2"/><path class="st38" d="M442.5 262l-89.6 129.2"/><path class="st39" d="M448.2 266.4l-89.7 129.2"/><path class="st40" d="M453.8 270.8L364.2 400"/><path class="st41" d="M459.5 275.2l-89.7 129.2"/><path class="st42" d="M465.1 279.6l-89.6 129.1"/><path class="st43" d="M470.8 283.9l-89.7 129.2"/><path class="st44" d="M476.4 288.3l-89.6 129.2"/><path class="st45" d="M482 292.7l-89.6 129.2"/><path class="st46" d="M487.7 297.1l-89.6 129.2"/><path class="st47" d="M493.3 301.5l-89.6 129.1"/><path class="st48" d="M499 305.8L409.3 435"/><path class="st49" d="M504.6 310.2L415 439.4"/><path class="st50" d="M510.3 314.6l-89.7 129.2"/><path class="st51" d="M515.9 319l-89.6 129.2"/><path class="st52" d="M521.6 323.3l-89.7 129.2"/><path class="st53" d="M527.2 327.7l-89.6 129.2"/><path class="st54" d="M532.9 332.1l-89.7 129.2"/><path class="st55" d="M538.5 336.5l-89.6 129.2"/><path class="st56" d="M544.1 340.9l-89.6 129.2"/><path class="st57" d="M549.8 345.2l-89.6 129.2"/><path class="st58" d="M555.4 349.6l-89.6 129.2"/><path class="st59" d="M561.1 354l-89.7 129.2"/><path class="st60" d="M566.7 358.4l-89.6 129.2"/><path class="st61" d="M572.4 362.8l-89.7 129.1"/><path class="st62" d="M79.4 375.9L63.3 532.3"/><path class="st63" d="M82.6 372.9L68.3 529.5"/><path class="st64" d="M85.7 369.9L73.3 526.6"/><path class="st65" d="M88.9 366.8l-10.6 157"/><path class="st66" d="M92 363.8l-8.7 157.1"/><path class="st67" d="M95.2 360.8l-6.9 157.3"/><path class="st68" d="M98.3 357.8l-5.1 157.4"/><path class="st69" d="M101.5 354.8l-3.3 157.6"/><path class="st70" d="M104.6 351.7l-1.4 157.8"/><path class="st71" d="M107.7 348.7l.5 158"/><path class="st72" d="M110.9 345.7l2.3 158.1"/><path class="st73" d="M114 342.7l4.1 158.3"/><path class="st74" d="M117.2 339.7l5.9 158.4"/><path class="st75" d="M120.3 336.7l7.8 158.6"/><path class="st76" d="M123.5 333.6l9.6 158.8"/><path class="st77" d="M126.6 330.6l11.5 159"/><path class="st78" d="M129.8 327.6l13.3 159.1"/><path class="st79" d="M132.9 324.6L148 483.9"/><path class="st80" d="M136 321.6L153 481"/><path class="st81" d="M139.2 318.5L158 478.2"/><path class="st82" d="M142.3 315.5L163 475.3"/><path class="st83" d="M145.5 312.5l22.5 160"/><path class="st84" d="M148.6 309.5L173 469.6"/><path class="st85" d="M151.8 306.5l26.1 160.3"/><path class="st86" d="M154.9 303.5l28 160.4"/><path class="st87" d="M158.1 300.4l29.8 160.7"/><path class="st88" d="M161.2 297.4l31.7 160.8"/><path class="st89" d="M164.4 294.4l33.5 161"/><path class="st90" d="M167.5 291.4l35.3 161.1"/><path class="st91" d="M170.6 288.4l37.2 161.3"/><path class="st92" d="M173.8 285.3l39 161.5"/><path class="st93" d="M176.9 282.3L217.8 444"/><path class="st94" d="M180.1 279.3l42.7 161.8"/><path class="st95" d="M183.2 276.3l44.6 162"/><path class="st96" d="M186.4 273.3l46.3 162.1"/><path class="st97" d="M189.5 270.2l48.2 162.4"/><path class="st98" d="M192.7 267.2l50 162.5"/><path class="st99" d="M195.8 264.2l51.9 162.7"/><path class="st100" d="M198.9 261.2L252.7 424"/><path class="st101" d="M202.1 258.2l55.6 163"/><path class="st102" d="M205.2 255.2l57.4 163.1"/><path class="st103" d="M208.4 252.1l59.2 163.4"/><path class="st104" d="M211.5 249.1l61.1 163.5"/><path class="st105" d="M214.7 246.1l62.9 163.7"/><path class="st106" d="M217.8 243.1l64.8 163.8"/><path class="st107" d="M221 240.1l66.5 164"/><path class="st108" d="M224.1 237l68.4 164.2"/><path class="st109" d="M227.3 234l70.2 164.4"/><path class="st110" d="M230.4 231l72.1 164.5"/><path class="st111" d="M233.5 228l74 164.7"/><path class="st112" d="M236.7 225l75.8 164.8"/><path class="st113" d="M239.8 221.9L317.4 387"/><path class="st114" d="M243 218.9l79.4 165.2"/><path class="st115" d="M246.1 215.9l81.3 165.4"/><path class="st116" d="M249.3 212.9l83.1 165.5"/><path class="st117" d="M252.4 209.9l85 165.7"/><path class="st118" d="M255.6 206.9l86.7 165.8"/><path class="st119" d="M258.7 203.8l88.6 166.1"/><path class="st120" d="M261.8 200.8L352.3 367"/><path class="st121" d="M265 197.8l92.3 166.4"/><path class="st122" d="M268.1 194.8l94.2 166.5"/><path class="st123" d="M271.3 191.8l96 166.7"/><path class="st124" d="M274.4 188.7l97.8 166.9"/><path class="st125" d="M277.6 185.7l99.6 167.1"/><path class="st126" d="M280.7 182.7l101.5 167.2"/><path class="st127" d="M283.9 179.7l103.3 167.4"/><path class="st128" d="M287 176.7l105.2 167.5"/><path class="st129" d="M290.1 173.6l107.1 167.8"/><path class="st130" d="M293.3 170.6l108.8 167.9"/><path class="st131" d="M296.4 167.6l110.7 168.1"/><path class="st132" d="M299.6 164.6l112.5 168.2"/><path class="st133" d="M302.7 161.6L417.1 330"/><path class="st134" d="M305.9 158.6l116.2 168.5"/><path class="st135" d="M309 155.5l118 168.8"/><path class="st136" d="M312.2 152.5L432 321.4"/><path class="st137" d="M315.3 149.5L437 318.6"/><path class="st138" d="M318.5 146.5L442 315.7"/><path class="st139" d="M321.6 143.5L447 312.9"/><path class="st140" d="M324.7 140.4L452 310"/><path class="st141" d="M327.9 137.4l129 169.8"/><path class="st142" d="M331 134.4l130.9 169.9"/><path class="st143" d="M334.2 131.4l132.7 170.1"/><path class="st144" d="M337.3 128.4l134.6 170.2"/><path class="st145" d="M340.5 125.3l136.4 170.5"/><path class="st146" d="M343.6 122.3l138.3 170.6"/><path class="st147" d="M346.8 119.3l140 170.8"/><path class="st148" d="M349.9 116.3l141.9 170.9"/><path class="st149" d="M353 113.3l143.8 171.1"/><path class="st150" d="M356.2 110.3l145.6 171.2"/><path class="st151" d="M359.3 107.2l147.5 171.5"/><path class="st152" d="M362.5 104.2l149.2 171.6"/><path class="st153" d="M365.6 101.2L516.7 273"/><path class="st154" d="M177.1 312.3L109 420.8"/><path class="st155" d="M183.5 314.2l-68.1 108.5"/><path class="st156" d="M190 316.2l-68.1 108.4"/><path class="st157" d="M196.4 318.1l-68.1 108.5"/><path class="st158" d="M202.9 320l-68.1 108.5"/><path class="st159" d="M209.3 322l-68.1 108.4"/><path class="st160" d="M215.8 323.9l-68.2 108.5"/><path class="st161" d="M222.2 325.8l-68.1 108.5"/><path class="st162" d="M228.7 327.8l-68.2 108.4"/><path class="st163" d="M235.1 329.7L167 438.2"/><path class="st164" d="M241.6 331.6l-68.2 108.5"/><path class="st165" d="M248 333.6L179.9 442"/><path class="st166" d="M254.4 335.5L186.3 444"/><path class="st167" d="M260.9 337.4l-68.1 108.5"/><path class="st168" d="M267.3 339.4l-68.1 108.4"/><path class="st169" d="M273.8 341.3l-68.1 108.5"/><path class="st170" d="M280.2 343.2l-68.1 108.5"/><path class="st171" d="M286.7 345.2l-68.1 108.4"/><path class="st172" d="M293.1 347.1L225 455.6"/><path class="st173" d="M299.6 349l-68.1 108.5"/><path class="st174" d="M306 351l-68.1 108.4"/><path class="st175" d="M312.5 352.9l-68.1 108.5"/><path class="st176" d="M318.9 354.8l-68.1 108.5"/><path class="st177" d="M325.4 356.8l-68.1 108.4"/><path class="st178" d="M331.8 358.7l-68.1 108.5"/><path class="st179" d="M338.3 360.6l-68.1 108.5"/><path class="st180" d="M344.7 362.6L276.6 471"/><path class="st181" d="M351.2 364.5L283.1 473"/><path class="st182" d="M357.6 366.4l-68.1 108.5"/><path class="st183" d="M364.1 368.4l-68.2 108.4"/><path class="st184" d="M370.5 370.3l-68.1 108.5"/><path class="st185" d="M377 372.2l-68.2 108.5"/><path class="st186" d="M383.4 374.2l-68.1 108.4"/><path class="st187" d="M389.9 376.1l-68.2 108.5"/><path class="st188" d="M396.3 378l-68.1 108.5"/><path class="st189" d="M402.7 380l-68.1 108.4"/><path class="st190" d="M409.2 381.9l-68.1 108.5"/><path class="st191" d="M415.6 383.8l-68.1 108.5"/><path class="st192" d="M422.1 385.8L354 494.2"/><path class="st193" d="M428.5 387.7l-68.1 108.5"/><path class="st194" d="M435 389.6l-68.1 108.5"/><path class="st195" d="M441.4 391.6L373.3 500"/><path class="st196" d="M447.9 393.5L379.8 502"/><path class="st197" d="M454.3 395.4l-68.1 108.5"/><path class="st198" d="M460.8 397.4l-68.1 108.4"/><path class="st199" d="M467.2 399.3l-68.1 108.5"/><path class="st200" d="M473.7 401.2l-68.1 108.5"/><path class="st201" d="M480.1 403.2L412 511.6"/><path class="st202" d="M486.6 405.1l-68.1 108.5"/><path class="st203" d="M493 407l-68.1 108.5"/><path class="st204" d="M499.5 409l-68.2 108.4"/><path class="st205" d="M505.9 410.9l-68.1 108.5"/><path class="st206" d="M512.4 412.8l-68.2 108.5"/><path class="st207" d="M518.8 414.8l-68.1 108.4"/><path class="st208" d="M525.3 416.7l-68.2 108.5"/><path class="st209" d="M531.7 418.6l-68.1 108.5"/><path class="st210" d="M538.1 420.6L470 529"/><path class="st211" d="M544.6 422.5L476.5 531"/><path class="st212" d="M551 424.4l-68.1 108.5"/><path class="st213" d="M557.5 426.4l-68.1 108.4"/><path class="st214" d="M563.9 428.3l-68.1 108.5"/><path class="st215" d="M570.4 430.2l-68.1 108.5"/><text transform="rotate(-23.03 1228.726 -871.187)" class="st216 st217">АЛЛO</text><path d="M260.8 199.7l1.6-1.9 1.6 1.3-1.6 1.9-1.6-1.3zm3.4-3.9c.7-.8 1.3-1.5 2-2 .7-.6 1.5-.9 2.6-1 .6-.1 1.2-.1 1.8-.1.6 0 1.2-.1 1.8-.2.6-.1 1.1-.2 1.6-.4s.9-.5 1.2-.9c.3-.4.6-.8.7-1.3.1-.5.2-1 .1-1.4-.1-.5-.3-1-.6-1.5s-.7-1-1.3-1.4c-.5-.5-1.1-.8-1.7-.9-.6-.2-1.2-.2-1.7-.1-.6.1-1.1.3-1.6.6s-1 .7-1.4 1.3l-1.3-1.1c.5-.8 1.2-1.4 1.9-1.8.7-.4 1.5-.7 2.3-.7.8-.1 1.6 0 2.4.3.8.3 1.5.7 2.3 1.3.7.6 1.3 1.3 1.7 2 .4.7.7 1.4.8 2.1.1.7.1 1.4-.1 2.1-.2.7-.6 1.3-1.1 1.9-.5.6-1.1 1.1-1.8 1.3-.7.2-1.4.4-2.1.4-.7.1-1.5.1-2.3.1-.8 0-1.5.2-2.3.4-.6.2-1 .5-1.5.9-.4.4-.8.9-1.2 1.3l-1.2-1.2z"/><ellipse transform="rotate(-71.252 262.123 491.594)" class="st218" cx="262.1" cy="491.6" rx="2.9" ry="2.9"/><ellipse transform="rotate(-71.252 270.418 494.41)" class="st218" cx="270.4" cy="494.4" rx="2.9" ry="2.9"/><ellipse transform="rotate(-71.252 278.714 497.225)" class="st218" cx="278.7" cy="497.2" rx="2.9" ry="2.9"/><ellipse transform="rotate(-71.252 287.01 500.04)" class="st218" cx="287" cy="500" rx="2.9" ry="2.9"/><ellipse transform="rotate(-71.252 303.601 505.672)" class="st218" cx="303.6" cy="505.7" rx="2.9" ry="2.9"/><ellipse transform="rotate(-71.252 311.897 508.488)" class="st218" cx="311.9" cy="508.5" rx="2.9" ry="2.9"/><ellipse transform="rotate(-71.252 295.305 502.857)" class="st218" cx="295.3" cy="502.8" rx="2.9" ry="2.9"/><path class="st219" d="M156.5 199s-18-18.6-32.3-15.6c-14.3 3-13.6 8-11.3 14.1 2.3 6.1 17.1 15.3 21.5 15.9 4.4.6 19.1 1.3 12-6-7.1-7.2-16-10.7-23.6-10.4-7.6.3-26.4 6.7-17.8 19 8.6 12.4 18.3 13.7 24.8 15 6.5 1.3 14.7.7 7.9-5.2-6.8-5.9-26.9-9.3-35.7 2.7-7.7 10.6-1.4 19.9 8.3 27.5 9.7 7.6 24.5 7.4 30 6.4s9.2-8.6 2.6-12.2c-6.7-3.6-29.1-6.2-35 14s9.4 22.8 12.4 23.6c3 .9 20.7 2.4 29.6-3.5s7.6-12.8-2.2-13.3c-6.5-.3-28.8 15-22.3 31.8 5 12.8 16 13.8 21.1 12.3 5.1-1.5 15-8.2 20.4-14.7s6.7-16.1-.3-13.9c-7 2.2-18.2 15.4-14.3 32.1 2.8 12 7.1 16.6 14.6 17.2 7.1.6 17.5-13.2 22.2-21.6 4.7-8.3 5.5-20.7 1.5-24-4-3.2-12 4.9-13.2 17.9-.8 9.3 1.5 21.7 9.2 27.7 7.7 6 16.5-3.1 21.1-10.5s9.4-26 7.1-38.4c-2.3-12.4-7-15.7-9.5-15.6-5.4.2-10.6 8.8-1.5 24 9.1 15.1 23.7 21.4 23.7 21.4m175.8 107.2s18.2 18.4 14.9 32.6-8.3 13.5-14.3 11-15-17.5-15.5-21.9c-.5-4.4-.9-19.1 6.2-11.9 7.1 7.2 10.4 16.2 9.9 23.8-.5 7.6-7.2 26.3-19.4 17.4-12.2-8.9-13.3-18.5-14.5-25.1-1.2-6.6-.4-14.7 5.4-7.8 5.7 6.9 8.8 27.1-3.5 35.7-10.7 7.5-20 1-27.4-8.9-7.4-9.9-6.9-24.6-5.7-30.1 1.2-5.5 8.8-9 12.2-2.3 3.5 6.7 5.6 29.3-14.7 34.7-20.3 5.5-22.6-9.9-23.4-12.9-.8-3-2-20.8 4.2-29.5 6.1-8.7 13-7.3 13.2 2.5.2 6.5-15.6 28.5-32.3 21.6-12.7-5.2-13.5-16.3-11.8-21.4 1.6-5.1 8.6-14.8 15.1-20 6.5-5.2 16.2-6.3 13.9.6-2.3 7-15.8 17.8-32.4 13.6-12-3.1-16.5-7.5-16.9-15-.4-7.1 13.6-17.2 22-21.7s20.8-5.1 24-1c3.2 4.1-5.1 11.9-18.2 12.8-9.3.6-21.6-2-27.5-9.8-5.8-7.8 3.5-16.5 11-20.9s26.2-8.8 38.6-6.2c12.3 2.6 15.5 7.3 15.4 9.8-.3 5.4-9.1 10.4-24 1s-20.9-24.1-20.9-24.1"/><g class="st220"><path class="st221" d="M142.4 111.9c-19.9 3.6-33 22.6-29.4 42.5.4 2.2 1 4.3 1.8 6.3m29.4-30.2c-10.2 2.1-16.9 11.9-15.1 22.3"/><ellipse transform="rotate(-10.263 145.2 146.297)" class="st221" cx="145.2" cy="146.3" rx="5" ry="5"/></g><g class="st220"><path class="st221" d="M563.9 287.9c11.5-16.6 7.4-39.4-9.2-50.9-1.8-1.3-3.8-2.3-5.7-3.2m.4 42.2c5.7-8.7 3.5-20.4-5-26.4"/><ellipse transform="rotate(-55.272 537.538 265.466)" class="st221" cx="537.6" cy="265.5" rx="5" ry="5"/></g><g class="st220"><path class="st221" d="M326.6 537.9c-7.8-18.6-29.2-27.4-47.8-19.6-2.1.9-4 1.9-5.8 3.1m35.8 22.3c-4.3-9.5-15.3-14-25-10"/><ellipse transform="rotate(-22.755 293.634 547.977)" class="st221" cx="293.6" cy="548" rx="5" ry="5"/></g><path class="st219" d="M263.4 423.2l-6.4 14.6 16.2-2.4zm136-139.9l-15.5-4.2 4.7 15.7zM205.3 419.4l-.9-16-13.4 9.4zm8.7-218.9l5.2 15.2 10.4-12.7z"/><ellipse transform="rotate(-68.026 465.004 387.411)" class="st218" cx="465" cy="387.4" rx="70" ry="70"/><text transform="rotate(30.542 -24.884 833.755)" class="st216 st217">АЛЛO</text><text transform="rotate(-23.03 516.613 -439.656)" class="st216 st217">АЛЛO</text><text transform="rotate(-23.03 453.372 -953.577)" class="st216 st217">АЛЛO</text><path class="st222" d="M338.2 229l-15.7 38.2s8.7 4.6 9.5 11.2-1.7 7.5-4.3 10.5c-2.7 2.9-30.7 33.3-30.7 33.3s-5.1 3.8-11 1-8.2-8.7-8.2-8.7l-37.1 19.2s8.1 20.6 16.5 24.7c8.4 4.1 15.1 5.9 24.3 2.6 9.2-3.3 26-11.4 35.4-20.6 9.5-9.2 32.1-31.1 38.9-41.2 6.8-10.1 14.3-23.8 14.9-34.7.6-10.9-.6-19.8-5.9-23.3S338.2 229 338.2 229z"/><path class="st223" d="M353.2 255.5l-11.8 28.3"/><circle class="st224" cx="354.3" cy="271.3" r="2.9"/><ellipse transform="rotate(-71.58 336.121 253.53)" class="st223" cx="336.1" cy="253.5" rx="2.4" ry="2.4"/><ellipse transform="rotate(-71.58 338.62 243.536)" class="st223" cx="338.6" cy="243.5" rx="2.4" ry="2.4"/><ellipse transform="rotate(-71.58 333.159 263.23)" class="st223" cx="333.2" cy="263.2" rx="2.4" ry="2.4"/><ellipse transform="rotate(-24.21 265.96 334.84)" class="st223" cx="266" cy="334.9" rx="2.4" ry="2.4"/><ellipse transform="rotate(-24.21 275.004 329.91)" class="st223" cx="275" cy="329.9" rx="2.4" ry="2.4"/><ellipse transform="rotate(-24.21 256.817 339.229)" class="st223" cx="256.8" cy="339.3" rx="2.4" ry="2.4"/></svg>