<svg id="Layer_1" xmlns="http://www.w3.org/2000/svg" viewBox="0 0 647 658"><style>.st0{opacity:.28}.st0,.st1,.st2,.st3{fill:none;stroke:#ffcb00;stroke-width:1.5237;stroke-miterlimit:10}.st1{opacity:.2918}.st2{opacity:.3036}.st3{opacity:.3154}.st10,.st11,.st12,.st13,.st14,.st15{fill:none;stroke:#ffcb00;stroke-width:1.5237;stroke-miterlimit:10}.st4{opacity:.3272}.st4,.st5,.st6,.st7,.st8,.st9{fill:none;stroke:#ffcb00;stroke-width:1.5237;stroke-miterlimit:10}.st5{opacity:.339}.st6{opacity:.3508}.st7{opacity:.3626}.st8{opacity:.3744}.st9{opacity:.3862}.st10{opacity:.398}.st11{opacity:.4098}.st12{opacity:.4216}.st13{opacity:.4334}.st14{opacity:.4452}.st15{opacity:.457}.st16{opacity:.4689}.st16,.st17,.st18,.st19,.st20,.st21,.st22,.st23,.st24,.st25,.st26{fill:none;stroke:#ffcb00;stroke-width:1.5237;stroke-miterlimit:10}.st17{opacity:.4807}.st18{opacity:.4925}.st19{opacity:.5043}.st20{opacity:.5161}.st21{opacity:.5279}.st22{opacity:.5397}.st23{opacity:.5515}.st24{opacity:.5633}.st25{opacity:.5751}.st26{opacity:.5869}.st27{opacity:.5987}.st27,.st28,.st29,.st30,.st31,.st32,.st33,.st34,.st35,.st36,.st37{fill:none;stroke:#ffcb00;stroke-width:1.5237;stroke-miterlimit:10}.st28{opacity:.6105}.st29{opacity:.6223}.st30{opacity:.6341}.st31{opacity:.6459}.st32{opacity:.6577}.st33{opacity:.6695}.st34{opacity:.6813}.st35{opacity:.6931}.st36{opacity:.7049}.st37{opacity:.7167}.st38{opacity:.7285}.st38,.st39,.st40,.st41,.st42,.st43,.st44,.st45,.st46,.st47,.st48{fill:none;stroke:#ffcb00;stroke-width:1.5237;stroke-miterlimit:10}.st39{opacity:.7403}.st40{opacity:.7521}.st41{opacity:.7639}.st42{opacity:.7757}.st43{opacity:.7875}.st44{opacity:.7993}.st45{opacity:.8111}.st46{opacity:.823}.st47{opacity:.8348}.st48{opacity:.8466}.st49{opacity:.8584}.st49,.st50,.st51,.st52,.st53,.st54,.st55,.st56,.st57,.st58,.st59{fill:none;stroke:#ffcb00;stroke-width:1.5237;stroke-miterlimit:10}.st50{opacity:.8702}.st51{opacity:.882}.st52{opacity:.8938}.st53{opacity:.9056}.st54{opacity:.9174}.st55{opacity:.9292}.st56{opacity:.941}.st57{opacity:.9528}.st58{opacity:.9646}.st59{opacity:.9764}.st60{opacity:.9882}.st60,.st61,.st62{fill:none;stroke:#ffcb00;stroke-width:1.5237;stroke-miterlimit:10}.st62{stroke:#ffd100}.st63{opacity:.9882}.st63,.st64,.st65,.st66,.st67,.st68,.st69,.st70,.st71,.st72,.st73{fill:none;stroke:#ffd100;stroke-width:1.5237;stroke-miterlimit:10}.st64{opacity:.9764}.st65{opacity:.9646}.st66{opacity:.9528}.st67{opacity:.941}.st68{opacity:.9292}.st69{opacity:.9174}.st70{opacity:.9056}.st71{opacity:.8938}.st72{opacity:.882}.st73{opacity:.8702}.st74{opacity:.8584}.st74,.st75,.st76,.st77,.st78,.st79,.st80,.st81,.st82,.st83,.st84{fill:none;stroke:#ffd100;stroke-width:1.5237;stroke-miterlimit:10}.st75{opacity:.8466}.st76{opacity:.8348}.st77{opacity:.823}.st78{opacity:.8111}.st79{opacity:.7993}.st80{opacity:.7875}.st81{opacity:.7757}.st82{opacity:.7639}.st83{opacity:.7521}.st84{opacity:.7403}.st85{opacity:.7285}.st85,.st86,.st87,.st88,.st89,.st90,.st91,.st92,.st93,.st94,.st95{fill:none;stroke:#ffd100;stroke-width:1.5237;stroke-miterlimit:10}.st86{opacity:.7167}.st87{opacity:.7049}.st88{opacity:.6931}.st89{opacity:.6813}.st90{opacity:.6695}.st91{opacity:.6577}.st92{opacity:.6459}.st93{opacity:.6341}.st94{opacity:.6223}.st95{opacity:.6105}.st100,.st101,.st102,.st103,.st104,.st105{fill:none;stroke:#ffd100;stroke-width:1.5237;stroke-miterlimit:10}.st96{opacity:.5987}.st96,.st97,.st98,.st99{fill:none;stroke:#ffd100;stroke-width:1.5237;stroke-miterlimit:10}.st97{opacity:.5869}.st98{opacity:.5751}.st99{opacity:.5633}.st100{opacity:.5515}.st101{opacity:.5397}.st102{opacity:.5279}.st103{opacity:.5161}.st104{opacity:.5043}.st105{opacity:.4925}.st106{opacity:.4807}.st106,.st107,.st108,.st109,.st110,.st111,.st112,.st113,.st114,.st115{fill:none;stroke:#ffd100;stroke-width:1.5237;stroke-miterlimit:10}.st107{opacity:.4689}.st108{opacity:.457}.st109{opacity:.4452}.st110{opacity:.4334}.st111{opacity:.4216}.st112{opacity:.4098}.st113{opacity:.398}.st114{opacity:.3862}.st115{opacity:.3744}.st116{opacity:.3626}.st116,.st117,.st118,.st119,.st120,.st121,.st122,.st123{fill:none;stroke:#ffd100;stroke-width:1.5237;stroke-miterlimit:10}.st124{stroke-width:1.5237}.st124,.st125{fill:none;stroke-miterlimit:10}.st117{opacity:.3508}.st118{opacity:.339}.st119{opacity:.3272}.st120{opacity:.3154}.st121{opacity:.3036}.st122{opacity:.2918}.st123,.st124{opacity:.28}.st124{stroke:#f60}.st125{opacity:.9528;stroke:#ff9e00;stroke-width:2.4985}.st126{fill:#ff9e00}.st127{fill:none;stroke:#000;stroke-width:1.2492;stroke-miterlimit:10}.st128{fill:#fff}.st129{font-family:&apos;Plumb-Light&apos;}.st130{font-size:21.1445px}.st131{fill:none;stroke:#ff9e00;stroke-width:2.19;stroke-miterlimit:10}</style><path class="st0" d="M229.8 76.8L32 276.2"/><path class="st1" d="M235.5 80.6l-196 198.2"/><path class="st2" d="M241.2 84.4L47 281.5"/><path class="st3" d="M247 88.2L54.5 284.1"/><path class="st4" d="M252.7 92L62.1 286.8"/><path class="st5" d="M258.5 95.8L69.6 289.4"/><path class="st6" d="M264.2 99.6L77.1 292"/><path class="st7" d="M270 103.4L84.6 294.7"/><path class="st8" d="M275.7 107.1L92.1 297.3"/><path class="st9" d="M281.4 110.9l-181.8 189"/><path class="st10" d="M287.2 114.7l-180 187.9"/><path class="st11" d="M292.9 118.5L114.7 305.2"/><path class="st12" d="M298.7 122.3L122.2 307.9"/><path class="st13" d="M304.4 126.1L129.7 310.5"/><path class="st14" d="M310.2 129.9l-173 183.2"/><path class="st15" d="M315.9 133.7L144.7 315.8"/><path class="st16" d="M321.7 137.5L152.3 318.4"/><path class="st17" d="M327.4 141.2L159.8 321.1"/><path class="st18" d="M333.1 145L167.3 323.7"/><path class="st19" d="M338.9 148.8L174.8 326.3"/><path class="st20" d="M344.6 152.6L182.3 329"/><path class="st21" d="M350.4 156.4L189.8 331.6"/><path class="st22" d="M356.1 160.2l-158.8 174"/><path class="st23" d="M361.9 164l-157 172.9"/><path class="st24" d="M367.6 167.8L212.4 339.5"/><path class="st25" d="M373.3 171.6L219.9 342.2"/><path class="st26" d="M379.1 175.3L227.4 344.8"/><path class="st27" d="M384.8 179.1L234.9 347.4"/><path class="st28" d="M390.6 182.9L242.4 350.1"/><path class="st29" d="M396.3 186.7L250 352.7"/><path class="st30" d="M402.1 190.5L257.5 355.4"/><path class="st31" d="M407.8 194.3L265 358"/><path class="st32" d="M413.5 198.1l-141 162.5"/><path class="st33" d="M419.3 201.9L280 363.3"/><path class="st34" d="M425 205.7L287.5 365.9"/><path class="st35" d="M430.8 209.4L295 368.5"/><path class="st36" d="M436.5 213.2l-133.9 158"/><path class="st37" d="M442.3 217L310.1 373.8"/><path class="st38" d="M448 220.8L317.6 376.5"/><path class="st39" d="M453.7 224.6L325.1 379.1"/><path class="st40" d="M459.5 228.4L332.6 381.7"/><path class="st41" d="M465.2 232.2L340.1 384.4"/><path class="st42" d="M471 236L347.7 387"/><path class="st43" d="M476.7 239.8L355.2 389.7"/><path class="st44" d="M482.5 243.5L362.7 392.3"/><path class="st45" d="M488.2 247.3l-118 147.6"/><path class="st46" d="M493.9 251.1L377.7 397.6"/><path class="st47" d="M499.7 254.9L385.2 400.2"/><path class="st48" d="M505.4 258.7L392.8 402.8"/><path class="st49" d="M511.2 262.5l-110.9 143"/><path class="st50" d="M516.9 266.3L407.8 408.1"/><path class="st51" d="M522.7 270.1L415.3 410.8"/><path class="st52" d="M528.4 273.9L422.8 413.4"/><path class="st53" d="M534.1 277.6L430.3 416"/><path class="st54" d="M539.9 281.4L437.8 418.7"/><path class="st55" d="M545.6 285.2L445.4 421.3"/><path class="st56" d="M551.4 289l-98.5 135"/><path class="st57" d="M557.1 292.8l-96.7 133.8"/><path class="st58" d="M562.9 296.6l-95 132.6"/><path class="st59" d="M568.6 300.4l-93.2 131.5"/><path class="st60" d="M574.3 304.2l-91.4 130.3"/><path class="st61" d="M580.1 308l-89.6 129.1"/><path class="st62" d="M80.6 377.3L53.2 502.4"/><path class="st63" d="M88.7 377L61.1 503.5"/><path class="st64" d="M96.8 376.7L69 504.6"/><path class="st65" d="M104.9 376.4l-28 129.3"/><path class="st66" d="M112.9 376.2L84.8 506.8"/><path class="st67" d="M121 375.9L92.7 507.8"/><path class="st68" d="M129.1 375.6l-28.5 133.3"/><path class="st69" d="M137.2 375.3L108.6 510"/><path class="st70" d="M145.2 375l-28.7 136.1"/><path class="st71" d="M153.3 374.7l-28.9 137.5"/><path class="st72" d="M161.4 374.5l-29.1 138.8"/><path class="st73" d="M169.5 374.2l-29.3 140.2"/><path class="st74" d="M177.5 373.9l-29.4 141.6"/><path class="st75" d="M185.6 373.6l-29.6 143"/><path class="st76" d="M193.7 373.3l-29.8 144.4"/><path class="st77" d="M201.8 373.1l-29.9 145.7"/><path class="st78" d="M209.9 372.8l-30.1 147.1"/><path class="st79" d="M217.9 372.5L187.7 521"/><path class="st80" d="M226 372.2L195.6 522"/><path class="st81" d="M234.1 371.9l-30.6 151.2"/><path class="st82" d="M242.2 371.6l-30.8 152.6"/><path class="st83" d="M250.2 371.4l-30.9 153.9"/><path class="st84" d="M258.3 371.1l-31.1 155.3"/><path class="st85" d="M266.4 370.8l-31.2 156.7"/><path class="st86" d="M274.5 370.5l-31.4 158.1"/><path class="st87" d="M282.5 370.2L251 529.7"/><path class="st88" d="M290.6 370l-31.7 160.8"/><path class="st89" d="M298.7 369.7l-31.9 162.2"/><path class="st90" d="M306.8 369.4L274.7 533"/><path class="st91" d="M314.8 369.1l-32.2 165"/><path class="st92" d="M322.9 368.8l-32.4 166.4"/><path class="st93" d="M331 368.5l-32.5 167.8"/><path class="st94" d="M339.1 368.3l-32.7 169"/><path class="st95" d="M347.2 368l-32.9 170.4"/><path class="st96" d="M355.2 367.7l-33 171.8"/><path class="st97" d="M363.3 367.4l-33.2 173.2"/><path class="st98" d="M371.4 367.1L338 541.7"/><path class="st99" d="M379.5 366.9l-33.6 175.9"/><path class="st100" d="M387.5 366.6l-33.7 177.3"/><path class="st101" d="M395.6 366.3L361.8 545"/><path class="st102" d="M403.7 366l-34 180.1"/><path class="st103" d="M411.8 365.7l-34.2 181.5"/><path class="st104" d="M419.8 365.4l-34.3 182.9"/><path class="st105" d="M427.9 365.2l-34.5 184.2"/><path class="st106" d="M436 364.9l-34.7 185.6"/><path class="st107" d="M444.1 364.6l-34.9 187"/><path class="st108" d="M452.2 364.3l-35.1 188.3"/><path class="st109" d="M460.2 364l-35.1 189.7"/><path class="st110" d="M468.3 363.8l-35.3 191"/><path class="st111" d="M476.4 363.5l-35.5 192.4"/><path class="st112" d="M484.5 363.2L448.8 557"/><path class="st113" d="M492.5 362.9l-35.8 195.2"/><path class="st114" d="M500.6 362.6l-36 196.6"/><path class="st115" d="M508.7 362.3l-36.2 198"/><path class="st116" d="M516.8 362.1l-36.4 199.3"/><path class="st117" d="M524.8 361.8l-36.4 200.7"/><path class="st118" d="M532.9 361.5l-36.6 202.1"/><path class="st119" d="M541 361.2l-36.8 203.5"/><path class="st120" d="M549.1 360.9l-37 204.9"/><path class="st121" d="M557.1 360.7L520 566.8"/><path class="st122" d="M565.2 360.4l-37.3 207.5"/><path class="st123" d="M573.3 360.1L535.8 569"/><path class="st124" d="M191.8 203.6L92.3 574m101.8-369.4L95.7 573.1m100.6-367.5L99 572.2m99.6-365.6l-96.2 364.6m98.5-363.6l-95.2 362.7m97.4-361.7l-94 360.8m96.3-359.8l-93 358.9m95.3-357.9l-91.9 356.9m94.1-355.8l-90.8 354.9m93.1-353.9l-89.7 353m91.9-352l-88.6 351.1m90.9-350.1l-87.5 349.1M219 215.7l-86.5 347.2m88.7-346.2L135.9 562m87.6-344.3L139.2 561m86.6-342.3l-83.2 341.4M228 219.7l-82.1 339.5m84.4-338.5l-81 337.6m83.2-336.6l-79.9 335.6m82.2-334.6L156 556.4m81.1-332.7l-77.8 331.8m80-330.8l-76.6 329.8m78.9-328.8L166 553.6m77.9-326.9l-74.5 326m76.7-325l-73.4 324.1m75.7-323l-72.3 322m74.5-321l-71.2 320.1m73.5-319.1L182.8 549m72.4-317.2l-69.1 316.3m71.3-315.3l-67.9 314.3m70.2-313.3l-66.9 312.4M262 234.8l-65.8 310.5m68-309.5l-64.7 308.5m67-307.5l-63.6 306.6m65.8-305.6l-62.5 304.7M271 238.8l-61.4 302.8m63.7-301.8l-60.4 300.8m62.6-299.8l-59.2 298.9m61.5-297.9l-58.2 297m60.5-296L223 537.9m59.3-294.1l-56 293.1m58.3-292.1L229.7 536m57.1-290.1L233 535.1m56.1-288.2l-52.7 287.2m55-286.2l-51.7 285.3m53.9-284.3l-50.5 283.4m52.8-282.4l-49.5 281.5m51.8-280.5l-48.4 279.5m50.6-278.5l-47.3 277.6m49.6-276.6l-46.2 275.7m48.4-274.7l-45.1 273.7m47.4-272.7l-44 271.8m46.3-270.8l-43 269.9m45.2-268.9l-41.8 268m44.1-267l-40.8 266m43.1-265L276.6 523m41.9-263.1l-38.6 262.2m40.9-261.2l-37.5 260.3M323 261.9l-36.4 258.3m38.7-257.3L290 519.3M327.6 264l-34.3 254.4M329.8 265l-33.1 252.4M332.1 266L300 516.5M334.4 267l-31 248.6M336.6 268l-29.9 246.7M338.9 269l-28.8 244.7m31-243.7l-27.7 242.8m30-241.8l-26.6 240.9M345.7 272l-25.6 238.9M347.9 273l-24.4 237m26.7-236l-23.4 235.1M352.5 275l-22.3 233.2M354.7 276l-21.2 231.2M357 277l-20.1 229.3M359.2 278l-19 227.4M361.5 279l-17.9 225.5M363.8 280l-16.9 223.5M366 281.1l-15.7 221.5m18-220.5l-14.7 219.6m17-218.6L357 500.7m15.8-216.6l-12.5 215.7m14.8-214.7l-11.4 213.8m13.6-212.8L367 498m12.6-210.9L370.4 497m11.5-208.9l-8.2 208m10.4-207l-7 206.1m9.3-205.1l-6 204.1m8.3-203.1l-4.9 202.2m7.1-201.2l-3.8 200.3m6.1-199.3l-2.7 198.4m4.9-197.4l-1.6 196.4m3.9-195.4l-.5 194.5m2.8-193.5l.5 192.6m1.7-191.6l1.7 190.7m.6-189.6l2.7 188.6m-.4-187.6l3.8 186.7M409 300.2l4.9 184.8m-2.6-183.8l6 182.8m-3.8-181.8l7.1 180.9m-4.8-179.9l8.2 179m-5.9-178l9.2 177.1m-7-176.1l10.4 175.1m-8.1-174.1L434 479.4m-9.1-172.2l12.5 171.3m-10.3-170.3l13.6 169.3m-11.3-168.3l14.7 167.4m-12.5-166.4l15.8 165.5m-13.5-164.5l16.9 163.6m-14.6-162.6l17.9 161.6m-15.7-160.6l19.1 159.7m-16.8-158.7L460.8 472M443 315.3l21.2 155.8"/><path class="st125" d="M450.8 204.1l106.1-11.7c6.1-.7 10.5-6.2 9.8-12.3l-10.3-93.4c-.7-6.1-6.2-10.5-12.3-9.8l-106 11.7c-6.1.7-10.5 6.2-9.8 12.3l10.3 93.4c.6 6.1 6.1 10.5 12.2 9.8z"/><path class="st126" d="M100.1 298.3c3 3.8 3.6 8.3 2.9 13-.4 2.6 0 5 1.3 7.2.5.8.4 1.5-.2 2.2l-8.4 10.2c-.5.6-1.2 1.1-2 .5-.8-.6-.4-1.4.2-2 2.5-2.9 4.9-5.9 7.4-8.7.7-.8.8-1.3.3-2.4-1.2-2.4-1.4-5-.9-7.7 1.7-9.8-6.1-18.3-16-17.1-10.8 1.3-15.9 13.2-10.3 21.9 2.5 4 6.1 6.2 10.8 6.9 3.3.5 6.1 2.2 8.5 4.6.6.6 1 1.3.3 2s-1.4.2-1.9-.4c-2.5-2.7-5.7-3.7-9.1-4.4-12.1-2.5-17.3-17.6-9.3-27 8.5-10 21.6-6.1 26.4 1.2z"/><path class="st126" d="M92.7 313c-.7.9-.3 2-1.2 2.6-.9.6-1.6-.4-2.7-.1 1.5 1.2 3 2.3 4.2 3.6.9 1 1.8 2 2.6 3 .5.6.8 1.4 0 2-.9.7-1.4 0-1.9-.7-2.1-2.8-4.6-5.1-7.7-6.9-1.3-.8-1.3-1.6 0-2.5.9-.6 1.9-1.1 3-1.1.7 0 1.1-.2 1.3-.9.3-.9.8-1.6 1.5-2.2 1.2-1.1 2.2-.9 2.6.7.6 2 1.2 3.9 2.1 5.8.6 1.3 1.3 2.5 2.2 3.6.4.6.9 1.2.1 1.8-.8.6-1.4.1-1.9-.5-1.9-2.3-3.2-5.1-4.2-8.2zm8.1 26.1c-.6.3-1.1.4-1.6-.1-.6-.7-.2-1.2.2-1.7 2.3-2.8 4.6-5.5 6.9-8.3.6-.7 1.2-1.5 1.8-2.2.5-.6 1.1-.9 1.8-.3.6.5.5 1.2.1 1.7-3 3.6-6 7.2-9 10.7l-.2.2zm-2.7-4c-.6.4-1.1.6-1.6.1s-.5-1.1-.1-1.6c2.9-3.5 5.9-7 8.8-10.6.5-.6 1.1-1.1 1.9-.4.7.6.3 1.3-.2 1.9-2.8 3.4-5.6 6.8-8.5 10.2-.1.2-.2.3-.3.4zm18.1-25.6c-.6.4-1.1.4-1.6.4-2.2-.2-4.4-.3-6.7-.5-.8-.1-1.7-.3-1.6-1.4.1-1.1 1-1 1.8-1 2.2.1 4.4.3 6.7.5.5 0 1 .1 1.3.4.7.5.7 1.1.1 1.6zm-8.2 28.6c-1 .8-2.3 1.1-3.8 1.1-.7 0-1.4-.2-1.5-1.1-.1-.8.6-1.1 1.3-1.2 2.5-.2 4.1-1.5 4.9-3.8.2-.6.7-1 1.4-.8.8.2.9.9.7 1.6-.6 1.6-1.4 3-3 4.2zm-27.6-10.3c.4.5.4 1 .2 1.6-.5 2.1-1 4.2-1.5 6.2-.2.8-.6 1.4-1.5 1.2-1-.2-1-1-.8-1.8.5-2.2 1.1-4.4 1.6-6.6.1-.5.4-1 1-1.1.5 0 .8.1 1 .5zm24.9-35c-.9.6-1.7 1.3-2.6 1.9-.6.5-1.4.7-1.9-.1-.5-.7-.1-1.4.5-1.9 1.7-1.3 3.5-2.6 5.3-3.9.6-.5 1.4-.5 1.8.1.5.7.1 1.3-.5 1.8-.8.8-1.7 1.4-2.6 2.1zM66 321.5c-.8.6-1.6 1.2-2.5 1.8-.6.4-1.2.5-1.7-.2-.5-.6-.3-1.3.3-1.7 1.7-1.3 3.5-2.6 5.3-3.9.6-.4 1.3-.4 1.7.2.4.5.2 1.2-.3 1.6-.9.8-1.9 1.5-2.8 2.2zm25.9-40.9c.3.4.3.8.2 1.2-.5 2-.9 4.1-1.5 6.1-.2.7-.6 1.3-1.4 1.1-.9-.2-.9-.9-.8-1.6.4-2 .9-4.1 1.4-6.1.1-.6.4-1 1.1-1.1.4-.1.7 0 1 .4zm-20.3 9c-.6-.8-1.2-1.6-1.8-2.5-.4-.6-.5-1.2.1-1.7s1.3-.2 1.7.3c1.3 1.7 2.5 3.4 3.7 5.1.4.6.4 1.3-.2 1.7-.6.4-1.2.1-1.6-.3-.6-.9-1.2-1.7-1.9-2.6zM67 304.5c.5.7 0 1.6-1 1.7-1.1.1-2.1-.1-3.2-.1-1-.1-2.1-.1-3.1-.3-.7-.1-1.4-.4-1.3-1.3.1-.9.7-1.1 1.5-1 2 .2 4 .3 6 .5.4 0 .8.1 1.1.5z"/><path class="st127" d="M430.5 330.6l-11.6-8.3c-.3-.2-.3-.5-.1-.8l3.7-5.1c.2-.3.5-.3.8-.1l11.6 8.3c.3.2.3.5.1.8l-3.7 5.1c-.2.2-.6.3-.8.1zm-213.6 84.9l-11.6-8.3c-.3-.2-.3-.5-.1-.8l3.7-5.1c.2-.3.5-.3.8-.1l11.6 8.3c.3.2.3.5.1.8l-3.7 5.1c-.2.3-.6.3-.8.1zM233 256.2l-13.4 5c-.3.1-.6 0-.7-.3l-2.2-5.9c-.1-.3 0-.6.3-.7l13.4-5c.3-.1.6 0 .7.3l2.2 5.9c.2.2 0 .5-.3.7zm72.5 183.6l-13.4 5c-.3.1-.6 0-.7-.3l-2.2-5.9c-.1-.3 0-.6.3-.7l13.4-5c.3-.1.6 0 .7.3l2.2 5.9c.1.3 0 .6-.3.7zm30.8-176l-10.1-10.1c-.2-.2-.2-.6 0-.8l4.5-4.5c.2-.2.6-.2.8 0l10.1 10.1c.2.2.2.6 0 .8l-4.5 4.5c-.2.2-.6.2-.8 0z"/><path class="st126" d="M497.8 452.7c.8.4 1.6.8 2.3 1.2l3.9 2.4c1.3.9 2.5 1.8 3.7 2.8 2.4 1.9 4.6 4 6.6 6.3.9 1 1.7 2.1 2.6 3.1.1.1.1.1.2.1 2.1.1 4.2.4 6.3.8 2.1.4 4.1.9 6.1 1.5 1.6.5 3.2 1 4.8 1.6 2.3.9 4.4 1.9 6.6 3.1 0 0 .1 0 .1.1-7.1 13.3-14.2 26.5-21.3 39.8-.1 0-.1-.1-.2-.1-1.4-.7-2.7-1.4-4.1-2-1.6-.8-3.3-1.4-5-1.9-2.6-.9-5.3-1.5-8-2-2.2-.4-4.4-.7-6.6-.8-.1 0-.2-.1-.3-.1-1.8-2.5-3.9-4.7-6.1-6.8-1.3-1.3-2.7-2.5-4.2-3.6-1.3-1-2.5-1.9-3.9-2.8-1.5-1-3.1-1.9-4.8-2.8 0 0-.1 0-.1-.1 7.2-13.3 14.3-26.6 21.4-39.8zm-1.7 52.4c0-.1.1-.2.1-.2 6.1-11.5 12.3-23 18.4-34.5.2-.3.2-.3-.1-.6-1.7-2.1-3.5-4-5.5-5.8-1.5-1.4-3-2.7-4.7-3.9-1.4-1.1-2.9-2.1-4.4-3-.4-.2-.8-.4-1.2-.7-6.3 11.7-12.5 23.4-18.8 35.2 6.3 3.4 11.7 7.9 16.2 13.5zm2.3 1.2c7.1.7 13.9 2.7 20.2 5.8 6.3-11.8 12.6-23.5 18.8-35.2-.2-.1-.3-.2-.5-.2-1.1-.5-2.2-1-3.3-1.4-1.4-.5-2.7-1.1-4.1-1.5-1.6-.5-3.3-.9-4.9-1.3-2.4-.6-4.9-.9-7.3-1.2-.2 0-.3 0-.3.2-6.2 11.6-12.3 23.1-18.5 34.7 0-.1-.1 0-.1.1z"/><path class="st126" d="M490.2 455.9c.8.4 1.5.8 2.3 1.2-6.5 12.1-13 24.3-19.5 36.5l.6.3c1.8 1 3.7 2.2 5.4 3.3 1.7 1.2 3.4 2.4 5 3.6 2.4 1.8 4.6 3.8 6.7 5.9 1.3 1.3 2.5 2.6 3.7 3.9 0 .1.1.1.2.1 3.3.4 6.5 1.1 9.7 2 1.7.5 3.5 1 5.2 1.6 1.5.5 3.1 1.1 4.6 1.7 2.2.9 4.4 1.9 6.5 3 0 0 .1 0 .1.1 6.5-12.1 13-24.3 19.5-36.4.8.4 1.5.8 2.3 1.2-6.9 12.9-13.8 25.7-20.7 38.6-.1 0-.1-.1-.2-.1-1.7-.8-3.3-1.7-5-2.5-1.8-.8-3.6-1.6-5.4-2.3-2.8-1.1-5.7-2-8.7-2.8-2.7-.7-5.4-1.2-8.2-1.5-.3 0-.7-.1-1-.1-.1 0-.2-.1-.2-.1-1.9-2.4-4-4.5-6.3-6.5-1.2-1.1-2.5-2.2-3.8-3.2-1.5-1.2-3-2.3-4.6-3.4-2.8-2-5.8-3.7-8.9-5.3 0 0-.1 0-.1-.1 7.1-12.9 14-25.8 20.8-38.7z"/><path class="st128" d="M496.1 505.1c-4.5-5.5-9.9-10-16.1-13.6 6.3-11.7 12.6-23.5 18.8-35.2.4.2.8.4 1.2.7 1.5.9 3 1.9 4.4 3 1.6 1.2 3.2 2.5 4.7 3.9 2 1.8 3.8 3.8 5.5 5.8.2.3.2.3.1.6-6.1 11.5-12.3 23-18.4 34.5-.1.1-.1.2-.2.3zm2.3 1.2c0-.1.1-.1.1-.2 6.2-11.6 12.4-23.1 18.5-34.7.1-.2.2-.2.3-.2 2.5.2 4.9.6 7.3 1.2 1.6.4 3.3.8 4.9 1.3 1.4.4 2.8 1 4.1 1.5 1.1.4 2.2 1 3.3 1.4.2.1.3.2.5.2-6.3 11.7-12.5 23.5-18.8 35.2-6.4-3-13.1-5-20.2-5.7z"/><path d="M324.1 484.2l1.6-1.9 1.6 1.3-1.6 1.9-1.6-1.3zm3.5-3.9c.7-.8 1.3-1.5 2-2 .7-.6 1.5-.9 2.6-1 .6-.1 1.2-.1 1.8-.1.6 0 1.2-.1 1.8-.2.6-.1 1.1-.2 1.6-.4s.9-.5 1.2-.9c.3-.4.6-.8.7-1.3.1-.5.2-1 .1-1.4-.1-.5-.3-1-.6-1.5s-.7-1-1.3-1.4c-.5-.5-1.1-.8-1.7-.9-.6-.2-1.2-.2-1.7-.1-.6.1-1.1.3-1.6.6s-1 .7-1.4 1.3l-1.3-1.1c.5-.8 1.2-1.4 1.9-1.8.7-.4 1.5-.7 2.3-.7.8-.1 1.6 0 2.4.3.8.3 1.5.7 2.3 1.3.7.6 1.3 1.3 1.7 2 .4.7.7 1.4.8 2.1.1.7.1 1.4-.1 2.1-.2.7-.6 1.3-1.1 1.9-.5.6-1.1 1.1-1.8 1.3-.7.2-1.4.4-2.1.4-.7.1-1.5.1-2.3.1-.8 0-1.5.2-2.3.4-.6.2-1 .5-1.5.9-.4.4-.8.9-1.2 1.3l-1.2-1.2zM444 223.1l1.6-1.9 1.6 1.3-1.6 1.9-1.6-1.3zm3.5-3.9c.7-.8 1.3-1.5 2-2 .7-.6 1.5-.9 2.6-1 .6-.1 1.2-.1 1.8-.1.6 0 1.2-.1 1.8-.2.6-.1 1.1-.2 1.6-.4s.9-.5 1.2-.9c.3-.4.6-.8.7-1.3.1-.5.2-1 .1-1.4-.1-.5-.3-1-.6-1.5s-.7-1-1.3-1.4c-.5-.5-1.1-.8-1.7-.9-.6-.2-1.2-.2-1.7-.1-.6.1-1.1.3-1.6.6s-1 .7-1.4 1.3l-1.3-1.1c.5-.8 1.2-1.4 1.9-1.8.7-.4 1.5-.7 2.3-.7.8-.1 1.6 0 2.4.3.8.3 1.5.7 2.3 1.3.7.6 1.3 1.3 1.7 2 .4.7.7 1.4.8 2.1.1.7.1 1.4-.1 2.1-.2.7-.6 1.3-1.1 1.9-.5.6-1.1 1.1-1.8 1.3-.7.2-1.4.4-2.1.4-.7.1-1.5.1-2.3.1-.8 0-1.5.2-2.3.4-.6.2-1 .5-1.5.9-.4.4-.8.9-1.2 1.3l-1.2-1.2zm-95.3 17.3l-1.5-2 1.6-1.3 1.5 2-1.6 1.3zm-3-4.2c-.7-.8-1.2-1.6-1.6-2.4-.4-.8-.6-1.7-.5-2.8.1-.6.1-1.2.2-1.8.1-.6.2-1.2.2-1.8 0-.6 0-1.1-.1-1.6s-.3-1-.6-1.4c-.3-.4-.7-.7-1.1-.9-.4-.2-.9-.4-1.4-.4-.5 0-1 .1-1.6.3-.6.2-1.1.5-1.7.9-.6.4-1 .9-1.2 1.5-.3.5-.4 1.1-.5 1.7 0 .6.1 1.1.3 1.7.2.6.5 1.1 1 1.6l-1.3 1.1c-.6-.7-1.1-1.4-1.4-2.2-.3-.8-.3-1.6-.2-2.4.1-.8.3-1.5.8-2.3.4-.7 1-1.4 1.7-1.9.8-.6 1.5-1 2.3-1.3.8-.3 1.5-.4 2.2-.4.7 0 1.4.2 2 .6.6.3 1.2.8 1.7 1.5s.8 1.3.9 2c.1.7.1 1.4 0 2.1-.1.7-.2 1.5-.3 2.2-.1.8-.1 1.5-.1 2.3.1.6.2 1.1.6 1.6.3.5.7 1 1 1.4l-1.3 1.1z"/><text transform="rotate(3.486 -2214.007 7413.449) scale(.99995)" class="st129 st130">ОБО ВСЕМ</text><path class="st127" d="M358.7 386.1l3.9 17.7 16.7-5.2 4.8 18.3 15-6.4 2.5 17.9 15.7-6.5 2.5 18 17.2-6.8 2.6 18.7 16.4-6.7 2.8 19.4 17-7.5 3.3 18.5M349.8 284.3l17.5-4.8-6-16.4 18.1-5.6-7.1-14.7 17.8-3.3-7.2-15.4 17.8-3.3-7.5-16.9 18.5-3.4-7.4-16.2 19.2-3.6-8.2-16.7 18.3-4.1m-318 192.8l15.5 9.3 7.7-15.7 16.5 9.1 5.7-15.3 14.8 10.6 6.1-15.9 14.7 10.5 6.9-17.1 15.3 10.9 6.5-16.5 16 11.3 8.5-17.5"/><path class="st128" d="M246.6 285v107.4h41.9s14.3-1.5 16.4 5.6c0 0 12.2 7 15.9 1 1.5-2.6 1.5-6.6 9.7-6.6h49.6V285h-51.6s-14.3 1.5-13.3 15.3c0 0 .5-13.8-16.9-15.3h-51.7z"/><path class="st128" d="M313.3 404.6c4.9 0 8.9-4 8.9-8.9v-86.9c0-4.9-4-8.9-8.9-8.9s-8.9 4-8.9 8.9v86.9c0 4.9 4 8.9 8.9 8.9z"/><path class="st131" d="M256.8 337.8h47.9-47.9zm66.8-14.2h47.9-47.9zm-42.7 0h23.8-23.8zm42.7 13.6h47.9-47.9zm-65.7-28.1h15.3v16.4h-15.3zm97.1 40h15.3v16.4H355z"/></svg>