<svg id="Layer_1" xmlns="http://www.w3.org/2000/svg" viewBox="0 0 647 658"><style>.st0{opacity:.28;fill:none;stroke:#42ff00;stroke-width:1.6598;stroke-miterlimit:10}.st1{opacity:.2889}.st1,.st10,.st11,.st12,.st13,.st2,.st3,.st4,.st5,.st6,.st7,.st8,.st9{fill:none;stroke:#42ff00;stroke-width:1.6598;stroke-miterlimit:10}.st2{opacity:.2978}.st3{opacity:.3067}.st4{opacity:.3156}.st5{opacity:.3244}.st6{opacity:.3333}.st7{opacity:.3422}.st8{opacity:.3511}.st9{opacity:.36}.st10{opacity:.3689}.st11{opacity:.3778}.st12{opacity:.3867}.st13{opacity:.3956}.st14{opacity:.4044}.st14,.st15,.st16,.st17,.st18,.st19,.st20,.st21,.st22,.st23,.st24{fill:none;stroke:#42ff00;stroke-width:1.6598;stroke-miterlimit:10}.st15{opacity:.4133}.st16{opacity:.4222}.st17{opacity:.4311}.st18{opacity:.44}.st19{opacity:.4489}.st20{opacity:.4578}.st21{opacity:.4667}.st22{opacity:.4756}.st23{opacity:.4844}.st24{opacity:.4933}.st25{opacity:.5022}.st25,.st26,.st27,.st28,.st29,.st30,.st31,.st32,.st33,.st34,.st35{fill:none;stroke:#42ff00;stroke-width:1.6598;stroke-miterlimit:10}.st26{opacity:.5111}.st27{opacity:.52}.st28{opacity:.5289}.st29{opacity:.5378}.st30{opacity:.5467}.st31{opacity:.5556}.st32{opacity:.5644}.st33{opacity:.5733}.st34{opacity:.5822}.st35{opacity:.5911}.st36{opacity:.6}.st36,.st37,.st38,.st39,.st40,.st41,.st42,.st43,.st44,.st45,.st46{fill:none;stroke:#42ff00;stroke-width:1.6598;stroke-miterlimit:10}.st37{opacity:.6089}.st38{opacity:.6178}.st39{opacity:.6267}.st40{opacity:.6356}.st41{opacity:.6444}.st42{opacity:.6533}.st43{opacity:.6622}.st44{opacity:.6711}.st45{opacity:.68}.st46{opacity:.6889}.st47{opacity:.6978}.st47,.st48,.st49,.st50,.st51,.st52,.st53,.st54,.st55,.st56,.st57{fill:none;stroke:#42ff00;stroke-width:1.6598;stroke-miterlimit:10}.st48{opacity:.7067}.st49{opacity:.7156}.st50{opacity:.7244}.st51{opacity:.7333}.st52{opacity:.7422}.st53{opacity:.7511}.st54{opacity:.76}.st55{opacity:.7689}.st56{opacity:.7778}.st57{opacity:.7867}.st58{opacity:.7956}.st58,.st59,.st60,.st61,.st62,.st63,.st64,.st65,.st66,.st67,.st68{fill:none;stroke:#42ff00;stroke-width:1.6598;stroke-miterlimit:10}.st59{opacity:.8044}.st60{opacity:.8133}.st61{opacity:.8222}.st62{opacity:.8311}.st63{opacity:.84}.st64{opacity:.8489}.st65{opacity:.8578}.st66{opacity:.8667}.st67{opacity:.8756}.st68{opacity:.8844}.st69{opacity:.8933}.st69,.st70,.st71,.st72,.st73,.st74,.st75,.st76,.st77,.st78,.st79{fill:none;stroke:#42ff00;stroke-width:1.6598;stroke-miterlimit:10}.st70{opacity:.9022}.st71{opacity:.9111}.st72{opacity:.92}.st73{opacity:.9289}.st74{opacity:.9378}.st75{opacity:.9467}.st76{opacity:.9556}.st77{opacity:.9644}.st78{opacity:.9733}.st79{opacity:.9822}.st80{opacity:.9911}.st80,.st81{fill:none;stroke:#42ff00;stroke-width:1.6598;stroke-miterlimit:10}.st82,.st83{stroke:#00ff48;stroke-width:1.352}.st82{fill:none;stroke-miterlimit:10}.st83{opacity:.9882}.st83,.st84,.st85{fill:none;stroke-miterlimit:10}.st84{stroke:#00ff48;stroke-width:1.352;opacity:.9764}.st85{opacity:.9646}.st85,.st86,.st87{stroke:#00ff48;stroke-width:1.352}.st86{fill:none;stroke-miterlimit:10;opacity:.9528}.st87{opacity:.941}.st87,.st88,.st89{fill:none;stroke-miterlimit:10}.st88{stroke:#00ff48;stroke-width:1.352;opacity:.9292}.st89{opacity:.9174}.st89,.st90,.st91{stroke:#00ff48;stroke-width:1.352}.st90{fill:none;stroke-miterlimit:10;opacity:.9056}.st91{opacity:.8938}.st91,.st92,.st93{fill:none;stroke-miterlimit:10}.st92{stroke:#00ff48;stroke-width:1.352;opacity:.882}.st93{opacity:.8702}.st93,.st94,.st95{stroke:#00ff48;stroke-width:1.352}.st94{fill:none;stroke-miterlimit:10;opacity:.8584}.st95{opacity:.8466}.st95,.st96,.st97{fill:none;stroke-miterlimit:10}.st96{stroke:#00ff48;stroke-width:1.352;opacity:.8348}.st97{opacity:.823}.st97,.st98,.st99{stroke:#00ff48;stroke-width:1.352}.st98{fill:none;stroke-miterlimit:10;opacity:.8111}.st99{opacity:.7993}.st100,.st101,.st99{fill:none;stroke-miterlimit:10}.st100{stroke:#00ff48;stroke-width:1.352;opacity:.7875}.st101{opacity:.7757}.st101,.st102,.st103{stroke:#00ff48;stroke-width:1.352}.st102{fill:none;stroke-miterlimit:10;opacity:.7639}.st103{opacity:.7521}.st103,.st104,.st105{fill:none;stroke-miterlimit:10}.st104{stroke:#00ff48;stroke-width:1.352;opacity:.7403}.st105{opacity:.7285}.st105,.st106,.st107{stroke:#00ff48;stroke-width:1.352}.st106{fill:none;stroke-miterlimit:10;opacity:.7167}.st107{opacity:.7049}.st107,.st108,.st109{fill:none;stroke-miterlimit:10}.st108{stroke:#00ff48;stroke-width:1.352;opacity:.6931}.st109{opacity:.6813}.st109,.st110,.st111{stroke:#00ff48;stroke-width:1.352}.st110{fill:none;stroke-miterlimit:10;opacity:.6695}.st111{opacity:.6577}.st111,.st112,.st113{fill:none;stroke-miterlimit:10}.st112{stroke:#00ff48;stroke-width:1.352;opacity:.6459}.st113{opacity:.6341}.st113,.st114,.st115{stroke:#00ff48;stroke-width:1.352}.st114{fill:none;stroke-miterlimit:10;opacity:.6223}.st115{opacity:.6105}.st115,.st116,.st117{fill:none;stroke-miterlimit:10}.st116{stroke:#00ff48;stroke-width:1.352;opacity:.5987}.st117{opacity:.5869}.st117,.st118,.st119{stroke:#00ff48;stroke-width:1.352}.st118{fill:none;stroke-miterlimit:10;opacity:.5751}.st119{opacity:.5633}.st119,.st120,.st121{fill:none;stroke-miterlimit:10}.st120{stroke:#00ff48;stroke-width:1.352;opacity:.5515}.st121{opacity:.5397}.st121,.st122,.st123{stroke:#00ff48;stroke-width:1.352}.st122{fill:none;stroke-miterlimit:10;opacity:.5279}.st123{opacity:.5161}.st123,.st124,.st125{fill:none;stroke-miterlimit:10}.st124{stroke:#00ff48;stroke-width:1.352;opacity:.5043}.st125{opacity:.4925}.st125,.st126,.st127{stroke:#00ff48;stroke-width:1.352}.st126{fill:none;stroke-miterlimit:10;opacity:.4807}.st127{opacity:.4689}.st127,.st128,.st129{fill:none;stroke-miterlimit:10}.st128{stroke:#00ff48;stroke-width:1.352;opacity:.457}.st129{opacity:.4452}.st129,.st130,.st131{stroke:#00ff48;stroke-width:1.352}.st130{fill:none;stroke-miterlimit:10;opacity:.4334}.st131{opacity:.4216}.st131,.st132,.st133{fill:none;stroke-miterlimit:10}.st132{stroke:#00ff48;stroke-width:1.352;opacity:.4098}.st133{opacity:.398}.st133,.st134,.st135{stroke:#00ff48;stroke-width:1.352}.st134{fill:none;stroke-miterlimit:10;opacity:.3862}.st135{opacity:.3744}.st135,.st136,.st137{fill:none;stroke-miterlimit:10}.st136{stroke:#00ff48;stroke-width:1.352;opacity:.3626}.st137{opacity:.3508}.st137,.st138,.st139{stroke:#00ff48;stroke-width:1.352}.st138{fill:none;stroke-miterlimit:10;opacity:.339}.st139{opacity:.3272}.st139,.st140,.st141{fill:none;stroke-miterlimit:10}.st140{stroke:#00ff48;stroke-width:1.352;opacity:.3154}.st141{opacity:.3036}.st141,.st142,.st143{stroke:#00ff48;stroke-width:1.352}.st142{fill:none;stroke-miterlimit:10;opacity:.2918}.st143{opacity:.28}.st143,.st144,.st145,.st146{fill:none;stroke-miterlimit:10}.st144{opacity:.28;stroke:#008300;stroke-width:1.6598}.st145,.st146{stroke:#72b55f;stroke-width:2.4985}.st146{stroke-width:2.2817}.st147{font-family:&apos;Plumb-Light&apos;}.st148{font-size:21.1445px}.st149{fill:none;stroke:#72b55f;stroke-miterlimit:10}.st149,.st150{stroke-width:1.2492}.st150,.st151,.st152{fill:none;stroke-miterlimit:10}.st150,.st151{stroke:#000}.st151{stroke-width:1.6598}.st152{stroke:#72b55f;stroke-width:1.1327}.st153,.st154{fill:#fff}.st154{stroke:#72b55f;stroke-width:2.19;stroke-miterlimit:10}.st155{fill:#72b55f}</style><path class="st0" d="M159 153.7L69.4 282.8"/><path class="st1" d="M164.2 156.8L74.6 286"/><path class="st2" d="M169.5 159.9L79.8 289.1"/><path class="st3" d="M174.7 163L85 292.2"/><path class="st4" d="M179.9 166.1L90.3 295.3"/><path class="st5" d="M185.1 169.3L95.5 298.4"/><path class="st6" d="M190.3 172.4l-89.6 129.2"/><path class="st7" d="M195.6 175.5l-89.7 129.2"/><path class="st8" d="M200.8 178.6l-89.7 129.2"/><path class="st9" d="M206 181.7l-89.6 129.2"/><path class="st10" d="M211.2 184.8L121.6 314"/><path class="st11" d="M216.4 188l-89.6 129.2"/><path class="st12" d="M221.7 191.1L132 320.3"/><path class="st13" d="M226.9 194.2l-89.7 129.2"/><path class="st14" d="M232.1 197.3l-89.6 129.2"/><path class="st15" d="M237.3 200.4l-89.6 129.2"/><path class="st16" d="M242.5 203.6l-89.6 129.1"/><path class="st17" d="M247.8 206.7l-89.7 129.2"/><path class="st18" d="M253 209.8L163.3 339"/><path class="st19" d="M258.2 212.9l-89.6 129.2"/><path class="st20" d="M263.4 216l-89.6 129.2"/><path class="st21" d="M268.6 219.1L179 348.3"/><path class="st22" d="M273.9 222.3l-89.7 129.2"/><path class="st23" d="M279.1 225.4l-89.7 129.2"/><path class="st24" d="M284.3 228.5l-89.6 129.2"/><path class="st25" d="M289.5 231.6l-89.6 129.2"/><path class="st26" d="M294.7 234.7l-89.6 129.2"/><path class="st27" d="M300 237.9L210.3 367"/><path class="st28" d="M305.2 241l-89.7 129.2"/><path class="st29" d="M310.4 244.1l-89.6 129.2"/><path class="st30" d="M315.6 247.2L226 376.4"/><path class="st31" d="M320.8 250.3l-89.6 129.2"/><path class="st32" d="M326.1 253.5l-89.7 129.1"/><path class="st33" d="M331.3 256.6l-89.7 129.2"/><path class="st34" d="M336.5 259.7l-89.6 129.2"/><path class="st35" d="M341.7 262.8L252.1 392"/><path class="st36" d="M346.9 265.9l-89.6 129.2"/><path class="st37" d="M352.2 269l-89.7 129.2"/><path class="st38" d="M357.4 272.2l-89.7 129.2"/><path class="st39" d="M362.6 275.3L273 404.5"/><path class="st40" d="M367.8 278.4l-89.6 129.2"/><path class="st41" d="M373 281.5l-89.6 129.2"/><path class="st42" d="M378.2 284.6l-89.6 129.2"/><path class="st43" d="M383.5 287.8l-89.7 129.1"/><path class="st44" d="M388.7 290.9l-89.6 129.2"/><path class="st45" d="M393.9 294l-89.6 129.2"/><path class="st46" d="M399.1 297.1l-89.6 129.2"/><path class="st47" d="M404.3 300.2l-89.6 129.2"/><path class="st48" d="M409.6 303.4l-89.7 129.1"/><path class="st49" d="M414.8 306.5l-89.6 129.2"/><path class="st50" d="M420 309.6l-89.6 129.2"/><path class="st51" d="M425.2 312.7l-89.6 129.2"/><path class="st52" d="M430.4 315.8L340.8 445"/><path class="st53" d="M435.7 318.9L346 448.1"/><path class="st54" d="M440.9 322.1l-89.6 129.2"/><path class="st55" d="M446.1 325.2l-89.6 129.2"/><path class="st56" d="M451.3 328.3l-89.6 129.2"/><path class="st57" d="M456.5 331.4l-89.6 129.2"/><path class="st58" d="M461.8 334.5l-89.7 129.2"/><path class="st59" d="M467 337.7l-89.6 129.1"/><path class="st60" d="M472.2 340.8L382.6 470"/><path class="st61" d="M477.4 343.9l-89.6 129.2"/><path class="st62" d="M482.6 347L393 476.2"/><path class="st63" d="M487.9 350.1l-89.7 129.2"/><path class="st64" d="M493.1 353.2l-89.6 129.2"/><path class="st65" d="M498.3 356.4l-89.6 129.2"/><path class="st66" d="M503.5 359.5l-89.6 129.2"/><path class="st67" d="M508.7 362.6l-89.6 129.2"/><path class="st68" d="M514 365.7l-89.7 129.2"/><path class="st69" d="M519.2 368.8L429.6 498"/><path class="st70" d="M524.4 372l-89.6 129.1"/><path class="st71" d="M529.6 375.1L440 504.3"/><path class="st72" d="M534.8 378.2l-89.6 129.2"/><path class="st73" d="M540.1 381.3l-89.7 129.2"/><path class="st74" d="M545.3 384.4l-89.6 129.2"/><path class="st75" d="M550.5 387.6l-89.6 129.1"/><path class="st76" d="M555.7 390.7l-89.6 129.2"/><path class="st77" d="M560.9 393.8L471.3 523"/><path class="st78" d="M566.2 396.9l-89.7 129.2"/><path class="st79" d="M571.4 400l-89.6 129.2"/><path class="st80" d="M576.6 403.1L487 532.3"/><path class="st81" d="M581.8 406.3l-89.6 129.2"/><path class="st82" d="M92.5 411.6L65 536.7"/><path class="st83" d="M98.6 410.4L71.1 535.5"/><path class="st84" d="M104.6 409.3L77.2 534.4"/><path class="st85" d="M110.7 408.1L83.3 533.2"/><path class="st86" d="M116.8 407L89.3 532.1"/><path class="st87" d="M122.9 405.9L95.4 531"/><path class="st88" d="M129 404.7l-27.5 125.1"/><path class="st89" d="M135 403.6l-27.4 125.1"/><path class="st90" d="M141.1 402.4l-27.4 125.1"/><path class="st91" d="M147.2 401.3l-27.5 125.1"/><path class="st92" d="M153.3 400.1l-27.5 125.1"/><path class="st93" d="M159.3 399l-27.4 125.1"/><path class="st94" d="M165.4 397.8L138 522.9"/><path class="st95" d="M171.5 396.7l-27.4 125.1"/><path class="st96" d="M177.6 395.6l-27.5 125.1"/><path class="st97" d="M183.7 394.4l-27.5 125.1"/><path class="st98" d="M189.7 393.3l-27.4 125.1"/><path class="st99" d="M195.8 392.1l-27.4 125.1"/><path class="st100" d="M201.9 391l-27.5 125.1"/><path class="st101" d="M208 389.8l-27.5 125.1"/><path class="st102" d="M214.1 388.7l-27.5 125.1"/><path class="st103" d="M220.1 387.5l-27.4 125.1"/><path class="st104" d="M226.2 386.4l-27.4 125.1"/><path class="st105" d="M232.3 385.3l-27.5 125.1"/><path class="st106" d="M238.4 384.1l-27.5 125.1"/><path class="st107" d="M244.4 383L217 508.1"/><path class="st108" d="M250.5 381.8l-27.4 125.1"/><path class="st109" d="M256.6 380.7l-27.4 125.1"/><path class="st110" d="M262.7 379.5l-27.5 125.1"/><path class="st111" d="M268.8 378.4l-27.5 125.1"/><path class="st112" d="M274.8 377.2l-27.4 125.1"/><path class="st113" d="M280.9 376.1l-27.4 125.1"/><path class="st114" d="M287 375l-27.5 125.1"/><path class="st115" d="M293.1 373.8l-27.5 125.1"/><path class="st116" d="M299.2 372.7l-27.5 125.1"/><path class="st117" d="M305.2 371.5l-27.4 125.1"/><path class="st118" d="M311.3 370.4l-27.4 125.1"/><path class="st119" d="M317.4 369.2l-27.5 125.1"/><path class="st120" d="M323.5 368.1L296 493.2"/><path class="st121" d="M329.5 366.9L302.1 492"/><path class="st122" d="M335.6 365.8l-27.4 125.1"/><path class="st123" d="M341.7 364.7l-27.4 125.1"/><path class="st124" d="M347.8 363.5l-27.5 125.1"/><path class="st125" d="M353.9 362.4l-27.5 125.1"/><path class="st126" d="M359.9 361.2l-27.4 125.1"/><path class="st127" d="M366 360.1l-27.4 125.1"/><path class="st128" d="M372.1 358.9L344.6 484"/><path class="st129" d="M378.2 357.8l-27.5 125.1"/><path class="st130" d="M384.3 356.6l-27.5 125.1"/><path class="st131" d="M390.3 355.5l-27.4 125.1"/><path class="st132" d="M396.4 354.4L369 479.5"/><path class="st133" d="M402.5 353.2L375 478.3"/><path class="st134" d="M408.6 352.1l-27.5 125.1"/><path class="st135" d="M414.6 350.9L387.2 476"/><path class="st136" d="M420.7 349.8l-27.4 125.1"/><path class="st137" d="M426.8 348.6l-27.4 125.1"/><path class="st138" d="M432.9 347.5l-27.5 125.1"/><path class="st139" d="M439 346.3l-27.5 125.1"/><path class="st140" d="M445 345.2l-27.4 125.1"/><path class="st141" d="M451.1 344.1l-27.4 125.1"/><path class="st142" d="M457.2 342.9L429.7 468"/><path class="st143" d="M463.3 341.8l-27.5 125.1"/><path class="st144" d="M166.7 279L78.4 434.8M172.3 277L85.7 432.8m92.1-157.7L93 430.9m90.3-157.8l-83 155.8m88.5-157.7L107.6 427m86.8-157.8L115 425m84.9-157.7l-77.6 155.8m83.1-157.7l-75.8 155.8M211 263.4l-74.1 155.8m79.6-157.7l-72.2 155.8M222 259.5l-70.4 155.8m75.9-157.7l-68.6 155.8m74.2-157.8l-66.9 155.8m72.4-157.7l-65 155.8m70.5-157.8l-63.2 155.8m68.8-157.7l-61.5 155.8m67-157.7l-59.7 155.8m65.2-157.8l-57.8 155.8M266.2 244l-56 155.8M271.8 242l-54.3 155.8m59.8-157.7l-52.5 155.8m58-157.8l-50.6 155.8m56.2-157.7L239.5 392m54.4-157.8L246.8 390m52.6-157.7l-45.3 155.8m50.8-157.7l-43.4 155.8m49-157.8l-41.7 155.8M316 226.5l-39.9 155.8m45.4-157.8l-38.1 155.8m43.7-157.7l-36.3 155.8m41.8-157.8l-34.5 155.8m40-157.7l-32.7 155.8m38.2-157.8l-30.9 155.8m36.5-157.7l-29.1 155.8m34.6-157.7l-27.3 155.8m32.8-157.8l-25.5 155.8M365.8 209L342 364.8M371.3 207l-21.9 155.8m27.4-157.7l-20.1 155.8m25.6-157.8L364 358.9m23.9-157.7L371.3 357m22.1-157.8L378.7 355m20.2-157.7L386 353.1m18.4-157.7l-11.1 155.8M410 193.4l-9.4 155.8m14.9-157.7L408 347.3m13-157.8l-5.7 155.8m11.3-157.7l-4 155.8m9.5-157.8l-2.2 155.8m7.7-157.7l-.3 155.8m5.8-157.8l1.5 155.8m4.1-157.7l3.2 155.8m2.3-157.7l5 155.8m.5-157.8l6.9 155.8M465.3 174l8.6 155.8M470.8 172l10.4 155.8m-4.9-157.7l12.2 155.8m-6.7-157.8l14.1 155.8m-8.5-157.7L503.2 322m-10.3-157.8L510.5 320m-12.1-157.7l19.4 155.8M504 160.4l21.2 155.8"/><path class="st145" d="M77.4 200.3h172c5.9 0 10.7-4.8 10.7-10.7v-50c0-5.9-4.8-10.7-10.7-10.7h-172c-5.9 0-10.7 4.8-10.7 10.7v50c0 5.9 4.8 10.7 10.7 10.7z"/><path class="st146" d="M67.4 190.9s4.1 23.3-9.1 25.1c0 0 22.3.5 33.8-16.2"/><path class="st145" d="M442.7 144.4l-93.1 35.8c-3.3 1.3-7-.4-8.3-3.7L330 147.2c-1.3-3.3.4-7 3.7-8.3l93.1-35.8c3.3-1.3 7 .4 8.3 3.7l11.3 29.3c1.2 3.3-.4 7-3.7 8.3z"/><path class="st145" d="M446.6 136.2s3.1 15.8 11.9 13.7c0 0-14 5.8-25.3-2.1"/><text transform="rotate(9.753 -894.433 549.017)" class="st147 st148">НУЖНА ПОМОЩЬ</text><text transform="rotate(-21.013 620.607 -867.258)" class="st147 st148">ОНЛАЙН</text><path class="st149" d="M326.7 126.1l-34.4 11.5c-1.7.6-3.5-.4-4.1-2l-7.4-22.1c-.6-1.7.4-3.5 2-4.1l34.4-11.5c1.7-.6 3.5.4 4.1 2l7.4 22.1c.6 1.7-.3 3.5-2 4.1z"/><path class="st149" d="M318.9 97.5l-13.8 23.1-24.1-10m8.1 26.4l11.6-18.2m7.2-2.7l20.6 8.2m67.7 107.2l36.8 31 33.8-54z"/><path class="st149" d="M416.1 248.1l50.7-39.6-57.7 33.3 1.8 16.8zm6.1 4.4l-11.6 6.6 11.6-6.6z"/><path class="st150" d="M274.2 325.8s-14.4-19.9-50.9-4.4c-36.5 15.5-39.8 56.4-87.4 39.8-47.6-16.6-68.6-76.4-19.9-102.9s50.6-48.4 47.3-58.4"/><path d="M257.6 215.9l1.6-1.9 1.6 1.3-1.6 1.9-1.6-1.3zm3.5-3.8c.7-.8 1.3-1.5 2-2 .7-.6 1.5-.9 2.6-1 .6-.1 1.2-.1 1.8-.1.6 0 1.2-.1 1.8-.2.6-.1 1.1-.2 1.6-.4s.9-.5 1.2-.9c.3-.4.6-.8.7-1.3.1-.5.2-1 .1-1.4-.1-.5-.3-1-.6-1.5s-.7-1-1.3-1.4c-.5-.5-1.1-.8-1.7-.9-.6-.2-1.2-.2-1.7-.1-.6.1-1.1.3-1.6.6s-1 .7-1.4 1.3l-1.3-1.1c.5-.8 1.2-1.4 1.9-1.8.7-.4 1.5-.7 2.3-.7.8-.1 1.6 0 2.4.3.8.3 1.5.7 2.3 1.3.7.6 1.3 1.3 1.7 2 .4.7.7 1.4.8 2.1.1.7.1 1.4-.1 2.1-.2.7-.6 1.3-1.1 1.9-.5.6-1.1 1.1-1.8 1.3-.7.2-1.4.4-2.1.4-.7.1-1.5.1-2.3.1-.8 0-1.5.2-2.3.4-.6.2-1 .5-1.5.9-.4.4-.8.9-1.2 1.3l-1.2-1.2zm82.2 210l-1.4-2 1.7-1.2 1.4 2-1.7 1.2zm-2.8-4.3c-.6-.8-1.1-1.7-1.5-2.4-.4-.8-.5-1.7-.3-2.8l.3-1.8.3-1.8c.1-.6.1-1.1 0-1.6s-.2-1-.5-1.4c-.3-.4-.7-.8-1.1-1-.4-.2-.9-.4-1.4-.5-.5-.1-1 0-1.6.2-.6.2-1.1.4-1.7.8-.6.4-1 .9-1.3 1.4-.3.5-.5 1.1-.5 1.6-.1.6 0 1.1.2 1.7.2.6.5 1.1.9 1.7l-1.4 1c-.6-.7-1-1.5-1.2-2.3-.2-.8-.3-1.6-.1-2.4.1-.8.4-1.5.9-2.2.5-.7 1.1-1.3 1.8-1.8.8-.6 1.6-.9 2.3-1.2.8-.2 1.5-.3 2.2-.2.7.1 1.4.3 2 .7.6.4 1.1.9 1.6 1.5.5.7.7 1.4.8 2.1 0 .7 0 1.4-.1 2.1-.1.7-.3 1.5-.5 2.2-.2.8-.2 1.5-.2 2.3 0 .6.2 1.1.5 1.6s.6 1 1 1.5l-1.4 1z"/><circle class="st151" cx="308.5" cy="219" r="5"/><circle class="st151" cx="220.3" cy="387.5" r="5"/><path class="st150" d="M468.5 152.5s39.8-20.6 56.4 32.5-58.9 69.7-87.1 92.9S446 322.8 456 346c10 23.2 13.8 53.4-14.1 67.2-28.6 14.2-63 5.6-89.3-34.2"/><path class="st149" d="M344.9 516.3l-34.2-34.2c-1.7-1.7-1.7-4.4 0-6.1l22-22c1.7-1.7 4.4-1.7 6.1 0l34.2 34.2c1.7 1.7 1.7 4.4 0 6.1l-22 22c-1.7 1.7-4.4 1.7-6.1 0z"/><path class="st149" d="M374.5 490.1l-35.8-2.8-2.4-34.8M309.6 478l28.6 3m7.5 6.9l2.5 29.5"/><path class="st152" d="M398.7 379.2l33.2-14.1-33.2 14.1zm3.1-6.6l33.2-14.1-33.2 14.1zm2.4-6.1l33.2-14.1-33.2 14.1zm-241.6-97l29.2-21.1-29.2 21.1zm-10.1 2l29.2-21.1-29.2 21.1zm12.7-15.7l29.2-21.1-29.2 21.1z"/><path class="st153" d="M374.7 345H261.8c-5.7 0-10.3-4.6-10.3-10.3v-75.8c0-5.7 4.6-10.3 10.3-10.3h112.9c5.7 0 10.3 4.6 10.3 10.3v75.8c0 5.7-4.6 10.3-10.3 10.3z"/><circle class="st154" cx="283.7" cy="298.3" r="6.5"/><circle class="st154" cx="320.3" cy="298.3" r="6.5"/><circle class="st154" cx="352.9" cy="298.3" r="6.5"/><ellipse transform="rotate(-71.252 301.438 178.068)" class="st155" cx="301.4" cy="178.1" rx="2.9" ry="2.9"/><ellipse transform="rotate(-71.252 309.734 180.884)" class="st155" cx="309.7" cy="180.9" rx="2.9" ry="2.9"/><ellipse transform="rotate(-71.252 318.03 183.7)" class="st155" cx="318" cy="183.7" rx="2.9" ry="2.9"/><ellipse transform="rotate(-71.252 326.325 186.515)" class="st155" cx="326.3" cy="186.5" rx="2.9" ry="2.9"/><ellipse transform="rotate(-71.252 342.917 192.147)" class="st155" cx="342.9" cy="192.1" rx="2.9" ry="2.9"/><ellipse transform="rotate(-71.252 351.212 194.962)" class="st155" cx="351.2" cy="195" rx="2.9" ry="2.9"/><ellipse transform="rotate(-71.252 334.62 189.33)" class="st155" cx="334.6" cy="189.3" rx="2.9" ry="2.9"/><path class="st153" d="M251.5 328.5l-8.7 27.4 32.4-12z"/></svg>