<svg id="Layer_1" xmlns="http://www.w3.org/2000/svg" viewBox="0 0 647 658"><style>.st0{opacity:.28;fill:none;stroke:#ee73ff;stroke-miterlimit:10}.st0,.st1,.st2{stroke-width:1.7699}.st1{fill:none;stroke:#ee73ff;stroke-miterlimit:10;opacity:.2889}.st2{opacity:.2978}.st2,.st3,.st4{fill:none;stroke:#ee73ff;stroke-miterlimit:10}.st3{stroke-width:1.7699;opacity:.3067}.st4{opacity:.3156}.st4,.st5,.st6{stroke-width:1.7699}.st5{fill:none;stroke:#ee73ff;stroke-miterlimit:10;opacity:.3244}.st6{opacity:.3333}.st6,.st7,.st8{fill:none;stroke:#ee73ff;stroke-miterlimit:10}.st7{stroke-width:1.7699;opacity:.3422}.st8{opacity:.3511}.st10,.st8,.st9{stroke-width:1.7699}.st9{fill:none;stroke:#ee73ff;stroke-miterlimit:10;opacity:.36}.st10{opacity:.3689}.st10,.st11,.st12{fill:none;stroke:#ee73ff;stroke-miterlimit:10}.st11{stroke-width:1.7699;opacity:.3778}.st12{opacity:.3867}.st12,.st13,.st14{stroke-width:1.7699}.st13{fill:none;stroke:#ee73ff;stroke-miterlimit:10;opacity:.3956}.st14{opacity:.4044}.st14,.st15,.st16{fill:none;stroke:#ee73ff;stroke-miterlimit:10}.st15{stroke-width:1.7699;opacity:.4133}.st16{opacity:.4222}.st16,.st17,.st18{stroke-width:1.7699}.st17{fill:none;stroke:#ee73ff;stroke-miterlimit:10;opacity:.4311}.st18{opacity:.44}.st18,.st19,.st20{fill:none;stroke:#ee73ff;stroke-miterlimit:10}.st19{stroke-width:1.7699;opacity:.4489}.st20{opacity:.4578}.st20,.st21,.st22{stroke-width:1.7699}.st21{fill:none;stroke:#ee73ff;stroke-miterlimit:10;opacity:.4667}.st22{opacity:.4756}.st22,.st23,.st24{fill:none;stroke:#ee73ff;stroke-miterlimit:10}.st23{stroke-width:1.7699;opacity:.4844}.st24{opacity:.4933}.st24,.st25,.st26{stroke-width:1.7699}.st25{fill:none;stroke:#ee73ff;stroke-miterlimit:10;opacity:.5022}.st26{opacity:.5111}.st26,.st27,.st28{fill:none;stroke:#ee73ff;stroke-miterlimit:10}.st27{stroke-width:1.7699;opacity:.52}.st28{opacity:.5289}.st28,.st29,.st30{stroke-width:1.7699}.st29{fill:none;stroke:#ee73ff;stroke-miterlimit:10;opacity:.5378}.st30{opacity:.5467}.st30,.st31,.st32{fill:none;stroke:#ee73ff;stroke-miterlimit:10}.st31{stroke-width:1.7699;opacity:.5556}.st32{opacity:.5644}.st32,.st33,.st34{stroke-width:1.7699}.st33{fill:none;stroke:#ee73ff;stroke-miterlimit:10;opacity:.5733}.st34{opacity:.5822}.st34,.st35,.st36{fill:none;stroke:#ee73ff;stroke-miterlimit:10}.st35{stroke-width:1.7699;opacity:.5911}.st36{opacity:.6}.st36,.st37,.st38{stroke-width:1.7699}.st37{fill:none;stroke:#ee73ff;stroke-miterlimit:10;opacity:.6089}.st38{opacity:.6178}.st38,.st39,.st40{fill:none;stroke:#ee73ff;stroke-miterlimit:10}.st39{stroke-width:1.7699;opacity:.6267}.st40{opacity:.6356}.st40,.st41,.st42{stroke-width:1.7699}.st41{fill:none;stroke:#ee73ff;stroke-miterlimit:10;opacity:.6444}.st42{opacity:.6533}.st42,.st43,.st44{fill:none;stroke:#ee73ff;stroke-miterlimit:10}.st43{stroke-width:1.7699;opacity:.6622}.st44{opacity:.6711}.st44,.st45,.st46{stroke-width:1.7699}.st45{fill:none;stroke:#ee73ff;stroke-miterlimit:10;opacity:.68}.st46{opacity:.6889}.st46,.st47,.st48{fill:none;stroke:#ee73ff;stroke-miterlimit:10}.st47{stroke-width:1.7699;opacity:.6978}.st48{opacity:.7067}.st48,.st49,.st50{stroke-width:1.7699}.st49{fill:none;stroke:#ee73ff;stroke-miterlimit:10;opacity:.7156}.st50{opacity:.7244}.st50,.st51,.st52{fill:none;stroke:#ee73ff;stroke-miterlimit:10}.st51{stroke-width:1.7699;opacity:.7333}.st52{opacity:.7422}.st52,.st53,.st54{stroke-width:1.7699}.st53{fill:none;stroke:#ee73ff;stroke-miterlimit:10;opacity:.7511}.st54{opacity:.76}.st54,.st55,.st56{fill:none;stroke:#ee73ff;stroke-miterlimit:10}.st55{stroke-width:1.7699;opacity:.7689}.st56{opacity:.7778}.st56,.st57,.st58{stroke-width:1.7699}.st57{fill:none;stroke:#ee73ff;stroke-miterlimit:10;opacity:.7867}.st58{opacity:.7956}.st58,.st59,.st60{fill:none;stroke:#ee73ff;stroke-miterlimit:10}.st59{stroke-width:1.7699;opacity:.8044}.st60{opacity:.8133}.st60,.st61,.st62{stroke-width:1.7699}.st61{fill:none;stroke:#ee73ff;stroke-miterlimit:10;opacity:.8222}.st62{opacity:.8311}.st62,.st63,.st64{fill:none;stroke:#ee73ff;stroke-miterlimit:10}.st63{stroke-width:1.7699;opacity:.84}.st64{opacity:.8489}.st64,.st65,.st66{stroke-width:1.7699}.st65{fill:none;stroke:#ee73ff;stroke-miterlimit:10;opacity:.8578}.st66{opacity:.8667}.st66,.st67,.st68{fill:none;stroke:#ee73ff;stroke-miterlimit:10}.st67{stroke-width:1.7699;opacity:.8756}.st68{opacity:.8844}.st68,.st69,.st70{stroke-width:1.7699}.st69{fill:none;stroke:#ee73ff;stroke-miterlimit:10;opacity:.8933}.st70{opacity:.9022}.st70,.st71,.st72{fill:none;stroke:#ee73ff;stroke-miterlimit:10}.st71{stroke-width:1.7699;opacity:.9111}.st72{opacity:.92}.st72,.st73,.st74{stroke-width:1.7699}.st73{fill:none;stroke:#ee73ff;stroke-miterlimit:10;opacity:.9289}.st74{opacity:.9378}.st74,.st75,.st76{fill:none;stroke:#ee73ff;stroke-miterlimit:10}.st75{stroke-width:1.7699;opacity:.9467}.st76{opacity:.9556}.st76,.st77,.st78{stroke-width:1.7699}.st77{fill:none;stroke:#ee73ff;stroke-miterlimit:10;opacity:.9644}.st78{opacity:.9733}.st78,.st79,.st80{fill:none;stroke:#ee73ff;stroke-miterlimit:10}.st79{stroke-width:1.7699;opacity:.9822}.st80{opacity:.9911}.st80,.st81,.st82{stroke-width:1.7699}.st81{fill:none;stroke-miterlimit:10;stroke:#ee73ff}.st82{opacity:.28;stroke:#ec5cba}.st82,.st83,.st84{fill:none;stroke-miterlimit:10}.st83{opacity:.28;stroke:#665cff;stroke-width:1.7699}.st84{stroke:#ec5cff;stroke-width:2.4985}.st85{fill:#fff}.st86,.st87{fill:none;stroke:#ee73ff;stroke-width:2.19;stroke-miterlimit:10}.st87{stroke:#000;stroke-width:1.2492}.st88{font-family:&apos;Plumb-Light&apos;}.st89{font-size:21.1445px}.st90{fill:none;stroke:#ec5cff;stroke-width:1.2492;stroke-miterlimit:10}</style><path class="st0" d="M167.1 144.1l-120 117"/><path class="st1" d="M172.1 146.2l-119.9 118"/><path class="st2" d="M177.2 148.3l-120 118.9"/><path class="st3" d="M182.2 150.4L62.3 270.2"/><path class="st4" d="M187.3 152.5l-120 120.8"/><path class="st5" d="M192.3 154.7L72.4 276.3"/><path class="st6" d="M197.3 156.8L77.4 279.4"/><path class="st7" d="M202.4 158.9L82.5 282.4"/><path class="st8" d="M207.4 161L87.5 285.4"/><path class="st9" d="M212.4 163.1L92.6 288.5"/><path class="st10" d="M217.5 165.2L97.7 291.5"/><path class="st11" d="M222.5 167.4L102.7 294.5"/><path class="st12" d="M227.5 169.5L107.8 297.6"/><path class="st13" d="M232.6 171.6l-119.8 129"/><path class="st14" d="M237.6 173.7l-119.7 130"/><path class="st15" d="M242.6 175.8L122.9 306.7"/><path class="st16" d="M247.7 177.9L128 309.7"/><path class="st17" d="M252.7 180.1L133 312.8"/><path class="st18" d="M257.7 182.2L138.1 315.8"/><path class="st19" d="M262.8 184.3L143.2 318.8"/><path class="st20" d="M267.8 186.4L148.2 321.9"/><path class="st21" d="M272.8 188.5L153.3 324.9"/><path class="st22" d="M277.9 190.6L158.3 328"/><path class="st23" d="M282.9 192.8L163.4 331"/><path class="st24" d="M287.9 194.9L168.4 334"/><path class="st25" d="M293 197L173.5 337.1"/><path class="st26" d="M298 199.1l-119.5 141"/><path class="st27" d="M303 201.2L183.6 343.1"/><path class="st28" d="M308.1 203.4L188.7 346.2"/><path class="st29" d="M313.1 205.5L193.7 349.2"/><path class="st30" d="M318.1 207.6L198.8 352.3"/><path class="st31" d="M323.2 209.7L203.8 355.3"/><path class="st32" d="M328.2 211.8L208.9 358.3"/><path class="st33" d="M333.3 213.9L213.9 361.4"/><path class="st34" d="M338.3 216.1L219 364.4"/><path class="st35" d="M343.3 218.2L224 367.4"/><path class="st36" d="M348.4 220.3L229.1 370.5"/><path class="st37" d="M353.4 222.4L234.2 373.5"/><path class="st38" d="M358.4 224.5L239.2 376.6"/><path class="st39" d="M363.5 226.6l-119.2 153"/><path class="st40" d="M368.5 228.8L249.3 382.6"/><path class="st41" d="M373.5 230.9L254.4 385.7"/><path class="st42" d="M378.6 233L259.4 388.7"/><path class="st43" d="M383.6 235.1L264.5 391.7"/><path class="st44" d="M388.6 237.2l-119 157.6"/><path class="st45" d="M393.7 239.3L274.6 397.8"/><path class="st46" d="M398.7 241.5l-119 159.3"/><path class="st47" d="M403.7 243.6l-119 160.3"/><path class="st48" d="M408.8 245.7l-119 161.2"/><path class="st49" d="M413.8 247.8L294.8 410"/><path class="st50" d="M418.8 249.9L299.9 413"/><path class="st51" d="M423.9 252.1L304.9 416"/><path class="st52" d="M428.9 254.2L310 419.1"/><path class="st53" d="M433.9 256.3L315.1 422.1"/><path class="st54" d="M439 258.4L320.1 425.1"/><path class="st55" d="M444 260.5L325.2 428.2"/><path class="st56" d="M449 262.6L330.2 431.2"/><path class="st57" d="M454.1 264.8L335.3 434.3"/><path class="st58" d="M459.1 266.9L340.3 437.3"/><path class="st59" d="M464.1 269L345.4 440.3"/><path class="st60" d="M469.2 271.1L350.4 443.4"/><path class="st61" d="M474.2 273.2L355.5 446.4"/><path class="st62" d="M479.3 275.3L360.6 449.4"/><path class="st63" d="M484.3 277.5l-118.7 175"/><path class="st64" d="M489.3 279.6L370.7 455.5"/><path class="st65" d="M494.4 281.7L375.7 458.6"/><path class="st66" d="M499.4 283.8L380.8 461.6"/><path class="st67" d="M504.4 285.9L385.8 464.6"/><path class="st68" d="M509.5 288.1L390.9 467.7"/><path class="st69" d="M514.5 290.2L395.9 470.7"/><path class="st70" d="M519.5 292.3L401 473.7"/><path class="st71" d="M524.6 294.4L406.1 476.8"/><path class="st72" d="M529.6 296.5L411.1 479.8"/><path class="st73" d="M534.6 298.6L416.2 482.9"/><path class="st74" d="M539.7 300.8L421.2 485.9"/><path class="st75" d="M544.7 302.9l-118.4 186"/><path class="st76" d="M549.7 305L431.3 492"/><path class="st77" d="M554.8 307.1L436.4 495"/><path class="st78" d="M559.8 309.2L441.4 498"/><path class="st79" d="M564.8 311.3L446.5 501.1"/><path class="st80" d="M569.9 313.5L451.6 504.1"/><path class="st81" d="M574.9 315.6L456.6 507.2"/><path class="st82" d="M61.6 291.4l16.1 261.5M68.5 289l16.2 260.4m-9.3-262.8L91.8 546m-9.5-261.7l16.5 258.2m-9.6-260.6L105.9 539m-9.7-259.5l16.7 256m-9.8-258.3L120 532m-10-257.2l17 253.7m-10.1-256.1L134.1 525m-10.3-254.9l17.3 251.4m-10.3-253.8L148.1 518m-10.4-252.7l17.5 249.2M144.6 263l17.6 248m-10.7-250.4l17.8 246.9m-10.9-249.3L176.3 504m-10.9-248.1l18 244.7m-11.1-247.1l18.1 243.6m-11.2-246l18.2 242.5m-11.3-244.9l18.4 241.4M193 246.4l18.5 240.2M200 244l18.6 239.1m-11.7-241.5l18.7 238m-11.8-240.3l18.9 236.8m-12-239.2l19 235.7m-12-238.1l19 234.6m-12.1-236.9l19.2 233.4m-12.3-235.8l19.3 232.3m-12.4-234.7l19.5 231.3m-12.6-233.6l19.6 230.1m-12.6-232.5l19.7 229m-12.8-231.4L289 448.2M276.1 218l20 226.7M283 215.6l20.1 225.6m-13.2-228l20.2 224.5m-13.2-226.8l20.3 223.3m-13.4-225.7l20.4 222.2m-13.5-224.6l20.6 221.1m-13.7-223.4l20.7 219.9m-13.8-222.3l20.9 218.8M331.5 199l20.9 217.8m-14-220.1l21 216.6m-14.1-219l21.2 215.5m-14.3-217.9l21.3 214.4m-14.4-216.7l21.5 213.2m-14.5-215.6l21.5 212.1M373 184.8l21.7 211m-14.8-213.4l21.8 209.9m-14.9-212.2l22 208.7m-15.1-211.1l22.1 207.6m-15.1-210l22.1 206.5M407.6 173l22.3 205.3m-15.4-207.7l22.4 204.3m-15.5-206.7L444 371.4m-15.7-205.5l22.7 202m-15.7-204.4l22.8 200.9m-15.9-203.3l22.9 199.8m-16-202.1l23 198.6m-16.1-201l23.2 197.5M462.9 154l23.3 196.4m-16.3-198.7l23.4 195.2m-16.5-197.6l23.5 194.1m-16.6-196.5l23.7 193"/><path class="st83" d="M203.6 279l-94.2 166.1m98.4-167.5L115 445.9m97.1-169.6l-91.5 170.3m95.7-171.7l-90.1 172.4m94.3-173.8L131.8 448m92.9-175.8l-87.3 176.5m91.5-177.9L143 449.4m90.1-180l-84.5 180.7m88.7-182l-83 182.8m87.2-184.2l-81.6 184.9m85.8-186.3l-80.2 187M250 263.9L171.1 453m83.1-190.4l-77.5 191.1m81.7-192.5l-76.1 193.2m80.3-194.6l-74.7 195.3m78.9-196.6l-73.3 197.4M271 257.1l-71.9 199.5m76.1-200.9l-70.5 201.6m74.7-202.9L210.3 458m73.4-205l-67.8 205.7m72-207.1l-66.3 207.8m70.5-209.1l-64.9 209.8m69.1-211.2l-63.5 211.9m67.7-213.3l-62.1 214.1m66.3-215.5L244 462.3m64.9-217.5L249.6 463m63.5-219.6l-57.9 220.3M317.3 242l-56.5 222.4m60.8-223.7l-55.2 224.4m59.4-225.8L272 465.8m58-227.9l-52.4 228.7m56.6-230l-51 230.7m55.2-232.1L288.9 468m53.7-234.2l-48.1 234.9m52.3-236.2l-46.7 236.9M351 231.1l-45.3 239m49.5-240.4l-43.9 241.1m48.2-242.5l-42.6 243.3M363.7 227l-41.2 245.3m45.4-246.7L328.1 473m44-248.8l-38.4 249.5m42.6-250.8l-37 251.5m41.2-252.9l-35.6 253.6m39.8-255l-34.2 255.7m38.4-257l-32.7 257.8m37-259.2l-31.4 259.9M397.4 216l-30 262m34.2-263.4L373 478.7m32.8-265.4l-27.2 266.1M410 211.9l-25.8 268.2m30-269.6l-24.4 270.3m28.6-271.6l-23 272.3m27.2-273.7L401 482.3m25.8-275.9L406.6 483m24.5-277.9l-18.9 278.6m23.1-280l-17.5 280.7m21.7-282.1l-16 282.8M443.7 201l-14.6 284.8m18.8-286.2l-13.2 286.9m17.4-288.3l-11.8 289.1m16-290.5L445.9 488m14.6-292.5l-9 293.2m13.2-294.6l-7.6 295.3M469 192.7l-6.3 297.4m10.5-298.7l-4.9 299.4m9.1-300.8l-3.5 301.5m7.7-302.9l-2.1 303.7m6.3-305l-.7 305.7m4.9-307.1l.8 307.8m3.4-309.2l2.2 309.9m2-311.3l3.6 312m.7-313.3l4.9 314m-.7-315.4l6.3 316.1M511.1 179l7.7 318.3m-3.5-319.6l9.1 320.3m-4.9-321.7L530 498.7m-6.3-323.8l11.9 324.5m-7.7-325.8l13.3 326.5m-9.1-327.9l14.7 328.6m-10.5-330l16.1 330.7m-11.8-332l17.5 332.8m-13.3-334.2L563.7 503"/><path class="st84" d="M551.7 207.9L488 177.7c-1.9-.9-2.7-3.2-1.8-5.1l.2-.5c.9-1.9 3.2-2.7 5.1-1.8l63.6 30.3c1.9.9 2.7 3.2 1.8 5.1l-.2.5c-.9 1.8-3.1 2.6-5 1.7zm-95.1-53.7l-71.5 25.4c-9.2 3.3-19.4-1.6-22.7-10.8l-.8-2.2c-3.3-9.2 1.6-19.4 10.8-22.7l71.5-25.4c9.2-3.3 19.4 1.6 22.7 10.8l.8 2.2c3.2 9.2-1.6 19.4-10.8 22.7zM229.4 297.4l-66.6-23.1c-2-.7-3-2.9-2.4-4.9l.2-.5c.7-2 2.9-3 4.9-2.4l66.6 23.1c2 .7 3 2.9 2.4 4.9l-.2.5c-.7 2-2.9 3-4.9 2.4zm-1.1 254.3l-57.8-40.3c-1.7-1.2-2.2-3.6-1-5.3l.3-.4c1.2-1.7 3.6-2.2 5.3-1L233 545c1.7 1.2 2.2 3.6 1 5.3l-.3.4c-1.2 1.8-3.6 2.2-5.4 1zm-15.7-225.6l-68.1 18.1c-2 .5-4.1-.7-4.7-2.7l-.1-.5c-.5-2 .7-4.1 2.7-4.7l68.1-18.1c2-.5 4.1.7 4.7 2.7l.1.5c.5 2.1-.7 4.2-2.7 4.7z"/><path class="st85" d="M277 387h76.9c4.2 0 7.7-3.5 7.7-7.7V273.9l-27.3-24.7H277c-4.2 0-7.7 3.5-7.7 7.7v122.4c-.1 4.2 3.4 7.7 7.7 7.7z"/><path class="st86" d="M285.9 298.3h57.4-57.4zm0 6.7h57.4-57.4zm0 6.6h57.4-57.4zm0 6.7h57.4-57.4zm0 6.6h57.4-57.4zm0 6.7h57.4-57.4zm0 6.6h57.4-57.4zm0 6.7h57.4-57.4zm0 6.7h57.4-57.4z"/><path class="st87" d="M371.4 319.3h72.2c6.2 0 11.3-5.1 11.3-11.3V173.4m.9 116.6h57.1c6.2 0 11.3-5.1 11.3-11.3v-60.3"/><path class="st87" d="M408.9 318.6v57.1c0 6.2 5.1 11.3 11.3 11.3h60.3"/><circle cx="373.9" cy="319" r="5"/><circle cx="455.2" cy="171.9" r="5"/><path class="st87" d="M250.9 347.2h-86.6c-7.4 0-13.5 6.1-13.5 13.5v161.6"/><circle cx="251.9" cy="347.1" r="5"/><circle cx="149.5" cy="523.2" r="5"/><circle cx="481.8" cy="387" r="5"/><circle cx="525.4" cy="218.4" r="5"/><path class="st87" d="M339.2 434.5l-7.5-7.5c-.4-.4-.4-1.1 0-1.5l7.5-7.5c.4-.4 1.1-.4 1.5 0l7.5 7.5c.4.4.4 1.1 0 1.5l-7.5 7.5c-.4.4-1.1.4-1.5 0zm-37.5-228.6l-7.5-7.5c-.4-.4-.4-1.1 0-1.5l7.5-7.5c.4-.4 1.1-.4 1.5 0l7.5 7.5c.4.4.4 1.1 0 1.5l-7.5 7.5c-.4.4-1.1.4-1.5 0zm-80.8 199.3l-8.7-6c-.5-.3-.6-1-.3-1.5l6-8.7c.3-.5 1-.6 1.5-.3l8.7 6c.5.3.6 1 .3 1.5l-6 8.7c-.4.5-1 .6-1.5.3z"/><path d="M373 477.9l-1.8-1.8 1.5-1.5 1.8 1.8-1.5 1.5zm-3.6-3.8c-.8-.7-1.4-1.4-1.9-2.2-.5-.7-.8-1.6-.8-2.7v-3.6c0-.6-.1-1.1-.3-1.6-.1-.5-.4-.9-.8-1.3s-.8-.6-1.2-.8c-.5-.2-.9-.2-1.4-.2-.5 0-1 .2-1.5.4-.5.3-1 .6-1.5 1.1-.5.5-.8 1-1.1 1.6-.2.6-.3 1.1-.2 1.7 0 .6.2 1.1.5 1.7.3.5.7 1 1.2 1.5l-1.2 1.2c-.7-.6-1.3-1.3-1.6-2-.4-.7-.5-1.5-.5-2.3 0-.8.2-1.6.5-2.3.3-.8.8-1.5 1.5-2.1.7-.7 1.4-1.2 2.1-1.6.7-.4 1.4-.6 2.1-.6.7 0 1.4.1 2.1.3.7.3 1.3.7 1.8 1.2.6.6 1 1.2 1.1 1.9.2.7.2 1.4.2 2.1 0 .7 0 1.5-.1 2.3 0 .8 0 1.5.2 2.3.1.6.4 1.1.8 1.5.4.4.8.9 1.2 1.3l-1.2 1.2zm118.5-116.2l-1.8-1.8 1.5-1.5 1.8 1.8-1.5 1.5zm-3.5-3.7c-.8-.7-1.4-1.4-1.9-2.2-.5-.7-.8-1.6-.8-2.7v-3.6c0-.6-.1-1.1-.3-1.6-.1-.5-.4-.9-.8-1.3s-.8-.6-1.2-.8c-.5-.2-.9-.2-1.4-.2-.5 0-1 .2-1.5.4-.5.3-1 .6-1.5 1.1-.5.5-.8 1-1.1 1.6-.2.6-.3 1.1-.2 1.7 0 .6.2 1.1.5 1.7.3.5.7 1 1.2 1.5l-1.2 1.2c-.7-.6-1.3-1.3-1.6-2-.4-.7-.5-1.5-.5-2.3 0-.8.2-1.6.5-2.3.3-.8.8-1.5 1.5-2.1.7-.7 1.4-1.2 2.1-1.6.7-.4 1.4-.6 2.1-.6.7 0 1.4.1 2.1.3.7.3 1.3.7 1.8 1.2.6.6 1 1.2 1.1 1.9.2.7.2 1.4.2 2.1 0 .7 0 1.5-.1 2.3 0 .8 0 1.5.2 2.3.1.6.4 1.1.8 1.5.4.4.8.9 1.2 1.3l-1.2 1.2zM348.9 228.6l.4-2.5 2 .3-.4 2.5-2-.3zm1-5c.2-1 .4-2 .7-2.8.3-.8.9-1.5 1.7-2.2.5-.4 1-.7 1.5-1 .5-.3 1-.7 1.4-1 .4-.4.8-.7 1.2-1.1.3-.4.5-.9.6-1.4.1-.5.1-1-.1-1.5-.1-.5-.3-.9-.7-1.3-.3-.4-.7-.7-1.2-1-.5-.3-1.1-.5-1.8-.6-.7-.1-1.3-.1-1.9.1-.6.2-1.1.4-1.5.8-.4.4-.8.8-1.1 1.4-.3.5-.5 1.1-.6 1.8l-1.7-.3c.1-.9.3-1.8.7-2.5.4-.7.9-1.3 1.6-1.8.6-.5 1.4-.8 2.2-.9.8-.2 1.7-.2 2.6 0 1 .2 1.8.4 2.5.8s1.3.8 1.7 1.4c.4.5.8 1.2.9 1.9.2.7.2 1.4.1 2.2-.1.8-.4 1.5-.9 2s-1 1-1.6 1.4c-.6.4-1.2.8-1.9 1.3-.6.4-1.2.9-1.7 1.5-.4.4-.7.9-.8 1.5-.1.6-.2 1.2-.3 1.7l-1.6-.4zm-126.3-71.8l2.3-.9.8 1.9-2.3 1-.8-2zm4.9-1.8c1-.4 1.9-.7 2.7-.9.8-.2 1.8-.1 2.8.3.6.2 1.1.5 1.7.7.6.3 1.1.5 1.6.7.5.2 1.1.3 1.6.4.5.1 1 0 1.5-.2s.9-.5 1.2-.8c.3-.4.6-.8.7-1.2.2-.5.2-1 .2-1.6 0-.6-.2-1.2-.5-1.8-.3-.6-.6-1.2-1.1-1.6-.4-.4-.9-.7-1.5-.9-.5-.2-1.1-.2-1.7-.2-.6 0-1.2.2-1.8.5l-.6-1.6c.8-.4 1.7-.7 2.5-.7s1.6.1 2.3.4c.7.3 1.4.8 2 1.4.6.6 1 1.3 1.4 2.2.4.9.6 1.7.6 2.5.1.8 0 1.5-.3 2.2-.2.7-.6 1.3-1.1 1.8-.5.5-1.1.9-1.9 1.2-.8.3-1.5.4-2.2.3s-1.4-.3-2-.6l-2.1-.9c-.7-.3-1.4-.6-2.2-.7-.6-.1-1.1-.1-1.7.1-.6.2-1.1.4-1.6.6l-.5-1.6z"/><text transform="rotate(-21.534 632.429 -973.927)" class="st88 st89">FAQ</text><path class="st84" d="M275.9 466.7l-75.4-8.6c-9.7-1.1-16.7-10-15.6-19.7l.3-2.3c1.1-9.7 10-16.7 19.7-15.6l75.4 8.6c9.7 1.1 16.7 10 15.6 19.7l-.3 2.3c-1.1 9.7-10 16.7-19.7 15.6z"/><text transform="matrix(.9968 .07963 -.07963 .9968 222.164 451.467)" class="st88 st89">FAQ</text><path class="st90" d="M309 496.8c12.2 5.9 17.4 20.5 11.5 32.8-4.7 9.8-16.4 13.9-26.2 9.2-7.8-3.7-11.1-13.1-7.4-21 3-6.3 10.5-8.9 16.8-5.9 5 2.4 7.1 8.4 4.7 13.4-1.9 4-6.7 5.7-10.7 3.8-3.2-1.5-4.6-5.4-3-8.6 1.2-2.6 4.3-3.6 6.9-2.4 2.1 1 2.9 3.4 1.9 5.5-.8 1.6-2.8 2.3-4.4 1.5m-50.9-283.7c-6.9 11.7-21.9 15.6-33.6 8.7-9.4-5.5-12.5-17.5-7-26.9 4.4-7.5 14-10 21.5-5.6 6 3.5 8 11.2 4.5 17.2-2.8 4.8-9 6.4-13.8 3.6-3.8-2.3-5.1-7.2-2.9-11 1.8-3.1 5.7-4.1 8.8-2.3 2.5 1.4 3.3 4.6 1.8 7-1.2 2-3.7 2.6-5.6 1.5-1.6-.9-2.1-2.9-1.2-4.5"/></svg>