<svg xmlns="http://www.w3.org/2000/svg" viewBox="5914.461 471.911 80 62.004"><defs><style>.cls-1,.cls-2{fill:#fff;fill-rule:evenodd}.cls-2{fill:#fc921f}</style></defs><g id="logo" transform="translate(5914.445 471.922)"><path id="logo_full" data-name="logo full" class="cls-1" d="M287.53 620.4l2.892 2.7h-2.475l-2.842-2.691H277.6v2.7h-1.734v-8.1h11.685a2.469 2.469 0 0 1 2.249 2.091c.018.093.034.188.044.284v.019a2.345 2.345 0 0 1 .017.3 2.863 2.863 0 0 1-.687 1.89 2.543 2.543 0 0 1-1.644.807zm.581-2.9a.376.376 0 0 0-.013-.056.987.987 0 0 0-.037-.14l-.024-.061a1.113 1.113 0 0 0-.057-.122.282.282 0 0 0-.031-.054 1.065 1.065 0 0 0-.083-.119c-.009-.01-.018-.024-.028-.034a1.122 1.122 0 0 0-.133-.13l-.019-.011a.982.982 0 0 0-.132-.085.555.555 0 0 0-.049-.021.865.865 0 0 0-.346-.082h-.02.009-9.548v2.253h9.282a1.242 1.242 0 0 0 .289-.013v.006a.89.89 0 0 0 .335-.083.42.42 0 0 0 .049-.02.96.96 0 0 0 .132-.084.117.117 0 0 1 .019-.014.966.966 0 0 0 .133-.129l.028-.032a1.07 1.07 0 0 0 .083-.12.376.376 0 0 0 .031-.053 1.191 1.191 0 0 0 .057-.122l.024-.059a1.111 1.111 0 0 0 .037-.141.377.377 0 0 0 .013-.056 1.216 1.216 0 0 0 .017-.207 1.255 1.255 0 0 0-.017-.208zM261 615h13.262v1.552h-11.54v1.718h10.464v1.545h-10.464v1.739h11.54v1.57H261zm-8.883 8.274v-.005l-8.276-8.285h2.359l5.914 5.972 5.913-5.972h2.364l-8.276 8.285v.005zm-7.587-5.269a.078.078 0 0 1 0 .017 3.667 3.667 0 0 1 .061.452v.013c.014.17.023.361.023.563 0 .105 0 .206-.007.307v.034c0 .08-.009.158-.015.233a3.453 3.453 0 0 1-.041.353 1.888 1.888 0 0 1-.037.172c-.491 2.112-3.054 3.147-7.808 3.147a15.147 15.147 0 0 1-5.895-.875 3.3 3.3 0 0 1-2.015-2.2 1.512 1.512 0 0 1-.053-.219l-.014-.094a5.256 5.256 0 0 1-.044-.427v-.007a7.425 7.425 0 0 1-.015-.437 4 4 0 0 1 .142-1.233 3.321 3.321 0 0 1 1.986-2.154 19.722 19.722 0 0 1 11.687 0 3.308 3.308 0 0 1 2 2.2c.012.038.027.089.04.148zm-1.648 1.182v-.333l-.011-.158a.018.018 0 0 1 0-.008v-.037c0-.039-.014-.076-.019-.114s-.008-.047-.012-.073a2.193 2.193 0 0 0-1.614-1.578 19.068 19.068 0 0 0-9.147 0c-1.043.382-1.59.982-1.647 1.781h-.01v.617c.035.834.592 1.452 1.663 1.839a14.556 14.556 0 0 0 4.615.549c4.163 0 6.186-.81 6.186-2.468a.076.076 0 0 0 0-.015zm-17.47-1.9l-1.1.947-5.533 5.059-5.531-5.059-1.1-.948v5.826h-1.731v-8.1h1.675l6.689 6.1 6.682-6.1h1.677v8.093h-1.733z" transform="translate(-210.406 -561.304)"/><path id="M" class="cls-2" d="M316.7 423.713l-5.38-19.23a3.514 3.514 0 0 0-6.684-.091l-.014.042c0 .019-.011.04-.015.059l-5.278 17.725a1.167 1.167 0 0 1-2.206-.018l-8.254-23.211a5.938 5.938 0 0 0-11.407.069 9.75 9.75 0 0 0-.148.48c-.01.037-.258.852-.27.889-1.024 3.767-2.084 7.521-3.135 11.277q-1.628 5.826-3.263 11.642c-.278.987-.546 1.973-.814 2.959l-.114.408A7.808 7.808 0 1 0 282 433.13a7.664 7.664 0 0 0-1.008-3.8q1.281-6.246 2.552-12.5c.226-1.126.464-2.245.708-3.372a1.163 1.163 0 0 1 2.127-.173q1.205 2.813 2.395 5.634c1.249 2.963 3.955 8.845 5.374 12.121l.011.012a4.189 4.189 0 0 0 7.915-.122v-.012a.806.806 0 0 0 .024-.085q.54-1.826 1.077-3.652l3.973-13.354a1.161 1.161 0 0 1 2.189-.007l3.12 11.082a3.761 3.761 0 0 0-.862 2.4 3.833 3.833 0 1 0 5.1-3.587zm-42.545 13.316a3.9 3.9 0 1 1 3.934-3.9 3.9 3.9 0 0 1-3.936 3.9zm41.272-7.966a1.774 1.774 0 1 1 1.26-.515 1.768 1.768 0 0 1-1.263.515z" transform="translate(-252.769 -394.75)"/></g></svg>