<svg xmlns="http://www.w3.org/2000/svg" viewBox="2897 1376 84 102"><defs><style>.cls-1{fill:#fc921f}.cls-2{fill:#333}.cls-3{fill:#ffdcb5}.cls-4{fill:#fb5c3f}</style></defs><g id="Group_1120" data-name="Group 1120" transform="translate(-1960 1146)"><circle id="Ellipse_405" data-name="Ellipse 405" class="cls-1" cx="33" cy="33" r="33" transform="translate(4866 236)"/><path id="Union_95" data-name="Union 95" class="cls-2" d="M0 39a39 39 0 1 1 39 39A39.044 39.044 0 0 1 0 39zm2 0A37 37 0 1 0 39 2 37.041 37.041 0 0 0 2 39zm27.984 20.991v-8.254h-3.353v-3.915h3.353V41.99h-3.353v-3.915h3.353v-18.48h10.93a18.186 18.186 0 0 1 4.945.662A12.32 12.32 0 0 1 50 22.271a9.842 9.842 0 0 1 2.845 3.408 10.468 10.468 0 0 1 1.055 4.846 12.345 12.345 0 0 1-.944 5.014 9.292 9.292 0 0 1-2.747 3.577 12.177 12.177 0 0 1-4.394 2.156 22.2 22.2 0 0 1-5.916.718H34.6v5.831h10.877v3.916H34.6v8.254zM34.6 38.075h4.7a21.961 21.961 0 0 0 4.324-.38 8.734 8.734 0 0 0 3.155-1.24 5.391 5.391 0 0 0 1.93-2.267 8.194 8.194 0 0 0 .647-3.437 8.587 8.587 0 0 0-.591-3.38A5.278 5.278 0 0 0 47 25.131a7.713 7.713 0 0 0-2.957-1.239 19.929 19.929 0 0 0-4.141-.381H34.6zM62 39a2 2 0 1 1 2 2 2 2 0 0 1-2-2zm-50 0a2 2 0 1 1 2 2 2 2 0 0 1-2-2z" transform="translate(4860 230)"/><rect id="Rectangle_727" data-name="Rectangle 727" class="cls-3" width="80" height="22" rx="1" transform="translate(4859 308)"/><rect id="Rectangle_570" data-name="Rectangle 570" class="cls-4" width="72" height="8" rx="1" transform="translate(4863 315)"/><path id="Union_96" data-name="Union 96" class="cls-2" d="M4 24a4.005 4.005 0 0 1-4-4V2a4 4 0 0 1 4-4h76a4 4 0 0 1 4 4v18a4 4 0 0 1-4 4zm76-2a2 2 0 0 0 2-2V2a2 2 0 0 0-2-2H4a2 2 0 0 0-2 2v18a2 2 0 0 0 2 2h7V0h2v22h10V0h2v22h10V0h2v22h10V0h2v22h10V0h2v22h10V0h2v22z" transform="translate(4857 308)"/></g></svg>