<svg xmlns="http://www.w3.org/2000/svg" viewBox="3546 1376 86 102.001"><defs><style>.cls-1{fill:#333}.cls-2{fill:#fc921f}.cls-3{fill:#fb5c3f}.cls-4{fill:#fff}</style></defs><g id="Group_1248" data-name="Group 1248" transform="translate(-829 251)"><path id="Subtraction_80" data-name="Subtraction 80" class="cls-1" d="M56 102H8a8.009 8.009 0 0 1-8-8V8a8.009 8.009 0 0 1 8-8h48a8.009 8.009 0 0 1 8 8v2.047Q63.256 10 62.5 10c-.167 0-.333 0-.5.005V8a6.007 6.007 0 0 0-6-6H8a6.007 6.007 0 0 0-6 6v86a6.007 6.007 0 0 0 6 6h48a6.007 6.007 0 0 0 6-6V72.428l.5.572c0-.005.548-.618 1.5-1.741V94a8.009 8.009 0 0 1-8 8z" transform="translate(4375 1125)"/><path id="Subtraction_81" data-name="Subtraction 81" class="cls-2" d="M50 90H2a2 2 0 0 1-2-2V2a2 2 0 0 1 2-2h48a2 2 0 0 1 2 2v2.43A23.525 23.525 0 0 0 33 27.5c0 9.267 11.9 25.365 19 34.135V88a2 2 0 0 1-2 2z" transform="translate(4381 1131)"/><path id="Path_560" data-name="Path 560" class="cls-1" d="M24 .5A23.5 23.5 0 0 1 47.5 24C47.5 36.979 24 63.5 24 63.5S.5 36.979.5 24A23.5 23.5 0 0 1 24 .5z" transform="translate(4413.5 1134.5)"/><path id="Path_561" data-name="Path 561" class="cls-3" d="M22.239.5a21.739 21.739 0 0 1 21.739 21.739c0 12.006-21.739 36.54-21.739 36.54S.5 34.245.5 22.239A21.739 21.739 0 0 1 22.239.5z" transform="translate(4415.3 1136.5)"/><circle id="Ellipse_452" data-name="Ellipse 452" class="cls-1" cx="11.9" cy="11.9" r="11.9" transform="translate(4425.5 1146.1)"/><circle id="Ellipse_406" data-name="Ellipse 406" class="cls-4" cx="9.9" cy="9.9" r="9.9" transform="translate(4427.5 1148.1)"/><rect id="Rectangle_579" data-name="Rectangle 579" class="cls-1" width="11" height="2" rx="1" transform="translate(4402 1215)"/><rect id="Rectangle_580" data-name="Rectangle 580" class="cls-1" width="24" height="2" rx="1" transform="translate(4395 1133)"/></g></svg>