<svg xmlns="http://www.w3.org/2000/svg" viewBox="3474 14143 60 60"><defs><style>.cls-1{fill:#26a6d1}.cls-2{fill:#fff}</style></defs><g id="Group_1019" data-name="Group 1019" transform="translate(2547 6154)"><path id="Path_3" data-name="Path 3" class="cls-1" d="M30 0A30 30 0 1 1 0 30 30 30 0 0 1 30 0z" transform="translate(927 7989)"/><path id="Path_4" data-name="Path 4" class="cls-2" d="M99.342 85.312a14.939 14.939 0 0 1-4.2 1.119 7.153 7.153 0 0 0 3.216-3.931 14.822 14.822 0 0 1-4.644 1.723 7.406 7.406 0 0 0-5.336-2.239 7.2 7.2 0 0 0-7.309 7.093 6.885 6.885 0 0 0 .189 1.618 20.97 20.97 0 0 1-15.067-7.414 6.892 6.892 0 0 0-.99 3.566 7.036 7.036 0 0 0 3.251 5.9 7.432 7.432 0 0 1-3.313-.889v.09A7.157 7.157 0 0 0 71 98.916a7.561 7.561 0 0 1-1.926.249 7.372 7.372 0 0 1-1.374-.127 7.291 7.291 0 0 0 6.831 4.928A14.946 14.946 0 0 1 65.454 107a15.373 15.373 0 0 1-1.746-.1 21.157 21.157 0 0 0 11.209 3.189 20.343 20.343 0 0 0 20.8-20.19l-.021-.919a14.589 14.589 0 0 0 3.646-3.668z" transform="translate(876.413 7923.898)"/></g></svg>