<svg xmlns="http://www.w3.org/2000/svg" viewBox="2994 14143 60 60"><defs><style>.cls-1{fill:#4d76a1}.cls-2{fill:#fff;fill-rule:evenodd}</style></defs><g id="Group_1015" data-name="Group 1015" transform="translate(2728 6117)"><g id="Group_11" data-name="Group 11" transform="translate(266 8026)"><circle id="XMLID_11_" class="cls-1" cx="30" cy="30" r="30"/></g><path id="Path_5" data-name="Path 5" class="cls-2" d="M37.213 61.234h2.355a1.986 1.986 0 0 0 1.074-.47 1.723 1.723 0 0 0 .324-1.034s-.046-3.159 1.42-3.625c1.445-.458 3.3 3.054 5.269 4.4a3.729 3.729 0 0 0 2.618.8l5.261-.073s2.752-.17 1.447-2.333c-.107-.177-.76-1.6-3.911-4.526-3.3-3.062-2.857-2.566 1.117-7.862 2.42-3.225 3.387-5.194 3.085-6.038-.288-.8-2.068-.591-2.068-.591l-5.923.037a1.345 1.345 0 0 0-.765.135 1.66 1.66 0 0 0-.523.636 34.3 34.3 0 0 1-2.193 4.62c-2.638 4.479-3.692 4.715-4.123 4.437-1-.648-.752-2.6-.752-3.993 0-4.34.658-6.15-1.282-6.618a10.114 10.114 0 0 0-2.764-.275c-2.113-.022-3.9.006-4.915.5-.674.33-1.194 1.065-.877 1.108a2.658 2.658 0 0 1 1.748.879 5.715 5.715 0 0 1 .586 2.68s.349 5.109-.814 5.744c-.8.435-1.894-.453-4.245-4.517a37.772 37.772 0 0 1-2.115-4.382 1.76 1.76 0 0 0-.488-.66 2.454 2.454 0 0 0-.91-.367l-5.629.037s-.845.024-1.155.391c-.276.327-.022 1-.022 1s4.407 10.309 9.4 15.5a13.515 13.515 0 0 0 9.77 4.45z" transform="translate(257.654 8007.925)"/></g></svg>