<svg xmlns="http://www.w3.org/2000/svg" viewBox="3114.001 14143 60 59.996"><defs><style>.cls-1{fill:#2e5c82}</style></defs><g id="Group_1016" data-name="Group 1016" transform="translate(2581 6187)"><path id="Subtraction_8" data-name="Subtraction 8" class="cls-1" d="M30 60a30 30 0 1 1 30-30 30.033 30.033 0 0 1-30 30zm-8.664-48A9.343 9.343 0 0 0 12 21.332v17.335A9.343 9.343 0 0 0 21.336 48h17.332A9.341 9.341 0 0 0 48 38.667V21.332A9.341 9.341 0 0 0 38.668 12zm17.332 32H21.336A5.338 5.338 0 0 1 16 38.667V21.332A5.338 5.338 0 0 1 21.336 16h17.332A5.338 5.338 0 0 1 44 21.332v17.335A5.338 5.338 0 0 1 38.668 44zM30 20.667A9.333 9.333 0 1 0 39.333 30 9.343 9.343 0 0 0 30 20.667zm9.331-2a2 2 0 1 0 2 2 2 2 0 0 0-1.998-2.002zM30 35.332A5.332 5.332 0 1 1 35.333 30 5.34 5.34 0 0 1 30 35.332z" transform="translate(533 7956)"/></g></svg>