<svg xmlns="http://www.w3.org/2000/svg" viewBox="3234 14143 60 60"><defs><style>.cls-1{fill:#61a8de}.cls-2{fill:#fff}</style></defs><g id="Group_1017" data-name="Group 1017" transform="translate(2573 6194)"><path id="Path_15" data-name="Path 15" class="cls-1" d="M30 0A30 30 0 1 1 0 30 30 30 0 0 1 30 0z" transform="translate(661 7949)"/><path id="Path_10" data-name="Path 10" class="cls-2" d="M77.895 99.613l-30.181 11.761a1.1 1.1 0 0 0 .088 2.081l7.669 2.265 2.862 9.082a1.317 1.317 0 0 0 2.2.526l3.965-4.049 7.78 5.711a1.623 1.623 0 0 0 2.55-.976l5.153-24.636a1.553 1.553 0 0 0-2.086-1.765zm-3.784 5.467l-14.019 12.4a.753.753 0 0 0-.249.48l-.54 4.8a.145.145 0 0 1-.283.027l-2.22-7.161a.753.753 0 0 1 .322-.863L73.676 104.5a.366.366 0 0 1 .435.58z" transform="translate(625.987 7865.997)"/></g></svg>