<svg xmlns="http://www.w3.org/2000/svg" viewBox="3479 2599 96 95"><defs><style>.cls-1{fill:#333}.cls-2{fill:#fb5c3f}.cls-3{fill:#ffdcb5}.cls-4{fill:#fc921f}.cls-5{fill:#fff}</style></defs><g id="Symbol_63_1" data-name="Symbol 63 – 1" transform="translate(-814 1467)"><path id="Union_118" data-name="Union 118" class="cls-1" d="M54 60.6v-3h2.85l.3 3zm-6 0v-3h3v3zm-6 0v-3h3v3zm-6 0v-3h3v3zm-6 0v-3h3v3zm-6 0v-3h3v3zm-6 0v-3h3v3zm-6 0v-3h3v3zm-6 0v-3h3v3zm-6 0v-3h3v3zM59.251 57a6.287 6.287 0 0 0 2.1-1.35l2.1 2.1a12.865 12.865 0 0 1-3 1.949zm3.45-3.45a7.41 7.41 0 0 0 .75-2.4l3 .45a8.516 8.516 0 0 1-1.051 3.3zm-.15-7.05l2.549-1.65a9.032 9.032 0 0 1 1.35 3.3l-3 .6a7.07 7.07 0 0 0-.9-2.25zM58.8 43.35l1.05-2.85a12.264 12.264 0 0 1 3 1.8l-1.95 2.25a9.548 9.548 0 0 0-2.1-1.2zm-5.4-.45v-3h2.85a10.04 10.04 0 0 1 0 3zm-6 0v-3h3v3zm-6 0v-3h3v3zm-6 0v-3h3v3zm-6.45-1.05l1.2-2.7a15.753 15.753 0 0 0 2.55.6l-.45 3a11.921 11.921 0 0 1-3.3-.9zm-5.4-3.9L25.8 36a7.34 7.34 0 0 0 1.949 1.8l-1.8 2.4a11.275 11.275 0 0 1-2.399-2.25zm-2.85-6l3-.75a12.642 12.642 0 0 0 .751 2.55l-2.7 1.35a11.136 11.136 0 0 1-1.051-3.15zm-.3-3.3a21.468 21.468 0 0 1 .6-3.3l2.85.9a7.01 7.01 0 0 0-.45 2.55zm2.1-6.45a11.211 11.211 0 0 1 2.1-2.551l2.1 2.1a20.119 20.119 0 0 0-1.65 2.1zm4.8-4.65a33.063 33.063 0 0 1 3.15-1.35l.751 2.85A16.589 16.589 0 0 0 28.8 20.1zm30.15-1.65a6.632 6.632 0 0 0 2.4-.9l1.35 2.7a8.771 8.771 0 0 1-3.3 1.2zm-5.7 3v-3h3v3zm-6 0v-3h3v3zm-6 0v-3h3v3zm-5.85 0l-.15-3h3v3zm27.9-5.55A7.934 7.934 0 0 0 63 11.1l2.85 1.2a12.281 12.281 0 0 1-1.8 3zM63.6 9V6.15h3v3zm0-2.85zm0-3.15V0h3v3z" transform="translate(4322.4 1166.4)"/><g id="Group_1202" data-name="Group 1202" transform="translate(-109 291)"><g id="Group_1201" data-name="Group 1201"><path id="Rectangle_696" data-name="Rectangle 696" class="cls-2" transform="translate(4404 851)" d="M0 0h92v18H0z"/><path id="Rectangle_728" data-name="Rectangle 728" class="cls-3" transform="translate(4404 843)" d="M0 0h92v6H0z"/><path id="Union_117" data-name="Union 117" class="cls-1" d="M94 30H0V0h96v30zm0-2V10H77v18zm-19 0V10H59v18zm-18 0V10H39v18zm-20 0V10H21v18zm-18 0V10H2v18zM94 8V2H77v6zM75 8V2H59v6zM57 8V2H39v6zM37 8V2H21v6zM19 8V2H2v6z" transform="translate(4402 841)"/></g><g id="Group_1200" data-name="Group 1200" transform="translate(-139 -96)"><path id="Path_629" data-name="Path 629" class="cls-1" d="M24 .5A23.5 23.5 0 0 1 47.5 24C47.5 36.979 24 63.5 24 63.5S.5 36.979.5 24A23.5 23.5 0 0 1 24 .5z" transform="translate(4540.5 968.5)"/><path id="Path_630" data-name="Path 630" class="cls-4" d="M22.239.5a21.739 21.739 0 0 1 21.739 21.739c0 12.006-21.739 36.54-21.739 36.54S.5 34.245.5 22.239A21.739 21.739 0 0 1 22.239.5z" transform="translate(4542.3 970.5)"/><circle id="Ellipse_453" data-name="Ellipse 453" class="cls-1" cx="11.9" cy="11.9" r="11.9" transform="translate(4552.5 980.1)"/><circle id="Ellipse_428" data-name="Ellipse 428" class="cls-5" cx="9.9" cy="9.9" r="9.9" transform="translate(4554.5 982.1)"/></g></g></g></svg>